<?xml version="1.0" encoding="UTF-8"?>
<svg version="1.1" xmlns="http://www.w3.org/2000/svg" width="512" height="512">
<path d="M0 0 C3.11773664 2.67664207 6.19670411 5.38988746 9.2421875 8.1484375 C9.79382568 8.64303467 10.34546387 9.13763184 10.91381836 9.6472168 C16.38293918 14.69184359 19.97220924 19.34503017 20.453125 26.92578125 C20.34574057 36.82304651 10.64214716 44.02329633 4.09608459 50.53979492 C3.39181617 51.24491777 2.68754774 51.95004063 1.96193784 52.67653084 C-0.37709607 55.01719993 -2.71966398 57.35429847 -5.06225586 59.69140625 C-6.74821092 61.37707899 -8.43394532 63.06297245 -10.11947632 64.74906921 C-14.20810933 68.83795878 -18.29902441 72.92455448 -22.39097177 77.01012701 C-27.15578743 81.76776912 -31.9177524 86.52826029 -36.67955286 91.28891993 C-45.17023495 99.77741801 -53.66314382 108.26368449 -62.1574707 116.74853516 C-70.40474186 124.98661532 -78.65095314 133.22575404 -86.89575195 141.46630859 C-87.40468913 141.97498305 -87.91362631 142.48365751 -88.43798583 143.00774634 C-90.99138481 145.5598402 -93.54476308 148.11195478 -96.09813106 150.66407967 C-117.25231546 171.80791174 -138.41015855 192.94807949 -159.5703125 214.0859375 C-159.2403125 215.0759375 -158.9103125 216.0659375 -158.5703125 217.0859375 C-126.8903125 217.5809375 -126.8903125 217.5809375 -94.5703125 218.0859375 C-94.5703125 211.4859375 -94.5703125 204.8859375 -94.5703125 198.0859375 C-91.47672546 191.89876342 -89.29001114 188.32583705 -82.5703125 186.0859375 C-81.17064973 185.99164738 -79.76697496 185.9511027 -78.364151 185.94549561 C-77.50756393 185.93978546 -76.65097687 185.93407532 -75.76843262 185.92819214 C-74.83172729 185.92707428 -73.89502197 185.92595642 -72.92993164 185.92480469 C-71.94105453 185.91983978 -70.95217743 185.91487488 -69.93333435 185.90975952 C-66.65737212 185.89513681 -63.38145828 185.88833639 -60.10546875 185.8828125 C-57.83247374 185.87706201 -55.55947874 185.87130427 -53.28648376 185.86553955 C-48.51919325 185.85502986 -43.75191961 185.84918669 -38.98461914 185.84570312 C-32.86993125 185.84021244 -26.75546537 185.81617189 -20.64084721 185.78773117 C-15.94574832 185.76912895 -11.25070323 185.76390052 -6.5555706 185.76236725 C-4.30087505 185.75933573 -2.04618056 185.7512905 0.20847893 185.73818207 C3.3591299 185.72116909 6.50923412 185.7229901 9.65991211 185.72949219 C11.06193375 185.71567001 11.06193375 185.71567001 12.49227905 185.7015686 C18.77647998 185.74229166 18.77647998 185.74229166 21.98170471 187.42852783 C24.16019118 189.92209651 24.36418583 191.81085418 24.4296875 195.0859375 C22.77459906 198.91877389 21.24571887 200.53002153 17.4296875 202.0859375 C15.43822861 202.33203316 15.43822861 202.33203316 13.30413818 202.32644653 C12.08425201 202.33057053 12.08425201 202.33057053 10.83972168 202.33477783 C9.95643188 202.32758728 9.07314209 202.32039673 8.16308594 202.31298828 C6.75769562 202.31342636 6.75769562 202.31342636 5.32391357 202.31387329 C2.22886882 202.31248061 -0.86593483 202.29692216 -3.9609375 202.28125 C-6.10756295 202.27751965 -8.25419011 202.27467278 -10.40081787 202.27267456 C-16.04956771 202.26503982 -21.69821464 202.24539261 -27.34692383 202.2232666 C-33.11147672 202.20280481 -38.87604625 202.19367212 -44.640625 202.18359375 C-55.95056604 202.16214664 -67.26043071 202.12801253 -78.5703125 202.0859375 C-78.5703125 207.3659375 -78.5703125 212.6459375 -78.5703125 218.0859375 C-8.2803125 217.5909375 -8.2803125 217.5909375 63.4296875 217.0859375 C63.4296875 212.4659375 63.4296875 207.8459375 63.4296875 203.0859375 C61.3878125 202.9621875 59.3459375 202.8384375 57.2421875 202.7109375 C52.89562907 202.44750972 49.35822898 202.02534406 45.4296875 200.0859375 C43.26249544 197.4262018 43.43433887 195.99756154 43.6171875 192.5234375 C44.43901051 189.04649401 44.69591854 188.15461102 47.4296875 186.0859375 C50.79198948 185.42658744 54.19738256 185.57656175 57.6171875 185.5859375 C58.53822266 185.55757812 59.45925781 185.52921875 60.40820312 185.5 C66.96023205 185.48139949 71.39583175 186.80329762 76.4296875 191.0859375 C79.61928714 195.30444024 80.56461346 199.19630244 80.52734375 204.4140625 C80.52412109 205.21328125 80.52089844 206.0125 80.51757812 206.8359375 C80.50919922 207.6609375 80.50082031 208.4859375 80.4921875 209.3359375 C80.48767578 210.17640625 80.48316406 211.016875 80.47851562 211.8828125 C80.46676711 213.95055151 80.44883272 216.01825374 80.4296875 218.0859375 C81.2753125 218.03953125 82.1209375 217.993125 82.9921875 217.9453125 C89.93919236 217.72427144 95.82406943 217.57106777 101.4296875 222.0859375 C108.94020313 231.52222637 107.10837757 244.84657358 106.12109375 256.31640625 C103.17627082 281.04770682 91.56999027 305.46954043 71.89892578 321.31933594 C62.67801337 328.51627851 52.29653198 335.70081779 40.71411133 338.171875 C39.90992264 338.34509277 39.10573395 338.51831055 38.2771759 338.69677734 C37.66750473 338.8252002 37.05783356 338.95362305 36.4296875 339.0859375 C36.74041199 340.18291962 37.05113647 341.27990173 37.37127686 342.41012573 C40.16163616 352.32131258 42.76289305 362.26096981 45.20197296 372.2638588 C46.38316123 377.08218441 47.59722522 381.8923728 48.80591202 386.70385933 C49.85632745 390.89280865 50.89438349 395.08413951 51.90771484 399.28222656 C52.90282202 403.4018605 53.93000777 407.51230371 54.97902679 411.61852646 C55.3684625 413.16644306 55.74650481 414.71727772 56.11222076 416.27096939 C58.13068353 424.81587658 59.99805404 431.1642886 67.42120361 436.60768127 C72.45664746 440.31379824 74.66428753 446.99406757 76.12109375 452.87890625 C77.25763991 461.16971139 75.54715653 469.20391094 71.5546875 476.5234375 C65.93401957 483.30130176 60.04994937 488.76589095 51.4296875 491.0859375 C42.54227183 491.87797662 34.19767472 491.98524894 26.4296875 487.0859375 C25.80835938 486.7353125 25.18703125 486.3846875 24.546875 486.0234375 C17.53265638 481.65093758 13.73280847 475.02776449 11.4921875 467.2109375 C9.76400231 459.25111984 10.41914588 452.61229154 13.4296875 445.0859375 C12.4396875 438.1559375 12.4396875 438.1559375 11.4296875 431.0859375 C-24.2103125 431.0859375 -59.8503125 431.0859375 -96.5703125 431.0859375 C-96.9003125 433.7259375 -97.2303125 436.3659375 -97.5703125 439.0859375 C-97.85859794 440.52700197 -98.17443149 441.96335553 -98.53833008 443.38720703 C-98.81916191 444.4984343 -98.81916191 444.4984343 -99.10566711 445.6321106 C-99.3066954 446.4032016 -99.50772369 447.1742926 -99.71484375 447.96875 C-99.92590256 448.78665009 -100.13696136 449.60455017 -100.35441589 450.44723511 C-100.79970353 452.16394032 -101.24776692 453.87992773 -101.69848633 455.59521484 C-102.38195759 458.20766976 -103.04768242 460.82424996 -103.71289062 463.44140625 C-104.14996132 465.1174696 -104.58807712 466.79326083 -105.02734375 468.46875 C-105.22229935 469.24388947 -105.41725494 470.01902893 -105.61811829 470.81765747 C-107.29296335 477.07254494 -109.97104533 482.10179605 -115.0078125 486.3359375 C-115.56339844 486.81546875 -116.11898437 487.295 -116.69140625 487.7890625 C-122.81057748 492.01269004 -129.40014793 491.76384397 -136.5703125 491.0859375 C-143.28646238 489.34348811 -147.66454252 484.62542291 -151.5703125 479.0859375 C-156.03463242 470.15729766 -153.15995612 460.4293079 -150.73828125 451.30859375 C-149.10221165 446.79435489 -149.10221165 446.79435489 -146.5703125 445.0859375 C-139.8203125 444.3359375 -139.8203125 444.3359375 -136.0703125 446.5859375 C-133.63498193 450.64482178 -133.98873617 454.6817834 -135.06640625 459.13671875 C-135.25332031 459.80058594 -135.44023437 460.46445312 -135.6328125 461.1484375 C-136.71501209 465.03975093 -136.52158283 468.12231112 -135.5703125 472.0859375 C-133.63299722 474.45004238 -133.63299722 474.45004238 -130.1328125 474.3984375 C-126.69195332 474.42317316 -126.69195332 474.42317316 -124.92336464 472.79489899 C-122.6209756 469.88688526 -122.04751401 466.30185855 -121.16943359 462.76367188 C-120.94936646 461.91237198 -120.72929932 461.06107208 -120.50256348 460.18397522 C-119.77303368 457.35165594 -119.05842834 454.5157874 -118.34375 451.6796875 C-117.83242754 449.68250475 -117.32017335 447.68556034 -116.80703735 445.68884277 C-115.44994496 440.39780872 -114.10538136 435.10366776 -112.76342773 429.80877686 C-111.43155587 424.56207212 -110.08848672 419.31823952 -108.74609375 414.07421875 C-106.66322518 405.9324394 -104.58652295 397.78911486 -102.51464844 389.64453125 C-99.79199346 378.94363376 -97.04957307 368.24789256 -94.296875 357.5546875 C-94.10249218 356.79948318 -93.90810936 356.04427887 -93.70783615 355.26618958 C-92.66265344 351.20593539 -91.61661642 347.14590316 -90.5703125 343.0859375 C-95.5203125 343.0859375 -100.4703125 343.0859375 -105.5703125 343.0859375 C-105.81007309 344.11866287 -106.04983368 345.15138824 -106.29685974 346.21540833 C-108.68422937 356.45564732 -111.19053298 366.66011886 -113.79296875 376.84765625 C-113.98414213 377.59685648 -114.17531551 378.34605671 -114.37228203 379.11795998 C-115.37877545 383.06116401 -116.38738212 387.00382045 -117.39770508 390.94604492 C-118.43452584 394.99365932 -119.46329342 399.04327807 -120.49044132 403.09335613 C-121.289752 406.2387165 -122.09513435 409.38249933 -122.90215874 412.52588844 C-123.28439173 414.01914756 -123.66433275 415.51299543 -124.04185677 417.00745201 C-124.5684091 419.08960868 -125.10359855 421.16936647 -125.64086914 423.2487793 C-125.94191055 424.42772263 -126.24295197 425.60666595 -126.55311584 426.82133484 C-129.06875126 434.8950441 -129.06875126 434.8950441 -132.3828125 437.5234375 C-135.51716677 438.32941431 -137.48195477 438.05104929 -140.5703125 437.0859375 C-143.0078125 435.0234375 -143.0078125 435.0234375 -144.5703125 432.0859375 C-144.14608568 426.45636406 -142.96620311 421.14888166 -141.54492188 415.69799805 C-141.34155716 414.90185593 -141.13819244 414.10571381 -140.92866516 413.28544617 C-140.26185 410.67994599 -139.5880625 408.07630619 -138.9140625 405.47265625 C-138.44666261 403.65291935 -137.97966858 401.83307817 -137.51306152 400.01313782 C-136.53755084 396.21233431 -135.55889129 392.41236171 -134.57763672 388.61303711 C-133.31921093 383.7405031 -132.06601039 378.86664569 -130.81481171 373.9922514 C-129.62035019 369.33946904 -128.42367357 364.6872575 -127.2265625 360.03515625 C-126.99821213 359.1472962 -126.76986176 358.25943615 -126.53459167 357.34467125 C-125.88949929 354.83843657 -125.24287513 352.33260266 -124.59570312 349.8269043 C-124.30890434 348.71179474 -124.30890434 348.71179474 -124.01631165 347.57415771 C-123.27540126 344.71112216 -122.50588007 341.89264021 -121.5703125 339.0859375 C-122.12138672 338.99014404 -122.67246094 338.89435059 -123.24023438 338.7956543 C-129.07944386 337.657703 -133.87398681 335.75943671 -139.0703125 332.8984375 C-139.81224854 332.49625 -140.55418457 332.0940625 -141.31860352 331.6796875 C-146.84824071 328.62081674 -151.82129196 325.26872867 -156.5703125 321.0859375 C-157.364375 320.43367188 -158.1584375 319.78140625 -158.9765625 319.109375 C-165.87331038 313.25565381 -171.5226028 306.57158359 -176.5703125 299.0859375 C-176.5703125 298.4259375 -176.5703125 297.7659375 -176.5703125 297.0859375 C-177.82054199 297.10164795 -179.07077148 297.1173584 -180.35888672 297.13354492 C-185.03671725 297.18820934 -189.71452005 297.22241945 -194.39257812 297.25073242 C-196.40987917 297.26573634 -198.42714806 297.28614605 -200.44433594 297.31225586 C-203.35880513 297.34901103 -206.27283976 297.36574818 -209.1875 297.37890625 C-210.52093948 297.40213203 -210.52093948 297.40213203 -211.88131714 297.42582703 C-219.2751637 297.42777485 -226.55286711 296.51301314 -232.4453125 291.7734375 C-237.37411775 285.53994851 -239.9935594 281.3455458 -239.84375 273.30078125 C-238.99907045 266.45887692 -235.70089699 261.55423252 -230.44921875 257.27734375 C-225.68347823 254.25540849 -221.40636184 253.80841736 -215.86328125 253.890625 C-214.77518913 253.89486984 -214.77518913 253.89486984 -213.66511536 253.89920044 C-211.36250882 253.91033951 -209.06030023 253.93543184 -206.7578125 253.9609375 C-205.19076085 253.97097544 -203.62370307 253.98009987 -202.05664062 253.98828125 C-198.22771272 254.0102582 -194.39907994 254.04474411 -190.5703125 254.0859375 C-190.9003125 252.7659375 -191.2303125 251.4459375 -191.5703125 250.0859375 C-192.31152344 249.9828125 -193.05273438 249.8796875 -193.81640625 249.7734375 C-199.12734735 248.44758554 -203.07334516 244.47680819 -205.9375 239.90234375 C-209.39189451 232.62794363 -210.02385532 226.83779192 -208.1953125 219.0859375 C-207.34025716 214.93411746 -207.34025716 214.93411746 -208.67578125 211.1015625 C-209.88084484 209.85513517 -211.11444133 208.63599338 -212.3671875 207.4375 C-227.78321127 190.98280796 -232.35279406 165.15940513 -231.87890625 143.53515625 C-230.62538625 114.17366077 -216.09319245 92.10553157 -195.5703125 72.0859375 C-197.25763107 68.37709716 -199.5080257 65.7582279 -202.23046875 62.76953125 C-204.68018147 59.69132081 -204.78211501 56.63064279 -204.8828125 52.8359375 C-204.93888672 51.46695313 -204.93888672 51.46695313 -204.99609375 50.0703125 C-203.9462566 42.71182092 -198.64436001 37.72394298 -193.57421875 32.7265625 C-192.5683799 31.71997589 -192.5683799 31.71997589 -191.54222107 30.6930542 C-190.13127192 29.28443353 -188.71665799 27.8794751 -187.29858398 26.47802734 C-185.13410829 24.33721912 -182.98333805 22.1833229 -180.83398438 20.02734375 C-179.45652044 18.65545505 -178.07829097 17.28433448 -176.69921875 15.9140625 C-176.05948624 15.27341858 -175.41975372 14.63277466 -174.76063538 13.97271729 C-169.24157918 8.54027885 -164.91245364 5.56595006 -157.0546875 5.03125 C-149.57812036 5.19582852 -144.69090639 10.23134848 -139.5703125 15.0859375 C-135.57732922 11.77261095 -131.85642697 8.387923 -128.2578125 4.6484375 C-94.41294426 -29.31000412 -36.49799783 -29.54599824 0 0 Z M-124.09008789 23.29931641 C-125.27028252 24.46702576 -125.27028252 24.46702576 -126.47431946 25.6583252 C-129.04423845 28.20437371 -131.60664464 30.75780703 -134.16796875 33.3125 C-135.97050764 35.10605622 -137.77311608 36.89954255 -139.57579041 38.69296265 C-143.34240073 42.44314346 -147.10466378 46.19762453 -150.86450195 49.95458984 C-155.18002866 54.2664857 -159.50850714 58.56507317 -163.84310538 62.85778868 C-168.04873621 67.02423519 -172.24022736 71.20471676 -176.42687798 75.39023972 C-178.19320579 77.15239305 -179.96360737 78.9104737 -181.73832893 80.66417313 C-201.16412342 99.87803233 -215.85103083 120.39310499 -216.0078125 148.7734375 C-215.74340685 166.8989007 -210.11076127 184.92164874 -198.5703125 199.0859375 C-196.14755807 201.48210975 -196.14755807 201.48210975 -193.5703125 203.0859375 C-190.64337564 202.38221439 -190.64337564 202.38221439 -188.66796875 201.609375 C-184.00429582 200.44562794 -178.13149114 201.18684584 -173.61246562 202.77323192 C-171.55011983 203.31459114 -171.55011983 203.31459114 -169.95141339 202.08803087 C-169.42132381 201.55604269 -168.89123423 201.02405451 -168.34508133 200.47594547 C-167.72752291 199.8683423 -167.10996449 199.26073912 -166.47369218 198.63472372 C-165.4697953 197.60898053 -165.4697953 197.60898053 -164.44561768 196.56251526 C-163.72757831 195.84874802 -163.00953895 195.13498078 -162.26974082 194.39958423 C-159.85168685 191.98980706 -157.45200581 189.5625137 -155.05175781 187.13500977 C-153.32812538 185.40996789 -151.60339302 183.68602444 -149.87763977 181.96310425 C-146.15696977 178.24357514 -142.44412458 174.5164911 -138.73810577 170.78238106 C-133.37979721 165.38348356 -128.007779 159.99840179 -122.63228557 154.61662089 C-113.9118795 145.88526439 -105.2027038 137.14279421 -96.50048828 128.39331055 C-88.04572755 119.89267358 -79.58574522 111.39728988 -71.11865234 102.90893555 C-70.59697901 102.3859486 -70.07530568 101.86296165 -69.53782406 101.32412661 C-66.92078018 98.70055766 -64.30363293 96.07709185 -61.68643427 93.4536773 C-39.96500975 71.68039645 -18.26195784 49.88888795 3.4296875 28.0859375 C-3.00132976 14.30334879 -19.97038851 4.23896434 -33.62109375 -0.91796875 C-34.59433594 -1.24667969 -35.56757813 -1.57539063 -36.5703125 -1.9140625 C-37.49199219 -2.23246094 -38.41367187 -2.55085938 -39.36328125 -2.87890625 C-71.77212474 -12.16915597 -101.35548337 0.58579705 -124.09008789 23.29931641 Z M-158.5703125 21.0859375 C-162.87696678 25.26921914 -167.16710665 29.46849629 -171.44262695 33.68359375 C-172.90008831 35.11587325 -174.36200037 36.54363813 -175.82836914 37.96679688 C-177.9325444 40.01048688 -180.02030271 42.06975359 -182.10546875 44.1328125 C-182.76684341 44.76838074 -183.42821808 45.40394897 -184.1096344 46.05877686 C-184.71033249 46.65909729 -185.31103058 47.25941772 -185.92993164 47.87792969 C-186.46509903 48.40199402 -187.00026642 48.92605835 -187.551651 49.46600342 C-188.78572716 51.06066647 -188.78572716 51.06066647 -188.36424255 53.14581299 C-187.30100902 55.7440336 -185.63293634 57.22292242 -183.5703125 59.0859375 C-180.71252233 57.78873826 -178.66022714 56.4222549 -176.45410156 54.19677734 C-175.87380188 53.6163266 -175.2935022 53.03587585 -174.69561768 52.43783569 C-174.08192322 51.81381866 -173.46822876 51.18980164 -172.8359375 50.546875 C-172.19791199 49.90601959 -171.55988647 49.26516418 -170.90252686 48.60488892 C-168.87037181 46.56155929 -166.84529032 44.51137768 -164.8203125 42.4609375 C-163.4418672 41.0724589 -162.06296614 39.6844326 -160.68359375 38.296875 C-157.30719356 34.89845053 -153.93711962 31.49386496 -150.5703125 28.0859375 C-151.3334375 27.1165625 -152.0965625 26.1471875 -152.8828125 25.1484375 C-153.31207031 24.60316406 -153.74132812 24.05789062 -154.18359375 23.49609375 C-155.62714341 21.81438673 -155.62714341 21.81438673 -158.5703125 21.0859375 Z M-190.5703125 219.0859375 C-193.02670708 222.77052937 -193.37915552 225.80824192 -192.5703125 230.0859375 C-190.14933478 233.43258317 -188.48271333 234.78180389 -184.5703125 236.0859375 C-180.91107554 236.0859375 -179.43134673 235.32836973 -176.5703125 233.0859375 C-174.25193792 230.76756292 -173.63507586 229.45832681 -173.0703125 226.2109375 C-173.76049429 221.89730132 -175.40588467 220.0439896 -178.5703125 217.0859375 C-183.46973251 215.31380686 -186.25694461 216.34106702 -190.5703125 219.0859375 Z M-163.61551082 240.95992428 C-164.70687419 243.00158406 -164.70687419 243.00158406 -164.5703125 245.0859375 C-167.90364583 246.75260417 -171.23697917 248.41927083 -174.5703125 250.0859375 C-175.49507778 261.23449676 -171.91427905 270.95001556 -167.5703125 281.0859375 C-85.0703125 281.0859375 -2.5703125 281.0859375 82.4296875 281.0859375 C87.93400338 267.87557938 90.67143521 257.12627877 90.50390625 243.05859375 C90.49854858 242.19045044 90.49319092 241.32230713 90.4876709 240.42785645 C90.47384429 238.31384033 90.45255317 236.19987517 90.4296875 234.0859375 C58.81079678 233.88064309 27.19209558 233.72136098 -4.42730583 233.62634953 C-8.15987165 233.61509312 -11.89243615 233.60344422 -15.625 233.59155273 C-16.36808922 233.58919194 -17.11117843 233.58683115 -17.8767855 233.58439881 C-29.91037653 233.54523204 -41.94358078 233.47426875 -53.97694232 233.39156234 C-66.32346264 233.30741102 -78.66978035 233.25741132 -91.01657569 233.23914105 C-98.63605318 233.2267888 -106.2544375 233.18777345 -113.87357847 233.1146893 C-119.71505877 233.06150964 -125.55597743 233.05583731 -131.39770699 233.06796837 C-133.79474054 233.06548865 -136.19181477 233.04753587 -138.58860207 233.01308823 C-141.85919269 232.96838052 -145.12508597 232.97903552 -148.39578247 233.00364685 C-149.34715155 232.97743128 -150.29852062 232.9512157 -151.27871907 232.92420572 C-158.02832481 233.06175548 -160.26286486 235.17585341 -163.61551082 240.95992428 Z M-222.5300293 271.98144531 C-223.7345601 274.00315394 -223.7345601 274.00315394 -223.5078125 276.1484375 C-222.23744632 278.77386094 -221.10958907 279.61803045 -218.5703125 281.0859375 C-215.94885756 281.34224039 -213.57505083 281.4366318 -210.9609375 281.37890625 C-210.23412781 281.37466141 -209.50731812 281.37041656 -208.75848389 281.36604309 C-206.44537746 281.3492988 -204.13315395 281.31165635 -201.8203125 281.2734375 C-200.24871053 281.25838508 -198.67709486 281.24469765 -197.10546875 281.23242188 C-193.26007835 281.19940945 -189.41534494 281.14765806 -185.5703125 281.0859375 C-186.03831961 277.02987585 -186.44984458 273.62005071 -188.5703125 270.0859375 C-193.07260724 269.98704448 -197.57426977 269.91446041 -202.07739258 269.86621094 C-203.60908012 269.8460977 -205.14069089 269.818803 -206.67211914 269.78417969 C-208.87405323 269.73564435 -211.07497232 269.71296754 -213.27734375 269.6953125 C-213.96182083 269.67466736 -214.64629791 269.65402222 -215.35151672 269.63275146 C-218.58872913 269.63122432 -220.15424437 269.6835016 -222.5300293 271.98144531 Z M-156.5703125 297.0859375 C-145.49451948 313.69962702 -127.28229723 322.28245746 -108.22577095 326.61953163 C-105.5335284 327.09239828 -103.04512523 327.22292237 -100.31344604 327.23983765 C-99.27384735 327.24843811 -98.23424866 327.25703857 -97.16314697 327.26589966 C-96.03278015 327.27015961 -94.90241333 327.27441956 -93.73779297 327.27880859 C-92.53863251 327.28698608 -91.33947205 327.29516357 -90.10397339 327.30358887 C-86.13182902 327.32841318 -82.15969231 327.34512294 -78.1875 327.359375 C-76.81194174 327.36474069 -75.43638352 327.37011821 -74.06082535 327.37550735 C-68.32689511 327.39713718 -62.59296756 327.41586272 -56.85900688 327.42712975 C-48.69103556 327.4432927 -40.52354565 327.47628056 -32.35575569 327.53353059 C-26.58810246 327.57254945 -20.82057611 327.59180053 -15.05279458 327.59705031 C-11.62199107 327.6006647 -8.19170174 327.61225562 -4.76104355 327.64515305 C22.30997905 327.87042488 45.11457581 324.20403083 65.4296875 305.0859375 C69.36750821 301.49755543 69.36750821 301.49755543 71.4296875 297.0859375 C-3.8103125 297.0859375 -79.0503125 297.0859375 -156.5703125 297.0859375 Z M-73.5703125 343.0859375 C-75.2203125 349.2940625 -76.8703125 355.5021875 -78.5703125 361.8984375 C-79.09238281 363.85499268 -79.61445313 365.81154785 -80.15234375 367.82739258 C-80.56279355 369.37834031 -80.97296861 370.92936079 -81.3828125 372.48046875 C-81.70668945 373.68817932 -81.70668945 373.68817932 -82.03710938 374.92028809 C-82.86136275 378.05097902 -83.5703125 380.83360526 -83.5703125 384.0859375 C-56.5103125 384.0859375 -29.4503125 384.0859375 -1.5703125 384.0859375 C-2.25547203 378.60466128 -3.0126304 373.86226394 -4.3828125 368.59375 C-4.55659424 367.92173553 -4.73037598 367.24972107 -4.90942383 366.55734253 C-5.27351011 365.15349729 -5.63998719 363.75027004 -6.00878906 362.34765625 C-6.57404085 360.19675032 -7.13134351 358.04389871 -7.6875 355.890625 C-9.19186976 349.33014008 -9.19186976 349.33014008 -11.5703125 343.0859375 C-32.0303125 343.0859375 -52.4903125 343.0859375 -73.5703125 343.0859375 Z M5.4296875 343.0859375 C6.07184942 348.16185976 7.07274612 353.05221242 8.34741211 358.0090332 C8.53941696 358.76762131 8.73142181 359.52620941 8.929245 360.30778503 C9.5596127 362.7934388 10.19548714 365.27764005 10.83203125 367.76171875 C11.27433912 369.49567063 11.71652166 371.22965448 12.15858459 372.96366882 C13.08316405 376.58623717 14.01074916 380.20802062 14.94018555 383.8293457 C16.13226194 388.47588169 17.31447912 393.12486463 18.49420834 397.77454853 C19.40305785 401.35045896 20.31823229 404.92472779 21.2352314 408.49855614 C21.67404257 410.21284368 22.11059839 411.92771015 22.54487419 413.64315224 C23.15084315 416.03378884 23.76555301 418.42200883 24.38256836 420.80981445 C24.56082153 421.52098419 24.73907471 422.23215393 24.92272949 422.96487427 C25.94260569 426.91407631 25.94260569 426.91407631 28.4296875 430.0859375 C30.01437427 429.63230579 31.59738674 429.17282298 33.1796875 428.7109375 C34.50226563 428.32808594 34.50226563 428.32808594 35.8515625 427.9375 C38.19558312 427.16326289 40.24140303 426.21261928 42.4296875 425.0859375 C39.71296271 414.54106833 36.99253557 403.99716212 34.26731968 393.45448399 C33.0021394 388.55956487 31.73825812 383.66431786 30.47729492 378.76831055 C29.26134563 374.04727559 28.04205042 369.32711668 26.82038689 364.6075573 C26.35387742 362.80286672 25.88859387 360.9978588 25.42453194 359.19253731 C24.77653727 356.67252129 24.12427238 354.15364824 23.47094727 351.63500977 C23.27817703 350.88119522 23.0854068 350.12738068 22.88679504 349.35072327 C22.21270819 345.93697969 22.21270819 345.93697969 20.4296875 343.0859375 C17.89919348 343.01280183 15.39663913 342.99346223 12.8671875 343.0234375 C12.15626953 343.02794922 11.44535156 343.03246094 10.71289062 343.03710938 C8.95178737 343.04892886 7.19072714 343.06686487 5.4296875 343.0859375 Z M-88.5703125 400.0859375 C-90.68865944 407.50981551 -90.68865944 407.50981551 -91.5703125 415.0859375 C-59.2303125 415.0859375 -26.8903125 415.0859375 6.4296875 415.0859375 C5.64833517 407.17396449 5.64833517 407.17396449 3.4296875 400.0859375 C-26.9303125 400.0859375 -57.2903125 400.0859375 -88.5703125 400.0859375 Z M30.0546875 448.2734375 C27.10491627 453.37881078 26.08291609 458.00530907 27.0546875 463.8359375 C28.98168834 468.39066676 30.977632 471.08332775 35.0546875 473.8984375 C40.18087842 475.70209727 45.26330581 476.14940915 50.48828125 474.39453125 C54.81900656 472.16863158 57.27957576 469.38616098 59.4296875 465.0859375 C60.88799852 459.05825194 60.63807658 454.49502667 57.4296875 449.0859375 C53.63893206 444.79554094 49.25297092 442.46237529 43.6171875 441.7109375 C38.188856 442.34956474 34.05475138 444.58916814 30.0546875 448.2734375 Z " fill="#000000" transform="translate(322.5703125,20.9140625)"/>
<path d="M0 0 C3.875 0.75 3.875 0.75 6.4375 2.8125 C8.3247456 6.66904535 7.97625046 8.63866495 6.875 12.75 C6.33875 13.595625 5.8025 14.44125 5.25 15.3125 C3.6603509 17.68299252 3.6603509 17.68299252 3.8125 20.5 C4.83012825 23.61274523 5.95433503 25.47438233 7.8125 28.125 C12.30324572 34.59124203 13.55713075 40.31588599 12.55078125 48.1484375 C11.20056569 53.34637718 8.49692206 59.04005083 3.8984375 62.0390625 C0.63459534 63.18581785 -1.82813487 62.58920203 -5.125 61.75 C-7.87291063 59.44530076 -8.09197415 58.00005283 -8.5625 54.4375 C-8.14348367 50.90579091 -7.80917368 50.00792976 -5.9375 47.25 C-3.66387424 43.83484165 -3.66387424 43.83484165 -5.125 40.1875 C-6.40991148 37.9790584 -7.76025561 35.80674167 -9.1875 33.6875 C-12.98420039 27.93121231 -13.84916643 22.50888669 -13.125 15.75 C-11.62374981 8.93760416 -7.7599958 0.52022318 0 0 Z " fill="#000000" transform="translate(290.125,131.25)"/>
<path d="M0 0 C2.64959026 1.53847176 2.92876626 2.79579661 3.9375 5.6875 C4.00257675 9.13656775 3.60485108 10.09571933 2 13 C0.56867277 15.64745491 0.00576272 16.86457609 -0.125 19.9375 C0.94997948 22.86383304 2.13121033 24.6844352 3.9375 27.1875 C8.28761096 33.42440608 9.7707284 40.16705632 8.4375 47.6875 C7.01545621 52.7885087 4.654573 58.31752416 0.05859375 61.23046875 C-3.22068907 62.45631071 -5.66596843 61.84866258 -9 61 C-11.83333391 58.62365543 -11.97885738 57.19733117 -12.375 53.5 C-11.96756574 49.69728023 -11.19485494 48.92647326 -9 46 C-7.90095384 40.6146738 -9.57162129 37.7260709 -12.4375 33.3125 C-13.07558594 32.40113281 -13.71367187 31.48976562 -14.37109375 30.55078125 C-17.629812 25.4478004 -17.62409407 19.91155775 -17 14 C-14.34091371 4.83771353 -10.07185625 -1.29959435 0 0 Z " fill="#000000" transform="translate(331,132)"/>
<path d="M0 0 C3.10839607 1.47239814 3.80049088 2.46381924 5 5.6875 C5 9.10199208 4.59923791 10.07219875 3 12.9375 C1.31807367 15.99767152 1 17.01900639 1 20.6875 C2.09958021 24.32985944 3.5197932 26.1550569 6 29 C9.86208419 35.54956857 9.77137061 41.57449826 9 49 C7.57270099 53.77230234 5.05201375 58.02057813 1 61 C-2.68451718 62.17590974 -4.28254275 62.33481338 -7.8125 60.6875 C-10 59 -10 59 -11 57 C-11.37606962 51.92306017 -10.96928577 49.9590477 -8 46 C-6.90095384 40.6146738 -8.57162129 37.7260709 -11.4375 33.3125 C-12.07558594 32.40113281 -12.71367187 31.48976562 -13.37109375 30.55078125 C-16.65111062 25.41444788 -16.50062497 19.94492154 -16 14 C-14.78680399 8.85283752 -12.64416669 4.87927422 -9 1 C-5.94306678 -0.52846661 -3.37015453 -0.23242445 0 0 Z " fill="#000000" transform="translate(367,132)"/>
</svg>
