<?xml version="1.0" encoding="UTF-8"?>
<svg version="1.1" xmlns="http://www.w3.org/2000/svg" width="512" height="512">
<path d="M0 0 C6.93649591 7.26680524 9.3125 14.15126607 9.3125 24.140625 C8.30360897 34.40702534 2.72969508 44.41253747 -1.375 53.75 C-1.98485575 55.16720288 -2.59326634 56.58503003 -3.19921875 58.00390625 C-3.58722656 58.91011719 -3.97523437 59.81632812 -4.375 60.75 C-3.55036003 61.01264397 -3.55036003 61.01264397 -2.70906067 61.28059387 C2.7290091 63.04774155 7.98568773 65.07002624 13.23828125 67.32421875 C14.83129209 67.99825517 16.42439365 68.67207721 18.01757812 69.34570312 C20.4918497 70.39637386 22.96510713 71.44930389 25.43676758 72.50610352 C27.84717179 73.53506484 30.2611646 74.55518989 32.67578125 75.57421875 C33.41435867 75.89291428 34.1529361 76.2116098 34.91389465 76.53996277 C38.43105836 78.0184026 40.75089163 78.75 44.625 78.75 C46.28743263 77.23789131 46.28743263 77.23789131 47.75 75.1875 C55.19032562 66.22095374 64.31028425 61.7222899 75.625 59.75 C89.85369472 58.58113408 100.48724192 62.95967213 111.875 71.0625 C119.01582419 78.04103273 125.16372111 88.56403569 125.73852539 98.76464844 C125.73328857 99.4559082 125.72805176 100.14716797 125.72265625 100.859375 C125.71943359 101.61347656 125.71621094 102.36757813 125.71289062 103.14453125 C125.70451172 103.92183594 125.69613281 104.69914062 125.6875 105.5 C125.68298828 106.29277344 125.67847656 107.08554687 125.67382812 107.90234375 C125.66208565 109.85159508 125.64415146 111.80080738 125.625 113.75 C126.65230225 114.17595459 127.67960449 114.60190918 128.73803711 115.04077148 C129.4280481 115.3268779 130.11805908 115.61298431 130.82897949 115.90776062 C132.41083576 116.56364337 133.99270475 117.21949544 135.57458496 117.87532043 C140.08330033 119.74462658 144.59177708 121.61450503 149.09985352 123.48535156 C157.82712731 127.10650417 166.55564657 130.72443207 175.29270935 134.32191467 C178.99482108 135.84648256 182.69582557 137.37372803 186.39675903 138.90115356 C188.15880218 139.62748626 189.92138728 140.35250576 191.68453979 141.07614136 C216.68349339 151.33774009 216.68349339 151.33774009 219.625 155.75 C219.96649948 158.96009513 219.91080109 161.08908499 218.625 164.0625 C215.61068925 166.6058247 212.4464408 166.85015761 208.625 166.75 C205.18277802 165.88254923 202.02628117 164.50428681 198.78515625 163.0703125 C197.84307816 162.67141312 196.90100006 162.27251373 195.93037415 161.86152649 C192.84193103 160.54950133 189.76511483 159.21220268 186.6875 157.875 C184.52053526 156.94993119 182.3527167 156.02686008 180.18408203 155.10571289 C175.76833525 153.22834001 171.35625927 151.34272184 166.94677734 149.45068359 C158.81523254 145.96810649 150.64526091 142.58054562 142.4682312 139.20648193 C139.97933434 138.17896841 137.49156517 137.14877157 135.00415039 136.11767578 C121.24261834 130.41318719 107.47287028 124.72858043 93.70321655 119.04373169 C75.90758628 111.69661449 58.12083244 104.32826582 40.33825684 96.94961548 C33.95939207 94.30298465 27.57944736 91.65896606 21.19921875 89.015625 C18.37772521 87.84648293 15.55624609 86.67730604 12.73477173 85.50811768 C10.9320746 84.76119318 9.12932119 84.0144045 7.32650757 83.26776123 C4.82949131 82.23357962 2.33269224 81.19887528 -0.1640625 80.1640625 C-0.89446243 79.86171692 -1.62486237 79.55937134 -2.37739563 79.24786377 C-6.72348074 77.44587724 -11.05399079 75.61134694 -15.375 73.75 C-15.80936599 94.38572575 -16.23049445 114.54094434 -11.375 134.75 C-11.16069336 135.65057129 -10.94638672 136.55114258 -10.72558594 137.47900391 C-0.02889418 180.9742127 25.43756473 220.23798335 61.625 246.75 C62.19138184 247.16604492 62.75776367 247.58208984 63.34130859 248.01074219 C96.05868351 271.68741924 134.98499311 284.24401951 175.25 284.0625 C176.08882721 284.06067719 176.92765442 284.05885437 177.79190063 284.05697632 C190.28515645 284.01127019 202.40572776 283.57216179 214.625 280.75 C215.39682617 280.57839355 216.16865234 280.40678711 216.96386719 280.22998047 C235.11885334 276.10250597 252.2557644 269.58486746 268.625 260.75 C269.23714355 260.42386719 269.84928711 260.09773438 270.47998047 259.76171875 C279.10401905 255.13766816 286.9559938 249.82831947 294.625 243.75 C295.4809375 243.09902344 296.336875 242.44804687 297.21875 241.77734375 C303.45388522 236.90379679 309.0737195 231.50721629 314.6875 225.9375 C315.43862061 225.19564453 316.18974121 224.45378906 316.96362305 223.68945312 C318.01996948 222.62694336 318.01996948 222.62694336 319.09765625 221.54296875 C320.04523804 220.59200317 320.04523804 220.59200317 321.01196289 219.62182617 C322.62338128 217.75187842 323.63042596 215.9992387 324.625 213.75 C324.10470215 213.61754883 323.5844043 213.48509766 323.04833984 213.34863281 C314.12208225 210.88351634 305.74430563 207.13697655 297.25 203.5 C293.86939237 202.05907231 290.48754788 200.6210637 287.10546875 199.18359375 C286.24492386 198.81727341 285.38437897 198.45095306 284.49775696 198.0735321 C278.45345704 195.50693269 272.38487151 193.00576345 266.30078125 190.53515625 C264.64818204 189.86057861 262.99567393 189.18577775 261.34326172 188.51074219 C258.9713266 187.54179423 256.59822379 186.57679101 254.21929932 185.62512207 C252.02556658 184.74697162 249.83859924 183.85360315 247.65234375 182.95703125 C247.01130203 182.70550797 246.37026031 182.45398468 245.70979309 182.19483948 C241.44886602 180.42483989 238.54440653 178.3286162 235.625 174.75 C235.625 171.20404442 235.90411556 168.88823859 237.8125 165.875 C240.51263066 164.19905683 242.42552004 163.95075878 245.625 163.75 C248.78627887 164.58189551 251.72330727 165.85868832 254.71875 167.15625 C255.59309692 167.52077271 256.46744385 167.88529541 257.36828613 168.26086426 C259.20741376 169.02892653 261.04393448 169.80325789 262.87792969 170.58349609 C265.50332125 171.69833087 268.13601681 172.79287974 270.7734375 173.87890625 C276.75551908 176.34269223 282.72647528 178.83292678 288.69775391 181.32275391 C301.29789009 186.57380743 313.93816924 191.71188388 326.625 196.75 C326.96756836 195.9029248 327.31013672 195.05584961 327.66308594 194.18310547 C328.94748358 191.01634112 330.23784906 187.85214448 331.53222656 184.68945312 C332.08929451 183.32486258 332.64402495 181.9593152 333.19628906 180.59277344 C333.9943909 178.6191281 334.80107177 176.6491733 335.609375 174.6796875 C336.09116211 173.49616699 336.57294922 172.31264648 337.06933594 171.09326172 C340.61210735 163.47952792 345.48655838 157.36363516 353.25 153.875 C360.39181824 151.55910943 368.61539412 151.55069587 375.5625 154.4375 C382.9146704 158.3084782 387.35904518 163.15112503 390.625 170.75 C394.20903312 185.56552543 386.62185731 199.17584543 381.02319336 212.61132812 C380.18115478 214.64028933 379.35534215 216.67542163 378.52929688 218.7109375 C373.4490844 231.04158764 367.79799592 239.84323695 355.4140625 245.81640625 C345.68275162 249.67537436 337.0688665 249.44881384 327.23828125 246.50390625 C326.37589844 246.25511719 325.51351563 246.00632812 324.625 245.75 C323.79871094 245.45609375 322.97242188 245.1621875 322.12109375 244.859375 C319.43454573 244.47720837 319.43454573 244.47720837 317.109375 246.63671875 C316.20703125 247.56097656 315.3046875 248.48523438 314.375 249.4375 C289.93417043 273.29870515 256.58949153 288.06123259 223.8125 296.0625 C222.82378906 296.30500488 221.83507812 296.54750977 220.81640625 296.79736328 C206.11547681 300.22774177 191.77746851 301.1608246 176.75 301.125 C175.84903595 301.12412384 174.9480719 301.12324768 174.01980591 301.12234497 C116.70600902 300.93905549 64.18099022 276.81925631 24.03076172 236.45825195 C-6.29778191 205.27689157 -30.24475455 158.48727464 -31.63671875 114.53515625 C-31.39545122 103.97914035 -31.39545122 103.97914035 -35.953125 95.14453125 C-39.06500922 93.65373943 -42.05555788 92.66916311 -45.375 91.75 C-54.11079528 86.70463252 -58.38850837 76.61242564 -61.0625 67.375 C-62.75671357 53.14360603 -57.24060164 40.83052294 -51.79370117 27.96411133 C-50.93265332 25.92602801 -50.08597954 23.88236431 -49.24023438 21.83789062 C-44.29765609 10.00697342 -39.81777929 0.0447997 -27.375 -5.25 C-17.96644015 -7.97353048 -7.81491901 -5.94175543 0 0 Z M-26.375 12.75 C-29.65604809 17.11255621 -31.76888643 21.61513216 -33.79296875 26.6328125 C-34.09568192 27.36950165 -34.39839508 28.1061908 -34.71028137 28.86520386 C-35.34437332 30.41196308 -35.97532647 31.96001244 -36.60327148 33.50927734 C-37.56359029 35.87768896 -38.53387691 38.24182311 -39.50585938 40.60546875 C-40.12298102 42.11434413 -40.73953726 43.6234509 -41.35546875 45.1328125 C-41.64399216 45.83705353 -41.93251556 46.54129456 -42.2297821 47.26687622 C-45.17044355 54.53906523 -46.82058166 60.63301131 -43.875 68.25 C-41.49605406 73.25695121 -37.85034722 76.56502749 -33.375 79.75 C-33.045 79.75 -32.715 79.75 -32.375 79.75 C-32.30506836 79.09926514 -32.23513672 78.44853027 -32.16308594 77.77807617 C-31.83559496 74.8288146 -31.48064574 71.88349329 -31.125 68.9375 C-30.96064453 67.40125977 -30.96064453 67.40125977 -30.79296875 65.83398438 C-30.67050781 64.85107422 -30.54804687 63.86816406 -30.421875 62.85546875 C-30.31713867 61.94949951 -30.21240234 61.04353027 -30.10449219 60.11010742 C-29.17692472 57.1091721 -28.08408127 56.26990895 -25.375 54.75 C-24.25996094 54.62882812 -23.14492188 54.50765625 -21.99609375 54.3828125 C-16.7625159 52.02290361 -15.93603729 48.54493514 -13.84960938 43.3671875 C-13.38361328 42.13226563 -12.91761719 40.89734375 -12.4375 39.625 C-11.69790039 37.80742187 -11.69790039 37.80742187 -10.94335938 35.953125 C-6.81029279 25.61337952 -6.81029279 25.61337952 -8.5 14.9375 C-10.85780131 12.18673181 -13.01036851 11.05465303 -16.375 9.75 C-20.84538145 9.75 -22.62279819 10.40487387 -26.375 12.75 Z M59.625 85.75 C61.90641561 88.32023611 64.00473746 89.53680125 67.17236328 90.8347168 C68.08986359 91.21488449 69.00736389 91.59505219 69.95266724 91.98674011 C70.94024017 92.38685806 71.92781311 92.78697601 72.9453125 93.19921875 C73.95971405 93.61669876 74.9741156 94.03417877 76.01925659 94.46430969 C79.25999693 95.79575841 82.5049891 97.11649874 85.75 98.4375 C87.9442777 99.33854207 90.13829152 100.24022705 92.33203125 101.14257812 C94.41122176 101.99536868 96.49064109 102.84760161 98.5703125 103.69921875 C99.5619339 104.10540939 100.5535553 104.51160004 101.57522583 104.93009949 C102.48642181 105.3008107 103.3976178 105.67152191 104.33642578 106.0534668 C105.54529953 106.54619331 105.54529953 106.54619331 106.77859497 107.0488739 C108.45163789 107.80916551 108.45163789 107.80916551 109.625 107.75 C110.16704186 99.34835112 108.33950496 93.17363772 103.9375 86 C97.17584272 79.42109022 90.62796497 76.42958094 81.3125 75.375 C72.4948513 76.27171004 65.90270998 79.61179469 59.625 85.75 Z M354.625 172.75 C352.51063114 175.89409396 351.11118958 179.2728772 349.625 182.75 C349.100271 183.89952148 349.100271 183.89952148 348.56494141 185.07226562 C347.36647968 187.70218164 346.21121342 190.34801419 345.0625 193 C344.66691895 193.86367188 344.27133789 194.72734375 343.86376953 195.6171875 C342.85472692 198.0302982 342.02571638 200.16402828 341.625 202.75 C343.24024919 206.17714209 343.24024919 206.17714209 345.625 208.75 C346.11928257 215.17567337 342.5868135 218.78551371 338.6328125 223.41796875 C337.97023438 224.18753906 337.30765625 224.95710938 336.625 225.75 C334.24265637 228.43001753 334.24265637 228.43001753 333.625 231.75 C341.05927593 233.17834468 346.2167944 232.71955134 352.56176758 228.4453125 C358.72351257 223.5030075 361.33364808 217.97854142 364.25 210.75 C364.71438477 209.64019775 365.17876953 208.53039551 365.65722656 207.38696289 C366.57579815 205.18377119 367.48558095 202.97689079 368.38574219 200.76611328 C369.44968533 198.17668191 370.55455315 195.61478184 371.6953125 193.05859375 C372.25603563 191.76858845 372.8160128 190.47825846 373.375 189.1875 C373.84421875 188.11371094 374.3134375 187.03992188 374.796875 185.93359375 C375.89537272 181.71059544 375.52143792 179.02463991 374.625 174.75 C371.42873784 170.89809432 369.37614847 168.91837966 364.375 168.4375 C359.74605157 168.8232457 358.05862851 169.61494789 354.625 172.75 Z " fill="#000000" transform="translate(86.375,211.25)"/>
<path d="M0 0 C2.47118784 2.94641627 2.625 5.1311779 2.625 8.9375 C-0.67741816 15.11734642 -5.91849226 19.68068893 -10.8828125 24.53515625 C-12.29120563 25.92835532 -13.69959025 27.32156314 -15.10746574 28.7152853 C-18.56365975 32.13331762 -22.03119648 35.53983158 -25.49951172 38.94555664 C-27.45214696 40.86370923 -29.40068193 42.78586871 -31.34518433 44.71226501 C-33.17271452 46.52193906 -35.00660071 48.3252218 -36.84744263 50.12135315 C-37.67525238 50.94248093 -38.50306213 51.7636087 -39.35595703 52.60961914 C-40.08557648 53.32654434 -40.81519592 54.04346954 -41.56692505 54.78211975 C-44.4987673 58.2771269 -45.77845554 61.70115409 -45.4375 66.25 C-44.52546407 72.72009017 -40.13109327 76.34212923 -35.56640625 80.640625 C-25.681789 90.06293276 -21.16363459 101.3393996 -20.38671875 114.875 C-20.32868517 130.04110795 -26.71915446 142.19476333 -37.20703125 152.765625 C-37.71057129 153.26513672 -38.21411133 153.76464844 -38.73291016 154.27929688 C-40.57799267 156.14248457 -42.3559149 158.05971791 -44.13671875 159.984375 C-45.44407887 161.36575191 -46.75266146 162.74597294 -48.0625 164.125 C-48.66771484 164.78556396 -49.27292969 165.44612793 -49.89648438 166.12670898 C-52.95437963 169.27115626 -55.22767208 171.29130713 -59.64453125 171.98828125 C-63.375 171.9375 -63.375 171.9375 -66.375 169.9375 C-68.87802921 166.18295618 -68.89483014 164.38582885 -68.375 159.9375 C-66.35888672 157.19018555 -66.35888672 157.19018555 -63.5546875 154.57421875 C-63.05840851 154.09733109 -62.56212952 153.62044342 -62.05081177 153.12910461 C-60.46633791 151.6099822 -58.86075947 150.1161845 -57.25 148.625 C-47.1662073 139.2030719 -37.87944063 130.14496336 -37.27734375 115.57421875 C-37.73887978 103.99889518 -43.94144923 95.89969453 -52.03564453 88.31494141 C-57.99449459 82.63010461 -61.89717104 75.77252673 -62.578125 67.45703125 C-62.78344761 55.59965079 -59.36298251 48.6426698 -51.375 39.9375 C-48.39837648 36.91370942 -45.3934948 33.91945128 -42.375 30.9375 C-74.28391291 40.63454989 -74.28391291 40.63454989 -97.13671875 62.6875 C-98.84656546 67.17517339 -99.66164241 71.69861347 -100.26293945 76.45483398 C-100.71768587 79.71364891 -101.22509404 81.74149325 -103.2421875 84.37890625 C-106.40140495 86.68756515 -108.56825345 86.48132094 -112.375 85.9375 C-115.3313804 83.91471341 -116.20725007 82.6616887 -117.015625 79.171875 C-118.34246295 67.23033348 -113.764205 54.99146112 -106.5625 45.625 C-105.19232835 44.03994903 -103.7976754 42.47560001 -102.375 40.9375 C-101.81554687 40.31230469 -101.25609375 39.68710937 -100.6796875 39.04296875 C-96.60340922 34.99410939 -91.89500978 32.57250569 -86.7265625 30.1796875 C-85.98117722 29.83222473 -85.23579193 29.48476196 -84.46781921 29.12677002 C-76.17303296 25.31059335 -67.69960794 21.98198382 -59.1875 18.6875 C-55.85853836 17.39146427 -52.53079632 16.09231325 -49.203125 14.79296875 C-48.37728409 14.47118149 -47.55144318 14.14939423 -46.70057678 13.81785583 C-41.27306748 11.69766039 -35.87195367 9.52030527 -30.484375 7.30078125 C-29.107067 6.73652664 -27.7297083 6.17239576 -26.35229492 5.60839844 C-24.4162281 4.81532733 -22.48212845 4.01874269 -20.5531311 3.20861816 C-18.80161547 2.47337575 -17.04350345 1.75390763 -15.28515625 1.03515625 C-13.81767944 0.42426147 -13.81767944 0.42426147 -12.32055664 -0.19897461 C-8.07301989 -1.44419114 -4.096936 -1.83283979 0 0 Z " fill="#000000" transform="translate(324.375,14.0625)"/>
<path d="M0 0 C0.97520096 0.38804306 1.95040192 0.77608612 2.95515442 1.17588806 C6.11775228 2.43643605 9.27579711 3.7079461 12.43359375 4.98046875 C14.60802098 5.85177297 16.78266398 6.72253889 18.95751953 7.59277344 C22.21246729 8.89561021 25.46705183 10.19930364 28.72027588 11.50643921 C34.91814732 13.99536744 41.1283901 16.44684882 47.359375 18.8515625 C49.37216493 19.63406627 51.38452711 20.41765765 53.396698 21.20175171 C55.18117331 21.89282696 56.97051657 22.57129173 58.76000977 23.24926758 C74.24738673 29.32195265 85.29116509 38.78854303 92.4609375 53.73828125 C97.30119712 65.51043622 97.05765723 77.46194634 97.05639648 89.97363281 C97.05860151 92.42660418 97.07686858 94.87913796 97.09570312 97.33203125 C97.09863469 98.90755057 97.10062107 100.48307199 97.1015625 102.05859375 C97.10874802 102.78371155 97.11593353 103.50882935 97.12333679 104.25592041 C97.10390843 108.60062374 96.56481143 112.15822762 94.87109375 116.16796875 C92.24461134 118.40534265 90.7927656 118.16384622 87.30859375 117.98046875 C83.83893467 117.16036751 82.9640659 116.86620022 80.87109375 114.16796875 C80.56298022 111.21638761 80.43010218 108.46550391 80.4296875 105.51171875 C80.40987572 104.22545593 80.40987572 104.22545593 80.3896637 102.91320801 C80.34874752 100.16476312 80.32712688 97.41664903 80.30859375 94.66796875 C80.68388997 70.47499933 80.68388997 70.47499933 69.93359375 49.48046875 C60.78790232 41.2682473 47.31571963 37.1558653 35.99609375 32.73046875 C34.61435479 32.18482318 33.23284323 31.6386014 31.8515625 31.09179688 C28.52731805 29.77724285 25.2001226 28.47036702 21.87109375 27.16796875 C24.65067905 30.70618971 27.51697342 33.78700912 30.80859375 36.85546875 C37.8124311 43.77666495 41.82497261 51.36482565 42.18359375 61.29296875 C42.0186621 71.20536106 37.61789675 78.31168416 30.87109375 85.16796875 C26.08517083 90.32417584 21.78514497 95.47725076 18 101.41796875 C16.87109375 103.16796875 16.87109375 103.16796875 15.87109375 104.16796875 C8.79862998 104.74767889 8.79862998 104.74767889 5.37109375 102.60546875 C3.18802897 99.05798848 3.20377223 97.30536218 3.87109375 93.16796875 C7.12926579 85.55677333 12.74179281 79.72986814 18.3828125 73.83203125 C22.93576895 69.02435516 22.93576895 69.02435516 24.80859375 62.85546875 C24.92074219 62.13746094 25.03289062 61.41945313 25.1484375 60.6796875 C24.23736266 52.4286858 16.70833179 46.71366325 11.109375 41.32421875 C10.1523219 40.38804036 9.19638209 39.45072264 8.24150085 38.5123291 C4.20942654 34.55312232 0.160466 30.61151738 -3.90161133 26.68310547 C-6.39588238 24.26939499 -8.87516253 21.84109169 -11.3459568 19.40336609 C-12.74021954 18.03662277 -14.15108264 16.68688031 -15.56217957 15.33752441 C-22.57261007 8.41089984 -22.57261007 8.41089984 -23.25708008 4.19726562 C-23.12769684 1.13938528 -23.00159604 -0.42428724 -21.12890625 -2.83203125 C-15.10221141 -7.51946057 -6.09696297 -2.47130099 0 0 Z " fill="#000000" transform="translate(129.12890625,84.83203125)"/>
<path d="M0 0 C9.37051558 6.52176316 14.22397724 19.75761267 16.40625 30.51171875 C18.76435348 43.68678198 17.84552965 58.91415592 10.40625 70.44921875 C8.53125 72.76171875 8.53125 72.76171875 6.53125 74.76171875 C2.99502389 75.08914709 0.42429558 75.16123914 -2.84375 73.69921875 C-4.64457987 71.55207544 -5.43820682 69.82902836 -5.71484375 67.02734375 C-5.3816734 63.96006117 -4.279224 61.48185636 -3.09375 58.63671875 C1.4959104 47.43179365 1.35491721 37.21730236 -2.46875 25.76171875 C-3.64090791 23.22064785 -4.89904527 21.08921197 -6.46875 18.76171875 C-7.61801266 19.71593683 -8.76305541 20.6752392 -9.90625 21.63671875 C-10.54433594 22.17039062 -11.18242187 22.7040625 -11.83984375 23.25390625 C-13.57680004 24.68399445 -13.57680004 24.68399445 -14.46875 26.76171875 C-14.015 27.75171875 -13.56125 28.74171875 -13.09375 29.76171875 C-9.63784376 37.45389715 -9.80176606 45.84679866 -12.46875 53.76171875 C-16.67961357 63.09464916 -22.43656116 68.31546292 -31.84375 72.13671875 C-39.91886442 74.80239879 -46.62469643 74.57336461 -54.4609375 71.3203125 C-56.90278861 70.64096482 -58.11899499 70.85058925 -60.46875 71.76171875 C-63.23997275 74.11598374 -63.23997275 74.11598374 -65.46875 76.76171875 C-65.46875 77.42171875 -65.46875 78.08171875 -65.46875 78.76171875 C-63.57542466 79.58004597 -61.67897267 80.39114143 -59.78125 81.19921875 C-58.72550781 81.65167969 -57.66976563 82.10414062 -56.58203125 82.5703125 C-46.97127375 86.2482059 -37.54121001 85.29845127 -27.87890625 82.37890625 C-24.70728819 81.56672529 -22.54538467 81.6361207 -19.46875 82.76171875 C-16.44168252 84.91252986 -15.59479209 86.02122149 -14.96875 89.69921875 C-15.60082646 93.57068704 -16.71591114 94.9778495 -19.46875 97.76171875 C-22.01078987 98.79211586 -24.14291861 99.49179166 -26.78125 100.07421875 C-27.48693115 100.23664063 -28.1926123 100.3990625 -28.91967773 100.56640625 C-44.63714558 103.90301666 -60.11534681 101.58199147 -74.01953125 93.4140625 C-83.25936372 87.18049131 -83.25936372 87.18049131 -85.46875 82.76171875 C-85.97649862 76.66873528 -85.36078005 73.59028836 -81.46875 68.76171875 C-79.05640369 66.08673938 -76.53023841 63.54336457 -73.96875 61.01171875 C-73.30488281 60.34011719 -72.64101563 59.66851562 -71.95703125 58.9765625 C-71.31121094 58.33332031 -70.66539062 57.69007812 -70 57.02734375 C-69.12698242 56.15770996 -69.12698242 56.15770996 -68.23632812 55.27050781 C-65.36674868 52.82106017 -63.08124188 51.84746761 -59.34375 51.32421875 C-55.51806048 51.75615144 -53.86883798 52.49342423 -50.59375 54.32421875 C-44.38246386 57.67093914 -40.07997149 56.76056725 -33.53125 54.94921875 C-30.13345283 52.99291129 -29.66575743 50.35274103 -28.46875 46.76171875 C-27.93977729 41.80151566 -27.67403056 37.42261358 -30.46875 33.13671875 C-33.08543419 28.72106418 -33.11187302 26.82631256 -32.46875 21.76171875 C-29.44425747 16.42925934 -25.35620126 12.31553144 -21.03125 8.01171875 C-20.37576172 7.34011719 -19.72027344 6.66851562 -19.04492188 5.9765625 C-13.64638709 0.57261294 -7.78234474 -3.90348621 0 0 Z " fill="#000000" transform="translate(452.46875,44.23828125)"/>
<path d="M0 0 C7.05897164 4.79049304 11.60284123 11.49736264 13.81640625 19.71484375 C14.84225411 31.82517753 13.73339118 41.17133872 5.90625 50.63671875 C-0.84903618 57.35412482 -9.1169814 60.69996468 -18.55859375 61.02734375 C-27.7166398 60.81465689 -35.16654091 57.58220996 -42.18359375 51.71484375 C-49.78116743 43.57103929 -52.38103534 34.75840983 -52.18359375 23.71484375 C-50.81659858 14.38476992 -45.62156527 5.82147784 -38.2109375 0 C-25.92809224 -7.78623524 -12.26811024 -7.22040835 0 0 Z M-33.62109375 18.52734375 C-36.23619276 23.86214573 -36.83127116 27.70363496 -34.99609375 33.40234375 C-31.62483365 39.56361221 -29.01978359 42.51335889 -22.18359375 44.71484375 C-16.91047658 45.26990872 -13.66453037 44.53978206 -9.18359375 41.71484375 C-5.39689017 38.3584474 -2.6337188 35.50088089 -1.8125 30.41796875 C-1.66242989 24.87420225 -2.29547474 20.96725443 -5.5703125 16.41015625 C-9.31082546 12.47944772 -13.79722132 10.56505205 -19.18359375 10.15234375 C-25.33287239 10.50338525 -29.7174849 14.02317969 -33.62109375 18.52734375 Z " fill="#000000" transform="translate(346.18359375,295.28515625)"/>
<path d="M0 0 C4.37296253 1.85231624 8.40732941 4.2254448 12.5 6.625 C13.69440819 7.30897488 14.88965381 7.99148925 16.08569336 8.67260742 C19.14490569 10.42091515 22.19151482 12.18988884 25.23358154 13.96783447 C27.97698351 15.57087758 30.72541166 17.1652724 33.47265625 18.76171875 C36.49406686 20.52040031 39.51272087 22.28314792 42.52416992 24.05883789 C47.10739799 26.75842062 51.7029225 29.40727962 56.390625 31.921875 C57.2252124 32.37135498 58.0597998 32.82083496 58.91967773 33.28393555 C60.45990446 34.10692987 62.00593334 34.91920253 63.55883789 35.71801758 C67.61880898 37.88864265 70.13982277 39.57850181 72 44 C71.92657532 47.5978095 71.39744561 49.44063211 69.3125 52.375 C66.14616724 54.59999059 64.86777336 54.48022689 61 54 C57.4550533 52.49170912 54.15303306 50.59987214 50.8125 48.6875 C49.85520996 48.1522168 48.89791992 47.61693359 47.91162109 47.06542969 C44.93187934 45.39260944 41.96438505 43.69986741 39 42 C37.57421631 41.18426514 37.57421631 41.18426514 36.11962891 40.35205078 C30.73013301 37.26222418 25.35846716 34.14330406 20 31 C21.03989066 32.83434129 22.08213407 34.66734858 23.125 36.5 C23.46466797 37.10078369 23.80433594 37.70156738 24.15429688 38.32055664 C26.58625077 42.59792822 29.0945561 46.82153133 31.6484375 51.02734375 C32.28249512 52.08308594 32.91655273 53.13882813 33.56982422 54.2265625 C34.84305986 56.34464941 36.12832316 58.45555872 37.42626953 60.55859375 C43.07939492 70.01999456 43.07939492 70.01999456 42 76 C39.9375 79 39.9375 79 37 81 C33.1174068 81.06811567 30.95659452 80.82523363 27.98388672 78.26074219 C25.89099825 75.87578683 24.38299279 73.52569631 22.8203125 70.765625 C22.22814941 69.72841309 21.63598633 68.69120117 21.02587891 67.62255859 C20.39858887 66.50961426 19.77129883 65.39666992 19.125 64.25 C18.12432103 62.49124404 17.12139855 60.73377872 16.11849976 58.97628784 C15.43219707 57.7730559 14.74667732 56.56937706 14.06192017 55.36526489 C11.21217399 50.35641809 8.31418462 45.37677191 5.40014648 40.4050293 C3.65669641 37.42910317 1.92331138 34.44749982 0.19140625 31.46484375 C-1.81096813 28.02027948 -3.84266481 24.5972324 -5.91015625 21.19140625 C-6.75281577 19.77356324 -7.59527937 18.35560376 -8.4375 16.9375 C-8.82147949 16.32503418 -9.20545898 15.71256836 -9.60107422 15.08154297 C-12.16130189 10.70991438 -12.20506911 7.86800193 -11 3 C-8.69612084 -1.2011914 -4.23149812 -0.75655946 0 0 Z " fill="#000000" transform="translate(132,0)"/>
<path d="M0 0 C2.875 2.125 2.875 2.125 5 5 C5.67496333 10.22021498 3.94924983 13.79400435 1.484375 18.25 C1.1170224 18.93729187 0.7496698 19.62458374 0.3711853 20.33270264 C-0.82402288 22.56175602 -2.0365884 24.78081178 -3.25 27 C-4.07670321 28.53232795 -4.90238195 30.06520904 -5.72705078 31.59863281 C-7.76482795 35.38103798 -9.81675103 39.15555016 -11.8729248 42.92797852 C-13.50077101 45.92062028 -15.11351482 48.92123057 -16.7265625 51.921875 C-17.7751568 53.86506109 -18.82456255 55.80780965 -19.875 57.75 C-20.34325195 58.61625 -20.81150391 59.4825 -21.29394531 60.375 C-27.21854167 71.21854167 -27.21854167 71.21854167 -30 74 C-37.75595688 74.94245691 -37.75595688 74.94245691 -41.0625 72.4375 C-42.80071256 67.91814735 -42.42683189 64.08444303 -40.6706543 59.62255859 C-40.06133057 58.47609863 -39.45200684 57.32963867 -38.82421875 56.1484375 C-38.4983931 55.5265152 -38.17256744 54.9045929 -37.83686829 54.26382446 C-36.8003562 52.29351561 -35.74427024 50.33450361 -34.6875 48.375 C-33.98894962 47.05276128 -33.29167184 45.72984941 -32.59570312 44.40625 C-29.84553358 39.19924923 -27.07238254 34.02603944 -24 29 C-25.52438153 29.76219077 -27.04869498 30.52451788 -28.57275391 31.28735352 C-29.96201808 31.98132452 -31.3523515 32.67315839 -32.74365234 33.36303711 C-37.10634884 35.53116793 -41.43826878 37.74765438 -45.75 40.015625 C-46.72372559 40.52053467 -47.69745117 41.02544434 -48.70068359 41.5456543 C-50.62693751 42.54480404 -52.54678378 43.55642049 -54.45947266 44.58129883 C-61.14568917 48.02097638 -61.14568917 48.02097638 -65.5 47.9140625 C-68.62528957 46.7713785 -70.08107364 45.73077983 -72 43 C-72.60880533 39.42326872 -72.43236109 37.69610491 -70.51196289 34.60424805 C-67.18291389 31.15289557 -63.57847785 29.37249531 -59.30859375 27.26953125 C-58.01961937 26.61654305 -58.01961937 26.61654305 -56.7046051 25.95036316 C-53.95435806 24.55992175 -51.19635668 23.1857664 -48.4375 21.8125 C-45.74498039 20.45907601 -43.05416716 19.10230192 -40.36343384 17.74533081 C-38.57964034 16.84619228 -36.79511587 15.94850244 -35.00985718 15.05227661 C-26.49011359 10.76830804 -18.05193679 6.33440111 -9.6309967 1.85990906 C-6.1393309 0.01900095 -4.01799338 -0.4727051 0 0 Z " fill="#000000" transform="translate(482,194)"/>
<path d="M0 0 C1.07016357 0.72977051 2.14032715 1.45954102 3.24291992 2.21142578 C3.82377853 2.60242462 4.40463715 2.99342346 5.00309753 3.39627075 C6.83639688 4.63592487 8.65445933 5.89612289 10.47338867 7.15673828 C11.71143652 7.99528516 12.95036264 8.83253688 14.19018555 9.66845703 C26.16823813 17.80378666 26.16823813 17.80378666 27.66088867 22.28173828 C27.79293221 24.72463484 27.87290866 27.13828903 27.89916992 29.58251953 C27.90724167 30.29651413 27.91531342 31.01050873 27.92362976 31.74613953 C27.93744747 33.25659778 27.94817996 34.76708696 27.95605469 36.27758789 C27.96757119 37.81674393 27.98801815 39.35586014 28.01757812 40.89477539 C28.06039376 43.12429815 28.07644189 45.35263596 28.08666992 47.58251953 C28.10417801 48.26397537 28.1216861 48.94543121 28.13972473 49.64753723 C28.11729154 54.6359301 26.76857986 57.43484604 23.66088867 61.28173828 C21.76635742 62.41064453 21.76635742 62.41064453 19.84838867 62.84423828 C19.22319336 63.01052734 18.59799805 63.17681641 17.95385742 63.34814453 C10.03922257 63.11893023 2.73497844 56.56523754 -3.52661133 52.34423828 C-4.60620117 51.62816406 -5.68579102 50.91208984 -6.7980957 50.17431641 C-18.524116 42.32057594 -18.524116 42.32057594 -20.07641602 38.43725586 C-20.74130851 32.98155343 -20.5676446 27.45667073 -20.58911133 21.96923828 C-20.60973633 20.66277344 -20.63036133 19.35630859 -20.65161133 18.01025391 C-20.70131231 5.790025 -20.70131231 5.790025 -17.33911133 0.28173828 C-11.67033082 -3.93688908 -5.96297917 -3.06846877 0 0 Z M-4.33911133 18.28173828 C-5.30137831 23.22850338 -5.62619679 27.37662516 -4.33911133 32.28173828 C-0.33121226 36.80843314 5.32611844 39.60510212 10.66088867 42.28173828 C10.99088867 42.28173828 11.32088867 42.28173828 11.66088867 42.28173828 C12.33204419 37.45484201 12.59864018 33.08385038 11.66088867 28.28173828 C7.35372411 23.27891484 1.7686235 20.55957723 -4.33911133 18.28173828 Z " fill="#000000" transform="translate(364.339111328125,156.71826171875)"/>
<path d="M0 0 C1.30710937 -0.00386719 2.61421875 -0.00773438 3.9609375 -0.01171875 C4.63479492 -0.00543457 5.30865234 0.00084961 6.00292969 0.00732422 C8.0573163 0.02339694 10.1097362 0.00743924 12.1640625 -0.01171875 C14.12472656 -0.00591797 14.12472656 -0.00591797 16.125 0 C17.31222656 0.00338379 18.49945313 0.00676758 19.72265625 0.01025391 C24.20609555 0.5313554 27.53120342 2.0713138 30.9375 5.0234375 C32.70235949 8.74925199 32.57238873 12.34517579 32.0625 16.3984375 C31.00670195 19.1259158 29.50703994 21.38511312 27.828125 23.76953125 C27.17647369 24.74213646 27.17647369 24.74213646 26.51165771 25.73439026 C25.59665589 27.09121281 24.67169228 28.44136621 23.73730469 29.78491211 C22.30906214 31.84088634 20.9144152 33.91672665 19.5234375 35.99804688 C18.62687676 37.3189841 17.72850095 38.63869159 16.828125 39.95703125 C16.41129456 40.57468857 15.99446411 41.19234589 15.56500244 41.82872009 C11.68651823 47.36778713 11.68651823 47.36778713 8.0625 48.3984375 C5.54647702 48.60144445 3.14426047 48.70256302 0.62890625 48.69921875 C-0.08604507 48.70350388 -0.8009964 48.707789 -1.53761292 48.71220398 C-3.04630476 48.71793404 -4.55502423 48.7184573 -6.0637207 48.71411133 C-8.36392661 48.71095271 -10.66284371 48.73442008 -12.96289062 48.75976562 C-14.43229005 48.76203901 -15.90169292 48.76274193 -17.37109375 48.76171875 C-18.39631386 48.77553337 -18.39631386 48.77553337 -19.44224548 48.78962708 C-23.78481171 48.74784597 -26.46855465 48.02062306 -29.9375 45.3984375 C-33.14711354 41.41408966 -33.38332267 38.42939985 -32.9375 33.3984375 C-31.64550589 30.79995286 -30.39582504 28.62432607 -28.7734375 26.2578125 C-28.34374664 25.60895081 -27.91405579 24.96008911 -27.47134399 24.29156494 C-26.56280095 22.92837049 -25.64623563 21.57049237 -24.72216797 20.21777344 C-23.31654674 18.15437795 -21.94420516 16.071552 -20.57421875 13.984375 C-19.68420208 12.65757067 -18.7923349 11.3320054 -17.8984375 10.0078125 C-17.28867569 9.07965729 -17.28867569 9.07965729 -16.66659546 8.13275146 C-12.19122221 1.66743447 -7.67957643 0.02188804 0 0 Z M-6.6875 21.5859375 C-8.8346007 25.07264234 -10.5076536 28.5644866 -11.9375 32.3984375 C-6.9907349 33.36070449 -2.84261312 33.68552297 2.0625 32.3984375 C6.58919485 28.39053843 9.38586384 22.73320773 12.0625 17.3984375 C12.0625 17.0684375 12.0625 16.7384375 12.0625 16.3984375 C4.05522332 15.28506616 -1.62314794 14.58962891 -6.6875 21.5859375 Z " fill="#000000" transform="translate(264.9375,224.6015625)"/>
<path d="M0 0 C4.46622293 2.26427415 8.48907235 4.98283081 12.55249023 7.89794922 C14.44318338 9.25407649 16.35412268 10.57645223 18.27148438 11.89453125 C19.49348011 12.74554273 20.71423 13.59834657 21.93359375 14.453125 C22.49920517 14.84808167 23.06481659 15.24303833 23.64756775 15.64996338 C29.28194979 19.70539895 29.28194979 19.70539895 31 23 C31.31633123 25.69065457 31.46800356 28.14498661 31.46875 30.8359375 C31.48017029 31.97139511 31.48017029 31.97139511 31.49182129 33.12979126 C31.50260685 34.72842112 31.50548164 36.32712135 31.50097656 37.92578125 C31.50000575 40.36058364 31.54160501 42.79221621 31.5859375 45.2265625 C31.59114628 46.78384763 31.59383266 48.34114366 31.59375 49.8984375 C31.6183429 50.98153702 31.6183429 50.98153702 31.64343262 52.08651733 C31.56585409 57.81700108 29.91896421 60.12758018 26 64 C22.956666 65.57131832 20.35844391 65.53324911 17 65 C12.65046068 63.20637554 8.86268856 60.65145387 5 58 C3.94425781 57.29061279 3.94425781 57.29061279 2.8671875 56.56689453 C0.56768829 55.01759706 -1.71874257 53.45102216 -4 51.875 C-4.73025391 51.37266846 -5.46050781 50.87033691 -6.21289062 50.3527832 C-6.90576172 49.86253662 -7.59863281 49.37229004 -8.3125 48.8671875 C-8.92738281 48.43519043 -9.54226563 48.00319336 -10.17578125 47.55810547 C-13.88714976 44.38814377 -15.82513228 42.2504692 -16.51757812 37.29882812 C-16.54378815 35.87653626 -16.54715605 34.45369441 -16.53125 33.03125 C-16.5350769 32.27332153 -16.53890381 31.51539307 -16.54284668 30.73449707 C-16.54555955 29.13760036 -16.53824203 27.54065874 -16.52148438 25.94384766 C-16.50006264 23.50712506 -16.52130389 21.07335024 -16.546875 18.63671875 C-16.54423161 17.0807227 -16.53910639 15.52472847 -16.53125 13.96875 C-16.53934692 13.24465942 -16.54744385 12.52056885 -16.55578613 11.77453613 C-16.46619446 6.9128282 -15.45697019 4.41178104 -12 1 C-8.04431171 -0.97784414 -4.28573547 -0.85564357 0 0 Z M0 20 C-1.25882128 27.5580364 -1.25882128 27.5580364 0 35 C3.64450485 39.27747711 8.97111897 41.7062335 14 44 C14.33 44 14.66 44 15 44 C15.67118524 39.17288996 15.94279836 34.80157414 15 30 C10.88845852 25.29712007 5.54889293 22.69517657 0 20 Z " fill="#000000" transform="translate(407,283)"/>
<path d="M0 0 C2.13671875 0.40625 2.13671875 0.40625 4.26171875 2.40625 C4.88046875 3.39625 5.49921875 4.38625 6.13671875 5.40625 C11.15424561 11.61446641 16.82918452 17.19081519 22.51171875 22.78125 C24.12597537 24.37008525 25.73807201 25.96111903 27.34765625 27.5546875 C28.05196777 28.24739746 28.7562793 28.94010742 29.48193359 29.65380859 C31.64859978 31.94833941 32.09754103 33.05365052 32.44921875 36.21875 C32.05050263 40.2856544 31.25088104 41.75921205 28.13671875 44.40625 C23.03619482 45.05060339 21.15792745 45.13041628 16.90527344 42.11474609 C15.85215451 41.0737803 14.82067304 40.01059673 13.80859375 38.9296875 C13.25230286 38.36682037 12.69601196 37.80395325 12.12286377 37.22402954 C10.35792508 35.42772588 8.62319623 33.60503371 6.88671875 31.78125 C5.70617782 30.57770731 4.52390046 29.37586525 3.33984375 28.17578125 C2.20286556 27.0119401 1.06739718 25.84662169 -0.06640625 24.6796875 C-0.58938293 24.14193695 -1.11235962 23.6041864 -1.65118408 23.05014038 C-9.34709861 14.95464778 -9.34709861 14.95464778 -10.359375 9.95703125 C-10.34003906 9.21839844 -10.32070312 8.47976562 -10.30078125 7.71875 C-10.29949219 6.97238281 -10.29820312 6.22601563 -10.296875 5.45703125 C-9.1106867 -0.15331883 -4.91664563 -0.19001529 0 0 Z " fill="#000000" transform="translate(144.86328125,208.59375)"/>
<path d="M0 0 C4.50653739 3.22390752 9.14362008 7.23936681 12 12 C12.5624931 16.00776335 12.68157218 18.04075027 10.3125 21.375 C7.68803583 23.21921807 6.21070053 23.92169023 3 24 C-0.97472264 21.9526177 -4.08712234 19.3272492 -7.3125 16.25 C-8.63701172 15.02023438 -8.63701172 15.02023438 -9.98828125 13.765625 C-12.53965838 10.25810071 -12.52470005 8.24757183 -12 4 C-8.31521423 -0.66739531 -5.722939 -1.69568563 0 0 Z " fill="#000000" transform="translate(348,59)"/>
<path d="M0 0 C2.8359375 2.21484375 2.8359375 2.21484375 5.375 4.9375 C6.22835937 5.83339844 7.08171875 6.72929687 7.9609375 7.65234375 C10.50705103 10.58378864 10.95053051 11.46572948 11.3125 15.375 C11 19 11 19 9.5 21.4375 C6.78456739 23.13464538 4.60492803 23.97935119 1.3671875 23.86328125 C-4.09354295 21.87182675 -10.40349232 15.19301537 -13 10 C-13.3125 7.125 -13.3125 7.125 -13 4 C-8.92459718 -1.02633014 -6.25681847 -1.46870581 0 0 Z " fill="#000000" transform="translate(195,205)"/>
<path d="M0 0 C2.64764845 1.67684402 2.95477045 2.85138861 3.875 5.875 C4.03331708 9.8329269 3.44790199 10.88448838 1 14 C-7.23148648 22.83624875 -7.23148648 22.83624875 -12.375 23.3125 C-16 23 -16 23 -18.375 21.25 C-20.02009172 18.9721807 -20.83099388 17.78860101 -21 15 C-19.67073842 10.50037315 -17.3341573 7.98723412 -14 4.75 C-13.113125 3.87859375 -12.22625 3.0071875 -11.3125 2.109375 C-7.32570225 -1.52723106 -5.23031698 -1.10111936 0 0 Z " fill="#000000" transform="translate(347,231)"/>
<path d="M0 0 C3.9031711 1.02715029 5.44726599 1.50024473 7.5625 4.9375 C8.25 8.1875 8.25 8.1875 7.5625 11.9375 C5.52115827 14.91329788 3.10832521 17.39167479 0.5625 19.9375 C-0.0975 20.741875 -0.7575 21.54625 -1.4375 22.375 C-4.35308141 24.65279798 -6.79116038 24.80727358 -10.4375 24.9375 C-13.08566011 24.15020916 -14.06634529 23.41469891 -15.75 21.25 C-16.77155666 17.81385487 -16.24067974 15.42037941 -15.4375 11.9375 C-13.78533108 9.64072387 -12.37693111 7.91941841 -10.375 6 C-9.88056396 5.51781006 -9.38612793 5.03562012 -8.87670898 4.53881836 C-6.0701968 1.96833825 -3.86678556 0.17509972 0 0 Z " fill="#000000" transform="translate(453.4375,160.0625)"/>
</svg>
