<?xml version="1.0" encoding="UTF-8"?>
<svg version="1.1" xmlns="http://www.w3.org/2000/svg" width="512" height="512">
<path d="M0 0 C3.1359157 1.77984405 3.84102736 2.52308207 5 6 C5.20423744 16.95587984 2.3831801 25.22447128 -2.44140625 34.88671875 C-6.62280435 43.80941726 -8.04617711 52.86146866 -4.8671875 62.3984375 C-3.68820527 65.01914657 -2.39650622 67.49214417 -1 70 C2.87525126 69.86041196 6.75012805 69.71222112 10.625 69.5625 C11.71941406 69.52318359 12.81382812 69.48386719 13.94140625 69.44335938 C15.00488281 69.40146484 16.06835938 69.35957031 17.1640625 69.31640625 C18.13811035 69.27974854 19.1121582 69.24309082 20.11572266 69.20532227 C23.1254852 68.99106712 26.03295916 68.54068643 29 68 C28.67 66.845 28.34 65.69 28 64.5 C24.86428935 50.04846394 27.19696355 36.97308786 34.125 24 C36.45655482 19.62179357 37.48086056 15.98704725 38.0625 11.0625 C38.87690925 4.33757611 38.87690925 4.33757611 41.25 1.6875 C44.60577869 -0.37172783 46.13692746 -0.80480678 50 0 C52.875 1.8125 52.875 1.8125 55 5 C57.29936112 16.89669449 51.3456601 28.82623032 46.26953125 39.22265625 C44.4280181 43.25132039 43.81115308 46.64352938 43.6875 51.0625 C43.65011719 51.91972656 43.61273438 52.77695313 43.57421875 53.66015625 C44.054932 58.40776026 44.054932 58.40776026 48 68 C58.56 68.66 69.12 69.32 80 70 C79.01 65.71 78.02 61.42 77 57 C76.78845422 53.14986673 76.69720683 49.78777111 77 46 C77.05800781 45.23816406 77.11601562 44.47632813 77.17578125 43.69140625 C78.10340005 37.06396111 81.0654284 31.59418225 84.03613281 25.69238281 C87.13874781 19.2859787 88.36758451 13.22749983 89.234375 6.1953125 C90 3 90 3 91.89453125 1.08203125 C94.84469415 -0.4341007 96.72325067 -0.46810705 100 0 C102.65625 1.6171875 102.65625 1.6171875 105 4 C107.07341932 14.10952897 103.91966546 23.19707389 99.43359375 32.11328125 C95.0391432 40.95512753 92.58003704 49.41322447 94.6875 59.3125 C95.120625 60.529375 95.55375 61.74625 96 63 C96.33451172 64.08474609 96.33451172 64.08474609 96.67578125 65.19140625 C97.55268822 67.51458632 98.40135626 69.09808257 100 71 C101.96822393 71.79448967 101.96822393 71.79448967 104.27734375 72.0859375 C105.17243652 72.23691895 106.0675293 72.38790039 106.98974609 72.54345703 C107.98312988 72.69411621 108.97651367 72.84477539 110 73 C111.06428223 73.17257324 112.12856445 73.34514648 113.22509766 73.52294922 C115.5742689 73.90262338 117.92425023 74.27730987 120.27490234 74.64770508 C159.51713406 80.887913 208.34040579 89.94257656 234.55078125 122.953125 C240.84624509 132.08990437 241.43349969 142.4202827 241.1875 153.1875 C241.17396484 154.33025391 241.16042969 155.47300781 241.14648438 156.65039062 C241.1115423 159.43410963 241.06249011 162.21678664 241 165 C241.75023437 164.79503906 242.50046875 164.59007812 243.2734375 164.37890625 C253.61378339 161.65707717 263.46152269 160.79842383 274.125 160.6875 C275.06214844 160.65849609 275.99929688 160.62949219 276.96484375 160.59960938 C282.95653056 160.54513949 288.23521715 161.07080737 293 165 C297.72354136 170.32227788 297.58601775 175.10995633 297.53125 181.875 C297.5350769 182.91769043 297.53890381 183.96038086 297.54284668 185.03466797 C297.54556178 187.23340829 297.53822885 189.43218114 297.52148438 191.63085938 C297.50007004 194.98901647 297.52130079 198.34503415 297.546875 201.703125 C297.54423165 203.8437547 297.53910654 205.98438308 297.53125 208.125 C297.53934692 209.12515137 297.54744385 210.12530273 297.55578613 211.15576172 C297.47626023 217.09200178 296.9080291 220.45498539 293 225 C288.36567329 229.18957366 282.47213896 228.47840776 276.5625 228.5625 C265.89090332 228.85757824 255.74783005 229.70328851 245.30639648 232.03735352 C244.49903549 232.2175856 243.6916745 232.39781769 242.85984802 232.58351135 C241.93922325 232.78967323 241.93922325 232.78967323 241 233 C241.00368717 233.89507358 241.00737434 234.79014715 241.01117325 235.71234417 C241.09966277 257.53122355 241.1657769 279.35007183 241.20724869 301.16909313 C241.22783924 311.72078601 241.25589258 322.27235882 241.30175781 332.82397461 C241.34173317 342.02500041 241.36745828 351.22593922 241.37635398 360.42704946 C241.38155065 365.29515154 241.39369109 370.16300481 241.42292023 375.03102684 C241.45025867 379.6217584 241.4584081 384.21214085 241.45243073 388.80294609 C241.45352278 390.47940219 241.4613662 392.15587111 241.4768219 393.83225632 C241.60136497 408.04923091 240.06266888 420.14891583 230 431 C229.42636719 431.66386719 228.85273438 432.32773437 228.26171875 433.01171875 C222.44944963 439.34671871 215.36510488 443.71201749 208 448 C206.8759375 448.65871094 205.751875 449.31742187 204.59375 449.99609375 C156.9631213 476.37226574 94.99179415 480.24389191 41.75 480.1875 C40.69241486 480.18689575 39.63482971 480.1862915 38.54519653 480.18566895 C21.62107524 480.15949655 4.84551119 479.77346535 -12 478 C-13.23347168 477.87109375 -14.46694336 477.7421875 -15.73779297 477.609375 C-60.515842 472.74476613 -119.45385339 464.20436265 -151 428 C-158.6406725 418.46296782 -159.45844538 407.2346201 -159.3984375 395.4140625 C-159.40130768 394.15411469 -159.40417786 392.89416687 -159.40713501 391.59603882 C-159.40968016 388.28037451 -159.39773167 384.96514319 -159.38085938 381.64953613 C-159.37302351 378.94208012 -159.38750664 376.23492095 -159.40183067 373.52750587 C-159.41529014 370.28133273 -159.40586619 367.03524489 -159.3984375 363.7890625 C-159.40451019 362.58069733 -159.41058289 361.37233215 -159.4168396 360.12734985 C-159.40738312 359.0020285 -159.39792664 357.87670715 -159.38818359 356.71728516 C-159.38579681 355.7312027 -159.38341003 354.74512024 -159.38095093 353.72915649 C-158.93163452 350.5102254 -157.89912708 348.61622831 -156 346 C-152.90826248 344.45413124 -150.40570448 344.70640479 -147 345 C-144.2651485 347.06890308 -143.13771962 348.2554266 -142.50793457 351.6603241 C-142.51111694 352.67242447 -142.51429932 353.68452484 -142.51757812 354.72729492 C-142.51077026 355.87916794 -142.5039624 357.03104095 -142.49694824 358.21781921 C-142.50826782 359.45949356 -142.5195874 360.70116791 -142.53125 361.98046875 C-142.52047654 363.94053804 -142.50968062 365.90060749 -142.49759674 367.86066914 C-142.47856728 371.99544438 -142.49498344 376.13022828 -142.50506592 380.26501465 C-142.51198226 383.66164182 -142.51099575 387.05784265 -142.4901123 390.454422 C-142.47617956 392.99872955 -142.47966689 395.54320989 -142.50305176 398.08744812 C-142.4538268 406.53014737 -141.16166184 412.73467797 -136.09765625 419.56640625 C-103.15322646 451.87850534 -44.10199806 458.88411987 0 462 C1.16313721 462.08612549 2.32627441 462.17225098 3.5246582 462.26098633 C15.7834258 463.11055252 28.02815 463.20048989 40.3125 463.1875 C41.9007962 463.18659363 41.9007962 463.18659363 43.5211792 463.18566895 C60.09299069 463.16005515 76.51182384 462.81313277 93 461 C94.1854541 460.87109375 95.3709082 460.7421875 96.59228516 460.609375 C135.85679171 456.18000646 189.30026232 449.6445917 218 419 C222.39353839 413.1790678 224.12580777 408.69529694 224.12025452 401.3372345 C224.12110894 400.65680153 224.12196337 399.97636856 224.12284368 399.27531642 C224.12449353 396.9905652 224.1189852 394.70588706 224.11352539 392.42114258 C224.11324339 390.78525291 224.11340151 389.14936311 224.1139679 387.51347351 C224.11425535 383.06750092 224.10836694 378.62155519 224.10139394 374.17558885 C224.09515183 369.53109768 224.09455592 364.88660592 224.09336853 360.24211121 C224.09025775 351.44487888 224.08204776 342.64765896 224.07201904 333.8504321 C224.06085006 323.83604448 224.05534547 313.82165627 224.05032361 303.80726397 C224.03986495 283.20483572 224.02227039 262.60241864 224 242 C223.33613281 242.53109375 222.67226563 243.0621875 221.98828125 243.609375 C219.32552083 245.73958333 216.66276042 247.86979167 214 250 C213.12730469 250.72832031 212.25460937 251.45664062 211.35546875 252.20703125 C208.45906058 254.41175986 206.63027355 254.9243693 203 255 C198.43478261 252.86956522 198.43478261 252.86956522 197 250 C196.53945878 245.93188591 196.33994529 243.83039141 198.9375 240.5625 C199.948125 239.716875 200.95875 238.87125 202 238 C202.63164062 237.39285156 203.26328125 236.78570312 203.9140625 236.16015625 C217.80674184 223 217.80674184 223 225 223 C224.67 207.16 224.34 191.32 224 175 C221.03 177.31 218.06 179.62 215 182 C181.84042535 204.01915386 139.13587763 210.93383403 100.3125 215.25 C99.56517609 215.33317474 98.81785217 215.41634949 98.04788208 215.50204468 C79.4593048 217.54113245 61.0060324 218.24001812 42.3125 218.25 C41.17026978 218.25067474 40.02803955 218.25134949 38.85119629 218.25204468 C-19.61188792 218.19754053 -95.1774164 214.01881966 -142 175 C-142.33 190.84 -142.66 206.68 -143 223 C-141.02 223.66 -139.04 224.32 -137 225 C-120.07958478 235.38062284 -120.07958478 235.38062284 -115 243 C-114.57208219 246.92257996 -114.36586527 249.10751408 -116.6875 252.375 C-119.33710827 254.23688689 -120.75713747 254.92278899 -124 255 C-129.27150273 253.2028968 -132.93630825 249.56166229 -136.94921875 245.83984375 C-139.06523163 243.85342045 -139.06523163 243.85342045 -142 242 C-142.00142502 242.97861496 -142.00285004 243.95722992 -142.00431824 244.96549988 C-142.02099279 254.19119205 -142.06378019 263.41644339 -142.13209057 272.64190197 C-142.16637142 277.384786 -142.19147224 282.12734754 -142.19555664 286.87036133 C-142.19983727 291.44830418 -142.22828005 296.02551943 -142.27343178 300.60323524 C-142.28641439 302.34907098 -142.29071174 304.09499376 -142.28615379 305.84087181 C-142.28125296 308.28818547 -142.3073136 310.73336833 -142.34057617 313.18041992 C-142.33195053 313.90115189 -142.32332489 314.62188385 -142.31443787 315.36445618 C-142.40203315 319.21258959 -142.9304006 320.91013188 -145.31465149 323.98872375 C-148 326 -148 326 -151.625 326 C-154.81585187 325.05456241 -156.10187442 324.63628553 -158 322 C-159.60344035 318.79311929 -159.12922745 315.30817153 -159.11352539 311.78662109 C-159.11367142 310.9377684 -159.11381744 310.08891571 -159.1139679 309.21434021 C-159.11326966 306.40068023 -159.1054814 303.58708596 -159.09765625 300.7734375 C-159.09579175 298.82573482 -159.094368 296.87803168 -159.09336853 294.93032837 C-159.08954583 289.79779776 -159.07971765 284.66529533 -159.06866455 279.53277588 C-159.05844512 274.29789613 -159.05386977 269.06301184 -159.04882812 263.828125 C-159.03809517 253.55207093 -159.0210217 243.27603781 -159 233 C-161.23680449 232.51199239 -163.47412892 232.0263675 -165.71166992 231.54174805 C-166.95752365 231.27106003 -168.20337738 231.00037201 -169.48698425 230.72148132 C-178.72722643 228.82377786 -187.97258615 228.74451756 -197.38085938 228.65820312 C-203.35500522 228.49633276 -207.4169669 228.24679782 -212 224 C-215.9513126 219.21689457 -215.45083585 214.12723269 -215.43359375 208.22265625 C-215.4388356 207.17855087 -215.44407745 206.1344455 -215.44947815 205.05870056 C-215.45589197 202.85400277 -215.45456966 200.64927072 -215.44604492 198.44458008 C-215.43753832 195.07766562 -215.46630136 191.71244995 -215.49804688 188.34570312 C-215.49965914 186.20052134 -215.49908088 184.05533656 -215.49609375 181.91015625 C-215.50732773 180.90686783 -215.51856171 179.90357941 -215.53013611 178.86988831 C-215.47271558 173.08921616 -215.00651269 169.50236601 -211 165 C-205.524561 160.52517182 -199.27628691 160.43373384 -192.5 160.625 C-191.05947266 160.64651123 -191.05947266 160.64651123 -189.58984375 160.66845703 C-179.2524317 160.90073909 -168.789332 161.4483826 -159 165 C-159.02094727 164.31075439 -159.04189453 163.62150879 -159.06347656 162.91137695 C-159.90984839 130.84299115 -159.90984839 130.84299115 -148 118 C-147.42636719 117.33613281 -146.85273438 116.67226562 -146.26171875 115.98828125 C-139.83031484 108.97846414 -128.67145711 99.99362127 -119.0625 98.5625 C-116 99 -116 99 -113.125 101.125 C-111 104 -111 104 -110.375 107 C-111.19854767 110.9530288 -112.8576315 112.68063278 -116 115 C-117.72000702 116.09781798 -119.45028533 117.17961985 -121.1875 118.25 C-129.70950213 123.54746079 -138.7072608 129.8785365 -141.5546875 139.96484375 C-142.53166525 145.15877649 -141.41432188 148.36450199 -139 153 C-136.15630706 153 -134.90472723 151.6739231 -132.5625 150.0625 C-83.21581683 118.41694963 -16.48312719 113.73903874 40.75 113.8125 C41.6336322 113.81310425 42.5172644 113.8137085 43.42767334 113.81433105 C65.08148205 113.85411355 86.53891135 115.0652123 108.04876709 117.62805176 C109.4159567 117.79066601 110.78367526 117.94890238 112.1519165 118.10241699 C114.04350643 118.31866918 115.93204135 118.56115207 117.8203125 118.8046875 C118.89555176 118.93858887 119.97079102 119.07249023 121.07861328 119.21044922 C124.53067592 120.14342353 126.42570796 121.5485991 129 124 C129.86654646 126.7557254 129.59863253 129.19103198 129 132 C127.5625 134.5 127.5625 134.5 125 136 C115.39646171 136.57789344 105.76600409 134.92661703 96.24438477 133.78442383 C77.87697899 131.59574344 59.68124213 130.79576545 41.1875 130.8125 C40.2564444 130.81210724 39.32538879 130.81171448 38.36611938 130.81130981 C23.23193704 130.81890754 8.26181105 131.40514668 -6.81884766 132.72998047 C-12.54120195 133.21569987 -18.27092634 133.60280846 -24 134 C-23.360625 135.093125 -22.72125 136.18625 -22.0625 137.3125 C-18.61589177 144.2547785 -18.0571092 152.26557194 -20.09375 159.7421875 C-23.62794081 168.54719737 -29.43236482 174.11083897 -38 178 C-44.8411734 180.2037772 -53.0594779 179.79567757 -59.734375 177.2265625 C-66.94467879 173.32305321 -72.79197724 167.74021476 -75.31176758 159.83764648 C-76.05781608 156.76161891 -76.36182369 153.83114457 -76.58984375 150.67578125 C-76.66968506 149.60884033 -76.74952637 148.54189941 -76.83178711 147.44262695 C-76.91505249 146.23352661 -76.91505249 146.23352661 -77 145 C-101.75063474 152.3138868 -101.75063474 152.3138868 -124 165 C-124.66 165 -125.32 165 -126 165 C-126 165.66 -126 166.32 -126 167 C-125.30390625 167.25652344 -124.6078125 167.51304687 -123.890625 167.77734375 C-120.67271773 169.13843156 -117.7784933 170.8193556 -114.75 172.5625 C-50.5094361 207.75990578 43.64633274 207.51521929 113.80322266 196.38037109 C117.22951108 195.97269144 120.5527591 195.93748104 124 196 C123.7834375 195.45472656 123.566875 194.90945312 123.34375 194.34765625 C120.17158938 185.7563879 119.86768353 178.85584625 123.60546875 170.36328125 C127.23867887 164.20616046 133.18479403 159.96370342 140 158 C147.34238939 157.10594954 153.80716506 157.76220237 160 162 C164.65116857 166.22614799 168.89278002 170.63348512 170 177 C170.01981528 179.33324919 170.02195981 181.66677 170 184 C185.6736533 177.87742999 185.6736533 177.87742999 200.8125 170.5625 C201.43326416 170.23314453 202.05402832 169.90378906 202.69360352 169.56445312 C205.92287094 167.8785131 205.92287094 167.8785131 208 165 C207.32324219 164.74605469 206.64648438 164.49210938 205.94921875 164.23046875 C203.14905332 163.06218781 200.47797337 161.73404407 197.78710938 160.33520508 C185.10620475 153.76741212 171.92178967 148.49642358 158.125 144.77270508 C154.09223627 143.61845301 151.56803523 142.35868647 149 139 C148.44197903 135.09385318 148.41607182 132.94888329 150.5 129.5625 C154.48141649 127.07411469 158.74559637 127.55333543 163.21923828 128.43969727 C165.60780419 129.06241033 167.9575612 129.76021643 170.3125 130.5 C171.17770264 130.76699707 172.04290527 131.03399414 172.93432617 131.30908203 C188.96648763 136.40341371 207.03591836 143.02665749 220 154 C222.7888672 149.99858184 223.91970863 146.89777378 224 142 C221.67335877 131.97250399 215.31574046 126.03965868 207 120.5 C205.01408052 119.30952323 203.01297348 118.14413674 201 117 C199.94167969 116.38511719 198.88335937 115.77023438 197.79296875 115.13671875 C171.92859418 100.83153802 140.69702917 94.41728589 111.71875 90.54296875 C108 90 108 90 105 89 C105.03480469 89.60328125 105.06960938 90.2065625 105.10546875 90.828125 C105.324 97.28 105.324 97.28 103.875 100.5 C101.22489382 102.62008495 99.37866049 102.93242679 96 103 C92.47093933 101.39588152 91.17227092 100.25840638 89 97 C88.8046875 94.51953125 88.8046875 94.51953125 88.875 91.8125 C88.89304687 90.91144531 88.91109375 90.01039062 88.9296875 89.08203125 C88.96449219 88.05142578 88.96449219 88.05142578 89 87 C88.18845459 86.97494385 87.37690918 86.9498877 86.54077148 86.92407227 C82.83954284 86.80754183 79.13853319 86.685075 75.4375 86.5625 C74.16068359 86.52318359 72.88386719 86.48386719 71.56835938 86.44335938 C70.32763672 86.40146484 69.08691406 86.35957031 67.80859375 86.31640625 C66.67220459 86.27974854 65.53581543 86.24309082 64.36499023 86.20532227 C60.86818455 85.99195699 57.46008025 85.54045723 54 85 C54.33 85.66 54.66 86.32 55 87 C55.9256591 96.56008584 55.9256591 96.56008584 53.3125 100.625 C50.66079772 102.20168784 49.0990698 102.92621262 46 103 C40.36144578 100.72289157 40.36144578 100.72289157 39 98 C38.77049681 95.795636 38.58924067 93.58607827 38.4375 91.375 C38.35371094 90.18648438 38.26992187 88.99796875 38.18359375 87.7734375 C38.12300781 86.85820313 38.06242188 85.94296875 38 85 C36.45505859 85.10828125 36.45505859 85.10828125 34.87890625 85.21875 C24.56998476 85.90324579 14.32975373 86.11635517 4 86 C4.33 86.99 4.66 87.98 5 89 C5.56307526 95.98213319 5.56307526 95.98213319 3.375 99.9375 C0.45515869 102.47315166 -1.14298481 103 -5 103 C-7.75 102.125 -7.75 102.125 -10 100 C-11.41718211 96.04951308 -12 92.18601535 -12 88 C-29.22138498 90.27880709 -46.3106035 92.79354233 -63.25 96.6875 C-63.90557892 96.83752472 -64.56115784 96.98754944 -65.23660278 97.14212036 C-72.78181633 98.86506286 -72.78181633 98.86506286 -80.19433594 101.06958008 C-83.43961622 102.14578641 -85.60717564 102.50531427 -89 102 C-92.66900829 99.36788535 -93.84009531 97.91145674 -94.625 93.4375 C-94 90 -94 90 -92.0703125 87.96875 C-87.97839979 85.34492811 -83.93140996 84.2605997 -79.25 83.0625 C-78.28771484 82.80944092 -77.32542969 82.55638184 -76.33398438 82.2956543 C-57.77265448 77.52849602 -39.00988243 74.32196181 -20 72 C-20.23058105 71.35063477 -20.46116211 70.70126953 -20.69873047 70.03222656 C-25.67955655 55.45701216 -24.02138975 40.21754852 -17.38647461 26.63110352 C-17.07331299 25.98971436 -16.76015137 25.3483252 -16.4375 24.6875 C-16.12240479 24.05191162 -15.80730957 23.41632324 -15.48266602 22.76147461 C-12.97452434 17.49056776 -12.04751492 12.55548725 -11.6796875 6.70703125 C-10.21154967 0.85979265 -5.57249249 -0.82994569 0 0 Z M-57 142 C-59.40897521 144.97106942 -59.96512871 146.6745346 -60.375 150.5 C-59.81787717 155.69981304 -58.21070791 157.9045976 -54.375 161.375 C-49.91240706 163.52365586 -46.69693671 163.48187487 -42 162 C-38.52925912 159.48925128 -37.23444859 157.52750934 -35.5 153.625 C-34.75228498 148.20406609 -36.614062 145.0256017 -39.625 140.625 C-45.63514523 136.51279537 -51.65934776 137.16798131 -57 142 Z M138 178 C136.76325749 181.63293114 136.65541797 183.24191953 138.25 186.75 C139.97364769 189.21081851 139.97364769 189.21081851 143 191 C147.16165352 190.92433357 149.29925594 190.59563245 152.5 187.875 C154.50686067 184.02851705 154.27176524 182.11453459 153 178 C150.57603898 175.37404223 149.00701471 174.20140294 145.5 173.5 C142.03172693 174.19365461 140.42482089 175.44046684 138 178 Z M-200 177 C-200 188.55 -200 200.1 -200 212 C-195.71 212 -191.42 212 -187 212 C-187 200.45 -187 188.9 -187 177 C-191.29 177 -195.58 177 -200 177 Z M269 177 C269 188.55 269 200.1 269 212 C273.29 212 277.58 212 282 212 C282 200.45 282 188.9 282 177 C277.71 177 273.42 177 269 177 Z M-171 179 C-171 190.55 -171 202.1 -171 214 C-167.04 214.66 -163.08 215.32 -159 216 C-159 204.78 -159 193.56 -159 182 C-166.89320282 178.84188612 -166.89320282 178.84188612 -171 179 Z M241 182 C241 193.22 241 204.44 241 216 C244.96 215.34 248.92 214.68 253 214 C253 202.45 253 190.9 253 179 C248.89320282 178.84188612 248.89320282 178.84188612 241 182 Z " fill="#000000" transform="translate(215,16)"/>
<path d="M0 0 C6.34312233 5.04593596 10.17629259 10.91220595 11.30859375 18.99609375 C11.68180716 28.04160823 10.06345704 34.83001265 4 41.65625 C-2.0952862 47.42693516 -7.76165699 49.69284445 -16.10546875 50.03125 C-24.58267469 49.796069 -31.22408064 46.67272648 -37.16796875 40.59375 C-41.79274993 33.71297799 -44.20232893 26.99615527 -43.16796875 18.59375 C-40.42018372 8.44260634 -36.6855616 3.21481032 -27.703125 -2.171875 C-18.91782328 -6.44946413 -8.08023235 -5.2412318 0 0 Z M-24.91796875 15.84375 C-26.95061344 18.68945256 -27.05101975 21.14375441 -27.16796875 24.59375 C-25.93445714 28.15722797 -24.81243652 30.05669353 -21.91796875 32.46875 C-18.32724362 33.93768301 -16.02024999 34.13442105 -12.16796875 33.59375 C-9.19874014 31.80025621 -6.74344804 29.74470858 -5.16796875 26.59375 C-4.65050325 20.84164672 -4.65050325 20.84164672 -6.91796875 15.71875 C-9.8046421 12.9924474 -11.66417286 11.78654435 -15.60546875 11.28125 C-19.45074096 11.75018564 -21.83322533 13.64036184 -24.91796875 15.84375 Z " fill="#000000" transform="translate(280.16796875,160.40625)"/>
<path d="M0 0 C2.55078958 2.22165544 2.93332671 3.60829443 3.5 6.9375 C2.81303325 11.14517131 1.4272611 12.52070473 -2 15 C-5.5625 15.625 -5.5625 15.625 -9 15 C-11.97118368 12.40973731 -12.88008526 10.83940315 -13.4375 6.9375 C-12.95374115 3.68940486 -12.30588726 2.30588726 -10 0 C-6.20519658 -1.26493447 -3.87641726 -0.89988258 0 0 Z " fill="#000000" transform="translate(328,168)"/>
<path d="M0 0 C1.9375 1.0625 1.9375 1.0625 3 3 C3.75471698 9.79245283 3.75471698 9.79245283 1.4375 13.5 C-1.9238388 15.56851618 -4.11959911 15.48505011 -8 15 C-10.375 13.9375 -10.375 13.9375 -12 12 C-12.87281149 8.57109774 -13.32922829 6.10740423 -12.3125 2.6875 C-8.84502924 -1.7706767 -5.21701645 -1.23311298 0 0 Z " fill="#000000" transform="translate(204,195)"/>
<path d="M0 0 C2.35352451 1.56901634 2.87641182 2.6733741 3.875 5.3125 C4.0431427 8.92756814 2.86997685 10.95263032 1 14 C-2.09173752 15.54586876 -4.59429552 15.29359521 -8 15 C-10.4375 13.5 -10.4375 13.5 -12 11 C-12.61014545 8.1910285 -12.65360928 5.80363979 -12 3 C-8.3655827 -1.51548816 -5.40521016 -1.50144727 0 0 Z " fill="#000000" transform="translate(227,157)"/>
<path d="M0 0 C2.875 1.5 2.875 1.5 5 4 C5.71730941 6.8229596 5.71730941 9.1770404 5 12 C2.42627616 15.02791041 0.84753406 15.86162709 -3.0625 16.5 C-6.71305549 15.87862885 -7.83229623 14.97055702 -10 12 C-11.09310383 8.95492506 -11.12181739 7.4365123 -10.25 4.3125 C-7.80679352 -0.20743199 -4.76743586 -0.5720923 0 0 Z " fill="#000000" transform="translate(123,174)"/>
</svg>
