<?xml version="1.0" encoding="UTF-8"?>
<svg version="1.1" xmlns="http://www.w3.org/2000/svg" width="512" height="512">
<path d="M0 0 C1.00776993 -0.0159874 2.01553986 -0.03197479 3.05384827 -0.04844666 C4.13105637 -0.05380936 5.20826447 -0.05917206 6.31811523 -0.06469727 C7.43355209 -0.07372574 8.54898895 -0.08275421 9.69822693 -0.09205627 C12.05253418 -0.10654308 14.40688155 -0.1154416 16.76123047 -0.11914062 C20.36746409 -0.13107293 23.97200632 -0.18030687 27.57788086 -0.23071289 C29.86628397 -0.2401732 32.15469758 -0.24741011 34.44311523 -0.25219727 C35.52234756 -0.27172958 36.6015799 -0.2912619 37.71351624 -0.31138611 C45.15841013 -0.26634605 45.15841013 -0.26634605 48.49755859 2.64990234 C50.09319754 5.8692881 50.34296864 7.75615308 49.81420898 11.30639648 C48.03436494 14.44231219 47.29112692 15.14742384 43.81420898 16.30639648 C42.30103695 16.41553395 40.78376585 16.47231534 39.2668457 16.49584961 C38.3493454 16.51256714 37.43184509 16.52928467 36.48654175 16.54650879 C35.00518234 16.56687195 35.00518234 16.56687195 33.49389648 16.58764648 C32.47949493 16.60605591 31.46509338 16.62446533 30.41995239 16.64343262 C26.07280149 16.7222246 21.7254957 16.79004452 17.37817383 16.85864258 C14.2083331 16.91021933 11.03863192 16.96751321 7.86889648 17.02514648 C6.87727509 17.03872192 5.88565369 17.05229736 4.86398315 17.06628418 C3.95278717 17.08300171 3.04159119 17.09971924 2.1027832 17.11694336 C1.29686737 17.12947144 0.49095154 17.14199951 -0.33938599 17.15490723 C-2.20237187 17.10733796 -2.20237187 17.10733796 -3.18579102 18.30639648 C-3.51579102 24.24639648 -3.84579102 30.18639648 -4.18579102 36.30639648 C46.63420898 36.30639648 97.45420898 36.30639648 149.81420898 36.30639648 C149.48420898 30.03639648 149.15420898 23.76639648 148.81420898 17.30639648 C145.62728394 17.28452271 145.62728394 17.28452271 142.37597656 17.26220703 C135.3510111 17.21183766 128.32626675 17.14523848 121.30151844 17.07068157 C117.04299123 17.02598132 112.78455961 16.98672453 108.52587891 16.95996094 C104.41489323 16.93392435 100.30427546 16.89351973 96.19351768 16.84321022 C94.62631499 16.82654385 93.05904866 16.81502812 91.49176979 16.80878258 C89.29392688 16.79913868 87.09702469 16.77107794 84.89941406 16.73876953 C83.64920975 16.72766647 82.39900543 16.71656342 81.11091614 16.7051239 C77.55875118 16.27549958 75.65259316 15.44619264 72.81420898 13.30639648 C71.26834023 10.21465897 71.52061377 7.71210096 71.81420898 4.30639648 C73.38299561 2.11218262 73.38299561 2.11218262 75.81420898 0.30639648 C79.08868408 -0.20153809 79.08868408 -0.20153809 83.02612305 -0.21118164 C83.7453746 -0.21819092 84.46462616 -0.2252002 85.20567322 -0.23242188 C87.58078779 -0.25000911 89.95470749 -0.23837266 92.32983398 -0.22485352 C93.98647286 -0.22754943 95.64311018 -0.23143268 97.29974365 -0.2364502 C100.77330579 -0.24234719 104.24645643 -0.23378054 107.7199707 -0.21508789 C112.15633294 -0.19236904 116.59172339 -0.20537457 121.02804947 -0.22937775 C124.45120445 -0.24389145 127.87413247 -0.23920315 131.29729462 -0.22886658 C132.93184272 -0.22621093 134.56641189 -0.22942788 136.20093536 -0.23878479 C152.0822078 -0.30971089 152.0822078 -0.30971089 158.81420898 4.30639648 C165.30607844 10.79826594 166.1952868 17.45468855 166.22436523 26.27514648 C166.20696289 28.08499023 166.20696289 28.08499023 166.18920898 29.93139648 C166.20081055 31.14569336 166.21241211 32.35999023 166.22436523 33.61108398 C166.22049805 34.78155273 166.21663086 35.95202148 166.21264648 37.15795898 C166.2092627 38.21837402 166.20587891 39.27878906 166.20239258 40.37133789 C165.59465698 44.96643055 163.66608469 47.51841146 160.31420898 50.61889648 C157.81420898 52.30639648 157.81420898 52.30639648 154.81420898 52.30639648 C154.81420898 67.15639648 154.81420898 82.00639648 154.81420898 97.30639648 C159.76420898 97.30639648 164.71420898 97.30639648 169.81420898 97.30639648 C175.93920898 99.24389648 175.93920898 99.24389648 178.44702148 100.33374023 C180.99749213 101.38170589 183.05732526 102.09135095 185.81420898 102.30639648 C188.35443311 101.20579972 188.35443311 101.20579972 190.75170898 99.49389648 C196.30883673 95.94030293 200.11214813 94.30639648 206.81420898 94.30639648 C206.81420898 80.44639648 206.81420898 66.58639648 206.81420898 52.30639648 C205.16420898 51.97639648 203.51420898 51.64639648 201.81420898 51.30639648 C195.26718465 44.46178013 195.60526419 39.12538139 195.56420898 30.11889648 C195.53327148 28.45117188 195.53327148 28.45117188 195.50170898 26.74975586 C195.4641295 18.81578717 196.19937781 12.48888066 201.12670898 5.99389648 C205.79186554 1.32873993 209.9522681 -0.06748107 216.48019409 -0.08128357 C217.12487739 -0.08666911 217.76956068 -0.09205464 218.43377984 -0.09760338 C220.58015588 -0.11183747 222.72591121 -0.10479095 224.87231445 -0.09765625 C226.41685479 -0.10336229 227.96139091 -0.11032745 229.50592041 -0.11845398 C233.69198014 -0.1363763 237.87783013 -0.13521859 242.06391668 -0.12951159 C245.56282115 -0.12641793 249.06168544 -0.13251429 252.56058419 -0.13855034 C260.81784868 -0.15259136 269.0750097 -0.15103824 277.33227539 -0.13964844 C285.84042204 -0.12817163 294.34825332 -0.14223641 302.85635841 -0.16904491 C310.17036684 -0.19122492 317.48427645 -0.19783399 324.79831612 -0.1919685 C329.16255567 -0.18860273 333.52659314 -0.19098847 337.89080429 -0.20821953 C341.99659078 -0.22372301 346.10191144 -0.21969573 350.20767975 -0.20091438 C351.71045215 -0.19723766 353.21325932 -0.2003102 354.7159996 -0.21080017 C362.64077067 -0.26187557 369.01655854 -0.17595599 375.81420898 4.30639648 C377.65405273 6.12280273 377.65405273 6.12280273 378.75170898 7.86889648 C379.13198242 8.44768555 379.51225586 9.02647461 379.90405273 9.62280273 C382.85326569 15.07821383 382.11364304 21.41536175 382.16430664 27.44775391 C382.18084848 28.88997555 382.20811612 30.3321158 382.24633789 31.77392578 C382.30139984 33.86460412 382.32302053 35.95336989 382.33764648 38.04467773 C382.35746582 39.29289307 382.37728516 40.5411084 382.39770508 41.82714844 C381.60577476 46.54924008 380.33897139 48.0713779 376.81420898 51.30639648 C373.63656616 51.96943665 373.63656616 51.96943665 370.81420898 52.30639648 C370.73624983 61.57353474 370.70695193 70.83919907 370.73905087 80.10661411 C370.75244419 84.41044402 370.74934311 88.71292171 370.70800781 93.01660156 C370.66869821 97.17348816 370.67342049 101.32824698 370.70813179 105.48515129 C370.71371259 107.0675173 370.70366918 108.65002115 370.67744255 110.23217964 C370.28933268 119.04924097 370.28933268 119.04924097 373.80641174 126.77967834 C376.06490508 128.52889369 378.33433006 129.9012599 380.81420898 131.30639648 C383.22436523 134.10717773 383.22436523 134.10717773 384.87670898 136.61889648 C385.44518555 137.4606543 386.01366211 138.30241211 386.59936523 139.16967773 C387.81420898 141.30639648 387.81420898 141.30639648 387.81420898 143.30639648 C389.04461914 143.28544922 390.2750293 143.26450195 391.54272461 143.24291992 C396.13472728 143.17018049 400.72667964 143.12447378 405.3190918 143.08666992 C407.30160097 143.06663152 409.28405162 143.03939296 411.26635742 143.00463867 C414.1262054 142.95577695 416.98526779 142.93334976 419.84545898 142.91577148 C420.72286743 142.89512634 421.60027588 142.8744812 422.50427246 142.85321045 C428.24799784 142.85114525 433.25787682 143.57780537 437.81420898 147.30639648 C442.217254 152.04895846 443.54792645 156.10964244 443.4453125 162.60229492 C443.45604546 163.8016291 443.45604546 163.8016291 443.46699524 165.02519226 C443.48383084 167.6559763 443.46448965 170.28504136 443.44311523 172.91577148 C443.44394538 174.76597228 443.44641027 176.616173 443.45042419 178.46636963 C443.45328 182.34670191 443.43861967 186.22645645 443.41113281 190.10668945 C443.37733705 195.02503233 443.38297417 199.94232339 443.40179539 204.86071396 C443.41249606 208.68750385 443.40330616 212.51405965 443.38841057 216.34082794 C443.38330389 218.15048776 443.38361675 219.96017287 443.38995552 221.7698288 C443.43519944 242.47598312 440.21463491 264.0835827 427.81420898 281.30639648 C424.92559189 282.75070503 423.01773197 282.68328154 419.81420898 282.30639648 C416.93920898 280.18139648 416.93920898 280.18139648 414.81420898 277.30639648 C414.39321895 272.90404357 415.08004812 270.08995433 417.06420898 266.18139648 C432.82515965 233.23074041 426.81420898 194.34677873 426.81420898 159.30639648 C268.41420898 159.30639648 110.01420898 159.30639648 -53.18579102 159.30639648 C-56.23320544 237.39446362 -56.23320544 237.39446362 -20.06860352 298.43139648 C0.08780469 317.33264374 26.80831663 324.4682935 53.77816772 324.44683838 C55.54593911 324.45129506 55.54593911 324.45129506 57.34942305 324.45584178 C60.59887218 324.462982 63.84828895 324.46569796 67.0977447 324.46643925 C70.61128112 324.46830045 74.12480633 324.47585317 77.63833618 324.48257446 C85.31238638 324.4961165 92.98643132 324.50217636 100.66049147 324.50658512 C105.46068017 324.50935517 110.26086688 324.51359395 115.06105423 324.51808929 C128.37499299 324.53027775 141.68893016 324.54057713 155.00287437 324.54396439 C155.85388587 324.54418395 156.70489736 324.54440352 157.58169708 324.54462974 C158.43464537 324.54484802 159.28759366 324.54506629 160.16638887 324.54529119 C161.89453594 324.54573464 163.62268301 324.5461812 165.35083008 324.54663086 C166.20803495 324.54685229 167.06523982 324.54707372 167.9484206 324.54730186 C181.81866933 324.55124459 195.68886536 324.56868447 209.55909376 324.59199038 C223.83039912 324.61577478 238.10167812 324.62816949 252.3730036 324.6293323 C260.37323418 324.63024522 268.37339611 324.63589993 276.37360764 324.65415192 C283.18994396 324.66964909 290.00619042 324.67461734 296.82254104 324.66641381 C300.29228171 324.66254067 303.76184197 324.66327051 307.23155975 324.67747116 C340.01658299 324.7888036 368.26473075 320.11953041 393.81420898 298.30639648 C395.12325195 296.94901367 395.12325195 296.94901367 396.45874023 295.56420898 C399.53711606 292.61346068 401.60580194 292.38291298 405.81420898 292.30639648 C408.46236909 293.09368733 409.44305428 293.82919758 411.12670898 295.99389648 C412.22700773 299.69490134 411.97803193 301.56991229 410.81420898 305.30639648 C396.51189363 324.25872569 368.49881475 336.43691779 345.62670898 339.93920898 C344.69858398 340.06038086 343.77045898 340.18155273 342.81420898 340.30639648 C341.480802 340.49076041 340.14747455 340.67570015 338.81420898 340.86108398 C335.15018311 341.36399785 331.48320004 341.84096442 327.81420898 342.30639648 C328.22316406 343.21965698 328.22316406 343.21965698 328.64038086 344.15136719 C329.88606494 346.96506942 331.10009628 349.79143583 332.31420898 352.61889648 C332.7434668 353.57602539 333.17272461 354.5331543 333.61499023 355.51928711 C336.89637496 363.25397969 338.37186956 370.45016056 335.75170898 378.61889648 C332.60286483 382.98664806 328.97350715 386.58663043 323.81420898 388.30639648 C322.27252521 388.39911196 320.72713325 388.43549903 319.18266582 388.43782425 C318.22594248 388.44166539 317.26921914 388.44550654 316.28350419 388.44946408 C315.2302156 388.4485976 314.17692701 388.44773112 313.09172058 388.44683838 C311.41588574 388.45129506 311.41588574 388.45129506 309.70619565 388.45584178 C305.94295759 388.46454966 302.17975126 388.46603879 298.41650391 388.4675293 C295.72632191 388.47215597 293.03614282 388.47715965 290.34596252 388.48257446 C283.02365844 388.49616097 275.70135984 388.50218296 268.37904525 388.50658512 C263.80780849 388.50934694 259.23657385 388.51358418 254.66533852 388.51808929 C242.01129254 388.53028225 229.35724825 388.54058159 216.70319653 388.54396439 C215.89318578 388.54418395 215.08317503 388.54440352 214.2486185 388.54462974 C213.03068046 388.54495715 213.03068046 388.54495715 211.78813761 388.54529119 C210.14277534 388.54573465 208.49741306 388.54618122 206.85205078 388.54663086 C205.62781366 388.546963 205.62781366 388.546963 204.37884448 388.54730186 C191.15255001 388.55125033 177.92631063 388.56870572 164.70003744 388.59199038 C151.12394231 388.61569818 137.54787483 388.62816597 123.97175866 388.6293323 C116.34800073 388.63024937 108.72431457 388.63600973 101.1005764 388.65415192 C94.60907617 388.66954518 88.11766988 388.67467797 81.62615486 388.66641381 C78.31399847 388.66250455 75.00207108 388.66507923 71.68992996 388.67747116 C68.09900534 388.69012005 64.50856909 388.68435187 60.91764832 388.67388916 C59.87105189 388.68194556 58.82445547 388.69000197 57.746144 388.69830251 C51.41873611 388.65507325 46.79437476 388.05539636 41.95092773 383.58764648 C41.47268555 382.99983398 40.99444336 382.41202148 40.50170898 381.80639648 C40.01057617 381.21858398 39.51944336 380.63077148 39.01342773 380.02514648 C35.7829381 375.39512877 36.26128994 369.68797123 36.81420898 364.30639648 C37.97684787 360.24854569 39.58871899 356.46627282 41.31420898 352.61889648 C41.7434668 351.61922852 42.17272461 350.61956055 42.61499023 349.58959961 C43.66397854 347.15361565 44.73027831 344.72698281 45.81420898 342.30639648 C45.12085449 342.21664551 44.4275 342.12689453 43.71313477 342.03442383 C8.83405578 337.40425348 -22.29491859 325.5739613 -44.77172852 297.09936523 C-54.42448455 284.36060484 -62.32534377 269.88106716 -66.18579102 254.30639648 C-66.43099991 253.31934219 -66.6762088 252.3322879 -66.92884827 251.31532288 C-69.31596577 240.6739928 -69.67627528 230.40654869 -69.68969727 219.52905273 C-69.69936476 217.66393313 -69.70945908 215.79881569 -69.71995544 213.93370056 C-69.73777216 210.05519326 -69.74349039 206.17688509 -69.74169922 202.29833984 C-69.74139252 197.34308049 -69.78260299 192.38909303 -69.83401585 187.43413639 C-69.86742473 183.59496733 -69.8734558 179.7561067 -69.87187004 175.91680717 C-69.87539326 174.08963002 -69.88856765 172.26244344 -69.91186714 170.43541145 C-70.0966927 154.47022574 -70.0966927 154.47022574 -66.58007812 149.31591797 C-62.0861633 144.73495915 -57.39163094 143.2098782 -51.07666016 142.96582031 C-49.12469149 142.9665626 -47.17267625 142.98283033 -45.22094727 143.01342773 C-44.30406128 143.01644897 -43.38717529 143.01947021 -42.44250488 143.02258301 C-39.04431774 143.03818198 -35.6462921 143.08006546 -32.24829102 143.11889648 C-20.83235352 143.21170898 -20.83235352 143.21170898 -9.18579102 143.30639648 C-9.18579102 113.27639648 -9.18579102 83.24639648 -9.18579102 52.30639648 C-10.83579102 51.97639648 -12.48579102 51.64639648 -14.18579102 51.30639648 C-20.07153049 46.08949104 -20.07153049 46.08949104 -20.36279297 41.54418945 C-20.41736717 38.43106819 -20.4624059 35.31839581 -20.48095703 32.20483398 C-20.49804763 30.20980718 -20.54192256 28.21506801 -20.58618164 26.22045898 C-20.63877083 18.22690201 -20.49404961 11.90504928 -14.77319336 5.79858398 C-10.27818007 1.7684728 -5.97019159 0.07195135 0 0 Z M213.81420898 16.30639648 C210.24255843 21.06294711 210.24255843 21.06294711 211.81420898 36.30639648 C262.63420898 36.30639648 313.45420898 36.30639648 365.81420898 36.30639648 C365.81420898 30.03639648 365.81420898 23.76639648 365.81420898 17.30639648 C364.02880211 15.52098961 361.38800159 16.17242145 358.97486877 16.16595459 C357.70584717 16.16024445 356.43682556 16.1545343 355.12934875 16.14865112 C353.70993052 16.14740564 352.29051217 16.14628057 350.87109375 16.14526367 C349.38652421 16.14063793 347.90195586 16.13561361 346.41738892 16.13021851 C342.37405483 16.11706997 338.33073736 16.11064492 334.28738523 16.10620785 C331.7641631 16.1032814 329.24094557 16.09917745 326.71772575 16.09470367 C318.8314909 16.081023 310.94526648 16.07135883 303.05902058 16.06750178 C293.93981362 16.06301782 284.82075632 16.04545672 275.70159489 16.01650119 C268.66295739 15.9949236 261.62436211 15.98479963 254.58569187 15.98346066 C250.37696557 15.98240991 246.16837982 15.9764451 241.95968819 15.95864105 C238.00263329 15.94222766 234.04582562 15.93997177 230.08874893 15.94878006 C228.63344221 15.94955404 227.17812256 15.94516054 225.72284889 15.93532181 C223.74211665 15.92271207 221.76128623 15.93023046 219.78053284 15.93890381 C218.11495756 15.93670397 218.11495756 15.93670397 216.41573429 15.93445969 C215.55723094 16.05719883 214.69872759 16.17993797 213.81420898 16.30639648 Z M6.81420898 52.30639648 C6.81420898 82.33639648 6.81420898 112.36639648 6.81420898 143.30639648 C24.63420898 143.30639648 42.45420898 143.30639648 60.81420898 143.30639648 C62.79420898 139.67639648 64.77420898 136.04639648 66.81420898 132.30639648 C75.48333911 121.36339616 85.81033443 114.47689269 99.81420898 112.30639648 C108.36335217 111.88626716 116.51634752 112.11966593 124.81420898 114.30639648 C125.15452148 113.8590918 125.49483398 113.41178711 125.84545898 112.95092773 C126.33014648 112.34635742 126.81483398 111.74178711 127.31420898 111.11889648 C128.01030273 110.23137695 128.01030273 110.23137695 128.72045898 109.32592773 C130.81420898 107.30639648 130.81420898 107.30639648 138.81420898 102.30639648 C138.81420898 85.80639648 138.81420898 69.30639648 138.81420898 52.30639648 C95.25420898 52.30639648 51.69420898 52.30639648 6.81420898 52.30639648 Z M222.81420898 52.30639648 C222.81420898 66.49639648 222.81420898 80.68639648 222.81420898 95.30639648 C225.81417796 92.3064275 228.39617028 89.65985318 231.00170898 86.43139648 C238.43774551 77.90087839 248.58541618 72.04013506 259.81420898 70.30639648 C274.44162264 69.37694624 286.12384302 71.21438504 298.47436523 79.72045898 C300.5626381 81.13588266 302.46900742 82.37910967 304.81420898 83.30639648 C307.71413698 82.50689055 307.71413698 82.50689055 310.81420898 81.30639648 C325.54455614 78.57855442 337.04282109 81.91489726 349.81420898 89.30639648 C351.46420898 90.62639648 353.11420898 91.94639648 354.81420898 93.30639648 C354.81420898 79.77639648 354.81420898 66.24639648 354.81420898 52.30639648 C311.25420898 52.30639648 267.69420898 52.30639648 222.81420898 52.30639648 Z M240.81420898 98.30639648 C238.79539383 101.40495459 236.9921064 104.52189114 235.28686523 107.80249023 C233.81420898 110.30639648 233.81420898 110.30639648 230.81420898 112.30639648 C226.42364203 112.75441352 223.05415402 112.13901004 218.93920898 110.74389648 C212.32813374 108.64037254 206.9346509 109.14514852 200.62670898 111.99389648 C197.82866539 113.49798316 195.88204793 115.14939648 193.75170898 117.49389648 C191.46842244 119.93187724 190.72630728 120.33308093 187.31420898 121.36889648 C183.16727484 121.29484409 181.38054457 120.40424095 177.81420898 118.30639648 C168.98105532 113.42060492 162.41544867 111.12329213 152.39624023 113.46264648 C144.31161813 116.10451997 139.00870822 120.53448291 134.18920898 127.45092773 C132.81420898 129.30639648 132.81420898 129.30639648 130.81420898 130.30639648 C126.05144245 130.82999872 121.91943705 130.51776288 117.43920898 128.80639648 C109.22181118 125.82473652 101.47099654 126.73499377 93.46264648 129.97045898 C86.86799389 133.29696516 82.61646501 136.9693031 78.81420898 143.30639648 C174.18420898 143.30639648 269.55420898 143.30639648 367.81420898 143.30639648 C363.46190021 137.72943559 363.46190021 137.72943559 358.12670898 135.05639648 C354.0929851 132.96952777 354.0929851 132.96952777 352.89624023 130.12280273 C352.42156323 127.52222187 352.11238565 124.93264483 351.81420898 122.30639648 C349.7046085 112.4566421 345.32409126 105.38658634 337.02124023 99.56030273 C330.94277307 96.10687272 324.76502049 94.86495636 317.81420898 95.30639648 C314.22324735 96.46464192 310.80190038 97.87396554 307.31420898 99.31030273 C303.30093521 100.45247328 300.83603315 100.35514968 296.81420898 99.30639648 C294.98608398 97.88842773 294.98608398 97.88842773 293.56420898 96.11889648 C287.99410185 89.9930417 280.24961345 85.76121085 271.96655273 85.06811523 C258.80790287 84.76433109 249.54676177 88.20519828 240.81420898 98.30639648 Z M64.81420898 341.30639648 C63.85336961 343.21598831 62.89392226 345.12628058 61.93505859 347.03686523 C61.4006163 348.1005835 60.86617401 349.16430176 60.3155365 350.26025391 C58.52187284 353.89953661 56.90896595 357.549382 55.37670898 361.30639648 C55.10922852 361.93416992 54.84174805 362.56194336 54.56616211 363.20874023 C53.04212742 366.97306613 52.78965182 368.20816784 53.81420898 372.30639648 C141.59420898 372.30639648 229.37420898 372.30639648 319.81420898 372.30639648 C320.98009427 367.64285533 320.40063332 366.5597542 318.54077148 362.26342773 C318.04577148 361.1077832 317.55077148 359.95213867 317.04077148 358.76147461 C316.24799805 356.95839844 316.24799805 356.95839844 315.43920898 355.11889648 C314.91217439 353.89341157 314.38612134 352.66750403 313.86108398 351.44116211 C311.9069511 346.01973019 311.9069511 346.01973019 308.81420898 341.30639648 C305.67919202 341.20833146 302.56618781 341.17649254 299.43077087 341.18614197 C298.43352967 341.18528754 297.43628847 341.18443312 296.40882784 341.1835528 C293.03994945 341.18189498 289.67111996 341.18742429 286.30224609 341.19287109 C283.89818829 341.19315293 281.49413039 341.19299531 279.09007263 341.19242859 C273.90026812 341.19220027 268.71047484 341.1950516 263.52067375 341.20066643 C256.0170111 341.20877934 248.51335453 341.21139643 241.00968797 341.21265442 C228.83669609 341.21484527 216.6637109 341.22150624 204.49072266 341.23095703 C192.66292352 341.2401303 180.83512619 341.24721155 169.00732422 341.25146484 C168.27876002 341.25172757 167.55019582 341.25199029 166.79955392 341.25226098 C163.14471118 341.25356597 159.48986843 341.25482969 155.83502567 341.25607288 C125.49474865 341.26644652 95.15447974 341.28413984 64.81420898 341.30639648 Z " fill="#000000" transform="translate(69.185791015625,61.693603515625)"/>
</svg>
