<?xml version="1.0" encoding="UTF-8"?>
<svg version="1.1" xmlns="http://www.w3.org/2000/svg" width="512" height="512">
<path d="M0 0 C10.97936359 10.27855315 21.71436294 22.91708605 23.625 38.4375 C23.64692391 40.32672443 23.6334322 42.21653389 23.59375 44.10546875 C22.8573644 56.06564985 22.8573644 56.06564985 27.4765625 66.60546875 C30.4096132 69.58036794 33.63749024 72.19479357 36.86279297 74.84423828 C45.82095977 82.9435728 53.13344241 98.04655005 53.75922108 110.00172329 C53.76349456 110.9766879 53.76776804 111.95165251 53.77217102 112.9561615 C53.78290398 114.64009506 53.78290398 114.64009506 53.79385376 116.35804749 C53.79788712 118.19936501 53.79788712 118.19936501 53.80200195 120.07788086 C53.81185875 122.02253235 53.81185875 122.02253235 53.82191467 124.00646973 C53.84292183 128.30508189 53.85331896 132.60369424 53.86328125 136.90234375 C53.86733108 138.38668905 53.87144807 139.87103417 53.87563133 141.3553791 C53.89468145 148.33553376 53.90890873 155.31567791 53.9172433 162.29585356 C53.92699326 170.3271503 53.95325449 178.35816978 53.99374419 186.38936895 C54.02402821 192.61210885 54.03872404 198.83476987 54.04202431 205.05758196 C54.04436227 208.76645352 54.05315613 212.47502889 54.07848549 216.18382072 C54.10636739 220.33357667 54.10189783 224.48272433 54.0949707 228.63256836 C54.10778076 229.84189529 54.12059082 231.05122223 54.13378906 232.29719543 C54.00726169 253.21559177 43.38849247 269.35873805 29.29296875 283.83203125 C-28.35738482 338.33960575 -125.77630152 348.70580472 -201.625 348.625 C-203.20571289 348.62409363 -203.20571289 348.62409363 -204.81835938 348.62316895 C-268.41109007 348.52458675 -334.73616866 339.67253051 -392.375 311.4375 C-393.12604004 311.07156738 -393.87708008 310.70563477 -394.65087891 310.32861328 C-421.43642381 297.12529245 -445.66152175 278.14008723 -456.68359375 249.62109375 C-458.04414355 245.32421614 -458.50243304 241.29740675 -458.52217102 236.79858398 C-458.52932632 235.67458694 -458.53648163 234.5505899 -458.54385376 233.39253235 C-458.54654266 232.16858261 -458.54923157 230.94463287 -458.55200195 229.68359375 C-458.56185875 227.73872322 -458.56185875 227.73872322 -458.57191467 225.75456238 C-458.59289356 221.46138737 -458.60331483 217.16821227 -458.61328125 212.875 C-458.61733184 211.39158104 -458.62144885 209.90816225 -458.62563133 208.42474365 C-458.64467355 201.44993178 -458.65890369 194.47513039 -458.6672433 187.50029755 C-458.67699676 179.47750089 -458.70327055 171.45498152 -458.74374419 163.43228245 C-458.77402718 157.21376864 -458.78872385 150.99533374 -458.79202431 144.7767477 C-458.79436194 141.07124436 -458.8031518 137.36603753 -458.82848549 133.66061401 C-458.85636587 129.51575656 -458.85189814 125.37150813 -458.8449707 121.2265625 C-458.85778076 120.01880661 -458.87059082 118.81105072 -458.88378906 117.56669617 C-458.7809916 100.59288972 -451.8378566 85.79711069 -440.375 73.4375 C-439.41078125 72.70273438 -438.4465625 71.96796875 -437.453125 71.2109375 C-431.5658579 66.53364145 -431.5658579 66.53364145 -428.85546875 59.81445312 C-428.39480808 54.6131129 -428.43098064 49.42865739 -428.44921875 44.2109375 C-428.4781001 27.90610503 -419.50992497 14.76705289 -408.46875 3.46875 C-348.51762059 -56.03719776 -236.75834314 -60.95743232 0 0 Z M-251.375 -37.5625 C-250.08043266 -33.67879798 -248.16973476 -32.49159074 -245 -29.9375 C-244.02289063 -29.14085937 -243.04578125 -28.34421875 -242.0390625 -27.5234375 C-238.16942545 -24.67511228 -235.61901723 -24.45747139 -230.95703125 -24.68359375 C-229.87631348 -24.73209473 -228.7955957 -24.7805957 -227.68212891 -24.83056641 C-226.52890137 -24.88647949 -225.37567383 -24.94239258 -224.1875 -25 C-211.92169121 -25.52460689 -199.78264707 -26.02116574 -187.53125 -25.01953125 C-185.6747583 -24.89263916 -185.6747583 -24.89263916 -183.78076172 -24.76318359 C-181.3157093 -24.59158818 -178.85294639 -24.38145714 -176.39501953 -24.12744141 C-171.26460626 -23.79568092 -167.8005994 -23.63030519 -163.40527344 -26.50439453 C-160.91788361 -28.75422465 -158.65174059 -31.10329801 -156.375 -33.5625 C-155.385 -34.2225 -154.395 -34.8825 -153.375 -35.5625 C-153.375 -36.2225 -153.375 -36.8825 -153.375 -37.5625 C-185.80537427 -40.90693794 -218.94462573 -40.90693794 -251.375 -37.5625 Z M-284.375 -29.5625 C-290.10216325 -19.06706537 -290.10216325 -19.06706537 -292.375 -7.5625 C-300.22592918 -6.17013435 -300.22592918 -6.17013435 -303.9375 -7.4375 C-306.84957045 -11.74229979 -305.56464715 -17.21126408 -304.875 -22.125 C-304.71 -22.929375 -304.545 -23.73375 -304.375 -24.5625 C-316.77162453 -16.93380798 -325.96594147 -6.33924766 -330.0625 7.8125 C-331.12415348 16.73038927 -329.90329969 23.6618228 -325.6875 31.625 C-318.6405871 40.19556975 -309.11710266 43.60317716 -298.375 45.4375 C-293.69015941 45.68587295 -289.00327122 45.66870873 -284.3125 45.6875 C-283.05244141 45.708125 -281.79238281 45.72875 -280.49414062 45.75 C-267.4602126 45.80388704 -255.63482348 43.72934702 -245.5625 35 C-244.840625 34.154375 -244.11875 33.30875 -243.375 32.4375 C-242.653125 31.6125 -241.93125 30.7875 -241.1875 29.9375 C-237.34750508 22.5223374 -236.48159156 13.91797059 -238.55859375 5.83203125 C-242.68054976 -6.25772489 -250.48568728 -16.7397356 -261.375 -23.5625 C-262.035 -23.5625 -262.695 -23.5625 -263.375 -23.5625 C-263.21 -22.799375 -263.045 -22.03625 -262.875 -21.25 C-262.20937851 -16.34104151 -262.29579922 -11.50814886 -262.375 -6.5625 C-265.92853929 -5.3779869 -268.64513478 -5.29608106 -272.375 -5.5625 C-274.89580647 -7.53831841 -275.90300402 -9.42178032 -276.875 -12.43359375 C-277.1225 -13.17287109 -277.37 -13.91214844 -277.625 -14.67382812 C-277.8725 -15.44146484 -278.12 -16.20910156 -278.375 -17 C-280.46694257 -23.74796761 -280.46694257 -23.74796761 -284.375 -29.5625 Z M-121.375 -29.5625 C-124.31462603 -22.65919788 -127.08879954 -15.75847499 -129.48046875 -8.64453125 C-130.375 -6.5625 -130.375 -6.5625 -132.375 -5.5625 C-136.04829964 -5.42892547 -138.87352959 -5.3953432 -142.375 -6.5625 C-142.55951025 -18.08414009 -142.55951025 -18.08414009 -141.375 -23.5625 C-151.81380567 -20.6265859 -158.04922859 -10.29416188 -163.375 -1.5625 C-167.99619744 7.30357587 -168.30733844 16.98582308 -165.375 26.4375 C-161.58688817 34.8452604 -155.28713709 39.0176044 -146.94140625 42.43359375 C-138.28232711 45.48544458 -129.85441919 45.64936631 -120.75 45.6875 C-119.54214844 45.708125 -118.33429688 45.72875 -117.08984375 45.75 C-104.47292527 45.80432473 -93.62439268 43.41257341 -83.1875 36.25 C-78.25397852 31.31647852 -74.82630405 25.50793016 -74.375 18.4375 C-74.2925 17.2 -74.21 15.9625 -74.125 14.6875 C-74.35664711 2.50286196 -81.21608521 -7.80977944 -89.20703125 -16.51171875 C-92.59872767 -19.72008022 -96.36453277 -22.19521031 -100.375 -24.5625 C-100.21 -23.758125 -100.045 -22.95375 -99.875 -22.125 C-98.32888503 -11.10893083 -98.32888503 -11.10893083 -100.8125 -7.4375 C-104.74509796 -6.09466167 -108.3440371 -6.84760701 -112.375 -7.5625 C-112.54515625 -8.24054688 -112.7153125 -8.91859375 -112.890625 -9.6171875 C-114.57212827 -16.07487559 -116.33886201 -22.58856048 -119.375 -28.5625 C-120.035 -28.8925 -120.695 -29.2225 -121.375 -29.5625 Z M-227.375 -9.5625 C-227.18164062 -8.96824219 -226.98828125 -8.37398437 -226.7890625 -7.76171875 C-226.52867187 -6.93285156 -226.26828125 -6.10398437 -226 -5.25 C-225.74476563 -4.44949219 -225.48953125 -3.64898437 -225.2265625 -2.82421875 C-224.00190615 1.86655212 -223.2422368 6.66769761 -222.375 11.4375 C-209.175 11.4375 -195.975 11.4375 -182.375 11.4375 C-181.715 7.8075 -181.055 4.1775 -180.375 0.4375 C-179.87692863 -1.47025043 -179.34894919 -3.37147753 -178.75 -5.25 C-178.48960937 -6.07886719 -178.22921875 -6.90773437 -177.9609375 -7.76171875 C-177.76757812 -8.35597656 -177.57421875 -8.95023438 -177.375 -9.5625 C-194.06730992 -10.97881721 -210.68269008 -10.97881721 -227.375 -9.5625 Z M-58.375 15.4375 C-58.85459778 17.66657395 -59.3336608 19.89576297 -59.8125 22.125 C-60.07933594 23.36636719 -60.34617187 24.60773438 -60.62109375 25.88671875 C-61.22555136 28.73362015 -61.81264684 31.58205626 -62.375 34.4375 C-60.61736328 35.18193359 -60.61736328 35.18193359 -58.82421875 35.94140625 C-49.83637022 39.80537692 -41.4329405 43.82394357 -33.375 49.4375 C-32.14718388 50.25203946 -30.91825995 51.06491551 -29.6875 51.875 C-28.924375 52.390625 -28.16125 52.90625 -27.375 53.4375 C-25.49560738 49.67871476 -25.81512883 45.45142506 -26.91796875 41.484375 C-32.16151245 29.37252759 -44.22690614 22.36963722 -55.375 16.4375 C-56.365 16.1075 -57.355 15.7775 -58.375 15.4375 Z M-369.24609375 30.1953125 C-374.15805887 35.36864824 -378.49316331 40.08097396 -378.5625 47.5 C-378.81714222 51.44380631 -378.81714222 51.44380631 -376.375 53.4375 C-375.7665625 52.9528125 -375.158125 52.468125 -374.53125 51.96875 C-364.6162708 44.38670708 -353.80670646 39.33680277 -342.375 34.4375 C-343.695 28.1675 -345.015 21.8975 -346.375 15.4375 C-353.54672353 15.4375 -364.54263757 25.71656839 -369.24609375 30.1953125 Z M-396.09375 14.125 C-405.32880136 23.48655891 -412.4024001 33.57029413 -412.6875 47 C-412.5343455 61.7794095 -405.08571259 72.28734324 -394.83007812 82.40014648 C-389.49689939 87.44863914 -383.62011689 91.58889933 -377.375 95.4375 C-376.72708496 95.8382373 -376.07916992 96.23897461 -375.41162109 96.65185547 C-343.2672764 116.20105204 -304.9285157 125.30148129 -268.0625 130.6875 C-267.02818848 130.83864258 -265.99387695 130.98978516 -264.92822266 131.14550781 C-244.27677146 133.96697054 -223.76469443 134.81198772 -202.9375 134.75 C-201.663302 134.74817719 -200.389104 134.74635437 -199.07629395 134.74447632 C-179.66508917 134.69779284 -160.61142638 134.18517796 -141.375 131.4375 C-139.51681641 131.18009033 -139.51681641 131.18009033 -137.62109375 130.91748047 C-94.20999944 124.7403423 -45.08125167 113.42404647 -11.375 83.4375 C-10.52292969 82.67953125 -9.67085938 81.9215625 -8.79296875 81.140625 C1.13269495 71.79532244 7.5068952 61.46454933 8 47.6875 C7.73341105 33.69157988 0.93417221 23.94085522 -8.375 13.9375 C-22.07000292 0.82675488 -49.7579372 -18.5625 -69.375 -18.5625 C-68.70839747 -16.89580768 -68.04171656 -15.22914671 -67.375 -13.5625 C-66.9109375 -12.32608765 -66.9109375 -12.32608765 -66.4375 -11.06469727 C-63.81358568 -4.89500167 -61.2704504 -2.2319403 -55.12695312 0.41552734 C-54.21880859 0.77340332 -53.31066406 1.1312793 -52.375 1.5 C-50.48567762 2.31785884 -48.60022944 3.14472521 -46.71875 3.98046875 C-45.80480469 4.38571777 -44.89085937 4.7909668 -43.94921875 5.20849609 C-38.28514711 7.91268204 -33.32526117 11.60552072 -28.375 15.4375 C-27.52035156 16.07816406 -26.66570312 16.71882813 -25.78515625 17.37890625 C-17.68001337 24.30177545 -12.22699798 34.09789243 -11 44.66796875 C-10.62497853 54.66463481 -13.35563148 62.47068873 -19.375 70.4375 C-19.77074219 70.97761719 -20.16648437 71.51773438 -20.57421875 72.07421875 C-45.87068746 104.32902842 -102.64824114 112.32577688 -140.5 117.1875 C-144.45432022 117.65094342 -148.41191377 118.0568251 -152.375 118.4375 C-153.94411133 118.5919458 -153.94411133 118.5919458 -155.54492188 118.74951172 C-273.52689794 129.85638127 -273.52689794 129.85638127 -311.375 107.4375 C-312.77957737 104.62834526 -312.62395157 102.54939466 -312.375 99.4375 C-311.4375 97.0625 -311.4375 97.0625 -309.375 95.4375 C-301.94572617 94.94823678 -295.23624407 96.28879433 -288 97.875 C-280.12119525 99.58590833 -272.42776066 100.90953224 -264.375 101.4375 C-264.189375 100.2 -264.189375 100.2 -264 98.9375 C-260.40327619 78.79584664 -249.99663641 64.20765889 -233.40625 52.40625 C-221.15944348 44.45213855 -208.06938559 39.43940118 -193.375 42.4375 C-174.42431862 47.5903819 -158.63065343 59.71839987 -148.375 76.4375 C-143.89885093 84.37036105 -141.97645111 92.51884951 -140.375 101.4375 C-106.43095619 98.66069529 -65.31340353 89.68465552 -38.375 67.4375 C-41.90229706 58.4428925 -56.91193549 53.16715285 -65.375 49.4375 C-68.87374679 47.94681292 -68.87374679 47.94681292 -72.375 47.4375 C-75.17255661 48.55070537 -75.17255661 48.55070537 -77.625 50.5625 C-90.08923947 59.22957362 -103.78910104 60.80218829 -118.68041992 60.75317383 C-120.67437199 60.75002076 -122.66830526 60.77433422 -124.66210938 60.79882812 C-141.29919347 60.80705209 -159.11396081 57.57666007 -171.375 45.4375 C-175.97203159 39.8223339 -178.37913636 34.1781932 -181.375 27.4375 C-195.235 27.4375 -209.095 27.4375 -223.375 27.4375 C-226.84 34.3675 -226.84 34.3675 -230.375 41.4375 C-240.29354881 53.33975857 -253.23678822 58.51443843 -268.375 60.4375 C-272.81286538 60.69478076 -277.23541724 60.76780446 -281.68041992 60.75317383 C-283.67437199 60.75002076 -285.66830526 60.77433422 -287.66210938 60.79882812 C-301.65901478 60.80574701 -318.01513744 58.91390734 -329.0625 49.4375 C-332.30999409 46.98224813 -332.30999409 46.98224813 -336.3125 48.125 C-338.02073244 48.84872798 -339.70500679 49.62943877 -341.375 50.4375 C-341.97586426 50.71352051 -342.57672852 50.98954102 -343.19580078 51.27392578 C-351.62829855 55.15077024 -359.3846104 59.22382036 -366.375 65.4375 C-362.75593179 74.66612392 -347.85144135 79.33632358 -339.375 83.4375 C-333.50484055 86.30765945 -333.50484055 86.30765945 -332.375 87.4375 C-331.91476311 94.57117174 -331.91476311 94.57117174 -333.4375 97.4375 C-336.93845988 99.24444704 -340.67823293 98.94593891 -344.40698242 97.82861328 C-346.6231385 96.95701295 -348.77855341 96.00500271 -350.9375 95 C-351.72253906 94.64091553 -352.50757813 94.28183105 -353.31640625 93.91186523 C-369.19587514 86.45064157 -385.5336993 76.14848057 -392.25 59.1875 C-395.10925273 49.35988882 -393.96930651 39.49888607 -389.375 30.4375 C-386.32244147 25.54504317 -382.63999507 21.31476824 -378.375 17.4375 C-377.75882813 16.86644531 -377.14265625 16.29539063 -376.5078125 15.70703125 C-367.67202224 8.04832723 -356.5024639 2.00396915 -345.50390625 -1.98046875 C-341.61685055 -3.94583399 -340.74588215 -5.62703084 -339 -9.5625 C-338.51789063 -10.614375 -338.03578125 -11.66625 -337.5390625 -12.75 C-336.74842152 -14.66027352 -336.0287781 -16.60116569 -335.375 -18.5625 C-355.11477388 -18.5625 -382.2853382 1.21323832 -396.09375 14.125 Z M-203.375 60.4375 C-204.1477205 62.27003872 -204.91806961 64.10357742 -205.6875 65.9375 C-206.14511719 67.02804688 -206.60273438 68.11859375 -207.07421875 69.2421875 C-208.12873759 71.83256711 -209.08838425 74.42027681 -210 77.0625 C-211.375 80.4375 -211.375 80.4375 -214.375 82.4375 C-218.44990752 82.77707563 -219.90501271 82.75082486 -223.375 80.4375 C-224.90148496 74.68382591 -223.90875687 70.02747337 -222.375 64.4375 C-234.28715795 71.19902738 -242.61860679 81.3245175 -247.74609375 93.91796875 C-248.54948938 97.13654132 -248.47582648 100.13442464 -248.375 103.4375 C-218.13825925 107.00977317 -186.61174075 107.00977317 -156.375 103.4375 C-157.26230722 90.03518801 -162.63535736 80.68379473 -172.375 71.4375 C-175.29050641 68.97698929 -178.2704323 66.65399987 -181.375 64.4375 C-182.73040944 66.58365772 -182.73040944 66.58365772 -181.4375 69.6875 C-180.42286951 73.2685488 -179.88488429 75.76163215 -180.375 79.4375 C-182 81.8125 -182 81.8125 -184.375 83.4375 C-187.375 83.9375 -187.375 83.9375 -190.375 83.4375 C-194.38234632 80.34302408 -195.61388726 76.63386884 -197 71.9375 C-198.78218013 66.02687581 -198.78218013 66.02687581 -201.375 60.4375 C-202.035 60.4375 -202.695 60.4375 -203.375 60.4375 Z M-429.375 85.4375 C-439.44960123 96.85113051 -443.36124724 109.40721478 -442.56591797 124.39306641 C-441.18774929 139.15110287 -429.1948354 152.96757396 -418.30078125 162.0703125 C-411.09465265 167.85981418 -403.39992882 172.85625272 -395.375 177.4375 C-394.76237305 177.79166992 -394.14974609 178.14583984 -393.51855469 178.51074219 C-348.95923439 204.02145967 -294.89072012 213.31609606 -244.375 217.4375 C-243.20702881 217.53321289 -242.03905762 217.62892578 -240.83569336 217.72753906 C-228.4632719 218.62187304 -216.08800867 218.68087897 -203.6875 218.6875 C-201.97365616 218.68851212 -201.97365616 218.68851212 -200.22518921 218.68954468 C-126.33176135 218.62067848 -36.26931418 208.12024623 20.2421875 155.87890625 C31.42132023 144.42487681 37.95321781 132.19841035 38.0078125 116.21240234 C37.76265055 104.13051507 32.39295147 94.49406024 24.625 85.4375 C24.295 85.4375 23.965 85.4375 23.625 85.4375 C23.61098145 86.47136841 23.61098145 86.47136841 23.59667969 87.52612305 C23.15692766 113.33568706 23.15692766 113.33568706 18.625 123.4375 C18.02558594 124.82001953 18.02558594 124.82001953 17.4140625 126.23046875 C14.71913022 131.75274327 11.2369643 136.48463752 7.25 141.125 C6.59922485 141.91982788 6.59922485 141.91982788 5.93530273 142.73071289 C4.03388336 144.82425811 2.38570657 146.29667513 -0.4362793 146.8190918 C-3.67065855 146.89106432 -5.81351136 146.86287019 -8.4375 144.875 C-9.78115034 141.38150912 -9.1853525 139.06479213 -8.375 135.4375 C-6.51953125 132.76953125 -6.51953125 132.76953125 -4.1875 130.25 C2.46558501 122.56764984 7.78592897 113.82985173 7.72265625 103.453125 C7.71782227 102.05126953 7.71782227 102.05126953 7.71289062 100.62109375 C7.70451172 99.65300781 7.69613281 98.68492187 7.6875 97.6875 C7.68073242 96.21216797 7.68073242 96.21216797 7.67382812 94.70703125 C7.66206483 92.28379209 7.64562684 89.86067727 7.625 87.4375 C3.94171415 90.55659797 0.34175886 93.70311863 -3.125 97.0625 C-39.8604487 129.57833635 -95.44449259 140.96592482 -142.625 146.6875 C-143.31079132 146.77067474 -143.99658264 146.85384949 -144.70315552 146.93954468 C-158.35997717 148.57356615 -171.94662844 149.58735231 -185.70703125 149.640625 C-187.54165672 149.65114647 -187.54165672 149.65114647 -189.41334534 149.66188049 C-193.33810151 149.67927852 -197.26270668 149.6857327 -201.1875 149.6875 C-202.19152233 149.68816278 -202.19152233 149.68816278 -203.21582794 149.68883896 C-224.08051515 149.6960583 -244.67966197 149.35726798 -265.375 146.4375 C-266.63715332 146.26057617 -267.89930664 146.08365234 -269.19970703 145.90136719 C-303.57495562 140.91495383 -338.10211189 132.99509159 -369.375 117.4375 C-370.02952148 117.11571777 -370.68404297 116.79393555 -371.35839844 116.46240234 C-384.57608027 109.89925218 -396.22615985 101.93224513 -406.9140625 91.72265625 C-409.34964221 89.33907436 -409.34964221 89.33907436 -412.375 87.4375 C-413.04688232 105.99437295 -411.41500229 118.05177452 -398.78125 132.37890625 C-391.54803682 140.14113605 -383.46993613 146.03329527 -374.375 151.4375 C-373.74561523 151.81471191 -373.11623047 152.19192383 -372.46777344 152.58056641 C-341.21499004 170.98285617 -304.31126116 179.20703667 -268.8125 184.625 C-267.81041504 184.7799292 -266.80833008 184.9348584 -265.77587891 185.09448242 C-244.86461438 188.1273257 -224.04253614 188.81047241 -202.9375 188.75 C-201.60260021 188.74807606 -200.26770031 188.7462356 -198.93280029 188.74447632 C-179.24820935 188.70677967 -159.88242803 188.24975228 -140.375 185.4375 C-139.13911133 185.26589355 -137.90322266 185.09428711 -136.62988281 184.91748047 C-101.6388742 179.93973592 -67.53015353 170.95653388 -36.01171875 154.703125 C-32.82406421 153.17305082 -30.86818893 152.90592777 -27.375 153.4375 C-25 155.0625 -25 155.0625 -23.375 157.4375 C-22.875 160.4375 -22.875 160.4375 -23.375 163.4375 C-43.38370929 189.69550479 -109.82148812 196.41047642 -139.375 200.4375 C-140.56770508 200.60411133 -141.76041016 200.77072266 -142.98925781 200.94238281 C-182.57812362 206.20274655 -225.85191077 206.19745409 -265.375 200.4375 C-267.24260986 200.17211426 -267.24260986 200.17211426 -269.14794922 199.90136719 C-277.93166902 198.62112206 -286.65955334 197.11908847 -295.375 195.4375 C-296.46409668 195.22786621 -297.55319336 195.01823242 -298.67529297 194.80224609 C-340.29271332 186.54234861 -389.7481563 170.80950923 -416.44921875 135.7109375 C-422.81934755 126.12119914 -427.27601263 116.05214811 -427.69140625 104.48046875 C-427.75424805 102.81274414 -427.75424805 102.81274414 -427.81835938 101.11132812 C-427.85767578 99.96083984 -427.89699219 98.81035156 -427.9375 97.625 C-428.00227539 95.87026367 -428.00227539 95.87026367 -428.06835938 94.08007812 C-428.17418279 91.19932969 -428.27626825 88.31849877 -428.375 85.4375 C-428.705 85.4375 -429.035 85.4375 -429.375 85.4375 Z M-443.375 159.4375 C-443.42160734 168.60059766 -443.45701209 177.7636537 -443.47862434 186.9268446 C-443.48900391 191.18296218 -443.50305485 195.43899788 -443.52587891 199.69506836 C-443.54781741 203.81238406 -443.55961228 207.92962165 -443.56475449 212.04699135 C-443.56841294 213.60764099 -443.57555534 215.16828699 -443.58646011 216.72890282 C-443.73891967 239.47963936 -439.29063319 254.9190235 -423.2109375 271.6953125 C-380.85371049 312.30584973 -312.90090005 324.21386345 -256.875 330.1875 C-255.67601074 330.31543945 -254.47702148 330.44337891 -253.24169922 330.57519531 C-252.09975098 330.68959961 -250.95780273 330.80400391 -249.78125 330.921875 C-248.78416016 331.02209961 -247.78707031 331.12232422 -246.75976562 331.22558594 C-242.30633764 331.50440702 -237.83714769 331.4375 -233.375 331.4375 C-233.375 299.0975 -233.375 266.7575 -233.375 233.4375 C-247.235 232.1175 -261.095 230.7975 -275.375 229.4375 C-314.5272248 223.86583724 -354.74653259 215.37280131 -390.375 197.4375 C-391.50615234 196.88594238 -391.50615234 196.88594238 -392.66015625 196.32324219 C-412.14096034 186.79665384 -428.09094743 174.73907285 -443.375 159.4375 Z M37.625 159.4375 C36.33437156 160.8783441 35.06856764 162.34142979 33.8125 163.8125 C11.65190814 188.50474007 -21.27704103 202.77828547 -52.375 212.4375 C-53.32375 212.73849609 -54.2725 213.03949219 -55.25 213.34960938 C-71.39854409 218.43943947 -87.75552637 222.23336786 -104.375 225.4375 C-105.36419434 225.62940918 -106.35338867 225.82131836 -107.37255859 226.01904297 C-128.49857225 230.00746687 -149.98208105 231.55899423 -171.375 233.4375 C-171.42398438 234.55769531 -171.47296875 235.67789063 -171.5234375 236.83203125 C-171.59847856 238.30471203 -171.67402582 239.77736707 -171.75 241.25 C-171.79640625 242.35698242 -171.79640625 242.35698242 -171.84375 243.48632812 C-172.04846148 247.25643115 -172.23933827 249.23400741 -174.375 252.4375 C-177.82075127 253.26703271 -180.3347802 253.76599046 -183.75 252.6875 C-185.375 251.4375 -185.375 251.4375 -186.375 248.4375 C-186.87 241.5075 -186.87 241.5075 -187.375 234.4375 C-197.275 234.4375 -207.175 234.4375 -217.375 234.4375 C-217.375 266.7775 -217.375 299.1175 -217.375 332.4375 C-207.475 332.4375 -197.575 332.4375 -187.375 332.4375 C-187.33761719 328.58578125 -187.30023438 324.7340625 -187.26171875 320.765625 C-187.21552001 317.0390044 -187.16428018 313.31248491 -187.11254883 309.5859375 C-187.07927568 306.99420301 -187.05125129 304.40239565 -187.02856445 301.81054688 C-186.99506325 298.08692336 -186.94274777 294.36396919 -186.88671875 290.640625 C-186.88032883 289.48008606 -186.8739389 288.31954712 -186.86735535 287.12384033 C-186.84756119 286.04302185 -186.82776703 284.96220337 -186.80737305 283.84863281 C-186.79626999 282.89821106 -186.78516693 281.94778931 -186.77372742 280.96856689 C-186.30642356 278.00218617 -185.41889066 276.60799296 -183.375 274.4375 C-181.4375 273.94140625 -181.4375 273.94140625 -179.375 274 C-178.3540625 274.00193359 -178.3540625 274.00193359 -177.3125 274.00390625 C-174.76405136 274.57422439 -173.97650117 275.3825539 -172.375 277.4375 C-171.97627258 279.84831238 -171.97627258 279.84831238 -171.94262695 282.73510742 C-171.92283279 283.81600143 -171.90303864 284.89689545 -171.88264465 286.01054382 C-171.87625473 287.17624405 -171.86986481 288.34194427 -171.86328125 289.54296875 C-171.84533005 290.73731033 -171.82737885 291.93165192 -171.80888367 293.16218567 C-171.75462967 296.98308768 -171.72083571 300.80386371 -171.6875 304.625 C-171.65434035 307.21290822 -171.61985198 309.80079977 -171.58398438 312.38867188 C-171.49889443 318.73816828 -171.43060847 325.08768069 -171.375 331.4375 C-165.29558919 331.51602105 -159.33439879 331.38542203 -153.2890625 330.73828125 C-152.55810867 330.66330414 -151.82715485 330.58832703 -151.0740509 330.51107788 C-148.71511884 330.2652289 -146.35749521 330.00925013 -144 329.75 C-142.77713791 329.61653671 -142.77713791 329.61653671 -141.52957153 329.4803772 C-87.01738049 323.46631648 -12.19858358 309.99386774 24.91210938 264.87255859 C37.13066679 248.94581108 38.95731165 234.02433369 38.8203125 214.41796875 C38.81657194 212.82229288 38.81372991 211.22661468 38.81173706 209.63093567 C38.80418259 205.4766887 38.78460681 201.32258661 38.7623291 197.168396 C38.74169194 192.91111204 38.73269754 188.65380417 38.72265625 184.39648438 C38.70135124 176.07675721 38.66731719 167.75714674 38.625 159.4375 C38.295 159.4375 37.965 159.4375 37.625 159.4375 Z " fill="#000000" transform="translate(458.375,109.5625)"/>
</svg>
