<?xml version="1.0" encoding="UTF-8"?>
<svg version="1.1" xmlns="http://www.w3.org/2000/svg" width="512" height="512">
<path d="M0 0 C1.73915165 0.97527845 3.46527565 1.97404777 5.1796875 2.9921875 C6.59531982 3.79873779 6.59531982 3.79873779 8.03955078 4.62158203 C11.05751177 6.3487553 14.05640781 8.10610897 17.0546875 9.8671875 C19.02793274 11.00904568 21.00188851 12.14967691 22.9765625 13.2890625 C26.96342596 15.59612662 30.93844696 17.92203863 34.90625 20.26171875 C39.17268913 22.77466653 43.46052431 25.24529804 47.765625 27.69140625 C48.8602002 28.31740723 49.95477539 28.9434082 51.08251953 29.58837891 C53.18058644 30.78731971 55.28293866 31.97880237 57.39013672 33.16162109 C66.34525566 38.30475343 66.34525566 38.30475343 69.0546875 42.8671875 C69.6470614 46.49547761 69.5221074 48.12710599 67.5546875 51.2421875 C64.05716856 53.51557481 61.05731562 53.55404383 57.0546875 52.8671875 C53.34646728 51.33556386 49.98455026 49.31337634 46.5546875 47.2421875 C45.55711426 46.65896729 44.55954102 46.07574707 43.53173828 45.47485352 C41.42601981 44.2417203 39.32468484 43.00107474 37.22753906 41.75341797 C33.14438489 39.32602115 29.03809539 36.93944758 24.93164062 34.55175781 C21.94622786 32.81431362 18.96510466 31.06968224 15.984375 29.32421875 C7.04809926 24.10177757 -1.9473998 18.98247815 -10.9453125 13.8671875 C-14.68253069 23.7206302 -16.02895161 34.28136125 -12.3203125 44.4296875 C-7.55908754 54.23028458 -0.19734253 58.56148369 9.0546875 63.8671875 C10.95996958 64.97208023 12.86488734 66.07760131 14.76953125 67.18359375 C20.9380251 70.75775458 27.11866222 74.31062561 33.30126953 77.86029053 C38.45040224 80.81717031 43.59691939 83.77858818 48.7421875 86.7421875 C49.82532227 87.36569092 50.90845703 87.98919434 52.02441406 88.6315918 C59.20426398 92.77377038 66.32795578 96.99568952 73.39453125 101.328125 C79.02616231 104.58636676 84.63573594 104.7231076 90.87890625 103.16015625 C91.82378906 102.87785156 92.76867187 102.59554687 93.7421875 102.3046875 C97.88951614 101.08829223 100.85795759 100.33179851 105.0546875 101.8671875 C108.08175498 104.01799861 108.92864541 105.12669024 109.5546875 108.8046875 C108.91589265 112.71730594 107.96754339 114.1727958 105.0546875 116.8671875 C102.41836131 118.12497671 99.85329721 118.98096109 97.0546875 119.8671875 C97.54195312 120.599375 98.02921875 121.3315625 98.53125 122.0859375 C99.59472656 123.71015625 99.59472656 123.71015625 100.6796875 125.3671875 C101.07212646 125.9657959 101.46456543 126.5644043 101.86889648 127.18115234 C104.57054315 131.37160829 107.07069252 135.63909598 109.48828125 140 C110.08753418 141.06927734 110.68678711 142.13855469 111.30419922 143.24023438 C112.49712016 145.37997407 113.67249507 147.5296066 114.82861328 149.68945312 C118.44132282 156.13189348 121.03910434 159.33143455 128.0546875 161.8671875 C128.31169434 161.1548999 128.56870117 160.4426123 128.83349609 159.70874023 C130.14122313 156.66583041 131.74608432 154.14914975 133.59375 151.40234375 C140.79916615 141.2434551 140.79916615 141.2434551 144.08496094 129.62109375 C142.93730356 125.61366582 140.22158245 122.66343136 137.49072266 119.63818359 C135.36292859 117.01407306 133.96351307 114.11023597 132.44287109 111.10620117 C123.28342147 93.0722543 109.80836771 83.25504196 92.57226562 73.37109375 C91.61900391 72.81808594 90.66574219 72.26507813 89.68359375 71.6953125 C88.81806885 71.1993457 87.95254395 70.70337891 87.06079102 70.19238281 C85.0546875 68.8671875 85.0546875 68.8671875 84.0546875 66.8671875 C83.36358802 59.72582624 83.36358802 59.72582624 86.1171875 56.3046875 C89.80713551 54.49896826 92.23091077 54.73643639 96.0546875 55.8671875 C99.64660345 57.52095859 103.02596292 59.48399 106.4296875 61.4921875 C107.32429687 62.00136719 108.21890625 62.51054687 109.140625 63.03515625 C115.17863241 66.5368495 120.64371857 70.46802026 126.0546875 74.8671875 C126.98925781 75.58519531 127.92382812 76.30320312 128.88671875 77.04296875 C137.30041177 84.12259873 142.41757702 94.27161939 147.79345703 103.67578125 C149.79853812 107.15963875 151.86100832 110.60833297 153.9296875 114.0546875 C154.46517212 114.95320435 154.46517212 114.95320435 155.01147461 115.86987305 C156.69359855 118.67685044 158.42398432 121.3966845 160.296875 124.08203125 C162.32755966 127.29953827 162.41026547 129.13361883 162.0546875 132.8671875 C162.75899902 133.13072021 163.46331055 133.39425293 164.18896484 133.66577148 C167.24117924 134.94537168 170.02934571 136.45432435 172.90625 138.08984375 C174.00453125 138.71052734 175.1028125 139.33121094 176.234375 139.97070312 C177.37132812 140.61716797 178.50828125 141.26363281 179.6796875 141.9296875 C181.94136122 143.21461362 184.20432278 144.49727636 186.46875 145.77734375 C187.4685791 146.34590088 188.4684082 146.91445801 189.49853516 147.50024414 C192.0611272 148.96295273 192.0611272 148.96295273 195.0546875 149.8671875 C195.9828125 148.908125 195.9828125 148.908125 196.9296875 147.9296875 C200.06160346 144.88988671 202.31745313 144.43590767 206.69580078 144.50097656 C211.44452086 145.23820282 215.39142426 147.85415956 219.4921875 150.2421875 C220.46446289 150.79092529 221.43673828 151.33966309 222.43847656 151.9050293 C225.32209115 153.53991463 228.19055316 155.19845536 231.0546875 156.8671875 C231.79928223 157.2988623 232.54387695 157.73053711 233.31103516 158.17529297 C236.69142315 160.13958339 240.05808567 162.12586957 243.41796875 164.125 C249.07947521 167.48655863 254.7868088 170.76833216 260.4921875 174.0546875 C262.15266113 175.01145386 262.15266113 175.01145386 263.84667969 175.98754883 C266.11756024 177.2957735 268.38855735 178.60379587 270.65966797 179.91162109 C276.1263873 183.06050804 281.59043637 186.21402014 287.0546875 189.3671875 C289.22134061 190.617211 291.38800729 191.86721097 293.5546875 193.1171875 C297.88802083 195.6171875 302.22135417 198.1171875 306.5546875 200.6171875 C307.62734863 201.23601807 308.70000977 201.85484863 309.80517578 202.49243164 C311.97025821 203.74154268 314.13529732 204.99072879 316.30029297 206.23999023 C321.74084456 209.37921059 327.18215966 212.51709313 332.625 215.65234375 C343.07674949 221.67466079 353.51768298 227.71388087 363.9296875 233.8046875 C373.20032681 239.22677449 382.51405449 244.57042762 391.84515381 249.88742065 C400.92105116 255.06016452 409.95792403 260.29637181 418.97216797 265.57592773 C426.08286706 269.73393875 433.2268412 273.83126418 440.38479614 277.90710449 C445.61278893 280.88558927 450.83429503 283.87540561 456.0546875 286.8671875 C457.15409668 287.4967334 458.25350586 288.1262793 459.38623047 288.77490234 C462.46894578 290.54598269 465.54420961 292.32927775 468.6171875 294.1171875 C469.53322754 294.6419165 470.44926758 295.16664551 471.39306641 295.70727539 C472.23144043 296.19832764 473.06981445 296.68937988 473.93359375 297.1953125 C474.6613501 297.6171582 475.38910645 298.03900391 476.13891602 298.47363281 C479.03559135 300.58070849 480.76644419 302.53730767 481.53442383 306.08056641 C481.65520614 313.32898725 479.46760294 318.12117412 475.7421875 324.2421875 C474.92729858 325.61636841 474.92729858 325.61636841 474.09594727 327.01831055 C463.3482321 344.6493062 448.19396297 357.14794431 428.0546875 362.7421875 C403.42867708 367.72105401 382.88547325 360.56478558 362.1640625 347.4453125 C360.0546875 345.8671875 360.0546875 345.8671875 358.0546875 342.8671875 C357.83446456 340.06640349 358.20392896 337.54179441 359.0546875 334.8671875 C361.1796875 332.8046875 361.1796875 332.8046875 364.0546875 331.8671875 C370.34422813 332.14880872 374.44350828 334.52019587 379.6796875 337.6796875 C393.71205831 345.72464745 408.02915589 349.89849358 424.15234375 345.984375 C441.28227002 341.07906512 452.14783022 330.6925568 460.7421875 315.43359375 C462.14274159 312.85371637 462.14274159 312.85371637 463.0546875 309.8671875 C461.96184448 309.45098145 461.96184448 309.45098145 460.84692383 309.02636719 C458.22774402 307.93903085 455.84346008 306.71821735 453.37890625 305.3203125 C452.48131592 304.81258301 451.58372559 304.30485352 450.65893555 303.78173828 C449.69640869 303.23243652 448.73388184 302.68313477 447.7421875 302.1171875 C446.72745361 301.54081543 445.71271973 300.96444336 444.66723633 300.37060547 C435.47407829 295.13534761 426.33787888 289.80385325 417.20703125 284.4609375 C401.25127782 275.12943222 385.20861704 265.94848814 369.15252686 256.79110718 C360.06672872 251.60733625 351.01647709 246.36524729 341.98730469 241.08349609 C331.46357431 234.92925761 320.9007283 228.84339663 310.33691406 222.75830078 C304.90808808 219.63038602 299.48149469 216.49860302 294.0546875 213.3671875 C291.88803167 212.11716871 289.721365 210.86716872 287.5546875 209.6171875 C274.55468749 202.1171875 274.55468749 202.1171875 271.3034668 200.24145508 C269.14090167 198.9938401 266.97830411 197.74628134 264.81567383 196.4987793 C259.33598379 193.33775301 253.85689392 190.17569441 248.37890625 187.01171875 C237.94743767 180.98780536 227.51160501 174.97184336 217.0546875 168.9921875 C215.72763794 168.2328894 215.72763794 168.2328894 214.3737793 167.45825195 C213.567229 166.99765381 212.76067871 166.53705566 211.9296875 166.0625 C211.22585937 165.66047363 210.52203125 165.25844727 209.796875 164.84423828 C208.56639066 164.15416004 207.31652732 163.49810741 206.0546875 162.8671875 C205.796875 163.55167969 205.5390625 164.23617187 205.2734375 164.94140625 C203.3728347 169.50407131 201.00338294 173.82317353 198.7109375 178.19921875 C193.2925163 189.50054076 193.28906734 204.03426178 196.6796875 215.9296875 C204.99122855 238.85907871 223.88440902 248.19081322 243.93359375 259.41796875 C249.94996098 262.79445251 255.91415158 266.25552144 261.8671875 269.7421875 C270.20602469 274.6232593 278.55838388 279.47948265 286.9296875 284.3046875 C288.5377124 285.2318457 288.5377124 285.2318457 290.17822266 286.17773438 C295.76678559 289.39891415 301.35739519 292.6165156 306.94921875 295.83203125 C326.60729795 307.14169826 326.60729795 307.14169826 335.1171875 312.1796875 C335.72457764 312.53466309 336.33196777 312.88963867 336.95776367 313.25537109 C340.93769956 315.63321162 340.93769956 315.63321162 342.0546875 317.8671875 C342.31472873 321.37774416 342.44266015 323.99995452 340.9921875 327.2421875 C338.12571155 329.64632862 335.74840871 329.64927381 332.0546875 329.8671875 C329.05126953 328.76245117 329.05126953 328.76245117 326.0625 327.03515625 C324.40045532 326.0925293 324.40045532 326.0925293 322.70483398 325.13085938 C321.5295216 324.43924978 320.35447852 323.74718234 319.1796875 323.0546875 C317.95671628 322.35193706 316.73283033 321.65077619 315.50805664 320.95117188 C312.0099935 318.94597716 308.53136563 316.90922973 305.0546875 314.8671875 C303.50929257 313.96714224 301.96374945 313.06735131 300.41796875 312.16796875 C297.77710862 310.62443764 295.14451875 309.06771867 292.515625 307.50390625 C286.91222905 304.17842948 281.26311283 300.93224497 275.6171875 297.6796875 C274.50980225 297.04160156 273.40241699 296.40351563 272.26147461 295.74609375 C269.99099671 294.43812059 267.7204065 293.13034237 265.44970703 291.82275391 C262.13889465 289.91569169 258.82899489 288.00705794 255.51953125 286.09765625 C254.45081787 285.48116211 253.38210449 284.86466797 252.28100586 284.22949219 C250.13410882 282.99025416 247.98778461 281.75002321 245.84204102 280.50878906 C240.82935232 277.61100037 235.81177471 274.72333155 230.77026367 271.87600708 C229.00282637 270.87710651 227.23746084 269.87463722 225.47265625 268.87109375 C223.27093731 267.62051739 221.06547313 266.37650046 218.85546875 265.140625 C200.40091178 254.62554453 186.42500739 240.4997378 180.1171875 219.7890625 C178.95990277 215.36022284 178.03600563 211.5390676 178.1640625 206.93359375 C177.80270452 203.96645105 177.28866289 203.07098418 175.00097656 201.07836914 C172.08211854 199.23439301 169.11196053 197.59629374 166.0546875 195.9921875 C163.86285247 194.78593504 161.67144897 193.57889815 159.48046875 192.37109375 C157.84972412 191.4896167 157.84972412 191.4896167 156.18603516 190.59033203 C153.34140627 189.02496554 150.55702818 187.39703968 147.78515625 185.70703125 C146.62209961 184.99812744 146.62209961 184.99812744 145.43554688 184.27490234 C144.00275585 183.39615362 142.57291927 182.51256436 141.14648438 181.62353516 C139.4931977 180.62778661 137.77794044 179.73625095 136.0546875 178.8671875 C135.0646875 179.1971875 134.0746875 179.5271875 133.0546875 179.8671875 C126.59471154 180.82029871 122.50134985 179.47962922 116.8671875 176.3046875 C116.28541748 175.98250244 115.70364746 175.66031738 115.10424805 175.32836914 C105.15712908 169.37706513 100.54764741 159.03530113 95.16455078 149.19995117 C85.49124992 131.59155715 74.67162419 121.07022269 57.0546875 111.3046875 C55.82136451 110.61186348 54.58862833 109.91799396 53.35644531 109.22314453 C50.82856932 107.79813203 48.29874661 106.37667452 45.76757812 104.95751953 C36.8791997 99.96437622 28.07475031 94.82245081 19.25244141 89.71386719 C15.97630257 87.82192077 12.69363854 85.9416681 9.41015625 84.0625 C7.27070314 82.83095532 5.13137545 81.59919271 2.9921875 80.3671875 C1.5386084 79.54033447 1.5386084 79.54033447 0.05566406 78.69677734 C-14.72770828 70.14957346 -24.33649001 60.98822297 -30.09375 44.59765625 C-32.9689326 32.00224622 -32.08670955 17.72021108 -25.5546875 6.47265625 C-19.35431715 -2.58314782 -9.88751488 -4.9476873 0 0 Z M155.0546875 146.8671875 C152.91412479 149.77176644 150.99722399 152.82774608 149.0546875 155.8671875 C148.61898437 156.54394531 148.18328125 157.22070312 147.734375 157.91796875 C146.4725107 159.91988931 146.4725107 159.91988931 145.0546875 162.8671875 C146.38667623 166.8631537 148.03283013 167.28732187 151.6640625 169.3359375 C152.22788635 169.65751831 152.79171021 169.97909912 153.37261963 170.3104248 C155.17856323 171.33799281 156.99133226 172.35276676 158.8046875 173.3671875 C160.01089874 174.04993026 161.21663389 174.73351488 162.421875 175.41796875 C164.65041338 176.68310737 166.88196394 177.94216255 169.11621094 179.19726562 C171.03084662 180.28534373 172.912909 181.43353287 174.75097656 182.64648438 C175.51120117 183.04931641 176.27142578 183.45214844 177.0546875 183.8671875 C178.0446875 183.5371875 179.0346875 183.2071875 180.0546875 182.8671875 C181.07727785 180.58261426 181.90878971 178.42210508 182.6796875 176.0546875 C183.10507813 174.81074219 183.53046875 173.56679687 183.96875 172.28515625 C184.75352509 169.81509078 185.48238777 167.39166521 186.0546875 164.8671875 C178.68842009 160.28088536 171.27650213 155.77950816 163.8046875 151.3671875 C163.05388916 150.92197754 162.30309082 150.47676758 161.52954102 150.01806641 C158.47445568 147.85367985 158.47445568 147.85367985 155.0546875 146.8671875 Z " fill="#000000" transform="translate(30.9453125,75.1328125)"/>
<path d="M0 0 C6.99001659 4.40466799 11.17739294 9.20760113 13.58203125 17.20703125 C15.03336807 24.39525606 14.33362023 31.71248673 10.99609375 38.2578125 C6.50920935 44.78524381 0.94910126 49.70147889 -7.00390625 51.2578125 C-15.74741993 52.08714307 -22.79817561 51.56083743 -30.00390625 46.2578125 C-35.91450345 40.85383792 -39.51872576 36.07012593 -40.33984375 27.92578125 C-40.44763669 18.32143072 -39.36335034 11.66217645 -32.81640625 4.4453125 C-23.72100075 -3.82323795 -11.07196056 -5.81023986 0 0 Z M-23.00390625 18.2578125 C-24.61820548 21.48641097 -24.59961282 24.76774903 -24.00390625 28.2578125 C-22.2678852 31.28289395 -20.16810488 33.67571319 -17.00390625 35.2578125 C-12.77000463 35.66491843 -10.48802273 35.51357215 -6.69140625 33.5078125 C-3.12272628 30.52008043 -2.22411064 28.94604619 -1.62890625 24.3828125 C-2.1084908 20.38627454 -3.47130058 18.35321942 -6.00390625 15.2578125 C-12.31921068 10.4668919 -18.12278355 13.3766898 -23.00390625 18.2578125 Z " fill="#000000" transform="translate(367.00390625,129.7421875)"/>
<path d="M0 0 C2.9327967 1.61056814 5.78387272 3.31259929 8.62988281 5.07177734 C9.6134375 5.65378906 10.59699219 6.23580078 11.61035156 6.83544922 C21.213628 12.63551289 21.213628 12.63551289 23.25488281 18.75927734 C23.89394398 25.06416129 22.13210534 28.86836889 19.12988281 34.19677734 C18.71899414 34.94523926 18.30810547 35.69370117 17.88476562 36.46484375 C9.54374959 51.41923389 9.54374959 51.41923389 3.25488281 53.75927734 C-4.39568518 54.91340192 -9.52373029 52.33948073 -15.99511719 48.50927734 C-16.86652344 48.01814453 -17.73792969 47.52701172 -18.63574219 47.02099609 C-30.43769769 40.27445141 -30.43769769 40.27445141 -32.74511719 34.75927734 C-34.35621579 26.25885051 -30.9852073 20.40537493 -26.55761719 13.38427734 C-25.97947266 12.41361328 -25.40132813 11.44294922 -24.80566406 10.44287109 C-18.66684356 0.38491659 -11.94852106 -5.40042547 0 0 Z M-8.74511719 15.75927734 C-10.68205464 18.37412882 -10.68205464 18.37412882 -12.43261719 21.63427734 C-13.05523437 22.72482422 -13.67785156 23.81537109 -14.31933594 24.93896484 C-15.8955054 27.53005361 -15.8955054 27.53005361 -15.74511719 29.75927734 C-11.12511719 32.06927734 -6.50511719 34.37927734 -1.74511719 36.75927734 C0.89488281 32.46927734 3.53488281 28.17927734 6.25488281 23.75927734 C-0.49192331 17.9789083 -0.49192331 17.9789083 -8.74511719 15.75927734 Z " fill="#000000" transform="translate(384.7451171875,225.24072265625)"/>
<path d="M0 0 C3.08430111 1.92768819 5.46729731 4.40584526 8 7 C9.03068221 8.01102435 10.06337976 9.01999665 11.09765625 10.02734375 C22.29233805 21.00863474 22.29233805 21.00863474 22.5625 27.1875 C22.44017314 32.6706215 21.04953346 35.16148426 17.20703125 38.95703125 C16.47871094 39.63121094 15.75039063 40.30539063 15 41 C13.26835914 42.7475518 11.53927656 44.49764157 9.8125 46.25 C8.20990725 47.83492637 6.60584242 49.41836626 5 51 C4.28199219 51.73734375 3.56398438 52.4746875 2.82421875 53.234375 C-0.00154542 55.96937586 -1.9076791 56.20188773 -5.75 56.3125 C-6.59046875 56.34988281 -7.4309375 56.38726562 -8.296875 56.42578125 C-15.0958036 55.35485174 -20.00837037 49.35737319 -24.6875 44.6875 C-25.35072266 44.04876953 -26.01394531 43.41003906 -26.69726562 42.75195312 C-31.80760359 37.67249334 -34.88842261 33.51468773 -35.125 26.0625 C-34.12970981 20.74074427 -30.72448723 17.70604917 -27 14 C-25.93862119 12.89334749 -24.87884793 11.78515383 -23.8203125 10.67578125 C-22.67333236 9.49077516 -21.52488528 8.30718725 -20.375 7.125 C-19.82489258 6.55305908 -19.27478516 5.98111816 -18.70800781 5.3918457 C-13.05857947 -0.2992476 -7.91365693 -2.4329148 0 0 Z M-9.3828125 19.1875 C-10.74019531 20.5796875 -10.74019531 20.5796875 -12.125 22 C-13.03507812 22.928125 -13.94515625 23.85625 -14.8828125 24.8125 C-15.58148438 25.534375 -16.28015625 26.25625 -17 27 C-15.52278578 30.45201639 -13.56205999 32.64961936 -10.875 35.25 C-9.78832031 36.30960938 -9.78832031 36.30960938 -8.6796875 37.390625 C-8.12539063 37.92171875 -7.57109375 38.4528125 -7 39 C-2.47384007 35.32167983 1.39424999 31.58913637 5 27 C3.38113585 25.32737283 1.7547271 23.66204463 0.125 22 C-0.77992188 21.071875 -1.68484375 20.14375 -2.6171875 19.1875 C-5.83839646 16.23032456 -6.16160354 16.23032456 -9.3828125 19.1875 Z " fill="#000000" transform="translate(433,148)"/>
<path d="M0 0 C0.66 -0.02191406 1.32 -0.04382813 2 -0.06640625 C5.16658099 0.92933504 6.24456949 2.81963983 8 5.5625 C9.91100751 12.70887184 9.07491621 19.38179635 7 26.375 C4.91600627 33.40847884 4.06504328 37.69258655 7.4375 44.4375 C9.63307968 47.41895138 12.34341038 49.87089795 15 52.4375 C21.82594082 59.11264684 25.06285831 65.54478425 25.24023438 75.14526367 C25.26878412 81.29844811 25.05923823 86.53786862 22.6484375 92.27734375 C21.77404295 95.35879443 21.98949281 98.12094913 22.125 101.3125 C22.25479519 107.15328349 22.25479519 107.15328349 19.9375 110.875 C16.22517402 113.0076128 14.21313687 113.32852489 10 112.5625 C6.32339657 109.07940201 5.20614548 106.04417444 4.796875 101.1171875 C4.7117957 96.2534876 4.94837487 92.13291844 6.5 87.5 C8.53123498 81.41596761 9.23474343 75.65139611 6.81640625 69.6015625 C4.77259761 66.1820289 2.48238981 63.88948759 -0.4375 61.1875 C-8.10451996 53.8229118 -11.27089623 46.48898579 -12.375 36 C-12.28194893 31.26370061 -10.75481059 26.87093082 -9.42333984 22.35791016 C-7.9479005 17.09599158 -7.7709254 12.46282707 -8.25 7.05078125 C-8 4.5625 -8 4.5625 -6.25 2.265625 C-3.8942943 0.48248666 -2.90251335 -0.00566897 0 0 Z " fill="#000000" transform="translate(265,103.4375)"/>
<path d="M0 0 C5.43017128 4.52322935 7.9234606 10.0749533 9 17 C9.24019294 23.61531386 7.91418406 29.59842599 4 35 C-1.55526084 40.89229549 -6.64663875 44.14309916 -14.83203125 44.95703125 C-22.68301218 45.11263628 -29.1629985 42.15828039 -35 37 C-40.07674362 30.7145079 -41.44247665 24.93574887 -41.3359375 16.9453125 C-40.54228662 9.98702458 -37.12375294 4.70181655 -32.0625 0 C-22.38130874 -7.63359237 -9.91859697 -6.96600215 0 0 Z M-24 15 C-25.1659741 19.00803597 -25.43240501 21.05282711 -23.6875 24.875 C-22.17274837 27.0895931 -22.17274837 27.0895931 -20 28 C-14.41408798 28.58355922 -14.41408798 28.58355922 -9.5625 26.3125 C-7.77150186 23.66182276 -7.07633741 22.20617138 -7 19 C-8.54358438 15.06385984 -9.44839864 13.36773424 -13 11 C-18.03462073 10.34331034 -20.59307241 11.20370926 -24 15 Z " fill="#000000" transform="translate(467,225)"/>
<path d="M0 0 C2.5 1.5625 2.5 1.5625 4 4 C4.43775198 7.50201582 4.45984677 9.9270242 3.0625 13.1875 C0.94542373 15.04796096 -0.52285645 15.63954598 -3.125 16.625 C-7.30746877 18.32223371 -9.45667733 20.40015565 -12.3125 23.875 C-18.51354305 31.25304244 -26.64547824 35.19744932 -36.18359375 36.23828125 C-42.77820836 36.45543494 -48.19364331 34.84304664 -54.453125 32.875 C-58.92579392 31.77161031 -62.91271337 31.84988172 -67.4765625 32.25 C-70 32 -70 32 -72.3046875 30.21875 C-74 28 -74 28 -74.5 24.5 C-74 21 -74 21 -72.5 18.6875 C-65.82379898 14.18106431 -58.63427851 14.61095506 -51 16 C-49.4671628 16.506702 -47.94492436 17.04706522 -46.4375 17.625 C-41.46067421 19.43556565 -37.11614394 19.25490323 -32 18 C-27.70808544 15.93988101 -25.24638272 13.14980282 -22.25 9.5625 C-16.35925831 2.74992469 -9.13580098 -1.41762429 0 0 Z " fill="#000000" transform="translate(508,277)"/>
<path d="M0 0 C0.7734375 -0.00773438 1.546875 -0.01546875 2.34375 -0.0234375 C5.03507776 0.47387306 5.88034029 1.19240978 7.5 3.375 C8.98661414 8.09227581 8.68416213 12.91584688 8.6875 17.8125 C8.69974609 18.75416016 8.71199219 19.69582031 8.72460938 20.66601562 C8.7435785 29.62576417 8.7435785 29.62576417 6.5 33.375 C2.98746854 35.71668764 1.63530644 35.87123677 -2.5 35.375 C-5.15820312 33.75219727 -5.15820312 33.75219727 -7.5 31.375 C-8.11523438 28.39819336 -8.11523438 28.39819336 -8.09375 24.96484375 C-8.09117187 23.72798828 -8.08859375 22.49113281 -8.0859375 21.21679688 C-8.05757813 19.92837891 -8.02921875 18.63996094 -8 17.3125 C-8.00386719 15.37407227 -8.00386719 15.37407227 -8.0078125 13.39648438 C-7.90897238 3.92265927 -7.90897238 3.92265927 -6.10546875 1.50756836 C-3.98340171 0.01056881 -2.5798 -0.025798 0 0 Z " fill="#000000" transform="translate(326.5,196.625)"/>
<path d="M0 0 C3.12517494 2.72451149 3.9163554 4.2471986 4.375 8.375 C2.25010743 13.9769895 -2.01120243 15.99631264 -7 19 C-7.94166016 19.65742188 -7.94166016 19.65742188 -8.90234375 20.328125 C-12.92649864 23.01720732 -16.29728792 23.44178796 -20.984375 23.43359375 C-23.5675006 22.87792138 -24.45738002 22.13300541 -26 20 C-26.46875 17.87890625 -26.46875 17.87890625 -26.5 15.5625 C-26.54640625 14.41974609 -26.54640625 14.41974609 -26.59375 13.25390625 C-25.47239442 8.99718146 -21.54031121 7.33892249 -17.9921875 5.11328125 C-16.96351563 4.51902344 -15.93484375 3.92476562 -14.875 3.3125 C-13.84117187 2.71050781 -12.80734375 2.10851562 -11.7421875 1.48828125 C-7.35973538 -0.89022909 -4.81412559 -1.37546446 0 0 Z " fill="#000000" transform="translate(489,185)"/>
</svg>
