<?xml version="1.0" encoding="UTF-8"?>
<svg version="1.1" xmlns="http://www.w3.org/2000/svg" width="512" height="512">
<path d="M0 0 C0.91742688 -0.00453111 1.83485376 -0.00906223 2.78008145 -0.01373065 C5.85532579 -0.02639447 8.93039348 -0.02475298 12.00566101 -0.02310181 C14.21014128 -0.02908582 16.41461944 -0.03589108 18.61909485 -0.04345703 C24.60882551 -0.06113736 30.59849903 -0.06581328 36.58825326 -0.0670886 C41.58823666 -0.06898731 46.58820674 -0.07634455 51.58818501 -0.08343279 C62.71117874 -0.09879165 73.83415135 -0.10477002 84.95715342 -0.10342209 C85.95787122 -0.10330222 85.95787122 -0.10330222 86.97880554 -0.10317993 C87.64676787 -0.10309817 88.31473021 -0.10301641 89.00293382 -0.10293217 C99.82546981 -0.10211946 110.64786656 -0.12125403 121.47036228 -0.14945666 C132.58988725 -0.17820406 143.7093548 -0.19162989 154.82891911 -0.19026911 C161.06887397 -0.18975915 167.30867126 -0.19546123 173.54859352 -0.21662521 C179.41815177 -0.2359892 185.28740186 -0.2361444 191.15697098 -0.22159195 C193.30960859 -0.21950047 195.46226539 -0.22422486 197.61487007 -0.23631287 C200.55708512 -0.25176305 203.49823731 -0.24245827 206.44042969 -0.22705078 C207.71355474 -0.24248147 207.71355474 -0.24248147 209.01239949 -0.25822389 C215.78389755 -0.18004064 220.92180459 1.74935545 226.11772156 6.12680054 C226.64752625 6.75070679 227.17733093 7.37461304 227.72319031 8.01742554 C228.26588562 8.63101929 228.80858093 9.24461304 229.36772156 9.87680054 C233.7628898 16.68652956 234.37776471 23.03874687 234.37944031 30.93539429 C234.38705383 31.93323441 234.39466736 32.93107452 234.4025116 33.95915222 C234.41326253 36.0559439 234.41618621 38.1527889 234.41166687 40.24960327 C234.41068988 43.45631389 234.45246633 46.66066619 234.49662781 49.86703491 C234.501832 51.91064974 234.50452305 53.95427284 234.50444031 55.99789429 C234.52083557 56.95318527 234.53723083 57.90847626 234.55412292 58.89271545 C234.50617872 63.50275338 234.4169859 65.59883549 231.56108093 69.37020874 C228.91069031 71.26742554 228.91069031 71.26742554 225.91069031 71.89242554 C221.74799836 71.02519805 220.48564743 69.64750859 217.91069031 66.26742554 C217.2114888 62.9509369 217.28382639 59.7083138 217.34428406 56.32992554 C217.33583214 54.89338623 217.33583214 54.89338623 217.32720947 53.42782593 C217.31077073 50.37385932 217.32629412 47.3213417 217.34819031 44.26742554 C217.36479217 41.21364534 217.3738709 38.16082013 217.35845947 35.10702515 C217.34919044 33.20939838 217.35830746 31.3115697 217.38809204 29.41415405 C217.37085577 25.25262377 217.25988857 22.86843609 215.1335907 19.20883179 C210.86714093 15.48265842 205.891738 16.12114078 200.46640015 16.12698364 C199.60629186 16.12401252 198.74618357 16.1210414 197.8600114 16.11798024 C194.97284182 16.10929641 192.08571372 16.10778526 189.1985321 16.10629272 C187.13050752 16.10166436 185.06248379 16.09663967 182.99446106 16.09124756 C177.37250671 16.07812405 171.7505643 16.07167879 166.12859702 16.0672369 C162.61684556 16.06430633 159.10509737 16.06020156 155.59334755 16.05573273 C144.60761425 16.04205843 133.62188842 16.03239123 122.6361472 16.02853084 C109.95132662 16.02404897 97.26661374 16.00649477 84.58182591 15.97753024 C74.77874235 15.95592211 64.9756891 15.94582703 55.17258197 15.94448972 C49.31663901 15.94344115 43.46079729 15.93752204 37.60487938 15.9196701 C32.09652406 15.90320434 26.58834627 15.90102672 21.07997513 15.90980911 C19.05914777 15.91058026 17.03831093 15.90622653 15.01750755 15.89635086 C12.25677052 15.88365115 9.49666411 15.88949748 6.7359314 15.89993286 C5.53912381 15.88784825 5.53912381 15.88784825 4.3181383 15.87551951 C-0.85811562 15.92121572 -4.49758316 16.82429003 -9.08930969 19.26742554 C-10.50583548 22.1004771 -10.23038338 24.48876211 -10.24752808 27.65808105 C-10.25246605 28.32132539 -10.25740403 28.98456972 -10.26249164 29.66791236 C-10.2779055 31.90046234 -10.28623773 34.13298347 -10.29463196 36.36557007 C-10.30420743 37.96190649 -10.31421731 39.55824036 -10.32463074 41.15457153 C-10.35172172 45.49727351 -10.37270854 49.8399864 -10.39263272 54.18272638 C-10.41446646 58.71780555 -10.4418679 63.25285091 -10.46868896 67.78790283 C-10.51865125 76.37973142 -10.56357694 84.97157873 -10.60671133 93.56344402 C-10.6652739 105.17076681 -10.73157972 116.77804517 -10.79746151 128.38532829 C-10.90109149 146.67933079 -10.99434387 164.97337126 -11.08930969 183.26742554 C40.39069031 182.93742554 91.87069031 182.60742554 144.91069031 182.26742554 C143.26069031 180.28742554 141.61069031 178.30742554 139.91069031 176.26742554 C139.84547333 172.41962411 140.04078671 170.30461828 142.53569031 167.32992554 C146.06762188 165.74985088 148.05997505 165.62563966 151.91069031 166.26742554 C155.72729961 168.76769408 158.93716484 171.93897322 161.62968445 175.61312866 C164.8810521 179.72011938 167.72192698 182.36969232 173.01225281 182.99423218 C177.8419348 183.26314032 182.64585694 183.05455123 187.47319031 182.82992554 C189.16644284 182.7847138 190.85981181 182.74366095 192.55326843 182.70687866 C196.67531543 182.60836491 200.79170419 182.4534812 204.91069031 182.26742554 C192.56731577 166.20815805 192.56731577 166.20815805 175.21537781 157.62289429 C170.16117096 157.33802769 165.22798136 157.73576217 160.19877625 158.23031616 C157.03126181 158.28168857 155.25492503 157.34902815 152.91069031 155.26742554 C151.48406812 152.41418116 151.60035163 150.43288005 151.91069031 147.26742554 C153.41069031 144.45492554 153.41069031 144.45492554 155.91069031 142.26742554 C158.64416908 141.55797303 161.06261946 141.40982908 163.91069031 141.26742554 C163.26100281 140.71055054 162.61131531 140.15367554 161.94194031 139.57992554 C155.3303406 133.53969864 155.3303406 133.53969864 154.17240906 130.02914429 C154.05500264 126.74794375 154.746484 124.53015563 156.47319031 121.76742554 C160.01685483 119.58670891 161.80168724 119.51410831 165.91069031 120.26742554 C168.86735058 122.32585991 171.38786267 124.70400068 173.91069031 127.26742554 C174.57069031 127.92742554 175.23069031 128.58742554 175.91069031 129.26742554 C175.97256531 128.02992554 176.03444031 126.79242554 176.09819031 125.51742554 C176.52187745 122.24981099 176.84090705 121.35157594 179.03569031 118.70492554 C182.82544369 116.81004885 184.87200799 117.14556934 188.91069031 118.26742554 C191.49524315 120.16276429 191.87344536 121.1556907 192.91069031 124.26742554 C192.79518365 125.77713638 192.62388831 127.28292207 192.41850281 128.78305054 C191.67249744 137.65588622 191.68270121 145.1970856 197.60197449 152.26086426 C203.52527922 158.78340393 210.14945931 164.6326725 216.91069031 170.26742554 C219.43987359 150.69318645 219.43987359 150.69318645 213.60600281 132.87289429 C210.52183836 129.61803206 207.1340814 126.84514719 203.40116882 124.36361694 C201.91069031 123.26742554 201.91069031 123.26742554 200.91069031 121.26742554 C200.45282067 114.0559788 200.45282067 114.0559788 202.03569031 111.32992554 C204.73745195 109.79892727 206.80504536 109.39165133 209.91069031 109.26742554 C212.78941608 110.64136284 214.66058468 112.01731991 216.91069031 114.26742554 C216.93647156 113.01445679 216.96225281 111.76148804 216.98881531 110.47055054 C217.045102 108.8194743 217.10244921 107.16843398 217.16069031 105.51742554 C217.17487 104.69242554 217.18904968 103.86742554 217.20365906 103.01742554 C217.44951967 96.92008224 217.44951967 96.92008224 219.70756531 93.72445679 C222.01500306 92.19843856 223.17279277 91.69957808 225.91069031 91.70492554 C226.57069031 91.68301147 227.23069031 91.66109741 227.91069031 91.63851929 C231.18664663 92.66865399 232.17301109 94.35114651 233.91069031 97.26742554 C234.50887102 100.20430679 234.60553238 103.08886181 234.66069031 106.07992554 C234.70516296 107.26231812 234.70516296 107.26231812 234.75053406 108.46859741 C234.82080324 110.401 234.86806165 112.33421569 234.91069031 114.26742554 C235.8098114 113.30642944 235.8098114 113.30642944 236.72709656 112.32601929 C239.499346 109.71246749 241.12687847 109.34464619 244.91069031 109.26742554 C249.4759077 111.39786032 249.4759077 111.39786032 250.91069031 114.26742554 C251.46287934 117.71860697 251.61478788 120.18148195 249.66459656 123.18930054 C247.15610592 126.08594099 244.61764295 128.72816077 241.56498718 131.05673218 C237.51537142 134.35600247 235.20344298 136.76639202 234.18388367 141.99398804 C233.91704863 146.28361543 234.12246621 150.54306062 234.34819031 154.82992554 C234.39341531 156.33045562 234.43446584 157.83111762 234.47123718 159.33187866 C234.56961241 162.97983779 234.72442998 166.62277265 234.91069031 170.26742554 C250.97250283 157.90509017 250.97250283 157.90509017 259.59037781 140.53695679 C259.89389713 135.50356345 259.64194816 130.55423381 258.95683289 125.55966187 C258.90201736 122.83657757 259.3745313 121.50431008 260.91069031 119.26742554 C264.82794335 117.53479439 267.04166562 117.05426854 271.22319031 118.07992554 C275.05720787 121.20063751 275.33233042 124.51091405 275.91069031 129.26742554 C276.62354187 128.4849646 277.33639343 127.70250366 278.07084656 126.89633179 C279.03746179 125.87340888 280.00495687 124.85131689 280.97319031 123.82992554 C281.4391864 123.31365601 281.9051825 122.79738647 282.38529968 122.26547241 C286.02107784 118.48129515 288.70429036 117.44138639 293.91069031 117.26742554 C296.55885042 118.05471638 297.5395356 118.79022663 299.22319031 120.95492554 C300.25102739 124.41219573 299.74730177 126.76686703 298.91069031 130.26742554 C297.0861351 132.51894374 295.46474306 134.29447905 293.34819031 136.20492554 C292.56798523 136.94452515 292.56798523 136.94452515 291.77201843 137.69906616 C290.49821198 138.90275483 289.20621982 140.08714906 287.91069031 141.26742554 C288.52557312 141.34219116 289.14045593 141.41695679 289.77397156 141.49398804 C296.35110999 142.56395314 296.35110999 142.56395314 299.09819031 146.01742554 C300.08530612 149.9658888 299.75265335 151.6635848 297.91069031 155.26742554 C295.75813363 157.30740141 294.6207703 158.24655195 291.61845398 158.33480835 C290.78032166 158.21460327 289.94218933 158.09439819 289.07865906 157.97055054 C280.01253142 157.18055919 272.14033177 156.89606757 264.86218262 162.949646 C258.33590177 168.85461473 252.50853262 175.48888708 246.91069031 182.26742554 C266.48492939 184.79660882 266.48492939 184.79660882 284.30522156 178.96273804 C287.56008379 175.87857359 290.33296866 172.49081662 292.8144989 168.75790405 C293.91069031 167.26742554 293.91069031 167.26742554 295.91069031 166.26742554 C299.45319448 166.00501782 302.04328858 165.85655103 305.28569031 167.39242554 C307.56012349 170.01677151 307.84165982 171.81590115 307.91069031 175.26742554 C306.53675301 178.14615131 305.16079593 180.01731991 302.91069031 182.26742554 C304.07987 182.29320679 305.24904968 182.31898804 306.45365906 182.34555054 C308.00187257 182.40184921 309.55004821 182.45919615 311.09819031 182.51742554 C311.86711609 182.53160522 312.63604187 182.54578491 313.42826843 182.56039429 C317.31599193 182.72724937 319.51543643 183.0316061 322.92240906 185.06430054 C325.01172035 187.37937239 325.59546458 188.20698299 325.53569031 191.26742554 C325.54858093 191.92742554 325.56147156 192.58742554 325.57475281 193.26742554 C324.49391034 196.52266873 322.82756555 197.52713681 319.91069031 199.26742554 C316.97383113 199.86567463 314.08924211 199.96226783 311.09819031 200.01742554 C310.30992859 200.04707397 309.52166687 200.07672241 308.70951843 200.10726929 C306.77711585 200.17753847 304.84390015 200.22479687 302.91069031 200.26742554 C303.55135437 200.8668396 304.19201843 201.46625366 304.85209656 202.08383179 C307.46564836 204.85608123 307.83346966 206.4836137 307.91069031 210.26742554 C305.78025553 214.83264293 305.78025553 214.83264293 302.91069031 216.26742554 C299.45950887 216.81961457 296.9966339 216.97152311 293.98881531 215.02133179 C291.09217485 212.51284115 288.44995508 209.97437818 286.12138367 206.92172241 C282.82211338 202.87210665 280.41172382 200.56017821 275.18412781 199.5406189 C270.89450041 199.27378386 266.63505523 199.47920144 262.34819031 199.70492554 C260.84766022 199.75015054 259.34699822 199.79120107 257.84623718 199.82797241 C254.19827806 199.92634764 250.55534319 200.08116521 246.91069031 200.26742554 C259.24670319 216.337548 259.24670319 216.337548 276.60600281 224.87680054 C281.66289642 225.14062201 286.59050719 224.68669361 291.62260437 224.22348022 C293.91069031 224.26742554 293.91069031 224.26742554 297.02787781 226.07601929 C299.24177032 228.6527697 299.91069031 229.86629859 299.91069031 233.26742554 C299.03569031 236.45492554 299.03569031 236.45492554 296.91069031 239.26742554 C293.95851849 240.36991802 291.03206251 240.88788762 287.91069031 241.26742554 C288.69315125 241.9802771 289.47561218 242.69312866 290.28178406 243.42758179 C291.30470697 244.39419702 292.32679896 245.3616921 293.34819031 246.32992554 C293.86445984 246.79592163 294.38072937 247.26191772 294.91264343 247.74203491 C298.69687455 251.37786481 299.7630262 254.05611323 299.91069031 259.26742554 C298.97319031 262.14242554 298.97319031 262.14242554 296.91069031 264.26742554 C292.19562468 265.86575287 292.19562468 265.86575287 288.91069031 265.26742554 C285.82293906 263.32622898 283.4157199 260.90064428 280.91069031 258.26742554 C279.91142133 257.28751286 278.9115414 256.30822224 277.91069031 255.32992554 C277.25069031 254.64930054 276.59069031 253.96867554 275.91069031 253.26742554 C275.78113953 254.18974976 275.78113953 254.18974976 275.64897156 255.13070679 C274.50604703 261.70514418 274.50604703 261.70514418 271.66069031 264.39242554 C268.21604872 265.48844786 266.35126759 265.36548212 262.91069031 264.26742554 C260.71464539 262.52450562 260.71464539 262.52450562 258.91069031 260.26742554 C258.7297821 257.88339233 258.7297821 257.88339233 259.10990906 255.21664429 C259.9119125 245.93631873 260.42493793 237.65903843 254.23300171 230.15931702 C248.34782754 223.63083224 241.70489317 217.82675056 234.91069031 212.26742554 C232.12121205 234.01113397 232.12121205 234.01113397 238.21537781 253.92758179 C241.26913439 257.17407456 244.63981179 259.87605388 248.42021179 262.23471069 C249.91069031 263.26742554 249.91069031 263.26742554 250.91069031 265.26742554 C251.17309802 268.80992971 251.32156481 271.40002381 249.78569031 274.64242554 C247.16134433 276.91685872 245.36221469 277.19839505 241.91069031 277.26742554 C239.03196453 275.89348824 237.16079593 274.51753116 234.91069031 272.26742554 C234.91014554 273.41779737 234.90960077 274.56816921 234.9090395 275.7534008 C234.89498348 303.0849363 234.85517904 330.4163343 234.78383468 357.74778306 C234.77506835 361.11468164 234.76651846 364.48158075 234.75810242 367.84848022 C234.75558382 368.85387805 234.75558382 368.85387805 234.75301435 369.87958695 C234.72637296 380.72043726 234.71725132 391.56123469 234.71464888 402.40211438 C234.71158519 413.53285307 234.68921988 424.66345279 234.65016574 435.79412568 C234.62884788 442.0431715 234.61622911 448.29195983 234.62453651 454.54104233 C234.63208401 460.42624185 234.61622443 466.31091993 234.58263016 472.19602394 C234.57440547 474.3526347 234.57463675 476.50929738 234.58409309 478.66590309 C234.66908968 500.1855053 234.66908968 500.1855053 228.91069031 507.26742554 C223.40590222 512.72446237 217.5158128 512.93572194 209.98295593 512.99984741 C209.32335876 512.99138794 208.6637616 512.98292847 207.98417664 512.97421265 C205.9811416 512.9550018 203.97782878 512.9968408 201.97514343 513.03890991 C194.64302137 513.02057044 189.54875804 512.4242984 183.60624695 507.97689819 C180.25853837 504.60171382 178.66479663 500.62282266 176.91069031 496.26742554 C176.29432764 494.82640977 175.67565933 493.38637894 175.05522156 491.94711304 C169.91069031 479.85477314 169.91069031 479.85477314 169.91069031 476.26742554 C168.60412476 476.27630798 167.2975592 476.28519043 165.95140076 476.29434204 C153.64999754 476.37536008 141.34864832 476.43535847 129.04703903 476.47467422 C122.7223424 476.49556623 116.39786082 476.52391388 110.07328796 476.56918335 C103.97194042 476.6125827 97.87079996 476.63655048 91.76931 476.64693451 C89.4392343 476.65433645 87.10917018 476.66879033 84.77918243 476.69034576 C81.5203586 476.7193004 78.2623951 476.72338476 75.00346375 476.7215271 C74.0360173 476.7359082 73.06857086 476.75028931 72.07180786 476.7651062 C65.56881885 476.72488312 65.56881885 476.72488312 62.30723572 474.45779419 C60.26400488 471.25315169 60.44582437 468.98635304 60.91069031 465.26742554 C62.67084161 462.08238984 63.40959947 461.43445582 66.91069031 460.26742554 C68.94012396 460.17586564 70.9725005 460.14548513 73.0039978 460.14717102 C74.27600635 460.14579352 75.54801489 460.14441603 76.85856915 460.14299679 C78.27657785 460.14654362 79.69458634 460.15018152 81.1125946 460.15390015 C82.62481846 460.15420643 84.13704245 460.15407308 85.64926624 460.15353489 C89.70374812 460.15330887 93.75820056 460.15911028 97.81267548 460.16614532 C101.61540827 460.17183469 105.41813385 460.17210814 109.22087097 460.17282104 C120.34664799 460.17807113 131.47241952 460.19203224 142.59819031 460.20492554 C179.87787781 460.23586304 179.87787781 460.23586304 217.91069031 460.26742554 C217.58069031 398.22742554 217.25069031 336.18742554 216.91069031 272.26742554 C215.59069031 273.58742554 214.27069031 274.90742554 212.91069031 276.26742554 C209.19357476 277.45373901 207.63227896 277.62020221 204.09819031 275.89242554 C201.91069031 274.26742554 201.91069031 274.26742554 200.91069031 273.26742554 C200.35730116 269.32452785 200.00767722 266.71111418 202.15678406 263.27523804 C204.6554854 260.40144296 207.17371785 257.80558111 210.25639343 255.55453491 C214.36236538 252.30017196 217.01280922 249.45712235 217.63749695 244.1656189 C217.90641306 239.33601997 217.69781216 234.53217628 217.47319031 229.70492554 C217.42797857 228.011673 217.38692572 226.31830403 217.35014343 224.62484741 C217.25162968 220.50280041 217.09674597 216.38641166 216.91069031 212.26742554 C200.97102879 224.57310888 200.97102879 224.57310888 192.23100281 241.74008179 C191.92610487 246.56681586 192.26590889 251.27436586 192.7922821 256.07455444 C192.94531775 258.90871142 192.36017205 260.83856423 190.91069031 263.26742554 C188.2509546 265.43461759 186.82231434 265.26277417 183.34819031 265.07992554 C179.91069031 264.26742554 179.91069031 264.26742554 178.03569031 263.20492554 C176.20836045 260.05785745 176.20605824 256.87091437 175.91069031 253.26742554 C175.35639343 253.83332397 174.80209656 254.39922241 174.23100281 254.98226929 C173.14432312 256.08248413 173.14432312 256.08248413 172.03569031 257.20492554 C171.31639343 257.93582397 170.59709656 258.66672241 169.85600281 259.41976929 C167.20727964 261.93552443 166.24882666 262.23611662 162.53569031 262.57992554 C158.91069031 262.26742554 158.91069031 262.26742554 156.47319031 260.76742554 C154.746484 258.00469544 154.05500264 255.78690732 154.17240906 252.50570679 C155.76103486 247.68939681 160.15887499 244.48326724 163.91069031 241.26742554 C162.67319031 241.20555054 161.43569031 241.14367554 160.16069031 241.07992554 C156.89307576 240.65623839 155.99484071 240.3372088 153.34819031 238.14242554 C151.45331362 234.35267216 151.78883411 232.30610785 152.91069031 228.26742554 C154.80602906 225.68287269 155.79895547 225.30467048 158.91069031 224.26742554 C160.42040116 224.38293219 161.92618684 224.55422753 163.42631531 224.75961304 C172.299151 225.50561841 179.84035037 225.49541463 186.90412903 219.57614136 C193.4266687 213.65283662 199.27593727 207.02865653 204.91069031 200.26742554 C183.16698188 197.47794728 183.16698188 197.47794728 163.25053406 203.57211304 C160.00404129 206.62586962 157.30206196 209.99654702 154.94340515 213.77694702 C153.91069031 215.26742554 153.91069031 215.26742554 151.91069031 216.26742554 C144.74081583 216.72265566 144.74081583 216.72265566 141.97319031 215.20492554 C140.26969129 212.09854498 139.91069031 209.81436233 139.91069031 206.26742554 C141.56069031 204.28742554 143.21069031 202.30742554 144.91069031 200.26742554 C93.43069031 199.93742554 41.95069031 199.60742554 -11.08930969 199.26742554 C-11.08930969 285.39742554 -11.08930969 371.52742554 -11.08930969 460.26742554 C3.76069031 460.26742554 18.61069031 460.26742554 33.91069031 460.26742554 C38.91069031 464.26742554 38.91069031 464.26742554 39.87553406 466.57211304 C39.92274461 470.19158859 38.81767877 473.09444544 37.47319031 476.39242554 C37.20168152 477.07748169 36.93017273 477.76253784 36.6504364 478.46835327 C36.05921229 479.95073391 35.46196614 481.43072375 34.85942078 482.90853882 C33.87412352 485.35834378 32.93990351 487.82407694 32.00834656 490.29476929 C25.5055491 507.12477529 25.5055491 507.12477529 17.91069031 511.26742554 C12.98666519 512.90876724 7.8920474 512.57081836 2.73368835 512.61752319 C0.74738539 512.64212585 -1.23843753 512.69872164 -3.22407532 512.75570679 C-10.84874958 512.82540924 -16.42072105 512.65300269 -22.08930969 507.26742554 C-26.36699178 501.95080219 -27.824124 497.54572365 -27.7185154 490.79902077 C-27.7257826 489.98067824 -27.7330498 489.1623357 -27.74053723 488.31919491 C-27.75875316 485.58301062 -27.74144834 482.84823408 -27.72422791 480.11206055 C-27.72999046 478.12824678 -27.73793247 476.14443835 -27.74786413 474.16064107 C-27.76874247 468.71371963 -27.75841752 463.26723603 -27.74293303 457.82031298 C-27.73162747 451.94423991 -27.74907843 446.06824252 -27.76283264 440.19218445 C-27.78507879 428.682188 -27.78025741 417.17235448 -27.76576944 405.66235162 C-27.75430409 396.3076386 -27.75281218 386.95296666 -27.75838852 377.59824753 C-27.75877044 376.93341589 -27.75915237 376.26858425 -27.75954587 375.5836062 C-27.76110259 372.88476744 -27.76269459 370.1859287 -27.76434469 367.48708999 C-27.77963852 342.17130214 -27.76577491 316.85560314 -27.7388602 291.539829 C-27.71513776 269.05575106 -27.71725083 246.57181473 -27.74116516 224.08773804 C-27.76794932 198.82106967 -27.77854838 173.55447983 -27.76310384 148.28779924 C-27.76150029 145.59327787 -27.75993608 142.89875648 -27.75838852 140.20423508 C-27.75799313 139.54078593 -27.75759775 138.87733678 -27.75719038 138.19378311 C-27.751507 128.18231378 -27.75817823 118.17090203 -27.77078629 108.1594429 C-27.78481127 96.77245263 -27.78101135 85.38563469 -27.75438257 73.99866416 C-27.74124381 68.18880877 -27.7360933 62.37924068 -27.75262833 56.56938744 C-27.76753946 51.24963318 -27.75931983 45.93043221 -27.73274057 40.61072807 C-27.72716055 38.68752357 -27.72998523 36.76427222 -27.74211951 34.84109791 C-27.85448705 15.55027896 -27.85448705 15.55027896 -22.08930969 8.26742554 C-15.23154636 1.85137152 -9.22699649 -0.03340715 0 0 Z M-11.08930969 476.26742554 C-11.08930969 482.53742554 -11.08930969 488.80742554 -11.08930969 495.26742554 C-6.81572646 497.40421715 -3.71996416 497.6008977 0.91069031 497.57992554 C1.62225281 497.59603882 2.33381531 497.6121521 3.06694031 497.62875366 C5.99032316 497.6314807 8.46495591 497.45340437 11.17631531 496.32211304 C13.9761866 493.0051484 15.20105439 489.12752024 16.66069031 485.07992554 C18.26944031 480.71773804 18.26944031 480.71773804 19.91069031 476.26742554 C9.68069031 476.26742554 -0.54930969 476.26742554 -11.08930969 476.26742554 Z M186.91069031 476.26742554 C187.85944031 478.82492554 188.80819031 481.38242554 189.78569031 484.01742554 C190.08072449 484.81632202 190.37575867 485.61521851 190.67973328 486.43832397 C192.45515823 491.51798025 192.45515823 491.51798025 194.91069031 496.26742554 C198.58727755 497.49295462 202.01820147 497.489995 205.84819031 497.51742554 C206.56426453 497.53805054 207.28033875 497.55867554 208.01811218 497.57992554 C211.03047221 497.60226 213.57248426 497.39538104 216.39897156 496.32601929 C218.91774717 492.8960587 218.32511553 489.19965033 218.16069031 485.07992554 C218.07819031 482.17180054 217.99569031 479.26367554 217.91069031 476.26742554 C207.68069031 476.26742554 197.45069031 476.26742554 186.91069031 476.26742554 Z " fill="#000000" transform="translate(107.08930969238281,-0.267425537109375)"/>
<path d="M0 0 C4.68202132 4.56323854 8.57048642 8.89216529 9.27415466 15.62199402 C9.28479446 16.557798 9.29543427 17.49360199 9.30639648 18.45776367 C9.32238388 19.52625046 9.33837128 20.59473724 9.35484314 21.69560242 C9.36020584 22.84148331 9.36556854 23.9873642 9.37109375 25.16796875 C9.38463646 26.95295525 9.38463646 26.95295525 9.39845276 28.77400208 C9.41295062 31.29144783 9.42184083 33.80893123 9.42553711 36.32641602 C9.4374037 40.15641774 9.48657314 43.98479264 9.53710938 47.81445312 C9.54657758 50.26561718 9.55381071 52.71679108 9.55859375 55.16796875 C9.57812607 56.30372849 9.59765839 57.43948822 9.61778259 58.60966492 C9.57657004 65.9618538 8.44387375 71.96999257 4 78 C2.06108093 79.32852173 2.06108093 79.32852173 0.234375 80.25390625 C-1.64333417 81.29235321 -1.64333417 81.29235321 -3 83 C-3.96485397 87.63926142 -3.84131968 92.21531106 -3.75 96.9375 C-3.73206902 99.44655592 -3.7264306 101.95573634 -3.734375 104.46484375 C-3.71600586 105.574646 -3.69763672 106.68444824 -3.67871094 107.82788086 C-4.04970429 111.49073548 -5.10023794 113.8651619 -7 117 C-10.09173752 118.54586876 -12.59429552 118.29359521 -16 118 C-18.20385742 116.40625 -18.20385742 116.40625 -20 114 C-20.43481445 110.85546875 -20.43481445 110.85546875 -20.36328125 107.1875 C-20.36314686 105.85156235 -20.36382258 104.51562441 -20.36523438 103.1796875 C-20.34433414 101.08573 -20.31233817 98.99293209 -20.2644043 96.89941406 C-19.68496014 89.07804154 -19.68496014 89.07804154 -22.50415039 82.27734375 C-24.5926028 81.05617544 -24.5926028 81.05617544 -28 80 C-33.31306137 75.13678593 -35.31381419 70.0040435 -36 63 C-36.14810541 59.5960568 -36.16384767 56.19590691 -36.16796875 52.7890625 C-36.17129715 51.82149017 -36.17462555 50.85391785 -36.17805481 49.85702515 C-36.18309815 47.8180997 -36.18546394 45.77916606 -36.18530273 43.74023438 C-36.18748816 40.64178711 -36.20566879 37.54369686 -36.22460938 34.4453125 C-36.22754416 32.45573037 -36.22952839 30.46614657 -36.23046875 28.4765625 C-36.23765427 27.56065338 -36.24483978 26.64474426 -36.25224304 25.70108032 C-36.2183113 16.02148121 -35.01050655 8.07452944 -28 1 C-19.8951871 -5.17679574 -8.5269237 -5.87410299 0 0 Z M-19 15 C-19.98441606 17.81023517 -20.13445169 20.45306 -20.16113281 23.41381836 C-20.17074036 24.27829086 -20.1803479 25.14276337 -20.19024658 26.03343201 C-20.19449646 26.95954788 -20.19874634 27.88566376 -20.203125 28.83984375 C-20.20882507 29.79895157 -20.21452515 30.75805939 -20.22039795 31.74623108 C-20.22983399 33.77278545 -20.23637638 35.79935507 -20.24023438 37.82592773 C-20.24995335 40.92263509 -20.28099546 44.01868231 -20.3125 47.11523438 C-20.31902917 49.08593357 -20.32427998 51.05663749 -20.328125 53.02734375 C-20.3404718 53.95143539 -20.3528186 54.87552704 -20.36553955 55.82762146 C-20.34884084 60.6552582 -20.28725079 64.15924412 -17 68 C-14.10293293 69.24677006 -14.10293293 69.24677006 -11 69 C-8.61989035 67.74573185 -8.61989035 67.74573185 -7 65 C-6.37855064 61.34907858 -6.41594227 57.72755987 -6.43359375 54.03125 C-6.42739517 52.95879028 -6.42119659 51.88633057 -6.41481018 50.78137207 C-6.40771019 48.51522733 -6.41088908 46.24903046 -6.42358398 43.98291016 C-6.43745057 40.51237212 -6.40337777 37.04452905 -6.36523438 33.57421875 C-6.36428321 31.37239517 -6.36614187 29.17056821 -6.37109375 26.96875 C-6.35783554 25.93012817 -6.34457733 24.89150635 -6.33091736 23.82141113 C-6.30629553 18.0163914 -6.30629553 18.0163914 -9.41430664 13.31445312 C-13.61837908 11.17728704 -15.27891792 12.32845389 -19 15 Z " fill="#000000" transform="translate(150,220)"/>
<path d="M0 0 C4.90039131 4.95499177 7.24056175 9.5131022 7.2746582 16.50537109 C7.28895622 18.12262589 7.28895622 18.12262589 7.30354309 19.77255249 C7.30263168 20.92784454 7.30172028 22.0831366 7.30078125 23.2734375 C7.30506638 24.47054352 7.3093515 25.66764954 7.31376648 26.90103149 C7.31950466 29.43108488 7.32001382 31.96115477 7.31567383 34.49121094 C7.31251732 38.35380342 7.33596879 42.21562736 7.36132812 46.078125 C7.36360156 48.53906154 7.36430441 51.00000013 7.36328125 53.4609375 C7.372491 54.61218109 7.38170074 55.76342468 7.39118958 56.94955444 C7.34385352 65.19107878 6.2960462 71.2796124 0.5625 77.64453125 C-4.91693323 82.39793958 -11.25681328 83.6864194 -18.359375 83.37890625 C-25.23119759 82.3928607 -29.47386323 79.06564296 -33.7734375 73.78125 C-38.46145253 66.97317722 -38.15858643 59.65215286 -38.16796875 51.66796875 C-38.17129715 50.67678543 -38.17462555 49.68560211 -38.17805481 48.66438293 C-38.18310445 46.57240257 -38.18546374 44.48041419 -38.18530273 42.38842773 C-38.18748546 39.20868469 -38.20565192 36.02929096 -38.22460938 32.84960938 C-38.22754456 30.80989701 -38.22952852 28.77018301 -38.23046875 26.73046875 C-38.23765427 25.7895488 -38.24483978 24.84862885 -38.25224304 23.87919617 C-38.22254281 15.1822771 -37.3951324 7.60971089 -31.7734375 0.7265625 C-22.91112602 -7.90150286 -9.33636977 -7.81649562 0 0 Z M-20 12 C-22.64712538 16.73528896 -22.30599697 21.6671431 -22.30078125 26.9375 C-22.30506638 27.89519287 -22.3093515 28.85288574 -22.31376648 29.83959961 C-22.31949788 31.86018077 -22.32001883 33.88078257 -22.31567383 35.90136719 C-22.31251097 38.98929027 -22.33599809 42.07625756 -22.36132812 45.1640625 C-22.36360097 47.13020713 -22.36430468 49.09635433 -22.36328125 51.0625 C-22.372491 51.98345459 -22.38170074 52.90440918 -22.39118958 53.85327148 C-22.35263251 59.2040071 -21.97944934 63.02055066 -18 67 C-14.51944126 66.82432642 -14.51944126 66.82432642 -11 66 C-8.8555076 62.78326141 -8.74531289 61.91404709 -8.7253418 58.20898438 C-8.71580978 57.2378772 -8.70627777 56.26677002 -8.69645691 55.26623535 C-8.69736832 54.21931519 -8.69827972 53.17239502 -8.69921875 52.09375 C-8.69493362 51.01750366 -8.6906485 49.94125732 -8.68623352 48.83239746 C-8.68048847 46.55607812 -8.67999124 44.27974043 -8.68432617 42.00341797 C-8.68748761 38.51368038 -8.66402328 35.02478906 -8.63867188 31.53515625 C-8.63639912 29.32552191 -8.63569527 27.11588528 -8.63671875 24.90625 C-8.627509 23.85932983 -8.61829926 22.81240967 -8.60881042 21.73376465 C-8.61815361 20.27710388 -8.61815361 20.27710388 -8.62768555 18.79101562 C-8.62705612 17.93624634 -8.6264267 17.08147705 -8.6257782 16.20080566 C-9.08265033 13.51393179 -9.88156837 12.65905879 -12 11 C-15.28599192 9.62200339 -17.12461714 9.8913859 -20 12 Z " fill="#000000" transform="translate(152,73)"/>
</svg>
