<?xml version="1.0" encoding="UTF-8"?>
<svg version="1.1" xmlns="http://www.w3.org/2000/svg" width="512" height="512">
<path d="M0 0 C1.01136522 -0.00445784 2.02273045 -0.00891569 3.0647431 -0.01350862 C4.17396342 -0.01332426 5.28318375 -0.01313989 6.42601681 -0.01294994 C7.60590347 -0.01662663 8.78579013 -0.02030332 10.00143093 -0.02409142 C13.27761947 -0.03321002 16.55377858 -0.03782616 19.82997763 -0.04048073 C23.36321929 -0.04438764 26.8964465 -0.05396577 30.42967892 -0.0626936 C38.96354515 -0.08244804 47.49741255 -0.09252334 56.03129593 -0.10142139 C60.05201968 -0.10580633 64.07274213 -0.11117264 68.09346485 -0.11641026 C81.46297495 -0.13342221 94.83248422 -0.14791548 108.20200348 -0.155159 C111.67079386 -0.15706883 115.13958424 -0.15898917 118.6083746 -0.16094494 C119.47050546 -0.16142868 120.33263632 -0.16191242 121.22089236 -0.16241082 C135.18094506 -0.17070776 149.14091198 -0.19603915 163.10092724 -0.22852562 C177.43983606 -0.26162118 191.77870133 -0.27961005 206.11764854 -0.28280324 C214.16578995 -0.28496612 222.2138063 -0.29368215 230.26191044 -0.31926441 C237.11740683 -0.34100564 243.97274778 -0.3490051 250.82827473 -0.33929763 C254.32337172 -0.33476265 257.81814823 -0.33659169 261.31320095 -0.35605907 C265.11043394 -0.37376996 268.90685912 -0.36667435 272.70409298 -0.35352612 C273.79769825 -0.36449536 274.89130352 -0.37546461 276.01804835 -0.38676625 C287.27504168 -0.29294999 295.68052196 2.86859355 303.77902889 10.69672108 C312.6234402 20.36206723 314.93283173 29.77150161 315.35118866 42.71153355 C315.37597974 43.44569233 315.40077081 44.17985111 315.42631313 44.93625712 C315.50828199 47.39152374 315.5847548 49.84693002 315.6612463 52.30237293 C315.71952816 54.08249924 315.77814821 55.8626145 315.83707708 57.64271951 C315.99791517 62.53103897 316.15393456 67.41950217 316.30916512 72.30800247 C316.47746297 77.58157665 316.65021379 82.85500518 316.82240963 88.12845325 C317.15902881 98.45898961 317.49152555 108.78965475 317.82263763 119.12036893 C318.20842119 131.15206161 318.59826826 143.18362159 318.9882844 155.21517769 C319.68414928 176.68613746 320.37630407 198.15721524 321.06638241 219.6283617 C321.73586296 240.45852833 322.40795777 261.28860841 323.08298397 282.11859608 C323.12453919 283.40091967 323.1660944 284.68324326 323.20890886 286.00442514 C323.25039277 287.28453836 323.29187668 288.56465159 323.33461767 289.88355613 C324.10311235 313.59832066 324.86926574 337.3131603 325.63425945 361.02803801 C325.90476483 369.41221157 326.175942 377.79636326 326.44731998 386.18050861 C326.77814578 396.40284142 327.10760766 406.62521719 327.43538792 416.84764811 C327.60261284 422.06212451 327.77038863 427.27658154 327.93970013 432.49099064 C328.09478211 437.26779687 328.24820998 442.04465331 328.40033572 446.82155457 C328.45554525 448.54631389 328.51134569 450.27105443 328.56780887 451.99577317 C329.76537351 488.62070156 329.76537351 488.62070156 316.75949764 502.88422108 C310.34942673 509.02304177 302.37338632 512.25204132 293.5789156 512.26844215 C292.4693986 512.2729 291.3598816 512.27735784 290.21674287 512.28195077 C288.38846938 512.28167423 288.38846938 512.28167423 286.52326107 512.2813921 C284.58086353 512.28690713 284.58086353 512.28690713 282.59922564 512.29253358 C279.00186715 512.30254555 275.40452534 512.30626908 271.80715489 512.30892289 C267.92832656 512.31282832 264.0495114 512.3224065 260.17069149 512.33113575 C250.8018209 512.3508934 241.43294923 512.36096549 232.06406301 512.36986354 C227.65120653 512.37424759 223.23835125 512.3796141 218.82549572 512.38485241 C204.15464623 512.40186399 189.48379748 512.41635795 174.81293964 512.42360115 C171.00622589 512.42551102 167.19951215 512.42743136 163.39279842 512.42938709 C162.44666804 512.42987083 161.50053765 512.43035457 160.52573664 512.43085297 C145.20057498 512.43915249 129.8754914 512.4644884 114.55036382 512.49696777 C98.81363464 512.53004735 83.07694513 512.54805072 67.34018099 512.55124539 C58.50568495 512.55340965 49.67130277 512.56214606 40.83684063 512.58770657 C33.31267752 512.60942585 25.78865592 512.61745796 18.26446502 512.60773978 C14.4272328 512.60319862 10.59029248 512.60507034 6.7531004 512.62450123 C2.58774087 512.64541123 -1.57697284 512.63513635 -5.74236393 512.62196827 C-7.55056093 512.63842214 -7.55056093 512.63842214 -9.39528716 512.65520841 C-21.04279127 512.56638044 -29.93859904 508.90267648 -38.55300236 501.00922108 C-45.54351015 493.77126168 -49.09373317 483.93104562 -49.14599174 473.91432238 C-49.11269428 472.45057243 -49.06748886 470.9870567 -49.01189423 469.52398396 C-48.99038183 468.71810064 -48.96886943 467.91221732 -48.94670514 467.08191329 C-48.87355787 464.44099739 -48.78449076 461.80088139 -48.69519901 459.16046619 C-48.63982146 457.28004188 -48.58543254 455.39958822 -48.53197664 453.5191083 C-48.39132647 448.66314405 -48.23751105 443.80769101 -48.08037409 438.95223594 C-47.94181348 434.60753441 -47.81535808 430.26249473 -47.68847179 425.91743946 C-47.40916038 416.44590153 -47.10868662 406.97509009 -46.80469596 397.50431657 C-46.648732 392.63369045 -46.49474511 387.76300166 -46.34041691 382.89232349 C-45.97095648 371.24630396 -45.59821074 359.60039061 -45.22483173 347.95449615 C-45.08370512 343.55158203 -44.94276202 339.14866204 -44.80181106 334.74574229 C-44.17862868 315.28080601 -43.55430849 295.81590651 -42.92702675 276.35110188 C-42.77491501 271.63053392 -42.62281252 266.90996566 -42.47072697 262.18939686 C-42.41404516 260.43010333 -42.41404516 260.43010333 -42.35621827 258.63526851 C-41.7409657 239.53305119 -41.13269802 220.43061787 -40.52720214 201.32808906 C-39.90286698 181.6349122 -39.27223387 161.94194488 -38.63543743 142.24916697 C-38.27905982 131.22335607 -37.92544525 120.19747181 -37.57894421 109.17134571 C-37.28482524 99.81255352 -36.98503068 90.45396511 -36.67778463 81.09559429 C-36.52139159 76.32670785 -36.3677028 71.55777502 -36.22133541 66.78856945 C-36.08723834 62.42123303 -35.94536847 58.05421971 -35.79739427 53.68733209 C-35.74533865 52.11112492 -35.6960935 50.53482179 -35.65000267 48.95842892 C-35.17568505 32.8438379 -33.70063234 19.67316078 -21.46706486 8.11468983 C-15.08337454 3.00975136 -8.17467351 0.01673897 0 0 Z M9.00949764 15.13422108 C6.68353935 75.95718617 6.68353935 75.95718617 32.00949764 130.13422108 C32.70172421 130.92957264 33.39395077 131.7249242 34.10715389 132.54437733 C45.24883313 144.57887894 59.7358072 151.74142801 75.00949764 157.13422108 C75.67497616 157.36979725 76.34045467 157.60537342 77.02609921 157.84808826 C120.0903296 172.65339749 174.15373775 171.59141784 216.00949764 153.13422108 C222.49352892 149.95127463 228.65726061 146.25317772 234.75949764 142.39593983 C237.75261886 140.71750553 239.63072094 140.63099901 243.00949764 141.13422108 C246.06573041 143.22532771 246.87412778 144.42728957 247.57199764 148.07172108 C246.81841945 152.17453569 245.09467484 153.37491307 242.00949764 156.13422108 C200.56769222 184.26747923 142.67581492 187.19790336 94.94699764 178.22015858 C90.59430319 177.33675862 86.29650004 176.29339855 82.00949764 175.13422108 C81.33273983 174.95133533 80.65598202 174.76844959 79.95871639 174.58002186 C51.74892064 166.75220808 24.96095207 152.14972623 10.04123592 126.02142811 C-1.91373553 104.15395784 -5.88252153 79.4431985 -6.30690861 54.77875233 C-6.3276897 53.75110264 -6.3484708 52.72345295 -6.36988163 51.66466236 C-6.43456029 48.42540765 -6.49387673 45.18608141 -6.55300236 41.94672108 C-6.59626554 39.73252137 -6.63988212 37.51832854 -6.68386173 35.30414295 C-6.79015613 29.91424163 -6.89206427 24.52427131 -6.99050236 19.13422108 C-12.52732261 21.66164434 -15.18856321 25.31107542 -17.58713627 30.76404285 C-19.90089628 38.09331284 -19.67167298 45.8779262 -19.88185978 53.49457264 C-19.94026907 55.25181833 -19.99985612 57.00902521 -20.06052494 58.76619434 C-20.22138942 63.5253863 -20.36546978 68.28495235 -20.50625873 73.04477501 C-20.65720743 78.05899779 -20.82287132 83.07273627 -20.9866724 88.08655262 C-21.26027824 96.5261659 -21.52371561 104.96604652 -21.78029728 113.40619373 C-22.10697979 124.1505646 -22.45026796 134.89433496 -22.7990303 145.63800907 C-23.10145186 154.95893929 -23.39586656 164.28012043 -23.68917394 173.60134125 C-23.7823448 176.55168047 -23.87659676 179.50198361 -23.97102261 182.45228291 C-24.12088867 187.15048039 -24.26566535 191.8488122 -24.40697384 196.54727459 C-24.45865706 198.24445919 -24.51175784 199.94160152 -24.56662464 201.63868618 C-25.06602849 217.14908018 -24.99050236 232.59955495 -24.99050236 248.13422108 C83.90949764 248.13422108 192.80949764 248.13422108 305.00949764 248.13422108 C305.0218321 223.64822195 305.0218321 223.64822195 304.50632381 199.18597889 C304.45173506 197.3933817 304.39750266 195.60077363 304.34358883 193.80815601 C304.19918729 189.05100664 304.04896495 184.29406119 303.89671779 179.53715706 C303.80136167 176.55277135 303.70713116 173.56835202 303.61322117 170.58392048 C303.31787545 161.20634588 303.01899481 151.82889481 302.71458834 142.45160985 C302.36532718 131.69236295 302.02810323 120.93282519 301.70099944 110.17288232 C301.44555055 101.79314178 301.1797076 93.4137712 300.90596086 85.0346086 C300.74344157 80.05332942 300.58521668 75.07200574 300.43786335 70.09025288 C300.29955509 65.42410823 300.14830951 60.75855865 299.98722935 56.09314632 C299.93054322 54.38774207 299.87843646 52.68217819 299.83136654 50.97648144 C299.68370125 35.65222407 299.68370125 35.65222407 292.44699764 22.57172108 C291.54787655 21.57978748 291.54787655 21.57978748 290.63059139 20.56781483 C289.12047358 18.91340207 289.12047358 18.91340207 287.00949764 19.13422108 C286.99736736 19.95749393 286.99736736 19.95749393 286.98499203 20.79739857 C286.89767765 26.6071401 286.79815169 32.41658869 286.69211483 38.22601795 C286.65426981 40.38254268 286.61934741 42.53912107 286.58762264 44.69574451 C286.33647391 61.56979996 285.88536366 78.3668163 281.75949764 94.82172108 C281.43852108 96.1301598 281.43852108 96.1301598 281.11106014 97.46503162 C278.33419797 108.33808281 274.61686727 118.95731882 268.00949764 128.13422108 C265.26352504 129.50720738 263.05059295 129.25834742 260.00949764 129.13422108 C259.01949764 128.80422108 258.02949764 128.47422108 257.00949764 128.13422108 C255.57049768 121.30859023 256.57596856 117.69345527 259.69699764 111.57172108 C274.06185451 81.23416344 271.00949764 48.27709462 271.00949764 15.13422108 C184.54949764 15.13422108 98.08949764 15.13422108 9.00949764 15.13422108 Z M-25.99050236 264.13422108 C-25.99050236 269.74422108 -25.99050236 275.35422108 -25.99050236 281.13422108 C14.92949764 281.13422108 55.84949764 281.13422108 98.00949764 281.13422108 C98.00949764 275.52422108 98.00949764 269.91422108 98.00949764 264.13422108 C57.08949764 264.13422108 16.16949764 264.13422108 -25.99050236 264.13422108 Z M182.00949764 264.13422108 C182.00949764 269.74422108 182.00949764 275.35422108 182.00949764 281.13422108 C222.92949764 281.13422108 263.84949764 281.13422108 306.00949764 281.13422108 C306.00949764 275.52422108 306.00949764 269.91422108 306.00949764 264.13422108 C265.08949764 264.13422108 224.16949764 264.13422108 182.00949764 264.13422108 Z M114.00949764 264.13422108 C113.98371639 268.64722889 113.95793514 273.1602367 113.93137264 277.81000233 C113.89970189 281.40636014 113.86405229 285.00262945 113.82570553 288.59891987 C113.78630686 292.39643186 113.75393683 296.19370737 113.73850155 299.99139881 C113.72336742 303.64861662 113.68898149 307.30519115 113.64118862 310.96212292 C113.62634096 312.35792102 113.61845468 313.75381095 113.61761379 315.14968777 C113.61525294 317.10338109 113.58594089 319.05698582 113.55539608 321.01044178 C113.54651363 322.12296818 113.53763119 323.23549458 113.52847958 324.38173389 C113.00949764 327.13422108 113.00949764 327.13422108 111.16678524 328.99742603 C108.27375812 330.52192323 106.23542783 330.47740514 103.00949764 330.13422108 C100.00949764 328.13422108 100.00949764 328.13422108 99.00949764 325.13422108 C98.67949764 315.89422108 98.34949764 306.65422108 98.00949764 297.13422108 C56.75949764 297.13422108 15.50949764 297.13422108 -26.99050236 297.13422108 C-27.77602983 308.44714774 -27.77602983 308.44714774 -28.30057621 319.75514698 C-28.34402164 321.06550922 -28.38746708 322.37587147 -28.43222904 323.72594166 C-28.47587457 325.11960156 -28.51946723 326.51326311 -28.56301212 327.90692616 C-28.61220456 329.4199947 -28.66161932 330.93305603 -28.711236 332.44611073 C-28.84369641 336.50560833 -28.97297612 340.56520122 -29.10154176 344.62482381 C-29.23732628 348.89759748 -29.37581991 353.17028349 -29.5139246 357.44298267 C-29.74512291 364.60847916 -29.97429449 371.77403819 -30.20217228 378.939641 C-30.46494607 387.2019389 -30.73068316 395.46413737 -30.99805504 403.72628766 C-31.25641054 411.71124807 -31.51292907 419.69626642 -31.76853085 427.68131542 C-31.87683445 431.06423866 -31.98572387 434.44714228 -32.09508801 437.83003139 C-32.22381722 441.81508131 -32.35091365 445.80018018 -32.47678852 449.78532124 C-32.52299948 451.24051561 -32.56974361 452.69569317 -32.61708355 454.15085125 C-34.3562509 472.84525747 -34.3562509 472.84525747 -27.08425236 489.24750233 C-18.30815041 497.15581808 -10.3081982 497.28332464 1.14227962 497.26793385 C2.99135188 497.27133218 2.99135188 497.27133218 4.87777913 497.27479917 C8.29207087 497.28003012 11.7063099 497.28078478 15.12060189 497.27960479 C18.80575928 497.27940053 22.49090885 497.28492195 26.17606258 497.28966236 C33.39295581 497.29796368 40.60984086 497.30071696 47.82673846 497.30127474 C53.69323315 497.30175011 59.55972515 497.30380589 65.42621899 497.30697536 C82.06217974 497.31578021 98.69813404 497.32039496 115.33409713 497.31964489 C116.67896482 497.31958496 116.67896482 497.31958496 118.05100155 497.31952381 C118.94867572 497.31948293 119.84634989 497.31944205 120.7712263 497.31939993 C135.3216025 497.31899342 149.87195283 497.32856474 164.42232154 497.34266218 C179.36583595 497.3570262 194.30933775 497.36393236 209.25285923 497.3630684 C217.64121063 497.36273646 226.02953489 497.36548233 234.41788006 497.37624645 C241.559213 497.38535174 248.70050652 497.38752643 255.84184276 497.38073703 C259.48433243 497.37747209 263.12674645 497.37741421 266.76922894 497.38609028 C270.72043711 497.39540482 274.67153482 497.38917861 278.62274837 497.38145924 C279.77041931 497.3866028 280.91809025 497.39174636 282.10053909 497.39704579 C290.78629453 497.35951196 297.97826222 496.75920941 305.00949764 491.13422108 C310.73888297 485.27159423 313.17628332 479.8493572 313.18973446 471.71103191 C313.12363218 467.84179222 312.97572687 463.97737175 312.82199764 460.11078358 C312.76310616 458.32353031 312.70578832 456.53622464 312.6498785 454.74887562 C312.52243758 450.75804768 312.3852408 446.76769809 312.24191952 442.77740955 C311.98845291 435.65196287 311.77110758 428.52557376 311.55637264 421.39886951 C311.12608663 407.19927792 310.67232532 393.00052741 310.21248722 378.80186677 C310.02987447 373.15645131 309.85043309 367.51093805 309.67163467 361.86540067 C309.4959775 356.32292342 309.31829317 350.78051355 309.13904762 345.23815119 C309.03335177 341.96923303 308.92861772 338.70028958 308.82544613 335.43129063 C308.71089121 331.81053534 308.5930112 328.18990213 308.47434139 324.56927967 C308.44210476 323.52813007 308.40986813 322.48698048 308.37665462 321.41428089 C308.10522785 313.29459164 307.55086828 305.25478057 307.00949764 297.13422108 C265.75949764 297.13422108 224.50949764 297.13422108 182.00949764 297.13422108 C181.79954918 337.40221547 181.79954918 337.40221547 181.62155819 377.67035389 C181.57163143 385.48724842 181.57163143 385.48724842 181.54448605 389.15540028 C181.52841586 391.698178 181.51807409 394.24099611 181.51238155 396.78381824 C181.50257959 400.65246397 181.4741685 404.52058886 181.44187069 408.38910389 C181.44329665 409.50760353 181.44472261 410.62610317 181.44619179 411.77849674 C181.28642677 425.26585694 178.00361194 436.7197449 168.88449764 446.88422108 C159.32139189 455.91247751 148.10635622 457.61533247 135.57590389 457.41156483 C124.30020879 456.94627747 115.9635359 451.4301274 108.32199764 443.50922108 C101.31066541 435.16621705 98.89915266 425.037065 98.86423397 414.36615467 C98.86087536 413.71821445 98.85751675 413.07027424 98.85405636 412.40269947 C98.84462343 410.27933257 98.84260763 408.15604507 98.84152889 406.03265858 C98.83831273 404.54865964 98.83494839 403.06466101 98.83144283 401.58066273 C98.82547203 398.47904188 98.823601 395.37744882 98.82419491 392.27582264 C98.82429682 388.3034816 98.81060588 384.33131814 98.7934227 380.35901928 C98.78230549 377.29810231 98.78027556 374.23722847 98.78080463 371.17629337 C98.77962559 369.7114815 98.77520804 368.24666848 98.76747227 366.78187656 C98.75767087 364.73562316 98.76054995 362.68975812 98.76657772 360.64349842 C98.7651527 359.48023029 98.76372768 358.31696217 98.76225948 357.11844349 C99.00373685 354.20375514 99.39337346 352.5452198 101.00949764 350.13422108 C103.81865238 348.72964371 105.89760299 348.8852695 109.00949764 349.13422108 C111.17465878 350.24933338 111.17465878 350.24933338 113.00949764 352.13422108 C113.50156307 355.00250721 113.50156307 355.00250721 113.49191952 358.5424242 C113.49583202 359.18843586 113.49974453 359.83444752 113.5037756 360.50003529 C113.50975153 361.90285231 113.50657869 363.30573128 113.49535275 364.70851612 C113.4780689 366.93853335 113.48561248 369.16725607 113.49960995 371.3972826 C113.52925022 376.94211088 113.51614882 382.48669316 113.50443172 388.03155994 C113.49617441 392.70759131 113.50440647 397.38305838 113.53356075 402.05901051 C113.54058119 404.23879009 113.52406305 406.41753578 113.50644588 408.59723377 C113.50778315 418.42683323 114.42576141 427.52285662 121.25949764 435.07172108 C128.36108424 441.29121587 134.15200059 442.82801233 143.66965389 442.51312733 C150.63929771 441.7224192 155.6824086 438.46888178 160.36454296 433.29972267 C166.77387116 424.86215865 166.56853554 414.66726039 166.46359921 404.56512928 C166.46246861 403.02658079 166.46310873 401.48803016 166.46536922 399.94948292 C166.46650903 395.80544537 166.44311995 391.6618783 166.41507339 387.51794934 C166.3899362 383.17515482 166.38770809 378.83234752 166.38297176 374.48949146 C166.37057797 366.28033344 166.33780548 358.07139046 166.2975738 349.8623268 C166.25274362 340.51040585 166.23084087 331.15847421 166.21079206 321.80647242 C166.16906927 302.58224223 166.09576233 283.35830655 166.00949764 264.13422108 C148.84949764 264.13422108 131.68949764 264.13422108 114.00949764 264.13422108 Z " fill="#000000" transform="translate(115.99050235748291,-0.13422107696533203)"/>
<path d="M0 0 C0.8383136 -0.00571014 1.6766272 -0.01142029 2.54034424 -0.01730347 C3.91499344 -0.01898026 3.91499344 -0.01898026 5.31741333 -0.02069092 C6.285177 -0.02565582 7.25294067 -0.03062073 8.25003052 -0.03573608 C11.45625516 -0.050359 14.66243033 -0.05715963 17.86868286 -0.06268311 C20.09444175 -0.06843406 22.32020062 -0.0741918 24.54595947 -0.07995605 C29.21489696 -0.09046614 33.88381723 -0.09630889 38.55276489 -0.09979248 C44.53732014 -0.10527991 50.52164818 -0.12931339 56.50613213 -0.15776443 C61.10433621 -0.17638074 65.70248544 -0.18159586 70.30072403 -0.18312836 C72.50714486 -0.18615723 74.71356467 -0.19419364 76.91994858 -0.20731354 C80.0057382 -0.22435412 83.09097084 -0.2224986 86.17678833 -0.21600342 C87.08917267 -0.2252182 88.00155701 -0.23443298 88.94158936 -0.243927 C94.80460524 -0.20523762 98.09666049 0.75772629 102.62649536 4.64044189 C105.53079841 8.12560556 105.07012344 12.37171607 105.11477661 16.65997314 C105.12284836 17.39616379 105.1309201 18.13235443 105.13923645 18.89085388 C105.15305572 20.44839132 105.16378751 22.00595876 105.17166138 23.5635376 C105.18317906 25.15119338 105.20362783 26.7388105 105.23318481 28.32623291 C105.27598496 30.62524619 105.29204664 32.92311028 105.30227661 35.22247314 C105.3197847 35.92580276 105.33729279 36.62913239 105.35533142 37.35377502 C105.33318817 42.42922936 104.14538853 45.28990011 100.87649536 49.14044189 C96.26948482 52.8516793 91.87331168 52.57251075 86.22439575 52.54449463 C84.7747216 52.55478951 84.7747216 52.55478951 83.29576111 52.56529236 C80.10507463 52.58357474 76.91487917 52.5797207 73.72415161 52.57403564 C71.50364522 52.57859676 69.28314025 52.58390212 67.06263733 52.58992004 C62.40979272 52.598854 57.75711973 52.5964247 53.10427856 52.58648682 C47.14441748 52.57499719 41.18514888 52.59520754 35.22536564 52.62440395 C30.63996117 52.64275814 26.05469888 52.64247501 21.46926689 52.63676643 C19.27205003 52.63661312 17.07482359 52.6426655 14.87764168 52.65505791 C11.8040472 52.66995081 8.73154986 52.65930268 5.6579895 52.64215088 C4.75234253 52.65181885 3.84669556 52.66148682 2.91360474 52.67144775 C-2.59215423 52.60717666 -5.75893847 51.81825526 -10.12350464 48.14044189 C-13.39316878 44.1364193 -13.56509696 40.38065595 -13.52194214 35.39044189 C-13.52481232 34.65470947 -13.5276825 33.91897705 -13.53063965 33.16094971 C-13.5326739 31.61113715 -13.52718879 30.06129855 -13.51461792 28.51153564 C-13.49855374 26.14766697 -13.51448684 23.78550779 -13.53366089 21.42169189 C-13.53167834 19.91127148 -13.52783443 18.40085212 -13.52194214 16.89044189 C-13.52801483 16.1882251 -13.53408752 15.4860083 -13.54034424 14.76251221 C-13.46437385 9.42662405 -12.0388304 6.37498861 -8.62350464 2.39044189 C-5.9501637 0.16265778 -3.32949907 0.01360132 0 0 Z M2.87649536 16.14044189 C2.87649536 22.74044189 2.87649536 29.34044189 2.87649536 36.14044189 C31.25649536 36.14044189 59.63649536 36.14044189 88.87649536 36.14044189 C88.87649536 29.54044189 88.87649536 22.94044189 88.87649536 16.14044189 C60.49649536 16.14044189 32.11649536 16.14044189 2.87649536 16.14044189 Z " fill="#000000" transform="translate(210.12350463867188,31.85955810546875)"/>
<path d="M0 0 C4.56238861 3.7512973 8.12202942 8.36608826 10 14 C10.6721567 21.43779954 10.62367329 27.88526047 6 34 C1.61823118 38.98341065 -3.44930951 41.87610702 -10 43 C-17.07041153 43.3623037 -22.651231 41.67301446 -28 37 C-33.91116317 30.50931103 -35.39696512 25.52434279 -35.26953125 16.8125 C-34.6604473 10.45684144 -31.751823 6.43230287 -27.1875 2.125 C-18.98774948 -4.54109348 -9.27625403 -4.36735124 0 0 Z M-16.75 14.5625 C-19.39309282 16.88357281 -19.39309282 16.88357281 -19.0625 20.5625 C-18.26408095 23.97187948 -18.26408095 23.97187948 -16.25 26 C-13.33305134 27.29642163 -11.98207327 27.07048784 -9 26 C-7.08333333 24.91666667 -7.08333333 24.91666667 -6 23 C-5.33319632 20.04279372 -5.33319632 20.04279372 -6 17 C-8.20488259 14.53583866 -8.20488259 14.53583866 -11 13 C-14.09242093 12.7529953 -14.09242093 12.7529953 -16.75 14.5625 Z " fill="#000000" transform="translate(362,38)"/>
<path d="M0 0 C5.23440931 4.26613946 8.3739277 8.17747949 9.09375 15.12890625 C9.39683181 23.66182492 7.18331991 29.68503845 1.41015625 35.98046875 C-3.54411209 40.67911146 -9.56892463 41.62829741 -16.1796875 41.48828125 C-23.27153271 40.38640778 -28.46111369 36.79390767 -33.1796875 31.48828125 C-36.90127434 25.55700222 -36.96905821 19.2932012 -36.1796875 12.48828125 C-34.38512507 5.82921312 -29.78150453 1.28951424 -24.1796875 -2.51171875 C-15.61314666 -5.96839313 -7.53682402 -5.22715215 0 0 Z M-17.8671875 13.11328125 C-20.42330518 15.31334503 -20.42330518 15.31334503 -20.8046875 18.48828125 C-20.40948278 21.64255384 -20.40948278 21.64255384 -17.9921875 23.92578125 C-15.33347443 25.70075003 -15.33347443 25.70075003 -12.5546875 25.48828125 C-9.64255856 24.2621217 -8.65131884 23.27663537 -7.1796875 20.48828125 C-6.51302083 17.98828125 -6.51302083 17.98828125 -7.1796875 15.48828125 C-9.40456629 13.09164168 -9.40456629 13.09164168 -12.1796875 11.48828125 C-15.27525253 11.22957158 -15.27525253 11.22957158 -17.8671875 13.11328125 Z " fill="#000000" transform="translate(176.1796875,39.51171875)"/>
<path d="M0 0 C4.10703441 0.85563217 5.55401113 2.24378009 8 5.625 C8.625 9.1875 8.625 9.1875 8 12.625 C5.4511805 15.5486459 3.80484394 16.47409176 0 17.1875 C-4.10389613 16.41801948 -5.53959272 14.95378632 -8 11.625 C-8.625 8.625 -8.625 8.625 -8 5.625 C-5.54405875 2.30225596 -4.0743356 0.84881992 0 0 Z " fill="#000000" transform="translate(236,126.375)"/>
<path d="M0 0 C3.36627241 0.57298254 4.72753464 0.8807818 6.9375 3.5 C7.90738093 6.23222554 8.26325603 8.6131276 7.9375 11.5 C5.53970738 14.98769835 4.11392926 16.27941951 -0.0625 17.0625 C-3.86734394 16.34909176 -5.5136805 15.4236459 -8.0625 12.5 C-8.6875 9.0625 -8.6875 9.0625 -8.0625 5.5 C-5.58320473 2.0727389 -4.20767131 0.68696675 0 0 Z " fill="#000000" transform="translate(276.0625,126.5)"/>
<path d="M0 0 C2.562964 2.23225897 2.93752331 3.58051369 3.4375 6.9375 C2.87499856 10.87501007 2.03727005 12.41832046 -1 15 C-3.8229596 15.71730941 -6.1770404 15.71730941 -9 15 C-12.03727005 12.41832046 -12.87499856 10.87501007 -13.4375 6.9375 C-12.95374115 3.68940486 -12.30588726 2.30588726 -10 0 C-6.20519658 -1.26493447 -3.87641726 -0.89988258 0 0 Z " fill="#000000" transform="translate(261,100)"/>
<path d="M0 0 C1.9375 1.0625 1.9375 1.0625 3 3 C3.75471698 9.79245283 3.75471698 9.79245283 1.4375 13.5 C-1.9238388 15.56851618 -4.11959911 15.48505011 -8 15 C-10.375 13.9375 -10.375 13.9375 -12 12 C-13 8.625 -13 8.625 -13 5 C-9.23021184 -0.97966398 -6.77641513 -1.42661371 0 0 Z " fill="#000000" transform="translate(340,100)"/>
<path d="M0 0 C2.64764845 1.67684402 2.95477045 2.85138861 3.875 5.875 C4.02405268 9.60131711 3.25133987 11.08159647 1 14 C-2.09173752 15.54586876 -4.59429552 15.29359521 -8 15 C-10.4375 13.5 -10.4375 13.5 -12 11 C-12.61014545 8.1910285 -12.65360928 5.80363979 -12 3 C-8.3655827 -1.51548816 -5.40521016 -1.50144727 0 0 Z " fill="#000000" transform="translate(300,100)"/>
<path d="M0 0 C1.9375 1.0625 1.9375 1.0625 3 3 C3.75471698 9.79245283 3.75471698 9.79245283 1.4375 13.5 C-1.9238388 15.56851618 -4.11959911 15.48505011 -8 15 C-10.375 13.9375 -10.375 13.9375 -12 12 C-12.87281149 8.57109774 -13.32922829 6.10740423 -12.3125 2.6875 C-8.84502924 -1.7706767 -5.21701645 -1.23311298 0 0 Z " fill="#000000" transform="translate(221,100)"/>
<path d="M0 0 C2.64764845 1.67684402 2.95477045 2.85138861 3.875 5.875 C4.02405268 9.60131711 3.25133987 11.08159647 1 14 C-2.09173752 15.54586876 -4.59429552 15.29359521 -8 15 C-10.4375 13.5 -10.4375 13.5 -12 11 C-12.61014545 8.1910285 -12.65360928 5.80363979 -12 3 C-8.3655827 -1.51548816 -5.40521016 -1.50144727 0 0 Z " fill="#000000" transform="translate(181,100)"/>
<path d="M0 0 C2.39216609 1.5947774 2.88287964 2.65764819 3.8125 5.375 C4.03751456 8.5252038 3.49549186 10.23334006 2 13 C-1.7205836 15.48038907 -3.59796571 15.46337203 -8 15 C-10.4375 13.5 -10.4375 13.5 -12 11 C-12.61014545 8.1910285 -12.65360928 5.80363979 -12 3 C-8.3655827 -1.51548816 -5.40521016 -1.50144727 0 0 Z " fill="#000000" transform="translate(320,128)"/>
<path d="M0 0 C3.5 0.8125 3.5 0.8125 5.4375 1.875 C7.19366901 5.07742585 7.12026592 8.30940726 6.5 11.8125 C4.9375 14.3125 4.9375 14.3125 2.5 15.8125 C-1.48452984 16.38171855 -3.55493748 16.48399179 -6.875 14.125 C-8.71921807 11.50053583 -9.42169023 10.02320053 -9.5 6.8125 C-7.32755651 2.1417465 -5.42336756 -0.29053755 0 0 Z " fill="#000000" transform="translate(197.5,127.1875)"/>
</svg>
