<?xml version="1.0" encoding="UTF-8"?>
<svg version="1.1" xmlns="http://www.w3.org/2000/svg" width="512" height="512">
<path d="M0 0 C0.88308838 -0.0071553 1.76617676 -0.01431061 2.67602539 -0.02168274 C3.64744476 -0.02437164 4.61886414 -0.02706055 5.61972046 -0.02983093 C7.15170074 -0.03968773 7.15170074 -0.03968773 8.71463013 -0.04974365 C12.10665963 -0.06951076 15.49864474 -0.08114837 18.89071655 -0.09111023 C20.04834881 -0.09518576 21.20598106 -0.09926128 22.39869308 -0.10346031 C28.52868218 -0.12433804 34.65864879 -0.13863101 40.78866577 -0.147995 C47.11716156 -0.15904816 53.44530465 -0.193431 59.77367592 -0.23316669 C64.641364 -0.25933369 69.5089682 -0.26768706 74.37672043 -0.27127647 C76.70906322 -0.2761441 79.04140221 -0.28776304 81.3736763 -0.30631447 C84.64347332 -0.33070121 87.91236004 -0.32974101 91.18222046 -0.32279968 C92.14149445 -0.33560974 93.10076843 -0.3484198 94.08911133 -0.36161804 C100.15695662 -0.31480286 104.76537512 0.61454955 109.78915405 4.14717102 C114.18747019 8.61731024 116.88624958 14.11104782 119.20687866 19.88130188 C121.81329127 26.10119417 124.49122198 31.79309763 129.78915405 36.14717102 C139.03146569 39.50703166 149.5207414 38.41233487 159.18948364 37.82991028 C164.881109 37.51339646 170.58237284 37.41257698 176.28056145 37.27725029 C178.26050431 37.2146073 180.23874051 37.10395498 182.21653748 36.99252319 C183.41556198 36.94115707 184.61458649 36.88979095 185.84994507 36.83686829 C187.42994041 36.74732628 187.42994041 36.74732628 189.04185486 36.65597534 C191.78915405 37.14717102 191.78915405 37.14717102 194.12910461 39.47515869 C196.15125855 42.73001372 196.43024258 44.38077592 195.78915405 48.14717102 C193.57059108 51.1185469 192.38323833 52.04998223 188.68431091 52.65510559 C186.8549424 52.65987915 186.8549424 52.65987915 184.98861694 52.66474915 C184.31331436 52.67175842 183.63801178 52.6787677 182.94224548 52.68598938 C180.71501255 52.70356149 178.48905565 52.69194964 176.2618103 52.67842102 C174.71008562 52.68111651 173.15836259 52.68499942 171.60664368 52.6900177 C168.35587469 52.69591189 165.10554567 52.68735403 161.85482788 52.6686554 C157.69391563 52.64588428 153.53403648 52.65897679 149.37316227 52.68294525 C146.1688717 52.69742197 142.9648247 52.69278846 139.76052666 52.68243408 C138.22676915 52.67977095 136.69298933 52.68302201 135.15925789 52.69235229 C133.01194112 52.70254743 130.86627962 52.68697818 128.71908569 52.66474915 C127.49871109 52.66156677 126.27833649 52.6583844 125.02098083 52.65510559 C121.16946552 52.04977681 119.55107531 50.84449476 116.78915405 48.14717102 C115.01571655 45.60102844 115.01571655 45.60102844 113.41415405 42.75263977 C112.8211853 41.71429993 112.22821655 40.67596008 111.61727905 39.6061554 C111.0139978 38.52656555 110.41071655 37.44697571 109.78915405 36.33467102 C104.34229441 24.82969998 104.34229441 24.82969998 95.78915405 16.14717102 C92.89126383 16.02435377 90.01586977 15.96140799 87.11679077 15.94184875 C85.77035995 15.92699936 85.77035995 15.92699936 84.39672852 15.91184998 C81.4207933 15.88018602 78.44484211 15.85545821 75.46884155 15.83076477 C73.40903298 15.81019947 71.34922866 15.78920311 69.28942871 15.76779175 C63.86102748 15.7125273 58.43258788 15.66313732 53.00411987 15.61494446 C47.46758601 15.56476134 41.93110804 15.50905865 36.3946228 15.45381165 C25.52618093 15.34617659 14.65769059 15.24474351 3.78915405 15.14717102 C3.78915405 18.44717102 3.78915405 21.74717102 3.78915405 25.14717102 C4.89304977 25.13384735 5.9969455 25.12052368 7.1342926 25.10679626 C17.53691669 24.98517193 27.93939657 24.89522583 38.3425703 24.83629799 C43.69103309 24.80498377 49.03892198 24.76250866 54.38705444 24.6945343 C59.5482834 24.62934593 64.70896037 24.59346567 69.87056923 24.57790756 C71.83982344 24.56682033 73.8090474 24.54516906 75.77806664 24.51279068 C78.53657699 24.46923366 81.29280637 24.4632365 84.05160522 24.46601868 C85.27296425 24.43366119 85.27296425 24.43366119 86.51899719 24.40065002 C91.9363223 24.45977411 91.9363223 24.45977411 94.37214661 26.42308998 C97.17883073 29.71893953 99.32979532 33.52072411 101.45321655 37.27998352 C102.10032593 38.41564758 102.7474353 39.55131165 103.41415405 40.72138977 C104.08121174 41.90476319 104.74787498 43.08835904 105.41415405 44.27217102 C106.73614438 46.61014718 108.06273532 48.94539252 109.39071655 51.27998352 C110.26204224 52.82516663 110.26204224 52.82516663 111.15097046 54.40156555 C113.25027188 57.93837774 113.25027188 57.93837774 115.78915405 61.14717102 C117.82385272 61.74458745 117.82385272 61.74458745 120.12510967 61.65497971 C121.01586529 61.6664273 121.90662092 61.67787488 122.82436913 61.68966937 C123.80393148 61.68190895 124.78349382 61.67414854 125.79273987 61.66615295 C126.83252544 61.67365421 127.87231102 61.68115546 128.94360524 61.68888402 C132.4446488 61.70926211 135.94505097 61.70103846 139.44613647 61.69306946 C141.94901677 61.70179893 144.45189148 61.71228251 146.95475769 61.72439575 C152.35192749 61.74655405 157.74890868 61.75645501 163.14610863 61.75528717 C170.94954526 61.75361974 178.75280233 61.77393413 186.55619112 61.79964247 C199.21611207 61.84075246 211.87600079 61.86404372 224.53598022 61.87617493 C236.83516541 61.88799847 249.13428987 61.90818559 261.43344116 61.93965149 C262.19134987 61.94158759 262.94925857 61.94352369 263.73013421 61.94551846 C267.53227677 61.95528286 271.33441888 61.965212 275.1365608 61.97522306 C306.68739911 62.05808342 338.23822513 62.11174887 369.78915405 62.14717102 C369.78915405 58.84717102 369.78915405 55.54717102 369.78915405 52.14717102 C368.62736444 52.15270178 368.62736444 52.15270178 367.44210434 52.15834427 C348.60562241 52.24663984 329.76918172 52.31285358 310.93253708 52.35441971 C301.82330651 52.37505451 292.71421399 52.40319258 283.60507202 52.44892883 C275.66654185 52.48876858 267.72811163 52.51459716 259.78948426 52.523525 C255.5850832 52.52874463 251.38096813 52.54103148 247.17665863 52.57009125 C243.2204 52.5972153 239.26454552 52.60562223 235.30820274 52.59960175 C233.85533388 52.60070335 232.40245169 52.60867549 230.94966316 52.62399292 C228.96744662 52.64386945 226.98501385 52.63673115 225.00271606 52.62818909 C223.33795794 52.63371984 223.33795794 52.63371984 221.63956833 52.63936234 C218.1007952 52.02830962 216.9242258 50.99152897 214.78915405 48.14717102 C214.23649977 44.27859107 214.04441887 42.14838951 216.41559792 38.9605875 C219.52801051 36.58267859 221.36989099 36.64192665 225.26605225 36.63250732 C225.91452138 36.6255618 226.56299051 36.61861627 227.23111022 36.61146027 C229.40233878 36.59317521 231.5724765 36.60345767 233.7437439 36.61372375 C235.30108966 36.60666588 236.85842856 36.59792141 238.41575623 36.58761597 C242.64523837 36.56509474 246.87434679 36.56806834 251.1038661 36.57693744 C254.63517858 36.5820449 258.16642067 36.57475657 261.69772589 36.56746536 C270.0296967 36.55045698 278.36148442 36.55404079 286.69345093 36.570755 C295.28687014 36.58767095 303.8797812 36.57185136 312.47314489 36.53953212 C319.85248967 36.51283096 327.23167632 36.50556182 334.61106455 36.51404721 C339.01778539 36.51897572 343.42420057 36.51676536 347.83088303 36.49625969 C351.97612911 36.47789463 356.12064505 36.48387075 360.26585197 36.50845909 C361.78558552 36.51346478 363.30537476 36.50998336 364.82506371 36.49731064 C377.73888511 36.3981579 377.73888511 36.3981579 381.65527344 39.5496521 C386.23605093 45.12571672 386.12702031 50.11909571 386.10165405 57.08467102 C386.11776733 57.96574524 386.13388062 58.84681946 386.15048218 59.7545929 C386.15439763 64.98172045 385.70850649 68.63162588 382.78915405 73.14717102 C380.41415405 75.52217102 380.41415405 75.52217102 377.78915405 77.14717102 C376.13915405 77.14717102 374.48915405 77.14717102 372.78915405 77.14717102 C372.78915405 93.64717102 372.78915405 110.14717102 372.78915405 127.14717102 C382.35915405 127.14717102 391.92915405 127.14717102 401.78915405 127.14717102 C401.76820679 124.34152649 401.74725952 121.53588196 401.72567749 118.6452179 C401.65931201 109.36135173 401.61518047 100.07747492 401.58190536 90.79343414 C401.56105669 85.1661013 401.53278837 79.5390121 401.48739624 73.91181946 C401.44384203 68.47828791 401.41999649 63.04499029 401.40964508 57.61129761 C401.40227094 55.5413037 401.38787094 53.47132218 401.36623383 51.40142822 C401.33707288 48.49543379 401.33320339 45.59039829 401.33505249 42.6842804 C401.32067139 41.83407318 401.30629028 40.98386597 401.29147339 40.1078949 C401.33547226 33.69107083 402.79792955 28.21606775 407.37968254 23.51534176 C413.74806211 18.17529845 423.16980378 19.44830377 430.98446655 19.51826477 C432.66259922 19.51743505 434.3407318 19.51497177 436.01885986 19.51095581 C439.52408509 19.50810691 443.02866809 19.5227125 446.53378296 19.55024719 C451.01733623 19.58438178 455.49974601 19.57828589 459.98335457 19.55958462 C463.44418812 19.54899819 466.90475727 19.55796637 470.36556625 19.57296944 C472.01850473 19.57813613 473.67147098 19.57768788 475.32440567 19.57142448 C477.63633556 19.56594996 479.94664712 19.5864139 482.25839233 19.61372375 C483.57107086 19.61992233 484.88374939 19.62612091 486.23620605 19.63250732 C491.55597371 20.40310438 494.60508485 22.80309246 498.10165405 26.77217102 C500.54480372 30.21067796 500.91525877 31.95206638 500.92337513 36.12698078 C500.92783297 37.18683164 500.93229082 38.2466825 500.93688375 39.33865005 C500.9366072 41.09906805 500.9366072 41.09906805 500.93632507 42.89505005 C500.94000176 44.13463099 500.94367845 45.37421193 500.94746655 46.65135592 C500.95660606 50.10327592 500.96120585 53.55514832 500.96385586 57.00707591 C500.96775425 60.72565174 500.97733286 64.44421374 500.98606873 68.16278076 C501.00584572 77.14832591 501.01590064 86.1338722 501.02479652 95.11943367 C501.02917716 99.34814419 501.03454452 103.57685345 501.03978539 107.80556297 C501.05679845 121.85784171 501.07129363 135.91011966 501.07853413 149.96240711 C501.0804441 153.61033949 501.08236442 157.25827187 501.08432007 160.90620422 C501.08480381 161.81290856 501.08528755 162.71961289 501.08578595 163.65379312 C501.09408999 178.34874172 501.11943286 193.04360901 501.15190075 207.73852209 C501.18494385 222.81636666 501.20298037 237.89416987 501.20617837 252.97205085 C501.20834596 261.44144874 501.2171309 269.91072805 501.24263954 278.38009071 C501.26430901 285.59153567 501.27241553 292.80283324 501.26267276 300.01430706 C501.25811716 303.69496492 501.26008679 307.37531847 501.2794342 311.05593491 C501.30021463 315.0435312 501.29011558 319.03070456 501.27690125 323.01834106 C501.29335511 324.76872082 501.29335511 324.76872082 501.31014138 326.55446178 C501.24720697 334.385051 501.24720697 334.385051 498.87960529 338.32432652 C495.19277421 341.53919211 492.62630445 342.39539554 487.74862671 342.43769836 C486.74723663 342.45045807 485.74584656 342.46321777 484.71411133 342.47636414 C483.63801605 342.47858978 482.56192078 342.48081543 481.45321655 342.48310852 C479.78505386 342.49309372 479.78505386 342.49309372 478.08319092 342.50328064 C475.7312892 342.51340295 473.37935878 342.51809779 471.0274353 342.51777649 C467.43450429 342.52214627 463.84280498 342.55846285 460.25009155 342.59638977 C457.96363741 342.60225869 455.67717745 342.60622758 453.39071655 342.60810852 C451.78264633 342.62966507 451.78264633 342.62966507 450.14208984 342.6516571 C444.04794614 342.61444459 440.38984581 342.28545347 435.78915405 338.14717102 C430.41431555 330.08491327 433.78915405 318.83679892 433.78915405 309.14717102 C340.72915405 309.14717102 247.66915405 309.14717102 151.78915405 309.14717102 C151.78915405 316.73717102 151.78915405 324.32717102 151.78915405 332.14717102 C148.27191267 339.18165378 148.27191267 339.18165378 145.78915405 341.14717102 C142.85054163 342.1267085 140.91028532 342.28464466 137.84628296 342.30830383 C136.84158966 342.31791138 135.83689636 342.32751892 134.80175781 342.3374176 C133.7173642 342.34166748 132.63297058 342.34591736 131.51571655 342.35029602 C130.39982147 342.35599609 129.28392639 342.36169617 128.13421631 342.36756897 C125.77213489 342.37701936 123.41004029 342.3835531 121.04794312 342.3874054 C117.43540454 342.39711391 113.82343414 342.42813884 110.21102905 342.45967102 C107.9167616 342.46620083 105.62249008 342.47145139 103.32821655 342.47529602 C101.70769882 342.49381622 101.70769882 342.49381622 100.05444336 342.51271057 C90.45079606 342.4842026 90.45079606 342.4842026 86.78915405 339.14717102 C82.66414853 334.25908008 83.35305312 328.68820398 83.36923218 322.62739563 C83.36076263 321.4626622 83.35229309 320.29792877 83.34356689 319.09790039 C83.32016918 315.24832745 83.31917528 311.39915343 83.32040405 307.54951477 C83.31509933 305.55149407 83.30978833 303.55347323 83.30353689 301.55545527 C83.28432053 295.27698933 83.28141332 288.99865635 83.28817749 282.72016907 C83.29482516 276.24485993 83.27192156 269.77011942 83.23486376 263.29492563 C83.20417929 257.73129301 83.19280507 252.1678435 83.19670057 246.60412794 C83.19876857 243.28280976 83.19105102 239.96203417 83.16880798 236.64077568 C83.14674219 232.93923783 83.15625831 229.23908386 83.17391968 225.53755188 C83.16065643 224.43769958 83.14739319 223.33784729 83.13372803 222.20466614 C83.21603905 214.80270092 83.21603905 214.80270092 86.13619995 211.46261597 C89.35366097 209.86726502 91.24073925 209.61868371 94.78915405 210.14717102 C97.92506975 211.92701507 98.63018141 212.67025309 99.78915405 216.14717102 C99.78915405 241.55717102 99.78915405 266.96717102 99.78915405 293.14717102 C186.57915405 293.14717102 273.36915405 293.14717102 362.78915405 293.14717102 C362.78915405 281.92717102 362.78915405 270.70717102 362.78915405 259.14717102 C366.78915405 255.14717102 366.78915405 255.14717102 370.28915405 254.64717102 C373.78915405 255.14717102 373.78915405 255.14717102 377.78915405 259.14717102 C377.78915405 270.36717102 377.78915405 281.58717102 377.78915405 293.14717102 C413.42915405 293.14717102 449.06915405 293.14717102 485.78915405 293.14717102 C485.78915405 262.45717102 485.78915405 231.76717102 485.78915405 200.14717102 C468.89742409 200.2379659 468.89742409 200.2379659 452.00595093 200.3561554 C445.1149401 200.41045069 438.22401013 200.46156208 431.33285522 200.49360657 C425.77601246 200.51964752 420.21944167 200.56005605 414.66276741 200.61035728 C412.54457041 200.62702054 410.42632637 200.63853818 408.30807304 200.64478493 C405.33720374 200.65443168 402.3670294 200.68249859 399.39633179 200.71479797 C398.08757584 200.71264534 398.08757584 200.71264534 396.75238037 200.71044922 C390.69651146 200.80334266 385.39277061 201.54355446 380.91415405 206.02217102 C378.93101702 209.76809653 378.73493288 213.47631801 378.64852905 217.65107727 C378.62919312 218.47414368 378.60985718 219.29721008 378.5899353 220.1452179 C378.55600852 221.85852065 378.53784619 223.57220624 378.5352478 225.2858429 C378.34941921 231.52088135 378.34941921 231.52088135 375.46884155 234.74092102 C371.80531471 236.66347155 369.72125856 236.23942227 365.78915405 235.14717102 C364.10751343 233.95405579 364.10751343 233.95405579 362.78915405 232.14717102 C362.10715885 227.82641419 362.2799037 223.45314875 362.28915405 219.08467102 C362.26079468 217.8942218 362.2324353 216.70377258 362.20321655 215.47724915 C362.1837897 206.64288769 363.64027326 199.63525881 369.76596069 193.00874329 C378.39971703 184.82583005 387.94022321 183.98643912 399.39633179 184.03364563 C400.33369675 184.0334996 401.27106171 184.03335358 402.23683167 184.03320312 C405.31549444 184.03389625 408.39409568 184.04166043 411.4727478 184.04951477 C413.61508654 184.05138108 415.7574257 184.05280398 417.89976501 184.05380249 C423.52377512 184.05761086 429.14775918 184.06742676 434.77175903 184.07850647 C440.51648608 184.08875676 446.26121736 184.09330785 452.00595093 184.0983429 C463.26703189 184.10905058 474.52808672 184.12663374 485.78915405 184.14717102 C485.78915405 170.61717102 485.78915405 157.08717102 485.78915405 143.14717102 C295.21415405 143.64217102 295.21415405 143.64217102 100.78915405 144.14717102 C100.45915405 157.67717102 100.12915405 171.20717102 99.78915405 185.14717102 C96.78915405 190.14717102 96.78915405 190.14717102 94.78915405 191.14717102 C91.28513269 191.53650673 89.28409734 191.40108818 86.12704468 189.78144836 C82.54226673 185.74220922 83.10869651 181.91451734 83.19540405 176.68623352 C83.19536377 175.66290924 83.19532349 174.63958496 83.19528198 173.58525085 C83.20064071 171.42158364 83.21823833 169.25791716 83.24716187 167.09443665 C83.28891488 163.79109318 83.28823834 160.48979566 83.28134155 157.18623352 C83.29183792 155.08205275 83.30477842 152.97788246 83.32040405 150.87373352 C83.32070618 149.39690598 83.32070618 149.39690598 83.3210144 147.89024353 C83.42783197 141.66311772 84.11637755 137.04470373 88.50790405 132.28388977 C89.09571655 131.80564758 89.68352905 131.3274054 90.28915405 130.83467102 C90.87696655 130.34353821 91.46477905 129.8524054 92.07040405 129.34638977 C97.63209697 125.46584494 102.37830122 127.14717102 109.78915405 127.14717102 C109.78915405 110.31717102 109.78915405 93.48717102 109.78915405 76.14717102 C108.13915405 75.48717102 106.48915405 74.82717102 104.78915405 74.14717102 C99.33285752 69.48428815 96.01803077 62.70542318 92.60165405 56.52217102 C91.56682395 54.67563404 90.53167788 52.82927409 89.4961853 50.98310852 C89.04734985 50.17406067 88.5985144 49.36501282 88.13607788 48.53144836 C87.46935059 47.35123108 87.46935059 47.35123108 86.78915405 46.14717102 C86.43804565 45.28495941 86.08693726 44.4227478 85.72518921 43.53440857 C83.90497584 40.75039367 83.90497584 40.75039367 80.12794495 40.5415802 C78.57392252 40.52455608 77.01945589 40.53518898 75.46566772 40.5670929 C74.61655319 40.56464066 73.76743866 40.56218842 72.89259338 40.55966187 C71.04774715 40.55748801 69.20286018 40.5667919 67.35811424 40.58615112 C64.43634828 40.61613421 61.51605041 40.61520101 58.59416199 40.60603333 C51.33583514 40.58972312 44.07795694 40.62710974 36.81973267 40.66261292 C30.69083362 40.690564 24.5625567 40.69823974 18.43361855 40.67904663 C15.55824843 40.67842931 12.68416201 40.70761124 9.80897522 40.73786926 C8.03958915 40.73579408 6.27020398 40.73232767 4.50082397 40.72724915 C3.30595367 40.75197044 3.30595367 40.75197044 2.08694458 40.77719116 C-1.98666741 40.73307242 -4.47215887 40.33787012 -7.69282532 37.73591614 C-12.60915629 32.68149853 -11.50584018 27.14674862 -11.58584595 20.39717102 C-11.62322876 19.21638977 -11.66061157 18.03560852 -11.6991272 16.81904602 C-11.79809849 7.05387895 -11.79809849 7.05387895 -8.81240845 3.38154602 C-5.56821089 0.59523821 -4.15053812 0.02305196 0 0 Z M417.78915405 37.14717102 C417.69396037 39.94706822 417.66361461 42.72223276 417.67562866 45.52241516 C417.67548264 46.40038254 417.67533661 47.27834991 417.67518616 48.18292236 C417.67588561 51.09941537 417.6836795 54.01584535 417.6914978 56.93232727 C417.69336187 58.94871994 417.69478582 60.96511306 417.69578552 62.98150635 C417.69961161 68.2998224 417.70944267 73.61811132 417.7204895 78.93641663 C417.7324958 85.31152536 417.73710543 91.68664315 417.74294281 98.06175995 C417.75265438 107.75691586 417.7718103 117.45201221 417.78915405 127.14717102 C440.22915405 127.14717102 462.66915405 127.14717102 485.78915405 127.14717102 C485.81822285 111.37764157 485.81822285 111.37764157 485.83798218 95.60810852 C485.8439682 89.17971475 485.85106212 82.75133517 485.86459351 76.32295227 C485.8754306 71.1423413 485.88143264 65.96174554 485.8840313 60.78112411 C485.88588406 58.80110306 485.88950183 56.82108287 485.89488411 54.84106827 C485.90210542 52.07540819 485.90314453 49.30981161 485.90267944 46.54414368 C485.90807236 45.30660591 485.90807236 45.30660591 485.91357422 44.04406738 C486.0070906 39.96423724 486.0070906 39.96423724 484.78915405 36.14717102 C476.20109685 36.12404467 467.61305256 36.10625445 459.02497196 36.09535885 C455.03758205 36.09013066 451.05021338 36.08303418 447.06283569 36.07173157 C443.21790291 36.06090041 439.3729906 36.0548937 435.52804375 36.05229378 C434.05796422 36.05043994 432.58788587 36.04682011 431.11781502 36.04144096 C429.06560938 36.03422747 427.01348938 36.03318021 424.96127319 36.03364563 C423.20587975 36.03031471 423.20587975 36.03031471 421.4150238 36.0269165 C418.86348463 35.84816789 418.86348463 35.84816789 417.78915405 37.14717102 Z M125.78915405 77.14717102 C125.78915405 83.74717102 125.78915405 90.34717102 125.78915405 97.14717102 C136.67915405 97.14717102 147.56915405 97.14717102 158.78915405 97.14717102 C158.78915405 90.54717102 158.78915405 83.94717102 158.78915405 77.14717102 C147.89915405 77.14717102 137.00915405 77.14717102 125.78915405 77.14717102 Z M174.78915405 77.14717102 C174.78915405 83.74717102 174.78915405 90.34717102 174.78915405 97.14717102 C186.00915405 97.14717102 197.22915405 97.14717102 208.78915405 97.14717102 C208.78915405 90.54717102 208.78915405 83.94717102 208.78915405 77.14717102 C197.56915405 77.14717102 186.34915405 77.14717102 174.78915405 77.14717102 Z M224.78915405 77.14717102 C224.78915405 83.74717102 224.78915405 90.34717102 224.78915405 97.14717102 C235.67915405 97.14717102 246.56915405 97.14717102 257.78915405 97.14717102 C257.78915405 90.54717102 257.78915405 83.94717102 257.78915405 77.14717102 C246.89915405 77.14717102 236.00915405 77.14717102 224.78915405 77.14717102 Z M273.78915405 77.14717102 C273.78915405 83.74717102 273.78915405 90.34717102 273.78915405 97.14717102 C285.00915405 97.14717102 296.22915405 97.14717102 307.78915405 97.14717102 C307.78915405 90.54717102 307.78915405 83.94717102 307.78915405 77.14717102 C296.56915405 77.14717102 285.34915405 77.14717102 273.78915405 77.14717102 Z M323.78915405 77.14717102 C323.78915405 83.74717102 323.78915405 90.34717102 323.78915405 97.14717102 C334.67915405 97.14717102 345.56915405 97.14717102 356.78915405 97.14717102 C356.78915405 90.54717102 356.78915405 83.94717102 356.78915405 77.14717102 C345.89915405 77.14717102 335.00915405 77.14717102 323.78915405 77.14717102 Z M125.78915405 112.14717102 C125.78915405 117.09717102 125.78915405 122.04717102 125.78915405 127.14717102 C136.67915405 127.14717102 147.56915405 127.14717102 158.78915405 127.14717102 C158.78915405 122.19717102 158.78915405 117.24717102 158.78915405 112.14717102 C147.89915405 112.14717102 137.00915405 112.14717102 125.78915405 112.14717102 Z M174.78915405 112.14717102 C174.78915405 117.09717102 174.78915405 122.04717102 174.78915405 127.14717102 C186.00915405 127.14717102 197.22915405 127.14717102 208.78915405 127.14717102 C208.78915405 122.19717102 208.78915405 117.24717102 208.78915405 112.14717102 C197.56915405 112.14717102 186.34915405 112.14717102 174.78915405 112.14717102 Z M224.78915405 112.14717102 C224.78915405 117.09717102 224.78915405 122.04717102 224.78915405 127.14717102 C235.67915405 127.14717102 246.56915405 127.14717102 257.78915405 127.14717102 C257.78915405 122.19717102 257.78915405 117.24717102 257.78915405 112.14717102 C246.89915405 112.14717102 236.00915405 112.14717102 224.78915405 112.14717102 Z M273.78915405 112.14717102 C273.78915405 117.09717102 273.78915405 122.04717102 273.78915405 127.14717102 C285.00915405 127.14717102 296.22915405 127.14717102 307.78915405 127.14717102 C307.78915405 122.19717102 307.78915405 117.24717102 307.78915405 112.14717102 C296.56915405 112.14717102 285.34915405 112.14717102 273.78915405 112.14717102 Z M323.78915405 112.14717102 C323.78915405 117.09717102 323.78915405 122.04717102 323.78915405 127.14717102 C334.67915405 127.14717102 345.56915405 127.14717102 356.78915405 127.14717102 C356.78915405 122.19717102 356.78915405 117.24717102 356.78915405 112.14717102 C345.89915405 112.14717102 335.00915405 112.14717102 323.78915405 112.14717102 Z M99.78915405 309.14717102 C99.78915405 314.75717102 99.78915405 320.36717102 99.78915405 326.14717102 C111.66915405 326.14717102 123.54915405 326.14717102 135.78915405 326.14717102 C135.78915405 320.53717102 135.78915405 314.92717102 135.78915405 309.14717102 C123.90915405 309.14717102 112.02915405 309.14717102 99.78915405 309.14717102 Z M449.78915405 309.14717102 C449.78915405 314.75717102 449.78915405 320.36717102 449.78915405 326.14717102 C461.66915405 326.14717102 473.54915405 326.14717102 485.78915405 326.14717102 C485.78915405 320.53717102 485.78915405 314.92717102 485.78915405 309.14717102 C473.90915405 309.14717102 462.02915405 309.14717102 449.78915405 309.14717102 Z " fill="#000000" transform="translate(11.210845947265625,125.85282897949219)"/>
<path d="M0 0 C7.37527822 6.02090895 12.53891167 13.45909323 14 23 C14.93190893 33.66348252 12.92792937 43.57413995 6 52 C-1.4313406 59.79756683 -8.42745932 64.00524239 -19.25756836 64.46899414 C-31.06095301 64.63219826 -39.02299625 61.91320198 -47.73046875 53.64453125 C-54.65552961 45.57522626 -57.41780156 36.71315713 -57.265625 26.2890625 C-56.39912139 15.55970896 -51.92794667 8.11817288 -44 1 C-31.31379514 -8.78518524 -13.03236552 -9.88748967 0 0 Z M-34.0546875 13.80859375 C-38.44090035 18.62250786 -41.02514194 22.59560856 -41.25 29.1875 C-41.41942686 33.02012189 -41.41942686 33.02012189 -39 35 C-35.57886664 31.60350912 -32.16097238 28.20380482 -28.74609375 24.80102539 C-27.58292608 23.64289941 -26.41886426 22.48567077 -25.25390625 21.3293457 C-23.5835999 19.67111215 -21.9164921 18.00972188 -20.25 16.34765625 C-19.46254395 15.56794212 -19.46254395 15.56794212 -18.65917969 14.7724762 C-17.42032908 13.53382033 -16.20725811 12.26946722 -15 11 C-15 10.67 -15 10.34 -15 10 C-22.17740929 8.56451814 -28.32287236 8.76328879 -34.0546875 13.80859375 Z M-4 22 C-11.92 29.92 -19.84 37.84 -28 46 C-27.67 46.66 -27.34 47.32 -27 48 C-19.73649585 48.47285018 -14.89550994 48.48058756 -9 44 C-4.43997767 39.56157827 -1.94781788 35.25171765 -1.75 28.875 C-1.67970027 24.93880452 -1.67970027 24.93880452 -4 22 Z " fill="#000000" transform="translate(194,315)"/>
<path d="M0 0 C0.95298981 -0.00241196 1.90597961 -0.00482391 2.8878479 -0.00730896 C4.88279422 -0.00633705 6.87776975 0.00689786 8.87255859 0.03198242 C11.92768115 0.06656039 14.97994825 0.05253988 18.03515625 0.03320312 C19.98178313 0.04009527 21.9284026 0.04976192 23.875 0.0625 C24.7854306 0.05754013 25.69586121 0.05258026 26.63388062 0.04747009 C32.87975177 0.16406532 32.87975177 0.16406532 36.11572266 2.44555664 C38.19888428 5.64104797 38.0053176 7.89886546 37.5390625 11.62890625 C35.77891119 14.81394195 35.04015334 15.46187597 31.5390625 16.62890625 C28.62684309 16.77135975 25.73422093 16.86239191 22.8203125 16.91015625 C21.53888367 16.93777039 21.53888367 16.93777039 20.23156738 16.96594238 C16.57556616 17.04458222 12.91938079 17.11233737 9.26318359 17.18115234 C6.59463523 17.2329181 3.92624239 17.29015295 1.2578125 17.34765625 C0.01553894 17.36801941 0.01553894 17.36801941 -1.25183105 17.38879395 C-4.55534445 17.46043308 -7.30648313 17.57742146 -10.4609375 18.62890625 C-11.42571176 23.30331052 -11.42571176 23.30331052 -10.7734375 27.94140625 C-9.12602474 30.05950837 -7.97108797 30.65222012 -5.4609375 31.62890625 C-2.28274107 31.92961979 -2.28274107 31.92961979 1.29199219 31.88427734 C1.96247589 31.8878978 2.63295959 31.89151825 3.32376099 31.89524841 C4.77621859 31.90212792 6.22870196 31.90465056 7.68117523 31.90330124 C9.98580776 31.9023333 12.28997728 31.91531085 14.59454346 31.93228149 C21.1456745 31.97846289 27.69675861 32.00314033 34.24804688 32.00976562 C38.25993258 32.01480042 42.27133618 32.03915168 46.28305817 32.07509232 C47.80593207 32.08484731 49.32887266 32.08724586 50.85176849 32.08192062 C60.0112913 32.05140353 67.22005277 32.14589019 74.52734375 38.3046875 C74.96433594 38.84480469 75.40132813 39.38492188 75.8515625 39.94140625 C76.30144531 40.47378906 76.75132812 41.00617188 77.21484375 41.5546875 C81.11956924 47.67093893 82.0412505 52.68308436 81.9765625 59.81640625 C81.99654297 60.60982422 82.01652344 61.40324219 82.03710938 62.22070312 C82.03389299 66.05141575 82.01609506 67.99385666 79.6640625 71.125 C77.15595519 72.90003918 75.60993671 73.47910751 72.5390625 73.62890625 C68.72642903 72.56491552 67.78895243 72.00374115 65.5390625 68.62890625 C65.34010554 66.13057527 65.2120176 63.69226453 65.1640625 61.19140625 C65.18002993 55.94578447 65.18002993 55.94578447 62.90823364 51.43714905 C59.80644337 49.06974307 57.97288823 49.13005524 54.09326172 49.13061523 C52.78445038 49.12057968 51.47563904 49.11054413 50.12716675 49.10020447 C49.0809849 49.10628377 49.0809849 49.10628377 48.01366806 49.11248589 C45.81744688 49.12515169 43.62247639 49.11379184 41.42630005 49.09645081 C37.54700347 49.06974125 33.66801382 49.06415454 29.78863525 49.06555176 C23.60167144 49.06777814 17.41509161 49.05332722 11.2282753 49.0099659 C9.08018588 49.00022198 6.93271309 49.00879952 4.78463745 49.0186615 C-5.101483 49.00403543 -14.53076482 48.51382437 -21.9921875 41.3515625 C-26.88242457 35.61593871 -28.75209787 29.12919749 -28.4609375 21.62890625 C-27.34606623 15.5908424 -24.82960774 9.98510182 -20.4609375 5.62890625 C-13.79440111 1.23320681 -7.88023963 -0.11630812 0 0 Z " fill="#000000" transform="translate(210.4609375,76.37109375)"/>
<path d="M0 0 C0.70949799 -0.00686325 1.41899597 -0.0137265 2.1499939 -0.02079773 C4.49245301 -0.03907768 6.83424273 -0.03522508 9.17675781 -0.02954102 C10.81097633 -0.03410393 12.44519292 -0.03940983 14.07940674 -0.04542542 C17.50581653 -0.0543601 20.93199333 -0.05193139 24.35839844 -0.04199219 C28.7341962 -0.03053191 33.10918344 -0.0506663 37.48487473 -0.07990932 C40.86168474 -0.09832621 44.23830278 -0.09796749 47.61515045 -0.0922718 C49.22738019 -0.0921191 50.83962337 -0.09812133 52.45180511 -0.11056328 C69.59833921 -0.22419889 69.59833921 -0.22419889 77.12207031 6.36889648 C77.66089844 7.01987305 78.19972656 7.67084961 78.75488281 8.34155273 C79.30917969 8.98995117 79.86347656 9.63834961 80.43457031 10.30639648 C84.90615038 16.79623026 84.57788231 23.78637925 83.87988281 31.40405273 C81.91948238 38.2283656 77.38541289 43.00644228 71.37988281 46.65405273 C65.01949788 49.8342452 58.85742435 49.6175211 51.87988281 49.65405273 C50.40261719 49.68499023 50.40261719 49.68499023 48.89550781 49.71655273 C39.77579563 49.76584848 39.77579563 49.76584848 35.87988281 46.40405273 C33.87988281 43.40405273 33.87988281 43.40405273 34.06738281 39.90405273 C35.105575 35.43184024 35.105575 35.43184024 37.87988281 33.40405273 C40.34423828 33.03515625 40.34423828 33.03515625 43.24707031 33.03295898 C44.29765625 33.01555664 45.34824219 32.9981543 46.43066406 32.98022461 C48.63898486 32.97114221 50.84732497 32.96590632 53.05566406 32.96459961 C59.35430844 32.9010747 59.35430844 32.9010747 65.10253906 30.58764648 C67.17839016 28.40914068 67.17839016 28.40914068 67.44238281 24.90405273 C66.7849236 20.81319539 66.12423008 19.876314 62.87988281 17.40405273 C59.77252849 16.80801714 59.77252849 16.80801714 56.26293945 16.90576172 C55.60714401 16.90024292 54.95134857 16.89472412 54.27568054 16.88903809 C52.85597282 16.87973353 51.43618163 16.87960027 50.01646614 16.88763237 C47.76701906 16.90027587 45.51879669 16.88896199 43.26939392 16.87159729 C39.30433938 16.84489819 35.3395854 16.8393014 31.37445068 16.84069824 C25.0317583 16.84292671 18.68943837 16.82875825 12.3468914 16.78511238 C10.13487469 16.77529007 7.92344549 16.78398301 5.71144104 16.79380798 C4.34969705 16.78766175 2.98795623 16.78074933 1.6262207 16.77294922 C0.44137589 16.77391098 -0.74346893 16.77487274 -1.96421814 16.77586365 C-5.4743366 16.36232052 -7.31604265 15.52228939 -10.12011719 13.40405273 C-12.12011719 10.40405273 -12.12011719 10.40405273 -11.99511719 6.90405273 C-11.12011719 3.40405273 -11.12011719 3.40405273 -9.51043701 1.71055603 C-6.23631283 -0.0790179 -3.72507436 0.01570434 0 0 Z " fill="#000000" transform="translate(234.1201171875,43.595947265625)"/>
<path d="M0 0 C6.30736788 4.73598211 10.18934812 10.30188258 12 18 C12.99877841 26.12798981 12.0640843 33.63984326 7.30078125 40.41796875 C2.21380069 46.54433237 -3.15573809 50.39244727 -11 52 C-20.30395823 52.83558865 -27.56038752 51.34407721 -34.8125 45.3125 C-41.16045845 39.29689539 -44.07150998 32.5760082 -44.3125 23.875 C-44.19422366 15.79995167 -41.83566675 9.60520387 -36.375 3.625 C-26.20653281 -5.64293873 -11.86926279 -7.07360106 0 0 Z M-27 18 C-28.4545448 22.57267077 -28.45772177 26.0493471 -26.375 30.375 C-23.15393112 33.93512876 -20.85449767 35.72379822 -16.0625 36.4375 C-11.15012822 35.7357326 -8.16614182 33.47711298 -5.125 29.625 C-3.74215374 26.39835874 -3.50240912 24.48313618 -4 21 C-6.28725376 16.67963179 -8.47085134 13.94106371 -13 12 C-19.02050039 11.24743745 -23.13458262 13.45119391 -27 18 Z " fill="#000000" transform="translate(341,320)"/>
<path d="M0 0 C6.30736788 4.73598211 10.18934812 10.30188258 12 18 C12.99877841 26.12798981 12.0640843 33.63984326 7.30078125 40.41796875 C2.21380069 46.54433237 -3.15573809 50.39244727 -11 52 C-20.30395823 52.83558865 -27.56038752 51.34407721 -34.8125 45.3125 C-41.16045845 39.29689539 -44.07150998 32.5760082 -44.3125 23.875 C-44.19422366 15.79995167 -41.83566675 9.60520387 -36.375 3.625 C-26.20653281 -5.64293873 -11.86926279 -7.07360106 0 0 Z M-27 18 C-28.4545448 22.57267077 -28.45772177 26.0493471 -26.375 30.375 C-23.15393112 33.93512876 -20.85449767 35.72379822 -16.0625 36.4375 C-11.15012822 35.7357326 -8.16614182 33.47711298 -5.125 29.625 C-3.74215374 26.39835874 -3.50240912 24.48313618 -4 21 C-6.28725376 16.67963179 -8.47085134 13.94106371 -13 12 C-19.02050039 11.24743745 -23.13458262 13.45119391 -27 18 Z " fill="#000000" transform="translate(271,320)"/>
<path d="M0 0 C2.5 1.5 2.5 1.5 4 4 C4.68001071 7.81431297 4.50250028 10.91124938 2.875 14.4375 C0.2377954 16.6351705 -1.58535902 16.93170718 -5 17 C-7.82993441 15.77798287 -9.47446153 14.66886714 -11.375 12.25 C-12.46808848 8.31488147 -11.89555293 4.63306711 -9.9375 1.0625 C-6.73239318 -0.69513922 -3.5056583 -0.61366654 0 0 Z " fill="#000000" transform="translate(173,132)"/>
<path d="M0 0 C1.90625 0.41015625 1.90625 0.41015625 4.40625 1.91015625 C6.51698921 5.42805493 6.72827069 8.40691549 5.90625 12.41015625 C4.10515388 14.91882585 2.75826005 16.02537752 -0.03125 17.28515625 C-2.899866 17.45901177 -4.57213754 16.76794757 -7.09375 15.41015625 C-9.48817371 13.09829887 -10.03847919 11.78126025 -10.53125 8.47265625 C-9.59528652 1.92091188 -6.33438975 -0.46089776 0 0 Z " fill="#000000" transform="translate(356.09375,130.58984375)"/>
<path d="M0 0 C1.90625 0.41015625 1.90625 0.41015625 4.40625 1.91015625 C6.51698921 5.42805493 6.72827069 8.40691549 5.90625 12.41015625 C4.10515388 14.91882585 2.75826005 16.02537752 -0.03125 17.28515625 C-2.899866 17.45901177 -4.57213754 16.76794757 -7.09375 15.41015625 C-9.48817371 13.09829887 -10.03847919 11.78126025 -10.53125 8.47265625 C-9.59528652 1.92091188 -6.33438975 -0.46089776 0 0 Z " fill="#000000" transform="translate(328.09375,109.58984375)"/>
</svg>
