<?xml version="1.0" encoding="UTF-8"?>
<svg version="1.1" xmlns="http://www.w3.org/2000/svg" width="512" height="512">
<path d="M0 0 C1.16648575 -0.00525696 2.3329715 -0.01051392 3.5348053 -0.01593018 C7.38377334 -0.0291158 11.23232671 -0.02039847 15.08129883 -0.01025391 C17.75597142 -0.01227463 20.43063145 -0.01518139 23.1053009 -0.01895142 C28.70631396 -0.02440121 34.30720813 -0.01723545 39.90820312 -0.00292969 C46.38398968 0.01341937 52.85949319 0.00808905 59.33527297 -0.0084089 C64.89975063 -0.02201747 70.46414306 -0.02394728 76.02863199 -0.0160929 C79.35031688 -0.01141593 82.67183941 -0.01197057 85.99352074 -0.02070236 C89.69249197 -0.02829387 93.39091362 -0.0167453 97.08984375 0 C98.19172028 -0.00607269 99.2935968 -0.01214539 100.42886353 -0.0184021 C101.43401505 -0.00994263 102.43916656 -0.00148315 103.47477722 0.00723267 C104.3491402 0.00836374 105.22350317 0.00949482 106.12436199 0.01066017 C108.84652394 0.47223422 109.70420193 1.20677641 111.35083008 3.38818359 C112.47386141 7.07814369 112.68821855 8.69807082 110.97583008 12.20068359 C109.35083008 14.38818359 109.35083008 14.38818359 108.35083008 15.38818359 C106.87760802 15.48946816 105.3995748 15.52169879 103.92288208 15.5262146 C102.96662933 15.53166794 102.01037659 15.53712128 101.02514648 15.54273987 C99.9674707 15.5437822 98.90979492 15.54482452 97.82006836 15.54589844 C96.71283417 15.55097916 95.60559998 15.55605988 94.46481323 15.56129456 C92.05137051 15.57202509 89.63791766 15.58063466 87.2244606 15.58741379 C83.40934207 15.59915742 79.59433909 15.61859793 75.77926636 15.64053345 C64.92897085 15.70230585 54.07869412 15.75648238 43.22827148 15.78955078 C36.60050369 15.80983899 29.97292758 15.84570896 23.34527206 15.89030838 C20.81346972 15.90451152 18.2816304 15.91320048 15.74979019 15.91636276 C12.21309676 15.92124771 8.67696168 15.944344 5.14038086 15.97167969 C3.55993988 15.96717049 3.55993988 15.96717049 1.9475708 15.96257019 C0.98567841 15.97366318 0.02378601 15.98475616 -0.96725464 15.9961853 C-2.22217114 16.00115052 -2.22217114 16.00115052 -3.5024395 16.00621605 C-6.0883743 16.25508533 -6.0883743 16.25508533 -8.64916992 19.38818359 C-8.97916992 49.08818359 -9.30916992 78.78818359 -9.64916992 109.38818359 C140.83083008 109.38818359 291.31083008 109.38818359 446.35083008 109.38818359 C450.02848697 62.60210962 450.02848697 62.60210962 444.35083008 17.38818359 C441.84223387 16.13388549 440.14544263 16.262176 437.33699226 16.26069164 C436.26955792 16.25768399 435.20212357 16.25467635 434.10234272 16.25157756 C432.3292287 16.25420311 432.3292287 16.25420311 430.52029419 16.25688171 C429.27184058 16.254766 428.02338697 16.25265029 426.73710144 16.25047046 C423.98785335 16.24586382 421.2386278 16.24445447 418.48937607 16.24543571 C414.01683411 16.24702506 409.54431462 16.2418338 405.07177734 16.23580933 C398.57841117 16.22768811 392.08504894 16.22274969 385.59167862 16.21951866 C375.33249502 16.21402868 365.07334479 16.19713823 354.81417847 16.17817688 C351.30651289 16.17181983 347.79884722 16.16551146 344.29118156 16.15919971 C343.41452925 16.15761595 342.53787693 16.15603219 341.63465939 16.15440043 C331.65056634 16.13645566 321.66647093 16.12023295 311.68237305 16.10522461 C310.76942517 16.10384874 309.8564773 16.10247287 308.91586433 16.1010553 C294.1168163 16.07911887 279.31777681 16.06836777 264.5187154 16.06085386 C249.33574766 16.05278949 234.15285344 16.02952124 218.96992767 15.99290019 C209.598771 15.97084526 200.22776538 15.96121965 190.85658406 15.96740053 C184.43695067 15.97056942 178.01744649 15.95928286 171.59785308 15.93650611 C167.89101374 15.92380859 164.18446217 15.91770395 160.47761154 15.92892265 C156.46325973 15.94091621 152.44964346 15.92223296 148.43533325 15.9004364 C146.66891139 15.91310021 146.66891139 15.91310021 144.86680424 15.92601985 C143.25782948 15.90977351 143.25782948 15.90977351 141.61635017 15.89319897 C140.22592166 15.89173375 140.22592166 15.89173375 138.80740368 15.89023894 C135.56012068 15.22658458 134.3643078 13.97540473 132.35083008 11.38818359 C131.85083008 7.88818359 131.85083008 7.88818359 132.35083008 4.38818359 C134.37495615 1.77951946 135.56825575 0.54581077 138.84012252 -0.11321306 C139.78259108 -0.11386247 140.72505963 -0.11451188 141.69608784 -0.11518097 C142.78655456 -0.12561196 143.87702128 -0.13604295 145.00053245 -0.14679003 C146.19808211 -0.13786714 147.39563178 -0.12894425 148.62947083 -0.11975098 C149.9020179 -0.12599094 151.17456498 -0.1322309 152.48567408 -0.13865995 C156.02055645 -0.15538817 159.55500793 -0.14709135 163.08989203 -0.13471508 C166.90120048 -0.12568076 170.7124338 -0.13962642 174.52372742 -0.15063477 C181.99193891 -0.1684435 189.45998982 -0.16456913 196.92820767 -0.1529842 C202.99833705 -0.14395736 209.06842137 -0.14272264 215.13855553 -0.14707947 C216.00190521 -0.1476924 216.8652549 -0.14830533 217.7547667 -0.14893684 C219.50858446 -0.15021572 221.2624022 -0.15151258 223.01621994 -0.1528272 C239.47215426 -0.16424042 255.92799954 -0.15110875 272.38391926 -0.12962574 C286.5032239 -0.11176359 300.62239697 -0.11485013 314.74169922 -0.13330078 C331.13335817 -0.15471082 347.52493896 -0.16313169 363.91660994 -0.15085173 C365.66495906 -0.14957752 367.41330819 -0.14832004 369.16165733 -0.14707947 C370.0218948 -0.14646237 370.88213227 -0.14584526 371.76843754 -0.14520946 C377.82959504 -0.14175625 383.89070297 -0.14758449 389.9518528 -0.15699768 C397.34108103 -0.16822095 404.73013931 -0.16517118 412.11934809 -0.1438747 C415.88935926 -0.13336715 419.65908719 -0.12923708 423.42909622 -0.14247131 C427.51672318 -0.1566033 431.60363595 -0.13972118 435.6912384 -0.11975098 C437.47752465 -0.13313531 437.47752465 -0.13313531 439.29989749 -0.14679003 C447.6448014 -0.06753445 452.02753029 1.21258601 458.16333008 7.07568359 C462.31583342 13.36376008 462.64954776 20.49741156 462.60251236 27.87310791 C462.60541924 28.68108527 462.60832612 29.48906262 462.61132109 30.32152414 C462.61859216 33.01602169 462.6116913 35.71028945 462.60479736 38.40478516 C462.60710293 40.36129497 462.61028011 42.31780392 462.61425185 44.27431107 C462.62259519 49.64097099 462.61847664 55.00755972 462.61227942 60.37421989 C462.60775407 66.16570389 462.6147391 71.95717566 462.62023926 77.74865723 C462.629134 89.09036149 462.62721088 100.43203928 462.62141398 111.77374458 C462.61689782 120.99113304 462.61628439 130.20851408 462.61846161 139.42590332 C462.61876807 140.73760663 462.61907454 142.04930995 462.61939029 143.40076184 C462.61986943 145.39740084 462.6203486 147.39403984 462.62084408 149.39067884 C462.62696033 174.33487771 462.62141792 199.27906215 462.61065028 224.22325879 C462.60115927 246.37850187 462.60200853 268.53372196 462.61157227 290.68896484 C462.62228448 315.58791329 462.62652654 340.48684898 462.62034774 365.38579941 C462.61971064 368.04068756 462.6190819 370.69557571 462.61846161 373.35046387 C462.61815306 374.65673084 462.61784451 375.9629978 462.61752661 377.30884862 C462.61579952 386.51551322 462.61871506 395.72216967 462.62342072 404.92883301 C462.62902899 416.14815607 462.62751418 427.36745115 462.61685923 438.58677101 C462.61160184 444.31136745 462.60954698 450.03591721 462.61615753 455.76051331 C462.62211761 461.00105551 462.61884081 466.24150779 462.60820243 471.48204184 C462.60596867 473.37761264 462.60710415 475.27319104 462.611954 477.16875696 C462.61804447 479.7470321 462.61178823 482.32500008 462.60251236 484.90325928 C462.60719469 485.63750327 462.61187702 486.37174726 462.61670125 487.12824106 C462.57021974 493.60199195 462.19063062 501.30323784 457.60083008 506.26318359 C457.13161133 506.79685547 456.66239258 507.33052734 456.17895508 507.88037109 C451.50380945 511.73636727 447.25011357 512.76702909 441.27905273 512.80810547 C440.59852341 512.81657501 439.91799408 512.82504456 439.21684265 512.83377075 C436.98266551 512.85703671 434.74918135 512.85816541 432.51489258 512.85693359 C430.95079274 512.86404196 429.38669549 512.87174194 427.82260132 512.88000488 C424.54938504 512.89342612 421.27640986 512.89502937 418.00317383 512.88916016 C413.82457281 512.88326894 409.64713565 512.91384123 405.46875954 512.95427704 C402.23949028 512.98022642 399.01049851 512.98302492 395.78113937 512.97938538 C394.24145968 512.98107016 392.70176628 512.9906506 391.16218948 513.00852966 C375.79948247 513.16730377 375.79948247 513.16730377 369.35083008 507.38818359 C364.35083008 499.38818359 364.35083008 499.38818359 364.35083008 478.38818359 C267.99083008 478.38818359 171.63083008 478.38818359 72.35083008 478.38818359 C72.35083008 485.31818359 72.35083008 492.24818359 72.35083008 499.38818359 C65.52495858 510.30957799 65.52495858 510.30957799 59.35083008 512.38818359 C53.98807503 513.08641066 48.67874842 513.06902453 43.28442383 513.01708984 C41.72078791 513.0179198 40.1571521 513.02038394 38.59352112 513.0243988 C35.32786576 513.02724675 32.06290008 513.01265353 28.79736328 512.98510742 C24.62551993 512.95099711 20.45490637 512.95706135 16.28300381 512.97577 C13.05802781 512.98637074 9.83333481 512.97737497 6.60838509 512.96238518 C5.07070826 512.9572273 3.53300158 512.9576559 1.9953289 512.96393013 C-7.84294627 512.98901406 -14.10345902 512.7318629 -21.46166992 505.70068359 C-25.61417326 499.41260711 -25.94788761 492.27895563 -25.9008522 484.90325928 C-25.90375908 484.09528192 -25.90666597 483.28730456 -25.90966094 482.45484304 C-25.916932 479.7603455 -25.91003114 477.06607774 -25.90313721 474.37158203 C-25.90544278 472.41507222 -25.90861995 470.45856327 -25.9125917 468.50205612 C-25.92093503 463.13539619 -25.91681648 457.76880747 -25.91061926 452.40214729 C-25.90609391 446.61066329 -25.91307895 440.81919153 -25.9185791 435.02770996 C-25.92747384 423.6860057 -25.92555072 412.3443279 -25.91975382 401.0026226 C-25.91523766 391.78523415 -25.91462423 382.56785311 -25.91680145 373.35046387 C-25.91710792 372.03876055 -25.91741438 370.72705724 -25.91773014 369.37560534 C-25.91820928 367.37896635 -25.91868844 365.38232735 -25.91918392 363.38568835 C-25.92530017 338.44148948 -25.91975777 313.49730504 -25.90899013 288.55310839 C-25.89949911 266.39786531 -25.90034838 244.24264522 -25.90991211 222.08740234 C-25.92062432 197.1884539 -25.92486639 172.28951821 -25.91868758 147.39056778 C-25.91805048 144.73567963 -25.91742174 142.08079148 -25.91680145 139.42590332 C-25.9164929 138.11963635 -25.91618435 136.81336938 -25.91586645 135.46751857 C-25.91413937 126.26085397 -25.91705491 117.05419752 -25.92176056 107.84753418 C-25.92736884 96.62821111 -25.92585403 85.40891603 -25.91519907 74.18959618 C-25.90994168 68.46499974 -25.90788682 62.74044998 -25.91449738 57.01585388 C-25.92045745 51.77531168 -25.91718065 46.5348594 -25.90654227 41.29432535 C-25.90430851 39.39875455 -25.905444 37.50317614 -25.91029385 35.60761023 C-25.91638432 33.02933509 -25.91012807 30.45136711 -25.9008522 27.87310791 C-25.90553454 27.13886392 -25.91021687 26.40461993 -25.91504109 25.64812613 C-25.86855959 19.17437524 -25.48897047 11.47312935 -20.89916992 6.51318359 C-20.42995117 5.97951172 -19.96073242 5.44583984 -19.47729492 4.89599609 C-13.35484217 -0.15371921 -7.58415839 -0.04202966 0 0 Z M-9.64916992 125.38818359 C-9.64916992 236.59818359 -9.64916992 347.80818359 -9.64916992 462.38818359 C140.83083008 462.38818359 291.31083008 462.38818359 446.35083008 462.38818359 C446.35083008 351.17818359 446.35083008 239.96818359 446.35083008 125.38818359 C295.87083008 125.38818359 145.39083008 125.38818359 -9.64916992 125.38818359 Z M-9.64916992 478.38818359 C-10.69266831 491.04654281 -10.69266831 491.04654281 -7.64916992 496.38818359 C-5.03240315 497.69656698 -3.0917677 497.52242988 -0.16137695 497.53344727 C1.56083572 497.54301704 1.56083572 497.54301704 3.31784058 497.55278015 C4.56364899 497.55389297 5.8094574 497.5550058 7.09301758 497.55615234 C8.36807159 497.55948074 9.64312561 497.56280914 10.95681763 497.5662384 C13.65866577 497.57130957 16.36041337 497.57407827 19.06225586 497.57348633 C22.52130405 497.57338479 25.98014656 497.58702737 29.43914604 497.60425854 C32.74042887 497.61806561 36.04170978 497.61746772 39.34301758 497.61865234 C40.58477753 497.62583786 41.82653748 497.63302338 43.10592651 497.64042664 C44.26037262 497.63735001 45.41481873 497.63427338 46.60424805 497.63110352 C47.61969696 497.63252853 48.63514587 497.63395355 49.68136597 497.63542175 C52.69336636 497.5192667 52.69336636 497.5192667 56.35083008 495.38818359 C56.35083008 489.77818359 56.35083008 484.16818359 56.35083008 478.38818359 C34.57083008 478.38818359 12.79083008 478.38818359 -9.64916992 478.38818359 Z M380.35083008 478.38818359 C380.35083008 483.99818359 380.35083008 489.60818359 380.35083008 495.38818359 C384.32389448 497.3747158 385.81188205 497.64026226 390.08154297 497.64697266 C391.23276138 497.65327698 392.3839798 497.6595813 393.57008362 497.66607666 C395.42801796 497.66000397 395.42801796 497.66000397 397.32348633 497.65380859 C398.59808212 497.65572205 399.87267792 497.6576355 401.18589783 497.65960693 C403.88009229 497.66096792 406.57392382 497.65828215 409.26806641 497.64892578 C412.72045217 497.63752001 416.17252734 497.6441019 419.62490177 497.65607071 C422.92027445 497.66503501 426.2156096 497.6587594 429.51098633 497.65380859 C430.75163345 497.65785706 431.99228058 497.66190552 433.27052307 497.66607666 C434.41858932 497.65977234 435.56665558 497.65346802 436.74951172 497.64697266 C437.76114883 497.64538147 438.77278595 497.64379028 439.81507874 497.64215088 C442.59535914 497.56390089 442.59535914 497.56390089 445.35083008 495.38818359 C447.14588501 490.00301879 446.35083008 484.06464572 446.35083008 478.38818359 C424.57083008 478.38818359 402.79083008 478.38818359 380.35083008 478.38818359 Z " fill="#000000" transform="translate(37.649169921875,-0.38818359375)"/>
<path d="M0 0 C1.48527207 -0.00417505 2.97054095 -0.00965351 4.45580393 -0.01631981 C8.52917389 -0.03077065 12.60234146 -0.02653086 16.67572248 -0.019153 C21.0718592 -0.01442275 25.46795205 -0.02692989 29.86407471 -0.03717041 C38.47318867 -0.05436636 47.08222967 -0.0551968 55.69135635 -0.04995751 C62.68864983 -0.04591618 69.68592174 -0.04735892 76.68321419 -0.05270576 C78.17702194 -0.0538284 78.17702194 -0.0538284 79.70100762 -0.05497371 C81.72411104 -0.05650518 83.74721445 -0.05804353 85.77031786 -0.05958868 C104.74236274 -0.07331651 123.71436638 -0.06787396 142.68641032 -0.05640347 C160.04322531 -0.04647004 177.39993372 -0.05941316 194.75673228 -0.08333766 C212.5795592 -0.10771942 230.40233646 -0.11733884 248.22517973 -0.11068493 C258.23103247 -0.10719076 268.23680322 -0.10943791 278.24264336 -0.12693596 C286.76006487 -0.14164635 295.27734666 -0.14230855 303.79476541 -0.12486505 C308.14008944 -0.11634323 312.48516374 -0.11423428 316.83047485 -0.1295166 C320.809804 -0.1433385 324.78866887 -0.138633 328.76797099 -0.11927737 C330.20598204 -0.11550935 331.64403005 -0.11846246 333.08200824 -0.12888902 C342.05789202 -0.18933388 348.40748362 0.22207823 355.5684967 6.02830505 C356.01451233 6.5593988 356.46052795 7.09049255 356.9200592 7.63768005 C357.61228577 8.41885193 357.61228577 8.41885193 358.3184967 9.21580505 C361.75537403 15.30148593 361.83601 22.06396749 361.80575562 28.86225891 C361.80958116 29.78492149 361.81340671 30.70758406 361.81734818 31.65820611 C361.8276226 34.73329144 361.82369661 37.80818811 361.81971741 40.88328552 C361.82406696 43.09481478 361.82925091 45.30634253 361.83520508 47.51786804 C361.84858018 53.51375932 361.84917539 59.5095875 361.84664178 65.50549078 C361.84557106 70.51537651 361.85045804 75.52524953 361.8552472 80.53513253 C361.86697095 93.03208401 361.86612024 105.5290049 361.85969039 118.02595653 C361.85452253 128.86309304 361.86577528 139.70013964 361.88478861 150.53725837 C361.90419036 161.68174668 361.91212784 172.82620227 361.90866536 183.97070992 C361.90685405 190.22071289 361.90947355 196.47063351 361.9233799 202.72062302 C361.9359708 208.59921752 361.93400202 214.47763227 361.92096901 220.35622406 C361.91860645 222.50963273 361.92132639 224.66305411 361.92959213 226.81644821 C361.9400883 229.76421712 361.93193576 232.71138606 361.91928101 235.65913391 C361.92665529 236.50390285 361.93402958 237.3486718 361.94162732 238.2190398 C361.87840044 245.25738581 360.88355593 252.46879555 356.3888092 258.0790863 C355.6153717 258.69654724 354.8419342 259.31400818 354.0450592 259.95018005 C353.2716217 260.59084412 352.4981842 261.23150818 351.7013092 261.8915863 C348.3258156 264.23364074 345.61502961 264.51639182 341.61758423 264.5415802 C340.60112823 264.55018066 339.58467224 264.55878113 338.53741455 264.56764221 C336.86586052 264.57403214 336.86586052 264.57403214 335.16053772 264.58055115 C333.98634277 264.58872864 332.81214783 264.59690613 331.60237122 264.60533142 C327.7095831 264.63018316 323.81680257 264.64685039 319.92396545 264.66111755 C318.58336315 264.66647823 317.24276091 264.67185574 315.90215874 264.67724991 C310.32697894 264.6988684 304.751802 264.71760651 299.17659092 264.7288723 C291.18706126 264.74512384 283.1980169 264.77834163 275.2086702 264.83527315 C269.58990994 264.87394831 263.97127965 264.8935018 258.35238975 264.89879286 C254.99636922 264.90244854 251.64086681 264.91449179 248.28499031 264.9468956 C244.5426053 264.97835863 240.80145663 264.97861188 237.05897522 264.97117615 C235.9466301 264.98758148 234.83428497 265.00398682 233.68823242 265.02088928 C226.21978775 264.95993805 226.21978775 264.95993805 222.8215332 262.07777405 C221.07964506 258.40684708 221.46984142 256.25846409 222.5450592 252.38768005 C224.44039796 249.80312721 225.43332437 249.424925 228.5450592 248.38768005 C230.10126285 248.29311086 231.66117821 248.25441987 233.22024536 248.24964905 C234.1806926 248.24419571 235.14113983 248.23874237 236.13069153 248.23312378 C237.70877594 248.23156029 237.70877594 248.23156029 239.31874084 248.22996521 C240.42787338 248.22488449 241.53700592 248.21980377 242.67974854 248.21456909 C245.09097564 248.20385923 247.50221273 248.19524148 249.91345406 248.18844986 C253.72425711 248.17668376 257.53494567 248.1572387 261.34570312 248.1353302 C272.18140664 248.07362278 283.01708988 248.01933359 293.85292053 247.98631287 C300.47650584 247.96603987 307.09989878 247.93018801 313.72337151 247.88555527 C316.25320923 247.87134525 318.78308402 247.86266164 321.31295967 247.85950089 C324.84245566 247.85462289 328.3713893 247.83154675 331.90077209 247.80418396 C333.48189285 247.80869316 333.48189285 247.80869316 335.09495544 247.81329346 C336.05258286 247.80220047 337.01021027 247.79110748 337.99685669 247.77967834 C338.83179185 247.7763682 339.66672701 247.77305805 340.52696323 247.7696476 C341.1929349 247.64359831 341.85890657 247.51754902 342.5450592 247.38768005 C345.51179798 243.45442141 345.51179798 243.45442141 345.5450592 233.38768005 C226.7450592 233.38768005 107.9450592 233.38768005 -14.4549408 233.38768005 C-14.42167957 243.45442141 -14.42167957 243.45442141 -11.4549408 247.38768005 C-8.68089751 247.68766118 -6.12865165 247.79014875 -3.35159302 247.76622009 C-2.50403311 247.77075022 -1.65647319 247.77528035 -0.78322965 247.77994776 C2.07350515 247.7916295 4.9297769 247.78190155 7.78651428 247.77244568 C9.82793481 247.77654818 11.86935301 247.78200714 13.9107666 247.78872681 C18.31536351 247.80047904 22.71983503 247.80292642 27.12444496 247.79837036 C34.0864671 247.79158117 41.04832321 247.80739385 48.01031494 247.82676697 C62.7927207 247.86468914 77.57511226 247.87742964 92.3575592 247.88768005 C108.30411646 247.89874332 124.25059779 247.91405431 140.19710273 247.95839262 C147.12024248 247.97677982 154.04319373 247.98062993 160.96635211 247.97345734 C165.27247726 247.97193755 169.57850779 247.98270661 173.88460732 247.99683571 C175.8836888 248.00084515 177.88278816 247.99970183 179.88186264 247.99306297 C182.60839417 247.98470299 185.33426872 247.99464719 188.0607605 248.00914001 C188.8541493 248.00224608 189.6475381 247.99535214 190.46496898 247.9882493 C194.99177227 248.0352074 197.95472313 248.558596 201.5450592 251.38768005 C203.09092796 254.47941757 202.83865442 256.98197558 202.5450592 260.38768005 C201.06041431 262.58249664 201.06041431 262.58249664 198.5450592 264.38768005 C195.56866063 264.78042176 192.96278889 264.92814651 189.98687744 264.89561462 C189.1145185 264.90185459 188.24215955 264.90809455 187.34336549 264.9145236 C184.41447377 264.93050327 181.48640856 264.91782977 178.55751038 264.90525818 C176.45992547 264.9106772 174.36234437 264.91779862 172.26477051 264.92649841 C166.56214533 264.94476411 160.859809 264.93764985 155.15717864 264.92498207 C149.19200715 264.91486725 143.22686068 264.9242439 137.26168823 264.93052673 C127.2401332 264.93780925 117.21869597 264.92820131 107.19715881 264.90916443 C95.61256711 264.88741241 84.02825718 264.89443261 72.44367236 264.91647005 C62.50044029 264.93462803 52.55729302 264.93717985 42.61404973 264.92671537 C36.67426488 264.92048038 30.73461239 264.91964473 24.79483604 264.93286133 C19.20760622 264.94442424 13.62073904 264.9363856 8.03354836 264.9132843 C5.98370592 264.90799886 3.93383293 264.90950814 1.88400269 264.91833496 C-0.91634505 264.92928082 -3.71553401 264.91553803 -6.51580811 264.89561462 C-7.73012495 264.90899895 -7.73012495 264.90899895 -8.96897346 264.92265368 C-15.38560199 264.83422685 -19.44087864 262.95544092 -24.38072205 258.74705505 C-24.83833923 258.2159613 -25.29595642 257.68486755 -25.7674408 257.13768005 C-26.23794861 256.6168988 -26.70845642 256.09611755 -27.19322205 255.55955505 C-30.70219751 249.51933722 -30.74580946 242.6916542 -30.71563721 235.90637207 C-30.71946275 234.98300393 -30.7232883 234.05963579 -30.72722977 233.1082868 C-30.7375042 230.03086753 -30.73357822 226.95363678 -30.729599 223.87620544 C-30.73394852 221.66305367 -30.73913247 219.44990341 -30.74508667 217.23675537 C-30.75846132 211.23679915 -30.75905709 205.23690598 -30.75652337 199.23693776 C-30.75545273 194.22447244 -30.76033936 189.21201984 -30.76512879 184.19955724 C-30.77685211 171.69758704 -30.7760019 159.19564741 -30.76957198 146.69367706 C-30.76440279 135.84939849 -30.77566045 125.00520974 -30.7946702 114.16094894 C-30.81406548 103.0108154 -30.82201053 91.86071456 -30.81854695 80.71056169 C-30.8167349 74.45667823 -30.81936271 68.20287706 -30.83326149 61.94900703 C-30.84584311 56.06795331 -30.8438924 50.18707935 -30.8308506 44.30602837 C-30.82848611 42.1505871 -30.83121492 39.99513316 -30.83947372 37.83970642 C-30.84995336 34.89158713 -30.84183054 31.94406967 -30.8291626 28.99597168 C-30.83653688 28.1482899 -30.84391117 27.30060811 -30.85150892 26.427239 C-30.78831866 19.41042949 -29.50687423 11.93508803 -24.7049408 6.51268005 C-24.03205017 5.71217224 -24.03205017 5.71217224 -23.3455658 4.89549255 C-16.3170624 -0.70988412 -8.58075646 -0.03915346 0 0 Z M-13.29995137 18.22927642 C-14.91910333 21.25509068 -14.82360594 23.63278468 -14.81570435 27.05680847 C-14.81826762 27.72584521 -14.82083089 28.39488194 -14.82347184 29.08419251 C-14.82841082 31.32459809 -14.81191575 33.56432882 -14.79551697 35.80467224 C-14.79467072 37.411153 -14.7951458 39.01763491 -14.79684448 40.62411499 C-14.79770594 44.98541079 -14.78005587 49.34645953 -14.75912261 53.70769787 C-14.74038087 58.26542092 -14.73860734 62.82314951 -14.73504639 67.38090515 C-14.72571856 76.01169785 -14.70109479 84.64237668 -14.67099792 93.27311921 C-14.63747687 103.09888563 -14.62097367 112.92465747 -14.60591161 122.75046682 C-14.57454587 142.96294893 -14.51952458 163.17527491 -14.4549408 183.38768005 C3.6950592 183.38768005 21.8450592 183.38768005 40.5450592 183.38768005 C39.2250592 181.40768005 37.9050592 179.42768005 36.5450592 177.38768005 C27.88372133 163.96260636 25.31017854 152.83979166 25.19496155 137.06907654 C25.17841219 135.41170703 25.15113512 133.7544086 25.1129303 132.09739685 C24.72121434 114.97940964 24.72121434 114.97940964 30.5450592 108.38768005 C34.7898243 105.17822351 38.70890646 104.26485143 43.95327473 104.25625229 C45.27546921 104.25049057 45.27546921 104.25049057 46.62437469 104.24461246 C48.07051384 104.24591218 48.07051384 104.24591218 49.54586792 104.24723816 C50.57340185 104.24426704 51.60093579 104.24129591 52.65960711 104.23823476 C56.11337602 104.22954167 59.56711029 104.22803899 63.02088928 104.22654724 C65.49284947 104.22191954 67.96480894 104.21689494 70.43676758 104.21150208 C77.15992812 104.19837234 83.88307509 104.19189543 90.60624528 104.18749142 C94.80478622 104.18472781 99.00332486 104.18049026 103.20186424 104.17598724 C114.82826118 104.16379605 126.45465627 104.15349618 138.08105946 104.15011215 C138.82499607 104.14989259 139.56893269 104.14967302 140.33541284 104.1494468 C141.08111912 104.14922852 141.8268254 104.14901024 142.59512883 104.14878535 C144.10618961 104.14834189 145.61725038 104.14789532 147.12831116 104.14744568 C147.8778479 104.14722425 148.62738464 104.14700282 149.39963462 104.14677468 C161.5452823 104.14282651 173.69086998 104.12537124 185.83649448 104.10208616 C198.30860418 104.07836828 210.78068377 104.06591012 223.25281638 104.06474423 C230.25452326 104.06382776 237.25615196 104.05808237 244.2578373 104.03992462 C250.84302909 104.02290701 257.42809867 104.02127427 264.0133152 104.03006363 C266.43083086 104.03083555 268.84835441 104.02647103 271.26585007 104.01660538 C274.5651777 104.00393016 277.86397581 104.009739 281.16329956 104.02018738 C282.59940046 104.00810277 282.59940046 104.00810277 284.0645135 103.99577403 C291.09079892 104.04784065 295.9012261 105.09635803 301.3575592 109.82518005 C305.36180931 114.51587304 305.8623486 118.11306882 305.8809967 124.1962738 C305.8876535 124.95883987 305.8943103 125.72140594 305.90116882 126.50708008 C305.91128443 128.12342426 305.91598618 129.73981011 305.91566467 131.35618591 C305.91998954 133.78604314 305.95618126 136.2140093 305.99427795 138.64353943 C306.11570707 155.2793278 301.8249423 169.78075188 290.5450592 182.38768005 C290.5450592 182.71768005 290.5450592 183.04768005 290.5450592 183.38768005 C308.6950592 183.38768005 326.8450592 183.38768005 345.5450592 183.38768005 C345.61274582 162.20419976 345.66802327 141.02080685 345.70049572 119.83724594 C345.71597311 110.00164167 345.73707929 100.16610928 345.77137756 90.33055115 C345.80125322 81.75916886 345.82062786 73.18783863 345.82732469 64.61640573 C345.83124006 60.07671684 345.8404598 55.53717691 345.86224937 50.99753571 C345.88258559 46.72615024 345.88889883 42.45497534 345.88438225 38.18354607 C345.88520874 36.61458378 345.8911915 35.04561458 345.90267563 33.47669411 C345.91757536 31.33647234 345.91402264 29.19704824 345.90582275 27.05680847 C345.90858813 25.85847759 345.91135351 24.66014671 345.91420269 23.42550278 C345.49571915 19.9816419 344.97791884 18.81603766 342.5450592 16.38768005 C339.82156102 15.78543958 339.82156102 15.78543958 336.65574646 15.88431549 C335.41850138 15.8738845 334.18125629 15.86345351 332.90651894 15.85270643 C331.52610164 15.86135546 330.14568668 15.87038212 328.76527405 15.87974548 C327.30463729 15.87513938 325.84400517 15.86878842 324.3833828 15.86083651 C320.35967025 15.84407988 316.33633533 15.85241801 312.31262112 15.86478138 C307.97717111 15.87380381 303.64178764 15.85987615 299.30635071 15.84886169 C290.80930058 15.83104176 282.31239149 15.83493187 273.81533575 15.84651226 C266.91181623 15.85553268 260.00833634 15.85677662 253.10481262 15.85241699 C251.63300476 15.85149759 251.63300476 15.85149759 250.13146341 15.85055962 C248.13838719 15.84928077 246.14531099 15.84798392 244.15223479 15.84666926 C225.44740285 15.83525328 206.74264922 15.8483931 188.03783011 15.86987072 C171.97574745 15.88774262 155.91378041 15.8846388 139.85169983 15.86619568 C121.21544044 15.84480691 102.57924976 15.83635201 83.94297981 15.84864473 C81.95708848 15.84991898 79.97119714 15.85117646 77.98530579 15.85241699 C77.00811785 15.85303409 76.03092992 15.8536512 75.02413023 15.854287 C68.12604018 15.85774589 61.22799359 15.85189997 54.32991028 15.84249878 C45.92752382 15.83129953 37.5252869 15.834275 29.12291765 15.85562176 C24.83292691 15.86616024 20.54318581 15.87020668 16.25319672 15.85702515 C12.33008744 15.84515289 8.40746045 15.85157743 4.48439527 15.87293535 C3.06116187 15.87742351 1.63788817 15.87508585 0.21468043 15.8654322 C-1.71206152 15.85336017 -3.63891675 15.86807174 -5.56562805 15.88431549 C-7.17453195 15.8852896 -7.17453195 15.8852896 -8.81593895 15.8862834 C-11.56491007 16.15249687 -11.56491007 16.15249687 -13.29995137 18.22927642 Z M40.5450592 120.38768005 C40.44487641 124.45856923 40.37298449 128.52896406 40.32533264 132.60081482 C40.30543251 133.98082505 40.27830181 135.36075342 40.24330139 136.74046326 C39.88939355 151.06852638 42.80398592 161.62738641 52.5450592 172.38768005 C61.45726884 180.03070177 70.279233 183.54289528 81.98846436 183.52812195 C82.72888735 183.53109307 83.46931035 183.53406419 84.2321704 183.53712535 C86.70846713 183.54578357 89.18471535 183.54731816 91.661026 183.54881287 C93.43862002 183.55344311 95.21621305 183.55846805 96.99380493 183.56385803 C101.82047227 183.57696499 106.6471257 183.58342378 111.47380805 183.58786869 C114.49160241 183.59080245 117.50939299 183.59490786 120.52718544 183.59937286 C129.97571981 183.61304394 139.42424552 183.62271224 148.87278908 183.62657475 C159.76736126 183.63105326 170.66180783 183.64859318 181.55634183 183.67757535 C189.98540651 183.69921771 198.41443593 183.70928042 206.84352809 183.71061587 C211.87404355 183.71166216 216.90444087 183.71753237 221.93492699 183.73543549 C226.67014277 183.75196011 231.40515217 183.7540504 236.14038658 183.74529648 C237.87292027 183.74452843 239.60546526 183.74883809 241.33797073 183.75875473 C256.10899281 183.83830566 266.88035873 182.04485722 278.2325592 172.01268005 C288.56242082 160.28689119 291.19228825 150.35887392 290.7950592 134.70018005 C290.77494066 133.30502373 290.75669945 131.90983902 290.7403717 130.51463318 C290.69363961 127.13823939 290.62813276 123.763342 290.5450592 120.38768005 C288.25915973 119.24473032 287.00253197 119.26239207 284.462677 119.26183891 C283.60301299 119.25923117 282.74334898 119.25662342 281.85763454 119.25393665 C280.90765119 119.25616737 279.95766783 119.25839809 278.97889709 119.26069641 C277.4716197 119.25835643 277.4716197 119.25835643 275.93389225 119.25596917 C272.54515202 119.25196007 269.15645607 119.25514848 265.76771545 119.25828552 C263.34705072 119.25693144 260.92638618 119.25515147 258.50572205 119.25297546 C252.60041339 119.24887756 246.69511637 119.24949313 240.78980803 119.2523881 C235.99200699 119.25464311 231.19420951 119.25495424 226.39640808 119.25386429 C225.71451764 119.25371106 225.0326272 119.25355782 224.33007342 119.25339995 C222.94498594 119.25308023 221.55989847 119.25275602 220.17481101 119.25242735 C207.17558933 119.24957329 194.1763747 119.25285843 181.17715418 119.25822772 C170.01430389 119.26269569 158.851464 119.26191974 147.68861389 119.25730896 C134.73707502 119.2519619 121.78554232 119.24984798 108.83400249 119.25292122 C107.45390511 119.25323979 106.07380772 119.25355416 104.69371033 119.25386429 C103.67506074 119.2540957 103.67506074 119.2540957 102.63583237 119.25433179 C97.84174868 119.25519655 93.0476689 119.25373495 88.25358582 119.25138474 C81.80553257 119.24829329 75.35749439 119.25048264 68.9094429 119.25627899 C66.53659727 119.25760632 64.16374999 119.25721293 61.790905 119.25501633 C58.56432102 119.25230379 55.33780115 119.25568728 52.11122131 119.26069641 C51.16123796 119.25846569 50.2112546 119.25623497 49.23248386 119.25393665 C48.37281985 119.2565444 47.51315584 119.25915214 46.62744141 119.26183891 C45.88199538 119.26200127 45.13654936 119.26216362 44.36851406 119.26233089 C42.44572476 119.27700557 42.44572476 119.27700557 40.5450592 120.38768005 Z M-14.4549408 199.38768005 C-14.4549408 205.32768005 -14.4549408 211.26768005 -14.4549408 217.38768005 C104.3450592 217.38768005 223.1450592 217.38768005 345.5450592 217.38768005 C345.5450592 211.44768005 345.5450592 205.50768005 345.5450592 199.38768005 C226.7450592 199.38768005 107.9450592 199.38768005 -14.4549408 199.38768005 Z " fill="#000000" transform="translate(90.45494079589844,162.61231994628906)"/>
<path d="M0 0 C0.79921875 -0.01611328 1.5984375 -0.03222656 2.421875 -0.04882812 C10.82239198 -0.05562466 18.01153831 1.87550734 24.1875 7.72265625 C28.75613248 12.77546445 29.78501171 18.6820146 29.625 25.3125 C28.52939927 31.40677909 26.13714451 36.00089525 21.625 40.3125 C14.66904332 44.73167341 8.74578752 44.92298691 0.625 44.8125 C-0.51195312 44.82796875 -1.64890625 44.8434375 -2.8203125 44.859375 C-10.69229725 44.82284607 -16.40981601 43.80308668 -22.3984375 38.53125 C-22.84445313 37.9640625 -23.29046875 37.396875 -23.75 36.8125 C-24.21148437 36.2453125 -24.67296875 35.678125 -25.1484375 35.09375 C-29.261558 29.1205559 -29.03841836 23.41447864 -28.375 16.3125 C-26.87077341 10.41935912 -23.46314997 7.07859833 -18.66796875 3.5390625 C-12.63485274 0.31180794 -6.67265962 -0.026648 0 0 Z M-11.375 18.3125 C-12.45833333 21.72916667 -12.45833333 21.72916667 -12.375 25.3125 C-10.83919209 27.44168824 -9.93260045 28.20624584 -7.33789062 28.70068359 C-6.19610352 28.70575928 -6.19610352 28.70575928 -5.03125 28.7109375 C-4.19722656 28.71480469 -3.36320312 28.71867187 -2.50390625 28.72265625 C-1.63636719 28.71105469 -0.76882812 28.69945312 0.125 28.6875 C1.42630859 28.70490234 1.42630859 28.70490234 2.75390625 28.72265625 C3.58792969 28.71878906 4.42195313 28.71492188 5.28125 28.7109375 C6.04244141 28.70755371 6.80363281 28.70416992 7.58789062 28.70068359 C10.17075651 28.20850277 11.02807903 27.36904913 12.625 25.3125 C12.955 24.3225 13.285 23.3325 13.625 22.3125 C11.83905341 18.62921399 11.83905341 18.62921399 8.625 16.3125 C5.98739848 16.18786608 3.3877283 16.12733427 0.75 16.125 C-0.33087891 16.10663086 -0.33087891 16.10663086 -1.43359375 16.08789062 C-6.7551919 16.01804967 -6.7551919 16.01804967 -11.375 18.3125 Z " fill="#000000" transform="translate(162.375,39.6875)"/>
<path d="M0 0 C0.79019531 -0.01160156 1.58039063 -0.02320313 2.39453125 -0.03515625 C9.61246507 0.00028369 15.76504875 1.56890012 21.8125 5.5625 C27.02161469 11.0138991 28.73857065 15.4060882 28.9375 23 C28.71394227 29.45336653 27.46545857 33.081965 23.25 38 C15.57122673 44.63166783 9.91738099 44.97838542 -0.0625 44.8125 C-1.26841797 44.81958984 -2.47433594 44.82667969 -3.71679688 44.83398438 C-12.18397029 44.773204 -18.23181305 43.47823467 -24.5 37.375 C-28.88632135 31.73136178 -29.16198564 25.69355678 -28.953125 18.7265625 C-28.13421756 12.66947129 -25.3957752 9.32343562 -21.25 5.0625 C-14.54757559 0.94964866 -7.75315434 -0.11383098 0 0 Z M-12.5 19.375 C-13.08333333 22.375 -13.08333333 22.375 -12.5 25.375 C-10.92997951 27.45350691 -10.04423808 28.27129212 -7.46289062 28.76318359 C-6.32110352 28.76825928 -6.32110352 28.76825928 -5.15625 28.7734375 C-4.32222656 28.77730469 -3.48820312 28.78117187 -2.62890625 28.78515625 C-1.76136719 28.77355469 -0.89382813 28.76195312 0 28.75 C1.30130859 28.76740234 1.30130859 28.76740234 2.62890625 28.78515625 C3.46292969 28.78128906 4.29695313 28.77742188 5.15625 28.7734375 C5.91744141 28.77005371 6.67863281 28.76666992 7.46289062 28.76318359 C10.04423808 28.27129212 10.92997951 27.45350691 12.5 25.375 C13.08333333 22.375 13.08333333 22.375 12.5 19.375 C9.95526385 16.5445624 8.36889441 16.36183782 4.53125 15.9765625 C3.02083398 15.96862686 1.51026057 15.97692301 0 16 C-1.13888672 15.98259766 -1.13888672 15.98259766 -2.30078125 15.96484375 C-6.57288062 15.98728911 -9.5531971 16.097355 -12.5 19.375 Z " fill="#000000" transform="translate(421.5,39.625)"/>
<path d="M0 0 C0.79019531 -0.01160156 1.58039063 -0.02320313 2.39453125 -0.03515625 C9.61246507 0.00028369 15.76504875 1.56890012 21.8125 5.5625 C26.94928391 10.93820409 28.7420103 15.39113247 29.0625 22.875 C28.82702747 29.89045738 26.84822925 33.95665077 22.0078125 38.8984375 C15.1649875 45.03216146 8.42024387 44.7403131 -0.3125 44.75 C-1.46298828 44.77449219 -2.61347656 44.79898438 -3.79882812 44.82421875 C-11.75299995 44.85156834 -17.59997077 44.02657177 -23.5234375 38.48046875 C-28.24133237 31.78542141 -30.16977735 26.09757319 -29.10546875 17.87109375 C-27.61657825 11.7330226 -23.86923815 6.66975978 -18.5 3.375 C-12.31078726 0.74799834 -6.68337554 -0.0981246 0 0 Z M-12.5 19.375 C-13.65321117 21.92853903 -13.66698688 22.92541994 -12.6875 25.5625 C-11.61878013 27.52522193 -11.61878013 27.52522193 -9.5 28.375 C-6.36030689 28.6380026 -3.21200019 28.6064599 -0.0625 28.625 C0.80955078 28.645625 1.68160156 28.66625 2.58007812 28.6875 C3.83788086 28.69523437 3.83788086 28.69523437 5.12109375 28.703125 C5.8886499 28.7124707 6.65620605 28.72181641 7.44702148 28.73144531 C10.06934258 28.27614875 10.95783063 27.52239461 12.5 25.375 C12.58333333 21.79166667 12.58333333 21.79166667 11.5 18.375 C7.97037837 15.66807214 3.75253629 16.04324032 -0.5 16.0625 C-1.2115625 16.04638672 -1.923125 16.03027344 -2.65625 16.01367188 C-6.88006098 16.00973175 -9.50220471 16.28681892 -12.5 19.375 Z " fill="#000000" transform="translate(349.5,39.625)"/>
<path d="M0 0 C0.79019531 -0.01160156 1.58039063 -0.02320313 2.39453125 -0.03515625 C9.47942002 -0.00036956 16.9465452 1.28568633 22.375 6.1875 C22.90867188 6.64769531 23.44234375 7.10789062 23.9921875 7.58203125 C28.81699613 13.31930369 29.02961324 18.74969702 28.83984375 25.9609375 C28.27273751 31.65807377 26.79232921 35.27638875 22.55859375 39.15234375 C15.38196136 44.7694133 9.34518976 44.67574881 0.4375 44.8125 C-0.75294922 44.85826172 -1.94339844 44.90402344 -3.16992188 44.95117188 C-11.42358204 45.05553371 -17.06018643 43.69281045 -23.5 38.375 C-28.56625511 32.76466062 -28.85005147 26.93847446 -28.77734375 19.67578125 C-28.25923096 13.50950935 -26.02004353 9.96574323 -21.8125 5.5625 C-14.95491479 1.03390599 -8.1042757 -0.1189861 0 0 Z M-12.5 19.375 C-13.08333333 22.375 -13.08333333 22.375 -12.5 25.375 C-10.92997951 27.45350691 -10.04423808 28.27129212 -7.46289062 28.76318359 C-6.32110352 28.76825928 -6.32110352 28.76825928 -5.15625 28.7734375 C-4.32222656 28.77730469 -3.48820312 28.78117187 -2.62890625 28.78515625 C-1.76136719 28.77355469 -0.89382812 28.76195312 0 28.75 C1.30130859 28.76740234 1.30130859 28.76740234 2.62890625 28.78515625 C3.46292969 28.78128906 4.29695313 28.77742188 5.15625 28.7734375 C5.91744141 28.77005371 6.67863281 28.76666992 7.46289062 28.76318359 C10.04423808 28.27129212 10.92997951 27.45350691 12.5 25.375 C13.08333333 22.375 13.08333333 22.375 12.5 19.375 C9.95526385 16.5445624 8.36889441 16.36183782 4.53125 15.9765625 C3.02083398 15.96862686 1.51026057 15.97692301 0 16 C-1.13888672 15.98259766 -1.13888672 15.98259766 -2.30078125 15.96484375 C-6.57288062 15.98728911 -9.5531971 16.097355 -12.5 19.375 Z " fill="#000000" transform="translate(90.5,39.625)"/>
<path d="M0 0 C3.54142587 2.54058813 4.82787348 3.98636604 5.5625 8.3125 C4.6612575 14.22064526 2.39752294 18.91748587 -2 23 C-0.82690214 25.54171204 0.4908497 27.72883744 2.0625 30.0625 C5.06713938 34.61792099 5.55203724 38.64721032 5 44 C3.36489646 48.82355543 1.14421739 52.06972826 -2 56 C-2.433125 57.216875 -2.86625 58.43375 -3.3125 59.6875 C-5 63 -5 63 -8.3125 64.625 C-12.62040879 65.06309242 -14.4345628 64.37695813 -18 62 C-19.61447841 58.77104318 -19.45450791 55.50093931 -19 52 C-17.3598906 47.50187818 -14.9138051 43.77375331 -12 40 C-12.42152344 39.45730469 -12.84304688 38.91460937 -13.27734375 38.35546875 C-13.82519531 37.64003906 -14.37304688 36.92460937 -14.9375 36.1875 C-15.48277344 35.47980469 -16.02804687 34.77210938 -16.58984375 34.04296875 C-19.73305885 29.48922498 -19.72412889 24.32864414 -19 19 C-17.27734281 15.11116568 -14.99729395 11.99729395 -12 9 C-11.525625 7.845 -11.05125 6.69 -10.5625 5.5 C-8.19875494 0.20521107 -5.5756627 -0.78059278 0 0 Z " fill="#000000" transform="translate(282,194)"/>
<path d="M0 0 C2.875 2 2.875 2 5 5 C5.71748286 10.65017756 5.11277111 14.10850254 2 19 C-0.1875 21.375 -0.1875 21.375 -2 23 C-0.68952644 25.78016353 0.82078251 28.14551982 2.625 30.625 C5.59417182 35.36510219 5.95291864 39.53371214 5 45 C3.73335203 48.63392694 2.23469259 51.81172443 -0.55859375 54.5 C-2.32119572 56.12655056 -2.32119572 56.12655056 -3.25 59.5625 C-5 63 -5 63 -8.375 64.5625 C-12.15897338 65.01918644 -13.79853411 65.01234999 -17 63 C-19.46184054 59.12535063 -19.21079724 56.04844733 -18.69140625 51.6171875 C-17.5496958 47.29545869 -14.97288919 44.25472272 -12 41 C-13.18230047 38.49755236 -14.27905006 36.6617575 -16.0625 34.5 C-19.11866589 30.55656014 -19.3450959 27.15646779 -19.2890625 22.16015625 C-18.70122899 17.76729229 -16.62785283 13.59076252 -13.45703125 10.4921875 C-11.68480525 8.85941374 -11.68480525 8.85941374 -10.5 5.4375 C-8.19672187 0.15915429 -5.51615729 -0.77226202 0 0 Z " fill="#000000" transform="translate(244,194)"/>
</svg>
