<?xml version="1.0" encoding="utf-8"?>
<svg xmlns="http://www.w3.org/2000/svg" viewBox="70.8633 71.7276 792.1367 222.4599" width="792.1367px" height="222.4599px">
    <defs>
        <linearGradient id="gradient-48-0" href="#gradient-48" gradientUnits="userSpaceOnUse" x1="57.1" y1="-0.006" x2="57.1" y2="199.11"/>
        <linearGradient id="gradient-48">
            <stop offset="0.396" style="stop-color: rgb(158, 9, 39);"/>
            <stop offset="1" style="stop-color: rgb(108, 6, 27);"/>
        </linearGradient>
        <linearGradient id="gradient-48-1" href="#gradient-48" gradientUnits="userSpaceOnUse" x1="1.5" y1="0" x2="1.5" y2="129"/>
        <linearGradient id="gradient-48-2" href="#gradient-48" gradientUnits="userSpaceOnUse" x1="-31.398" y1="0" x2="-31.398" y2="129"/>
        <linearGradient id="gradient-48-3" href="#gradient-48" gradientUnits="userSpaceOnUse" x1="-24.938" y1="0" x2="-24.938" y2="129"/>
        <linearGradient id="gradient-48-4" href="#gradient-48" gradientUnits="userSpaceOnUse" x1="-31.389" y1="0" x2="-31.389" y2="129"/>
        <linearGradient id="gradient-48-5" href="#gradient-48" gradientUnits="userSpaceOnUse" x1="20.553" y1="0" x2="20.553" y2="73"/>
        <linearGradient id="gradient-48-6" href="#gradient-48" gradientUnits="userSpaceOnUse" x1="24.5" y1="0" x2="24.5" y2="129"/>
        <linearGradient id="gradient-48-7" href="#gradient-48" gradientUnits="userSpaceOnUse" x1="5.938" y1="0" x2="5.938" y2="129"/>
        <linearGradient id="gradient-48-8" href="#gradient-48" gradientUnits="userSpaceOnUse" x1="5.938" y1="-0.05" x2="5.938" y2="129"/>
        <linearGradient id="gradient-48-9" href="#gradient-48" gradientUnits="userSpaceOnUse" x1="6" y1="0" x2="6" y2="129"/>
        <linearGradient id="gradient-48-10" href="#gradient-48" gradientUnits="userSpaceOnUse" x1="22.5" y1="0" x2="22.5" y2="81"/>
        <linearGradient id="gradient-48-11" href="#gradient-48" gradientUnits="userSpaceOnUse" x1="2.5" y1="0" x2="2.5" y2="129"/>
        <linearGradient id="gradient-48-12" href="#gradient-48" gradientUnits="userSpaceOnUse" x1="2.5" y1="0" x2="2.5" y2="129"/>
        <linearGradient id="gradient-48-13" href="#gradient-48" gradientUnits="userSpaceOnUse" x1="19.427" y1="0" x2="19.427" y2="44.218"/>
        <linearGradient id="gradient-48-14" href="#gradient-48" gradientUnits="userSpaceOnUse" x1="7.559" y1="0" x2="7.559" y2="37"/>
        <linearGradient id="gradient-48-15" href="#gradient-48" gradientUnits="userSpaceOnUse" x1="2.83" y1="0" x2="2.83" y2="49"/>
        <linearGradient id="gradient-48-16" href="#gradient-48" gradientUnits="userSpaceOnUse" x1="18.975" y1="-0.082" x2="18.975" y2="7.282"/>
        <linearGradient id="gradient-48-17" href="#gradient-48" gradientUnits="userSpaceOnUse" x1="0.045" y1="0" x2="0.045" y2="49"/>
        <linearGradient id="gradient-48-18" href="#gradient-48" gradientUnits="userSpaceOnUse" x1="19" y1="0" x2="19" y2="6"/>
        <linearGradient id="gradient-48-19" href="#gradient-48" gradientUnits="userSpaceOnUse" x1="-14.5" y1="0" x2="-14.5" y2="14.188"/>
        <linearGradient id="gradient-48-20" href="#gradient-48" gradientUnits="userSpaceOnUse" x1="13" y1="-0.017" x2="13" y2="7.114"/>
        <linearGradient id="gradient-48-21" href="#gradient-48" gradientUnits="userSpaceOnUse" x1="-6" y1="0" x2="-6" y2="22"/>
        <linearGradient id="gradient-48-22" href="#gradient-48" gradientUnits="userSpaceOnUse" x1="-7.5" y1="0" x2="-7.5" y2="23"/>
        <linearGradient id="gradient-48-23" href="#gradient-48" gradientUnits="userSpaceOnUse" x1="21" y1="-0.113" x2="21" y2="3"/>
        <linearGradient id="gradient-48-24" href="#gradient-48" gradientUnits="userSpaceOnUse" x1="-6.5" y1="0" x2="-6.5" y2="24"/>
        <linearGradient id="gradient-48-25" href="#gradient-48" gradientUnits="userSpaceOnUse" x1="0.932" y1="0" x2="0.932" y2="23"/>
        <linearGradient id="gradient-48-26" href="#gradient-48" gradientUnits="userSpaceOnUse" x1="-6.5" y1="0" x2="-6.5" y2="19"/>
        <linearGradient id="gradient-48-27" href="#gradient-48" gradientUnits="userSpaceOnUse" x1="-0.589" y1="0" x2="-0.589" y2="28"/>
        <linearGradient id="gradient-48-28" href="#gradient-48" gradientUnits="userSpaceOnUse" x1="9.5" y1="-0.118" x2="9.5" y2="5.312"/>
        <linearGradient id="gradient-48-29" href="#gradient-48" gradientUnits="userSpaceOnUse" x1="-0.935" y1="0" x2="-0.935" y2="20"/>
        <linearGradient id="gradient-48-30" href="#gradient-48" gradientUnits="userSpaceOnUse" x1="-6" y1="0" x2="-6" y2="15"/>
        <linearGradient id="gradient-48-31" href="#gradient-48" gradientUnits="userSpaceOnUse" x1="5" y1="0" x2="5" y2="6.098"/>
        <linearGradient id="gradient-48-32" href="#gradient-48" gradientUnits="userSpaceOnUse" x1="-2.5" y1="0" x2="-2.5" y2="12"/>
        <linearGradient id="gradient-48-33" href="#gradient-48" gradientUnits="userSpaceOnUse" x1="8.5" y1="-0.098" x2="8.5" y2="4.288"/>
        <linearGradient id="gradient-48-34" href="#gradient-48" gradientUnits="userSpaceOnUse" x1="10" y1="0" x2="10" y2="3.028"/>
        <linearGradient id="gradient-48-35" href="#gradient-48" gradientUnits="userSpaceOnUse" x1="-1.5" y1="0" x2="-1.5" y2="11"/>
        <linearGradient id="gradient-48-36" href="#gradient-48" gradientUnits="userSpaceOnUse" x1="-1.125" y1="-0.696" x2="-1.125" y2="4.063"/>
        <linearGradient id="gradient-48-37" href="#gradient-48" gradientUnits="userSpaceOnUse" x1="0" y1="0" x2="0" y2="6"/>
        <linearGradient id="gradient-48-38" href="#gradient-48" gradientUnits="userSpaceOnUse" x1="-1" y1="0" x2="-1" y2="6"/>
        <linearGradient id="gradient-48-39" href="#gradient-48" gradientUnits="userSpaceOnUse" x1="-3.5" y1="0" x2="-3.5" y2="8"/>
        <linearGradient id="gradient-48-40" href="#gradient-48" gradientUnits="userSpaceOnUse" x1="-5.5" y1="0" x2="-5.5" y2="9"/>
        <linearGradient id="gradient-48-41" href="#gradient-48" gradientUnits="userSpaceOnUse" x1="-3" y1="0" x2="-3" y2="8"/>
        <linearGradient id="gradient-48-42" href="#gradient-48" gradientUnits="userSpaceOnUse" x1="-0.5" y1="0" x2="-0.5" y2="7"/>
        <linearGradient id="gradient-48-43" href="#gradient-48" gradientUnits="userSpaceOnUse" x1="-2.5" y1="0" x2="-2.5" y2="9"/>
        <linearGradient id="gradient-48-44" href="#gradient-48" gradientUnits="userSpaceOnUse" x1="-3" y1="0" x2="-3" y2="6"/>
        <linearGradient id="gradient-48-45" href="#gradient-48" gradientUnits="userSpaceOnUse" x1="1.5" y1="0" x2="1.5" y2="6"/>
        <linearGradient id="gradient-48-46" href="#gradient-48" gradientUnits="userSpaceOnUse" x1="0.5" y1="0" x2="0.5" y2="5"/>
        <linearGradient id="gradient-48-47" href="#gradient-48" gradientUnits="userSpaceOnUse" x1="-3" y1="0" x2="-3" y2="7"/>
    </defs>
    <path d="M0 0 C1.29059326 -0.00209473 2.58118652 -0.00418945 3.91088867 -0.00634766 C5.32080274 -0.0022531 6.73071505 0.00248687 8.140625 0.0078125 C8.86649811 0.0093634 9.59237122 0.01091431 10.34024048 0.01251221 C65.39602072 0.14789954 65.39602072 0.14789954 90.68945312 2.85791016 C96.06177604 3.40465958 101.44606882 3.81953174 106.828125 4.2578125 C108.86851132 4.42682111 110.90887808 4.59606618 112.94921875 4.765625 C114.42968236 4.88808293 115.91014898 5.01050461 117.390625 5.1328125 C117.390625 6.7828125 117.390625 8.4328125 117.390625 10.1328125 C114.8295897 10.92082336 112.98362514 11.11653251 110.265625 11.0078125 C109.316875 11.0490625 108.368125 11.0903125 107.390625 11.1328125 C103.09142217 17.58161675 104.08067906 26.25975555 103.87304688 33.78515625 C103.83888672 34.69910156 103.80472656 35.61304688 103.76953125 36.5546875 C103.73194702 37.80137207 103.73194702 37.80137207 103.69360352 39.07324219 C103.390625 41.1328125 103.390625 41.1328125 101.390625 43.1328125 C98.96484375 43.04296875 98.96484375 43.04296875 96.390625 42.1328125 C94.66015625 40.06640625 94.66015625 40.06640625 93.203125 37.5703125 C92.31182194 36.06285798 91.38411242 34.57497165 90.390625 33.1328125 C89.730625 33.1328125 89.070625 33.1328125 88.390625 33.1328125 C88.08769531 33.84308594 87.78476563 34.55335937 87.47265625 35.28515625 C87.05371094 36.20425781 86.63476562 37.12335938 86.203125 38.0703125 C85.79707031 38.98683594 85.39101562 39.90335938 84.97265625 40.84765625 C83.390625 43.1328125 83.390625 43.1328125 80.71484375 43.94921875 C79.94785156 44.00980469 79.18085938 44.07039063 78.390625 44.1328125 C76.24392555 40.91276332 76.11741953 39.89027236 76.01171875 36.16015625 C75.97755859 35.17724609 75.94339844 34.19433594 75.90820312 33.18164062 C75.86856445 31.6415332 75.86856445 31.6415332 75.828125 30.0703125 C75.60525486 22.71559795 75.23185322 15.44533777 74.390625 8.1328125 C67.12103342 7.21931578 59.89811128 6.82946465 52.578125 6.5703125 C51.47919922 6.52712891 50.38027344 6.48394531 49.24804688 6.43945312 C43.89463545 6.24071127 38.55646197 6.11536918 33.19921875 6.14453125 C28.68780327 6.16420906 24.23130366 5.98377357 19.73168945 5.67431641 C5.31539592 4.70095613 -4.60382209 6.31673614 -16.109375 15.5703125 C-18.68251004 17.92347775 -19.54302867 18.9337735 -20.671875 22.3203125 C-20.61637416 24.81785041 -20.25850187 26.74586566 -19.609375 29.1328125 C-16.79446806 26.34266455 -13.98288673 23.54921226 -11.17431641 20.75268555 C-9.74946431 19.3353225 -8.32201087 17.92057611 -6.89453125 16.50585938 C-5.99863281 15.61318359 -5.10273437 14.72050781 -4.1796875 13.80078125 C-3.35227051 12.97860107 -2.52485352 12.1564209 -1.67236328 11.30932617 C0.52677238 9.11253848 0.52677238 9.11253848 2.390625 6.1328125 C3.380625 6.1328125 4.370625 6.1328125 5.390625 6.1328125 C5.885625 7.6178125 5.885625 7.6178125 6.390625 9.1328125 C5.2623696 10.2610679 4.13375186 11.38896206 3.00390625 12.515625 C1.8503374 13.67198699 0.70253191 14.83410994 -0.44140625 16 C-3.7893004 19.39411754 -7.16843563 22.66336986 -10.796875 25.7578125 C-15.7074721 30.01108557 -19.5456686 33.48184829 -20.609375 40.1328125 C-15.14791702 35.90210562 -9.95646374 31.62398687 -5.1328125 26.67578125 C-3.08122411 24.59789045 -1.03086864 22.76895685 1.390625 21.1328125 C2.710625 21.1328125 4.030625 21.1328125 5.390625 21.1328125 C4.82526343 24.59193264 3.86417001 25.91321907 1.140625 28.0703125 C-12.34790407 38.48593715 -12.34790407 38.48593715 -18.62890625 53.40234375 C-18.61923828 54.25892578 -18.61923828 54.25892578 -18.609375 55.1328125 C-16.37738009 55.35900036 -16.37738009 55.35900036 -14.5078125 53.19140625 C-13.67507812 52.32644531 -12.84234375 51.46148437 -11.984375 50.5703125 C-0.43116835 38.80006584 -0.43116835 38.80006584 5.390625 36.1328125 C5.390625 40.1328125 5.390625 40.1328125 4.140625 41.80859375 C3.563125 42.34871094 2.985625 42.88882813 2.390625 43.4453125 C1.75253906 44.04730469 1.11445312 44.64929688 0.45703125 45.26953125 C-3.91665074 49.21328609 -8.30461121 53.10057386 -12.921875 56.7578125 C-15.68830908 59.2025682 -17.28001197 60.69210819 -18.609375 64.1328125 C-18.54755173 67.18791234 -18.15261053 70.12865455 -17.609375 73.1328125 C-8.37786602 65.25786111 -8.37786602 65.25786111 -0.359375 56.1953125 C0.506875 55.174375 0.506875 55.174375 1.390625 54.1328125 C2.380625 54.1328125 3.370625 54.1328125 4.390625 54.1328125 C3.92139651 58.48099652 1.07427127 61.04028858 -1.796875 64.0703125 C-2.50166992 64.83891602 -2.50166992 64.83891602 -3.22070312 65.62304688 C-5.63654476 68.2168632 -8.0953172 70.58314355 -10.859375 72.8046875 C-16.32086942 77.42833903 -17.01694432 83.37910276 -17.609375 90.1328125 C-16.95582031 89.47925781 -16.30226563 88.82570313 -15.62890625 88.15234375 C-6.11914062 78.64257812 -6.11914062 78.64257812 3.390625 69.1328125 C4.380625 70.1228125 4.380625 70.1228125 5.390625 71.1328125 C3.39959516 76.23482645 0.6552682 78.8065207 -3.4140625 82.22265625 C-9.82068569 87.79710241 -15.30028935 93.49813643 -16.609375 102.1328125 C-16.82060511 106.48022292 -16.79081138 110.78505917 -16.609375 115.1328125 C-12.678067 111.4199105 -9.56140234 107.50706598 -6.484375 103.0703125 C-5.2257975 101.27693405 -3.96638757 99.48421668 -2.70214844 97.69482422 C-1.77963253 96.37617883 -0.88288215 95.0395636 0.0078125 93.69921875 C0.46414062 93.18230469 0.92046875 92.66539062 1.390625 92.1328125 C2.380625 92.1328125 3.370625 92.1328125 4.390625 92.1328125 C2.9141483 96.33688562 0.81426191 99.6749625 -1.734375 103.3203125 C-2.12890869 103.88693604 -2.52344238 104.45355957 -2.92993164 105.03735352 C-6.06150897 109.4848563 -9.43079394 113.69304662 -12.98046875 117.81640625 C-16.85513182 123.32641873 -16.58528357 126.3014525 -15.609375 133.1328125 C-10.329375 126.2028125 -5.049375 119.2728125 0.390625 112.1328125 C1.875625 112.6278125 1.875625 112.6278125 3.390625 113.1328125 C1.9901552 117.26012296 0.03198344 120.02403511 -2.796875 123.3203125 C-11.99775837 133.36058391 -11.99775837 133.36058391 -15.671875 145.7578125 C-15.65833984 146.98371094 -15.65833984 146.98371094 -15.64453125 148.234375 C-15.63292969 148.86085937 -15.62132813 149.48734375 -15.609375 150.1328125 C-14.04029626 148.3047596 -12.47767485 146.47213316 -10.921875 144.6328125 C-10.46216309 144.08979492 -10.00245117 143.54677734 -9.52880859 142.98730469 C-6.96581106 139.912435 -4.72345501 136.8715459 -2.734375 133.3828125 C-2.033125 132.3103125 -1.331875 131.2378125 -0.609375 130.1328125 C0.710625 130.1328125 2.030625 130.1328125 3.390625 130.1328125 C2.82663923 134.43187385 0.20143337 137.49606584 -2.296875 140.8828125 C-2.74804688 141.50824951 -3.19921875 142.13368652 -3.6640625 142.77807617 C-6.05694736 146.08157714 -8.53369552 149.28163671 -11.109375 152.4453125 C-14.08823829 156.32456667 -14.96672424 160.34617236 -15.609375 165.1328125 C-11.44362522 161.21076289 -8.12525773 156.96405076 -4.796875 152.3203125 C-4.29478516 151.62744141 -3.79269531 150.93457031 -3.27539062 150.22070312 C-2.0493762 148.52763559 -0.8288101 146.83062494 0.390625 145.1328125 C1.710625 145.4628125 3.030625 145.7928125 4.390625 146.1328125 C3.00253888 149.09115807 1.39005366 151.65306488 -0.54296875 154.28515625 C-1.10951172 155.06181641 -1.67605469 155.83847656 -2.25976562 156.63867188 C-2.84951172 157.44111328 -3.43925781 158.24355469 -4.046875 159.0703125 C-11.15274342 167.90303746 -11.15274342 167.90303746 -14.296875 178.4453125 C-14.36261719 179.32832031 -14.42835937 180.21132813 -14.49609375 181.12109375 C-14.53347656 181.78496094 -14.57085937 182.44882812 -14.609375 183.1328125 C-13.949375 183.1328125 -13.289375 183.1328125 -12.609375 183.1328125 C-12.37992188 182.41996094 -12.15046875 181.70710937 -11.9140625 180.97265625 C-10.34520289 177.55780316 -8.32782753 175.40804846 -5.734375 172.6953125 C-2.22201263 169.00995317 0.67887487 165.41485515 3.390625 161.1328125 C4.710625 161.7928125 6.030625 162.4528125 7.390625 163.1328125 C3.30965248 168.86823334 -1.14551995 174.01472416 -6.0012207 179.09472656 C-8.75800352 181.67130084 -8.75800352 181.67130084 -9.609375 185.1328125 C-8.619375 185.4628125 -7.629375 185.7928125 -6.609375 186.1328125 C-6.34125 185.55660156 -6.073125 184.98039063 -5.796875 184.38671875 C-4.58075059 182.07848262 -3.20059196 180.1349165 -1.609375 178.0703125 C0.14183778 175.78935786 1.79320351 173.52894473 3.390625 171.1328125 C4.380625 171.1328125 5.370625 171.1328125 6.390625 171.1328125 C5.95579023 176.38188935 4.32429065 178.94930945 0.890625 182.8828125 C-2.18210465 186.29170277 -2.18210465 186.29170277 -4.609375 190.1328125 C0.21504684 188.86334736 0.21504684 188.86334736 3.390625 185.1328125 C4.710625 185.4628125 6.030625 185.7928125 7.390625 186.1328125 C7.060625 187.4528125 6.730625 188.7728125 6.390625 190.1328125 C28.84451415 191.36092543 51.27472779 192.33911241 73.765625 192.3828125 C74.65633698 192.38780762 75.54704895 192.39280273 76.4647522 192.39794922 C96.18261675 193.42093241 96.18261675 193.42093241 113.390625 186.1328125 C118.29553454 180.83020759 118.50691106 176.95537227 118.671875 169.8671875 C118.69948914 168.80059906 118.69948914 168.80059906 118.72766113 167.71246338 C118.78619943 165.43599466 118.83892725 163.15944607 118.890625 160.8828125 C118.95986297 157.91916875 119.03249304 154.95564302 119.109375 151.9921875 C119.12847931 151.24694321 119.14758362 150.50169891 119.16726685 149.73387146 C119.30236091 144.96606088 119.57114804 140.22316397 119.9140625 135.46484375 C120.60799008 125.00562668 120.54109593 114.5484151 120.515625 104.0703125 C120.51473877 103.01411713 120.51385254 101.95792175 120.51293945 100.86972046 C120.49916777 86.83597467 120.30227032 72.83342642 119.74658203 58.81030273 C119.35716274 48.69440901 119.32497438 38.59896714 119.42773438 28.4777832 C119.46921654 22.91079729 119.41014396 17.6127269 118.390625 12.1328125 C123.39359632 9.12863594 128.7392233 9.65682546 134.390625 10.1328125 C138.015625 11.2578125 138.015625 11.2578125 140.390625 13.1328125 C143.14451792 18.87800291 142.6845928 24.97020533 142.640625 31.1953125 C142.64835938 32.23236328 142.65609375 33.26941406 142.6640625 34.33789062 C142.64987869 40.2702708 142.32745035 46.05451541 141.66976357 51.94526386 C140.33437285 64.13464261 140.10879711 76.22703405 140.11623001 88.48017311 C140.11721334 92.05888722 140.10405027 95.63731555 140.08724976 99.21598816 C140.04147111 109.37256852 140.0163331 119.52911053 140.00976562 129.68579102 C140.00475012 135.94116093 139.98052447 142.19621868 139.94443893 148.45148277 C139.93466786 150.82006646 139.9322942 153.18869315 139.93761063 155.55729103 C139.94468691 158.85860421 139.92739486 162.1589805 139.90478516 165.46020508 C139.91704384 166.91044571 139.91704384 166.91044571 139.92955017 168.38998413 C139.8365678 176.03446062 138.10030374 181.42313376 132.640625 186.8828125 C119.26375716 196.143721 103.10010578 197.98176149 87.203125 198.6953125 C85.91825195 198.76008789 85.91825195 198.76008789 84.60742188 198.82617188 C72.47504955 199.39276895 60.45076171 199.05034858 48.33584595 198.33572388 C37.08020661 197.67244024 25.8368375 197.09249241 14.5625 196.8828125 C13.68830917 196.86560654 12.81411835 196.84840057 11.91343689 196.83067322 C7.68841962 196.75030181 3.46413572 196.68816744 -0.76147461 196.65063477 C-2.28760536 196.62562859 -3.81372896 196.60018061 -5.33984375 196.57421875 C-6.03495056 196.57417847 -6.73005737 196.57413818 -7.44622803 196.57409668 C-12.21692633 196.47399633 -12.21692633 196.47399633 -14.11576843 194.82319641 C-14.85510368 193.98645638 -14.85510368 193.98645638 -15.609375 193.1328125 C-16.12730621 192.59612946 -16.64523743 192.05944641 -17.17886353 191.50650024 C-22.13271808 185.70338013 -22.54471394 180.73623519 -22.6328125 173.28125 C-22.6687149 172.12906982 -22.70461731 170.97688965 -22.74160767 169.78979492 C-22.85081903 166.02927824 -22.9181948 162.2693116 -22.984375 158.5078125 C-23.05142725 155.90050229 -23.12045633 153.29324221 -23.19140625 150.68603516 C-23.65320297 132.44675317 -23.78858814 114.19838773 -23.53662109 95.95458984 C-23.43126482 86.71883436 -23.82600983 77.8923883 -25.1328125 68.74707031 C-25.83226471 63.44241329 -25.98411251 58.16411557 -26.109375 52.8203125 C-26.37503779 44.08347768 -26.94377903 35.4671613 -28.03710938 26.79370117 C-28.70575485 21.32557219 -28.70575485 21.32557219 -27.609375 19.1328125 C-27.48204544 17.71803961 -27.38127865 16.30079387 -27.296875 14.8828125 C-26.79080363 10.3208358 -25.85897509 7.54489259 -22.609375 4.1328125 C-15.58368848 0.66753191 -7.7332602 0.00782945 0 0 Z M81.390625 8.1328125 C81.30348669 9.84053608 81.28362493 11.55179899 81.29296875 13.26171875 C81.29619141 14.29619141 81.29941406 15.33066406 81.30273438 16.39648438 C81.31111328 17.48509766 81.31949219 18.57371094 81.328125 19.6953125 C81.33263672 20.78779297 81.33714844 21.88027344 81.34179688 23.00585938 C81.35362674 25.71489745 81.37010957 28.42382849 81.390625 31.1328125 C82.050625 30.8028125 82.710625 30.4728125 83.390625 30.1328125 C83.7 29.1428125 84.009375 28.1528125 84.328125 27.1328125 C84.8540625 25.6478125 84.8540625 25.6478125 85.390625 24.1328125 C86.380625 23.8028125 87.370625 23.4728125 88.390625 23.1328125 C90.80129345 25.47832775 93.09257079 27.72436784 95.078125 30.4453125 C95.51125 31.0021875 95.944375 31.5590625 96.390625 32.1328125 C97.050625 32.1328125 97.710625 32.1328125 98.390625 32.1328125 C98.6131147 29.23743973 98.81905654 26.34246351 99.015625 23.4453125 C99.11230469 22.22038086 99.11230469 22.22038086 99.2109375 20.97070312 C99.68501831 14.7706674 99.68501831 14.7706674 97.390625 9.1328125 C95.17333191 8.09578205 95.17333191 8.09578205 92.578125 7.8203125 C91.72605469 7.67980469 90.87398437 7.53929688 89.99609375 7.39453125 C85.37191082 6.59362112 85.37191082 6.59362112 81.390625 8.1328125 Z M-18.796875 10.0078125 C-20.82569054 11.92092584 -20.82569054 11.92092584 -20.609375 14.1328125 C-17.24217113 12.73948676 -15.6234226 11.1538839 -13.609375 8.1328125 C-16.70993131 7.80741681 -16.70993131 7.80741681 -18.796875 10.0078125 Z M127.390625 15.1328125 C124.39098854 18.13244896 125.26960198 25.26532516 125.25167847 29.25788879 C125.2537027 29.99649643 125.25572693 30.73510406 125.2578125 31.49609375 C125.25685577 32.2869487 125.25589905 33.07780365 125.25491333 33.8926239 C125.2542357 35.56424031 125.25606077 37.23585941 125.26025391 38.9074707 C125.26552903 41.39996666 125.26033593 43.8922758 125.25390625 46.38476562 C125.25086056 54.30469459 125.39221269 62.18087372 125.890625 70.0859375 C126.50728751 79.91620775 126.54421567 89.72343994 126.515625 99.5703125 C126.51440643 100.49369415 126.51318787 101.41707581 126.51193237 102.36843872 C126.48392706 120.63632085 126.0752203 138.8785679 125.390625 157.1328125 C125.35324219 158.21208008 125.31585938 159.29134766 125.27734375 160.40332031 C124.95722068 169.47050977 124.60196331 178.28745925 122.390625 187.1328125 C127.42435344 185.69460437 129.38018389 183.23035735 132.390625 179.1328125 C133.58408305 175.55243834 133.72028788 172.18147679 133.890625 168.4453125 C133.93050537 167.59283936 133.97038574 166.74036621 134.01147461 165.86206055 C135.07388208 141.38526942 135.45368918 116.91218659 135.31326294 92.41516113 C135.24809927 78.70706427 135.89343702 65.19768096 136.9375 51.53125 C138.57501125 34.5506001 138.57501125 34.5506001 135.390625 18.1328125 C133.01641968 16.419353 130.41391947 15.1328125 127.390625 15.1328125 Z " transform="matrix(1, 0, 0, 1, 107.60937499999997, 86.8671875)" style="fill: url(#gradient-48-0);" id="object-0"/>
    <path d="M0 0 C0.99 0 1.98 0 3 0 C3.34800156 1.04733559 3.34800156 1.04733559 3.70303345 2.11582947 C6.674472 11.05723551 9.64862348 19.99773662 12.625 28.9375 C12.86346901 29.65376305 13.10193802 30.37002609 13.34763336 31.10799408 C19.46130555 49.46837179 25.6017728 67.81837209 31.875 86.125 C32.43783591 87.76903941 33.00066166 89.4130823 33.56347656 91.05712891 C35.45932131 96.59273831 37.35686307 102.12776249 39.2578125 107.66162109 C40.30279847 110.70994115 41.34039068 113.76064613 42.375 116.8125 C42.65585449 117.62541504 42.93670898 118.43833008 43.22607422 119.27587891 C44.39320256 122.74003989 45 125.29881918 45 129 C42.69 129 40.38 129 38 129 C36.1162729 123.56549153 34.24276474 118.12751496 32.375 112.6875 C32.07864655 111.82439209 31.78229309 110.96128418 31.47695923 110.07202148 C26.9553603 96.87824377 22.55023424 83.64788502 18.20703125 70.39453125 C17.9588414 69.63733984 17.71065155 68.88014843 17.4549408 68.10001183 C14.94235534 60.43246574 12.43521515 52.76316244 9.93660069 45.09105206 C8.99004993 42.186225 8.0412585 39.28213273 7.09207726 36.37816429 C6.64478781 35.0075395 6.19864132 33.63654117 5.75367165 32.26516151 C5.14209876 30.3803271 4.5266025 28.49676703 3.91088867 26.61328125 C3.39131844 25.01673706 3.39131844 25.01673706 2.86125183 23.38793945 C2.2191978 21.07744363 2.2191978 21.07744363 1 20 C0.69647614 20.92309967 0.39295227 21.84619934 0.08023071 22.79727173 C-2.82981681 31.64725581 -5.74052199 40.49702336 -8.65181541 49.34659767 C-10.14725825 53.89242082 -11.64249657 58.43831098 -13.13720703 62.984375 C-20.37773446 85.00541033 -27.64462077 107.01702815 -35 129 C-37.31 129 -39.62 129 -42 129 C-40.54386938 121.78465331 -38.44802886 114.93450508 -36.10107422 107.96264648 C-35.71063934 106.79090378 -35.32020447 105.61916107 -34.91793823 104.41191101 C-33.8552236 101.22548891 -32.78855506 98.04044437 -31.72004843 94.85596347 C-30.60106085 91.51785858 -29.48723038 88.17803371 -28.37283325 84.83839417 C-26.26572264 78.52635616 -24.15403163 72.21586069 -22.04065812 65.90591723 C-19.6332092 58.71719765 -17.23092109 51.52675702 -14.82904792 44.33617294 C-9.8917397 29.55553695 -4.94801027 14.77705704 0 0 Z " transform="matrix(1, 0, 0, 1, 454, 119)" style="fill: url(#gradient-48-1);" id="object-1"/>
    <path d="M0 0 C0 42.57 0 85.14 0 129 C-1.98 129 -3.96 129 -6 129 C-6.33 91.38 -6.66 53.76 -7 15 C-11.29 23.25 -15.58 31.5 -20 40 C-31.84289883 61.97768726 -31.84289883 61.97768726 -37 70 C-40.36827575 67.19904058 -42.07763715 63.40302143 -44.0546875 59.5859375 C-44.4381131 58.85686188 -44.8215387 58.12778625 -45.21658325 57.37661743 C-46.4412929 55.04544746 -47.65839152 52.71040646 -48.875 50.375 C-50.08355396 48.06653157 -51.29367364 45.75889363 -52.50469971 43.45172119 C-53.28229246 41.96879757 -54.05799772 40.48488253 -54.83172607 38.99993896 C-57.19875022 34.46884524 -59.65828616 30.01480819 -62.32470703 25.65087891 C-63 24 -63 24 -62 21 C-60.35 20.67 -58.7 20.34 -57 20 C-56.64284912 20.69448242 -56.28569824 21.38896484 -55.91772461 22.10449219 C-54.26096748 25.3213823 -52.59925796 28.53569051 -50.9375 31.75 C-50.37611328 32.84183594 -49.81472656 33.93367188 -49.23632812 35.05859375 C-45.37566996 42.51517924 -41.29972601 49.78839809 -37 57 C-36.63874023 56.2972998 -36.27748047 55.59459961 -35.90527344 54.87060547 C-29.51871366 42.4626051 -23.11015221 30.06982571 -16.4375 17.8125 C-15.9621582 16.9364209 -15.48681641 16.0603418 -14.99707031 15.15771484 C-14.1050131 13.52839672 -13.20276538 11.90460048 -12.28857422 10.28759766 C-11.4195515 8.74482712 -10.57780229 7.18641585 -9.76220703 5.61474609 C-9.35728027 4.87949707 -8.95235352 4.14424805 -8.53515625 3.38671875 C-8.18976807 2.73276123 -7.84437988 2.07880371 -7.48852539 1.4050293 C-6 0 -6 0 0 0 Z " transform="matrix(1, 0, 0, 1, 797, 119)" style="fill: url(#gradient-48-2);" id="object-2"/>
    <path d="M0 0 C2.31 0 4.62 0 7 0 C7.02332882 16.67185452 7.04097909 33.34370376 7.05181217 50.01557064 C7.05697517 57.75607282 7.06401793 65.49656487 7.07543945 73.23706055 C7.08538619 79.98127151 7.0918534 86.72547515 7.09408849 93.46969324 C7.09539562 97.04286866 7.09848158 100.6160231 7.10573006 104.18919182 C7.11374372 108.17162351 7.11399114 112.15403441 7.11352539 116.13647461 C7.11712067 117.32977386 7.12071594 118.52307312 7.12442017 119.75253296 C7.1230455 120.83091934 7.12167084 121.90930573 7.12025452 123.02037048 C7.12117631 123.96336471 7.1220981 124.90635893 7.12304783 125.87792873 C7 128 7 128 6 129 C4.35 129 2.7 129 1 129 C0.67 91.38 0.34 53.76 0 15 C-7.14390533 28.09715978 -14.27196442 41.19076574 -21.25 54.375 C-22.01420353 55.81646955 -22.77852652 57.25787578 -23.54296875 58.69921875 C-25.36333889 62.13209373 -27.18215431 65.5657876 -29 69 C-29.99 69 -30.98 69 -32 69 C-32.36649658 68.31711914 -32.73299316 67.63423828 -33.1105957 66.93066406 C-40.99641329 52.24392845 -48.93223584 37.5878348 -57 23 C-55.75 21.4375 -55.75 21.4375 -54 20 C-51.9855957 20.02050781 -51.9855957 20.02050781 -50 21 C-48.55541992 23.01855469 -48.55541992 23.01855469 -47.23046875 25.671875 C-46.73708008 26.64116943 -46.24369141 27.61046387 -45.73535156 28.60913086 C-45.22456055 29.64561768 -44.71376953 30.68210449 -44.1875 31.75 C-43.1243072 33.85056891 -42.06050797 35.950831 -40.99609375 38.05078125 C-40.4841748 39.07123535 -39.97225586 40.09168945 -39.44482422 41.14306641 C-37.60784197 44.77543651 -35.69722613 48.36332549 -33.75 51.9375 C-33.20859375 52.93652344 -32.6671875 53.93554688 -32.109375 54.96484375 C-31.74328125 55.63644531 -31.3771875 56.30804688 -31 57 C-24.30127062 45.08414256 -17.79091248 33.07205363 -11.35522461 21.01269531 C-7.6058322 13.9886179 -3.82717245 6.98202767 0 0 Z " transform="matrix(1, 0, 0, 1, 588, 119)" style="fill: url(#gradient-48-3);" id="object-3"/>
    <path d="M0 0 C0 42.57 0 85.14 0 129 C-1.98 129 -3.96 129 -6 129 C-6.33 91.38 -6.66 53.76 -7 15 C-12.94 26.22 -18.88 37.44 -25 49 C-32.453125 62.640625 -32.453125 62.640625 -36 69 C-36.99 69 -37.98 69 -39 69 C-39.45101074 68.12770752 -39.45101074 68.12770752 -39.91113281 67.23779297 C-41.35495656 64.44891045 -42.8021546 61.66179683 -44.25 58.875 C-44.78197998 57.84922852 -45.31395996 56.82345703 -45.86206055 55.76660156 C-48.67612413 50.36538173 -51.53529127 44.9977278 -54.50390625 39.6796875 C-55.05852539 38.68340332 -55.61314453 37.68711914 -56.18457031 36.66064453 C-57.25728766 34.74268769 -58.33848555 32.82944583 -59.42871094 30.92138672 C-59.91243164 30.05529785 -60.39615234 29.18920898 -60.89453125 28.296875 C-61.32612549 27.53729492 -61.75771973 26.77771484 -62.20239258 25.99511719 C-63 24 -63 24 -62 21 C-59.9375 20.3125 -59.9375 20.3125 -58 20 C-53.24153361 27.71899579 -48.89556708 35.62771677 -44.625 43.625 C-43.97809088 44.83215255 -43.33095674 46.03918454 -42.68359375 47.24609375 C-41.12019047 50.1628909 -39.55904386 53.0808711 -38 56 C-35.48299443 53.72349306 -34.03767183 51.46649705 -32.50390625 48.44921875 C-31.79826538 47.07552124 -31.79826538 47.07552124 -31.07836914 45.67407227 C-30.57813232 44.68850342 -30.07789551 43.70293457 -29.5625 42.6875 C-28.49124802 40.60591329 -27.41828442 38.52520668 -26.34375 36.4453125 C-25.79332031 35.37958008 -25.24289062 34.31384766 -24.67578125 33.21582031 C-22.02760164 28.13396981 -19.30451693 23.09420239 -16.5625 18.0625 C-16.07918213 17.17071045 -15.59586426 16.2789209 -15.09790039 15.36010742 C-14.18285966 13.68488877 -13.25765918 12.01516635 -12.32080078 10.35205078 C-11.43885023 8.78149412 -10.58291303 7.19604975 -9.75341797 5.59716797 C-9.34881348 4.86256348 -8.94420898 4.12795898 -8.52734375 3.37109375 C-8.1830835 2.71939209 -7.83882324 2.06769043 -7.48413086 1.39624023 C-6 0 -6 0 0 0 Z " transform="matrix(1, 0, 0, 1, 366, 119)" style="fill: url(#gradient-48-4);" id="object-4"/>
    <path d="M0 0 C5.22223084 1.38235522 8.18567607 4.55455138 11 9 C13.5498954 15.21328224 12.88469119 19.71769605 11 26 C10.53170148 30.36369074 11.66008002 32.65637503 14 36.3125 C14.556875 37.19550781 15.11375 38.07851562 15.6875 38.98828125 C16.120625 39.65214844 16.55375 40.31601563 17 41 C17.78375 40.21625 18.5675 39.4325 19.375 38.625 C20.91666667 37.08333333 22.45833333 35.54166667 24 34 C23.979375 32.845 23.95875 31.69 23.9375 30.5 C23.77469121 20.46012458 28.1795345 12.21273717 35 5 C38.4375 3.375 38.4375 3.375 42 3 C43.11955078 2.77570313 43.11955078 2.77570313 44.26171875 2.546875 C48.42870303 1.80301665 50.27767413 1.56359479 54 3.8125 C56.16286554 6.17813419 56.99224335 7.09247181 57.01953125 10.28515625 C56.32069728 19.66007993 53.82126898 27.33736518 47 34 C42.40622905 36.7187624 39.24948451 37.05268338 33.9375 37.125 C30.19745722 37.31739869 28.60323741 37.41019273 25.89453125 40.05859375 C24.40913359 42.32020872 23.13123916 44.54402024 22 47 C23.55790321 49.06611241 25.12109677 51.12784639 26.6875 53.1875 C27.12255859 53.76564453 27.55761719 54.34378906 28.00585938 54.93945312 C30.16563391 57.77115751 32.27045865 60.26154243 34.84375 62.75 C35.91109375 63.86375 35.91109375 63.86375 37 65 C36.8125 67.8125 36.8125 67.8125 36 70 C35.01 70.33 34.02 70.66 33 71 C28.99185072 67.16771102 25.57171247 63.07477678 22.1875 58.6875 C21.68541016 58.04232422 21.18332031 57.39714844 20.66601562 56.73242188 C19.44094319 55.15732875 18.2200368 53.57899684 17 52 C12.6655317 56.13856013 8.93285719 60.64019822 5.1875 65.3125 C4.2912793 66.42334961 4.2912793 66.42334961 3.37695312 67.55664062 C1.9153582 69.36901834 0.45645973 71.183495 -1 73 C-2.32 72.67 -3.64 72.34 -5 72 C-5 67.02654879 -3.15593113 65.57635291 0.125 62.25 C1.13502087 61.18177123 2.14284226 60.11145846 3.1484375 59.0390625 C3.63795898 58.51989258 4.12748047 58.00072266 4.63183594 57.46582031 C6.40355518 55.56764002 8.10987181 53.63823791 9.75 51.625 C10.21921875 51.06039062 10.6884375 50.49578125 11.171875 49.9140625 C12.44803824 46.96443993 11.84357503 45.05748233 11 42 C8.13108525 36.71289775 4.8138863 31.10462877 -1.125 29.125 C-1.78371094 28.94582031 -2.44242188 28.76664063 -3.12109375 28.58203125 C-8.7629735 26.83433877 -12.2762384 21.793459 -15.1640625 16.9375 C-16 15 -16 15 -15.8125 12 C-15.544375 11.34 -15.27625 10.68 -15 10 C-11.57041562 11.41785848 -9.97606696 13.03190342 -7.875 16.0625 C-5.88925353 19.04627522 -5.88925353 19.04627522 -3 21 C-4.65 16.71 -6.3 12.42 -8 8 C-6.68 7.67 -5.36 7.34 -4 7 C-3.52820313 7.77923828 -3.52820313 7.77923828 -3.046875 8.57421875 C-0.57814552 12.59705805 1.94818018 16.38302836 5 20 C5.94861227 17.21345145 6.40881811 15.85655184 6 13 C3.672897 9.64981982 0.930322 6.82772867 -2 4 C-1.34 2.68 -0.68 1.36 0 0 Z M36.3125 12.3125 C32.47739902 16.36483982 30.96429406 18.92905561 31.0625 24.625 C31.70934666 28.08231024 31.70934666 28.08231024 34.1875 30.0625 C36.99350156 31.24152537 36.99350156 31.24152537 40 30.5 C44.99834788 28.00082606 48.82069241 24.16151799 51 19 C51.38938595 15.62887782 51.6045761 12.3488774 51 9 C45.19422564 5.12948376 40.88584459 7.93882326 36.3125 12.3125 Z " transform="matrix(1, 0, 0, 1, 138, 149)" style="fill: url(#gradient-48-5);" id="object-5"/>
    <path d="M0 0 C15.84 0 31.68 0 48 0 C48.495 2.475 48.495 2.475 49 5 C48.67 5.33 48.34 5.66 48 6 C43.38 6 38.76 6 34 6 C34 46.59 34 87.18 34 129 C32.02 129 30.04 129 28 129 C27.82542238 118.62512156 27.6592881 108.25012384 27.5 97.875 C27.48218412 96.71504202 27.48218412 96.71504202 27.46400833 95.53165054 C27.00863704 65.68513022 26.88820128 35.85025713 27 6 C18.09 6 9.18 6 0 6 C0 4.02 0 2.04 0 0 Z " transform="matrix(1, 0, 0, 1, 615, 119)" style="fill: url(#gradient-48-6);" id="object-6"/>
    <path d="M0 0 C2.31 0 4.62 0 7 0 C7.84114171 1.43294498 8.67265687 2.87154405 9.5 4.3125 C9.9640625 5.11300781 10.428125 5.91351563 10.90625 6.73828125 C12 9 12 9 12 12 C10.35 12.66 8.7 13.32 7 14 C6.67 51.95 6.34 89.9 6 129 C4.35 129 2.7 129 1 129 C0 128 0 128 -0.12304783 125.87792873 C-0.12212604 124.93493451 -0.12120424 123.99194029 -0.12025452 123.02037048 C-0.12231651 121.40279091 -0.12231651 121.40279091 -0.12442017 119.75253296 C-0.12082489 118.5592337 -0.11722961 117.36593445 -0.11352539 116.13647461 C-0.11367142 114.88787155 -0.11381744 113.63926849 -0.1139679 112.35282898 C-0.11338891 108.91909006 -0.10835955 105.48541062 -0.10139394 102.05168223 C-0.09515998 98.46687541 -0.09455657 94.88206787 -0.09336853 91.29725647 C-0.09025534 84.50449955 -0.08204212 77.71175865 -0.07201904 70.91900879 C-0.06085753 63.18757506 -0.05534736 55.45614058 -0.05032361 47.72470081 C-0.03985949 31.81645792 -0.02226029 15.90823102 0 0 Z " transform="matrix(1, 0, 0, 1, 722, 119)" style="fill: url(#gradient-48-7);" id="object-7"/>
    <path d="M0 0 C1.99879574 -0.06939444 4.0010501 -0.0648019 6 0 C7.64453125 1.609375 7.64453125 1.609375 8.8125 3.75 C9.21082031 4.44609375 9.60914063 5.1421875 10.01953125 5.859375 C10.95584757 7.90360345 11.54010997 9.80439598 12 12 C10.35 12.66 8.7 13.32 7 14 C6.67 51.95 6.34 89.9 6 129 C4.35 129 2.7 129 1 129 C0 128 0 128 -0.12304783 125.87792873 C-0.12212604 124.93493451 -0.12120424 123.99194029 -0.12025452 123.02037048 C-0.12231651 121.40279091 -0.12231651 121.40279091 -0.12442017 119.75253296 C-0.12082489 118.5592337 -0.11722961 117.36593445 -0.11352539 116.13647461 C-0.11367142 114.88787155 -0.11381744 113.63926849 -0.1139679 112.35282898 C-0.11338891 108.91909006 -0.10835955 105.48541062 -0.10139394 102.05168223 C-0.09515998 98.46687541 -0.09455657 94.88206787 -0.09336853 91.29725647 C-0.09025534 84.50449955 -0.08204212 77.71175865 -0.07201904 70.91900879 C-0.06085753 63.18757506 -0.05534736 55.45614058 -0.05032361 47.72470081 C-0.03985949 31.81645792 -0.02226029 15.90823102 0 0 Z " transform="matrix(1, 0, 0, 1, 291, 119)" style="fill: url(#gradient-48-8);" id="object-8"/>
    <path d="M0 0 C1.98 0 3.96 0 6 0 C7.8984375 2.1171875 7.8984375 2.1171875 9.375 4.875 C9.87773438 5.77992187 10.38046875 6.68484375 10.8984375 7.6171875 C12 10 12 10 12 12 C10.02 12.66 8.04 13.32 6 14 C6 51.95 6 89.9 6 129 C4.02 129 2.04 129 0 129 C0 86.43 0 43.86 0 0 Z " transform="matrix(1, 0, 0, 1, 520, 119)" style="fill: url(#gradient-48-9);" id="object-9"/>
    <path d="M0 0 C14.85 0 29.7 0 45 0 C45 1.65 45 3.3 45 5 C32.13 5 19.26 5 6 5 C6 30.08 6 55.16 6 81 C4.02 81 2.04 81 0 81 C0 54.27 0 27.54 0 0 Z " transform="matrix(1, 0, 0, 1, 817, 119)" style="fill: url(#gradient-48-10);" id="object-10"/>
    <path d="M0 0 C1.65 0 3.3 0 5 0 C5 42.57 5 85.14 5 129 C3.35 129 1.7 129 0 129 C0 86.43 0 43.86 0 0 Z " transform="matrix(1, 0, 0, 1, 697, 119)" style="fill: url(#gradient-48-11);" id="object-11"/>
    <path d="M0 0 C1.65 0 3.3 0 5 0 C5 42.57 5 85.14 5 129 C3.35 128.67 1.7 128.34 0 128 C0 85.76 0 43.52 0 0 Z " transform="matrix(1, 0, 0, 1, 386, 119)" style="fill: url(#gradient-48-12);" id="object-12"/>
    <path d="M0 0 C1.51400391 0.01740234 1.51400391 0.01740234 3.05859375 0.03515625 C4.07050781 0.04417969 5.08242188 0.05320313 6.125 0.0625 C7.29869141 0.07990234 7.29869141 0.07990234 8.49609375 0.09765625 C8.49609375 2.07765625 8.49609375 4.05765625 8.49609375 6.09765625 C6.51609375 6.09765625 4.53609375 6.09765625 2.49609375 6.09765625 C2.49609375 16.98765625 2.49609375 27.87765625 2.49609375 39.09765625 C15.69609375 39.09765625 28.89609375 39.09765625 42.49609375 39.09765625 C42.49609375 40.74765625 42.49609375 42.39765625 42.49609375 44.09765625 C36.10572144 44.12292687 29.71536192 44.14048942 23.32495117 44.15258789 C21.14916502 44.15762933 18.97338228 44.16446232 16.79760742 44.1730957 C13.67756308 44.18516963 10.55756337 44.1908863 7.4375 44.1953125 C5.96876183 44.20305443 5.96876183 44.20305443 4.47035217 44.21095276 C3.56949387 44.21102829 2.66863556 44.21110382 1.74047852 44.21118164 C0.94327896 44.21340225 0.14607941 44.21562286 -0.67527771 44.21791077 C-2.50390625 44.09765625 -2.50390625 44.09765625 -3.50390625 43.09765625 C-3.60507545 40.0068416 -3.64359183 36.9388307 -3.63671875 33.84765625 C-3.63767548 32.91920898 -3.6386322 31.99076172 -3.63961792 31.03417969 C-3.6402998 29.0670566 -3.63844497 27.09993129 -3.63427734 25.1328125 C-3.6289292 22.11062599 -3.63422207 19.0885881 -3.640625 16.06640625 C-3.63996422 14.16015592 -3.63868306 12.25390568 -3.63671875 10.34765625 C-3.63874298 9.43725586 -3.64076721 8.52685547 -3.64285278 7.58886719 C-3.61482292 0.14098373 -3.61482292 0.14098373 0 0 Z " transform="matrix(1, 0, 0, 1, 820.50390625, 203.90234374999997)" style="fill: url(#gradient-48-13);" id="object-13"/>
    <path d="M0 0 C1.98 0 3.96 0 6 0 C7.12759871 3.83257371 8.25160515 7.66619216 9.375 11.5 C9.69210937 12.57765625 10.00921875 13.6553125 10.3359375 14.765625 C15.32440317 31.80954936 15.32440317 31.80954936 15 37 C13.02 37 11.04 37 9 37 C7.71172923 32.37532112 6.43017987 27.7488519 5.15478516 23.12060547 C4.72009928 21.54685457 4.28359083 19.9736059 3.84521484 18.40087891 C3.21490711 16.13834571 2.59120627 13.87407903 1.96875 11.609375 C1.77188599 10.90818542 1.57502197 10.20699585 1.37219238 9.48455811 C0.46343978 6.15398897 0 3.48704496 0 0 Z " transform="matrix(1, 0, 0, 1, 447, 210.99999999999997)" style="fill: url(#gradient-48-14);" id="object-14"/>
    <path d="M0 0 C1.921875 0.57421875 1.921875 0.57421875 4 2 C8.11311565 16.37650329 6.19582879 33.23902826 6 48 C4.0625 48.5625 4.0625 48.5625 2 49 C1 48 1 48 0.97265625 44.44140625 C1.0012033 42.81507897 1.03127919 41.18877814 1.0625 39.5625 C1.17938486 29.78585176 0.50551479 20.14169925 -0.37670898 10.40844727 C-0.47024658 9.34295654 -0.56378418 8.27746582 -0.66015625 7.1796875 C-0.74918213 6.22819824 -0.83820801 5.27670898 -0.92993164 4.29638672 C-1 2 -1 2 0 0 Z " transform="matrix(1, 0, 0, 1, 71.99999999999997, 214.99999999999997)" style="fill: url(#gradient-48-15);" id="object-15"/>
    <path d="M0 0 C0.79615723 0.00080566 1.59231445 0.00161133 2.41259766 0.00244141 C3.64937256 0.0036499 3.64937256 0.0036499 4.91113281 0.00488281 C12.41032784 0.07504589 19.87197757 0.5176597 27.35009766 1.06494141 C28.47279053 1.14333252 29.5954834 1.22172363 30.75219727 1.30249023 C31.81317627 1.386521 32.87415527 1.47055176 33.96728516 1.55712891 C34.90942871 1.63044434 35.85157227 1.70375977 36.82226562 1.77929688 C39.61282737 2.21126125 41.90283067 3.04392801 44.47509766 4.18994141 C43.40478516 5.70166016 43.40478516 5.70166016 41.47509766 7.18994141 C38.48291016 7.33447266 38.48291016 7.33447266 34.60009766 7.00244141 C33.09105452 6.88046056 31.58193303 6.75944691 30.07275391 6.63916016 C29.21053223 6.56616699 28.34831055 6.49317383 27.45996094 6.41796875 C23.96571544 6.15102737 20.4705578 5.96002579 16.97119141 5.77197266 C14.32664826 5.6198356 11.68211704 5.46749109 9.03759766 5.31494141 C7.73902832 5.24895752 6.44045898 5.18297363 5.10253906 5.11499023 C3.27795166 5.00127075 3.27795166 5.00127075 1.41650391 4.88525391 C0.32023682 4.82354004 -0.77603027 4.76182617 -1.90551758 4.69824219 C-2.76991455 4.53050293 -3.63431152 4.36276367 -4.52490234 4.18994141 C-5.18490234 3.19994141 -5.84490234 2.20994141 -6.52490234 1.18994141 C-4.7485487 -0.58641224 -2.36824125 0.02381472 0 0 Z " transform="matrix(1, 0, 0, 1, 154.52490234375, 71.81005859375)" style="fill: url(#gradient-48-16);" id="object-16"/>
    <path d="M0 0 C0.66 0 1.32 0 2 0 C3.27328905 3.90071089 3.14732046 7.82011576 3.125 11.875 C3.12886719 12.56980469 3.13273438 13.26460937 3.13671875 13.98046875 C3.13103083 17.00075188 3.0184454 19.88977752 2.51953125 22.87109375 C1.63886894 28.17493218 1.63973379 33.5521323 1.48242188 38.91992188 C1.44826172 39.78552734 1.41410156 40.65113281 1.37890625 41.54296875 C1.3538501 42.32696045 1.32879395 43.11095215 1.30297852 43.91870117 C1 46 1 46 -1 49 C-1.66 49 -2.32 49 -3 49 C-3.25828286 38.31115501 -2.44715124 27.82335157 -1.5 17.1875 C-1.35496105 15.51241367 -1.21042649 13.83728359 -1.06640625 12.16210938 C-0.71673676 8.1075462 -0.36029448 4.05363226 0 0 Z " transform="matrix(1, 0, 0, 1, 238, 214.99999999999997)" style="fill: url(#gradient-48-17);" id="object-17"/>
    <path d="M0 0 C2.88814945 0.05478874 5.74651937 0.17358413 8.62890625 0.33984375 C9.92525246 0.40855431 9.92525246 0.40855431 11.24778748 0.47865295 C14.0196476 0.62670432 16.79104721 0.78202651 19.5625 0.9375 C21.43682318 1.03888906 23.31117193 1.1398068 25.18554688 1.24023438 C29.79067944 1.48801283 34.39541159 1.74231463 39 2 C39 3.32 39 4.64 39 6 C34.73145229 5.88079038 30.46309065 5.75649009 26.19482422 5.62768555 C24.74597085 5.58465509 23.2970771 5.54296107 21.84814453 5.50268555 C7.02843217 5.08904092 7.02843217 5.08904092 0 4 C-0.33 3.01 -0.66 2.02 -1 1 C-0.67 0.67 -0.34 0.34 0 0 Z " transform="matrix(1, 0, 0, 1, 134, 230.99999999999997)" style="fill: url(#gradient-48-18);" id="object-18"/>
    <path d="M0 0 C0.33 0.99 0.66 1.98 1 3 C-7.00040912 10.96258213 -12.72416848 14.12607892 -24.0625 14.1875 C-26.04208061 14.13988122 -28.02156869 14.08256205 -30 14 C-30 13.34 -30 12.68 -30 12 C-25.98285643 10.77739109 -22.0791496 9.82676211 -17.9375 9.125 C-13.48808049 8.26468928 -10.64890085 6.75694731 -7 4 C-4.69204456 2.61804705 -2.3474523 1.31457329 0 0 Z " transform="matrix(1, 0, 0, 1, 246, 280)" style="fill: url(#gradient-48-19);" id="object-19"/>
    <path d="M0 0 C5.17416675 -0.10158704 10.12260955 0.2630951 15.25 0.9375 C15.95640625 1.02451172 16.6628125 1.11152344 17.390625 1.20117188 C20.39430004 1.58516442 23.11937266 2.03979089 26 3 C26 4.32 26 5.64 26 7 C17.76587951 7.43337476 7.4921657 6.74608285 0 3 C0 2.01 0 1.02 0 0 Z " transform="matrix(1, 0, 0, 1, 162, 140)" style="fill: url(#gradient-48-20);" id="object-20"/>
    <path d="M0 0 C1.32 0.66 2.64 1.32 4 2 C-1.12216847 9.19872326 -6.97198312 15.56439479 -13 22 C-13.99 21.34 -14.98 20.68 -16 20 C-8.26082402 10.28282123 -8.26082402 10.28282123 -5.1875 6.625 C-3.38381469 4.46057763 -1.66174437 2.27396597 0 0 Z " transform="matrix(1, 0, 0, 1, 110.99999999999997, 247.99999999999997)" style="fill: url(#gradient-48-21);" id="object-21"/>
    <path d="M0 0 C0.99 0.33 1.98 0.66 3 1 C1.57903924 5.22468441 -0.49132835 8.06044267 -3.375 11.4375 C-5.90340235 14.43592586 -8.33269017 17.33683543 -10.375 20.6875 C-10.91125 21.450625 -11.4475 22.21375 -12 23 C-14 23 -16 23 -18 23 C-17.67 21.68 -17.34 20.36 -17 19 C-16.67 19.66 -16.34 20.32 -16 21 C-10.72 14.07 -5.44 7.14 0 0 Z " transform="matrix(1, 0, 0, 1, 107.99999999999997, 198.99999999999997)" style="fill: url(#gradient-48-22);" id="object-22"/>
    <path d="M0 0 C4.8563602 -0.02484561 9.71268284 -0.04292865 14.5690918 -0.05493164 C16.21883794 -0.05993919 17.8685797 -0.06674716 19.51831055 -0.07543945 C21.89893685 -0.08766254 24.27950413 -0.09326422 26.66015625 -0.09765625 C27.38960953 -0.10281754 28.11906281 -0.10797882 28.87062073 -0.11329651 C33.32621753 -0.11377714 37.61457263 0.10756535 42 1 C42.495 1.99 42.495 1.99 43 3 C28.48 3 13.96 3 -1 3 C-0.67 2.01 -0.34 1.02 0 0 Z " transform="matrix(1, 0, 0, 1, 152, 291)" style="fill: url(#gradient-48-23);" id="object-23"/>
    <path d="M0 0 C0.99 0 1.98 0 3 0 C1.51358525 4.26847444 -0.72051246 7.77444323 -3.3125 11.4375 C-3.69083984 11.98470703 -4.06917969 12.53191406 -4.45898438 13.09570312 C-7.12119698 16.90208155 -9.98737942 20.46483638 -13 24 C-13.33 23.34 -13.66 22.68 -14 22 C-14.66 21.67 -15.32 21.34 -16 21 C-15.21625 20.13375 -14.4325 19.2675 -13.625 18.375 C-11.41135478 15.82323236 -9.40454032 13.19044983 -7.48046875 10.41796875 C-7.0407373 9.7852002 -6.60100586 9.15243164 -6.14794922 8.50048828 C-5.26182108 7.2145495 -4.38441722 5.92255252 -3.51611328 4.62451172 C-2.41694821 3.03022725 -1.21504993 1.50783304 0 0 Z " transform="matrix(1, 0, 0, 1, 108.99999999999997, 178.99999999999997)" style="fill: url(#gradient-48-24);" id="object-24"/>
    <path d="M0 0 C0.99 0.33 1.98 0.66 3 1 C3 8.26 3 15.52 3 23 C2.01 22.67 1.02 22.34 0 22 C-1.09472258 17.58635658 -1.14938175 13.26875116 -1.125 8.75 C-1.12886719 8.0178125 -1.13273437 7.285625 -1.13671875 6.53125 C-1.12671034 1.12671034 -1.12671034 1.12671034 0 0 Z " transform="matrix(1, 0, 0, 1, 71.99999999999997, 180.99999999999997)" style="fill: url(#gradient-48-25);" id="object-25"/>
    <path d="M0 0 C0.99 0.33 1.98 0.66 3 1 C1.61917102 4.14756649 0.05200845 6.13883972 -2.4765625 8.453125 C-3.146875 9.071875 -3.8171875 9.690625 -4.5078125 10.328125 C-5.55582031 11.27945313 -5.55582031 11.27945313 -6.625 12.25 C-7.33140625 12.8996875 -8.0378125 13.549375 -8.765625 14.21875 C-10.50572178 15.81775785 -12.25056662 17.41122239 -14 19 C-14.66 18.34 -15.32 17.68 -16 17 C-13.10800055 12.26891353 -9.89982724 8.77843643 -5.75 5.125 C-5.19570312 4.62742187 -4.64140625 4.12984375 -4.0703125 3.6171875 C-2.71884001 2.40552251 -1.3601611 1.20190336 0 0 Z " transform="matrix(1, 0, 0, 1, 110.99999999999997, 123)" style="fill: url(#gradient-48-26);" id="object-26"/>
    <path d="M0 0 C0.33 0 0.66 0 1 0 C1 9.24 1 18.48 1 28 C0.01 28 -0.98 28 -2 28 C-2.05880804 24.83341337 -2.09386406 21.66697007 -2.125 18.5 C-2.14175781 17.613125 -2.15851563 16.72625 -2.17578125 15.8125 C-2.2172205 10.17676212 -1.60441286 5.40699768 0 0 Z " transform="matrix(1, 0, 0, 1, 238, 112)" style="fill: url(#gradient-48-27);" id="object-27"/>
    <path d="M0 0 C7.43378943 -0.33452052 13.19877155 -0.13902852 20 3 C17.65820867 5.34179133 17.18019135 5.29546326 14 5.3125 C8.69227843 5.21756514 3.97660981 3.74544979 -1 2 C-0.67 1.34 -0.34 0.68 0 0 Z " transform="matrix(1, 0, 0, 1, 215, 77)" style="fill: url(#gradient-48-28);" id="object-28"/>
    <path d="M0 0 C0.33 0 0.66 0 1 0 C1.05392397 2.77109307 1.09363455 5.54113818 1.125 8.3125 C1.14175781 9.09818359 1.15851563 9.88386719 1.17578125 10.69335938 C1.18222656 11.45068359 1.18867188 12.20800781 1.1953125 12.98828125 C1.20578613 13.68477783 1.21625977 14.38127441 1.22705078 15.09887695 C1 17 1 17 -1 20 C-1.66 20 -2.32 20 -3 20 C-3.02717692 17.93757383 -3.0464758 15.87504297 -3.0625 13.8125 C-3.07410156 12.66394531 -3.08570313 11.51539063 -3.09765625 10.33203125 C-2.87922705 2.87922705 -2.87922705 2.87922705 0 0 Z " transform="matrix(1, 0, 0, 1, 238, 243.99999999999997)" style="fill: url(#gradient-48-29);" id="object-29"/>
    <path d="M0 0 C0.33 0.99 0.66 1.98 1 3 C-3 7 -7 11 -11 15 C-11.66 14.34 -12.32 13.68 -13 13 C-10.81434176 9.55338508 -8.52036655 6.28756229 -5.9375 3.125 C-5.45152344 2.52945313 -4.96554688 1.93390625 -4.46484375 1.3203125 C-3 0 -3 0 0 0 Z " transform="matrix(1, 0, 0, 1, 112.99999999999997, 93)" style="fill: url(#gradient-48-30);" id="object-30"/>
    <path d="M0 0 C3.3 0 6.6 0 10 0 C10 1.65 10 3.3 10 5 C9 6 9 6 6.93359375 6.09765625 C6.10988281 6.08605469 5.28617188 6.07445313 4.4375 6.0625 C3.61121094 6.05347656 2.78492188 6.04445313 1.93359375 6.03515625 C1.29550781 6.02355469 0.65742187 6.01195313 0 6 C0 4.02 0 2.04 0 0 Z " transform="matrix(1, 0, 0, 1, 667, 119)" style="fill: url(#gradient-48-31);" id="object-31"/>
    <path d="M0 0 C1.32 0.33 2.64 0.66 4 1 C2.78329471 3.7652393 1.24570702 6.25053897 -0.4375 8.75 C-0.84871094 9.36359375 -1.25992188 9.9771875 -1.68359375 10.609375 C-2.11800781 11.06828125 -2.55242187 11.5271875 -3 12 C-5 12 -7 12 -9 12 C-6.03 8.04 -3.06 4.08 0 0 Z " transform="matrix(1, 0, 0, 1, 107.99999999999997, 231.99999999999997)" style="fill: url(#gradient-48-32);" id="object-32"/>
    <path d="M0 0 C1.89575251 -0.02721176 3.79161979 -0.04649136 5.6875 -0.0625 C6.74324219 -0.07410156 7.79898438 -0.08570313 8.88671875 -0.09765625 C11.72410262 -0.00865425 14.2438919 0.35060162 17 1 C17 1.66 17 2.32 17 3 C11.89205798 4.70264734 6.82076904 4.87245183 2 2.5625 C1.34 2.046875 0.68 1.53125 0 1 C0 0.67 0 0.34 0 0 Z " transform="matrix(1, 0, 0, 1, 138, 139)" style="fill: url(#gradient-48-33);" id="object-33"/>
    <path d="M0 0 C6.93 0.33 13.86 0.66 21 1 C21 1.33 21 1.66 21 2 C13.64424835 2.70776992 6.3905476 3.14715692 -1 3 C-0.67 2.01 -0.34 1.02 0 0 Z " transform="matrix(1, 0, 0, 1, 152, 291)" style="fill: url(#gradient-48-34);" id="object-34"/>
    <path d="M0 0 C0.99 0.33 1.98 0.66 3 1 C1.61811547 4.21043882 0.07578097 6.04936365 -2.625 8.25 C-3.25664063 8.77078125 -3.88828125 9.2915625 -4.5390625 9.828125 C-5.02117187 10.21484375 -5.50328125 10.6015625 -6 11 C-6 7.40945708 -5.35178068 6.93365028 -3 4.375 C-0.90988629 2.4593561 -0.90988629 2.4593561 0 0 Z " transform="matrix(1, 0, 0, 1, 110.99999999999997, 123)" style="fill: url(#gradient-48-35);" id="object-35"/>
    <path d="M0 0 C0.94875 0.350625 1.8975 0.70125 2.875 1.0625 C2.875 2.0525 2.875 3.0425 2.875 4.0625 C-2.875 3.1875 -2.875 3.1875 -5.125 2.0625 C-5.125 1.4025 -5.125 0.7425 -5.125 0.0625 C-3.125 -0.9375 -3.125 -0.9375 0 0 Z " transform="matrix(1, 0, 0, 1, 189.125, 234.93749999999997)" style="fill: url(#gradient-48-36);" id="object-36"/>
    <path d="M0 0 C1.32 0 2.64 0 4 0 C3.42655063 2.86724686 3.1385485 3.8614515 1 6 C-0.66666667 6 -2.33333333 6 -4 6 C-2.25 3 -2.25 3 0 0 Z " transform="matrix(1, 0, 0, 1, 106.99999999999997, 216.99999999999997)" style="fill: url(#gradient-48-37);" id="object-37"/>
    <path d="M0 0 C0.99 0.33 1.98 0.66 3 1 C2.34 2.65 1.68 4.3 1 6 C-1 6 -3 6 -5 6 C-3.35 4.02 -1.7 2.04 0 0 Z " transform="matrix(1, 0, 0, 1, 107.99999999999997, 198.99999999999997)" style="fill: url(#gradient-48-38);" id="object-38"/>
    <path d="M0 0 C-0.125 1.75 -0.125 1.75 -1 4 C-4.0625 6.25 -4.0625 6.25 -7 8 C-7 5 -7 5 -4.625 2.3125 C-2 0 -2 0 0 0 Z " transform="matrix(1, 0, 0, 1, 112.99999999999997, 108)" style="fill: url(#gradient-48-39);" id="object-39"/>
    <path d="M0 0 C0 2 0 2 -1.64453125 3.7265625 C-2.35996094 4.35304688 -3.07539062 4.97953125 -3.8125 5.625 C-4.87404297 6.57246094 -4.87404297 6.57246094 -5.95703125 7.5390625 C-8 9 -8 9 -11 9 C-9.73965413 7.49117739 -8.46636351 5.99315956 -7.1875 4.5 C-6.47980469 3.6646875 -5.77210937 2.829375 -5.04296875 1.96875 C-3 0 -3 0 0 0 Z " transform="matrix(1, 0, 0, 1, 112.99999999999997, 93)" style="fill: url(#gradient-48-40);" id="object-40"/>
    <path d="M0 0 C0.33 0.99 0.66 1.98 1 3 C-1.97 5.475 -1.97 5.475 -5 8 C-5.66 7.34 -6.32 6.68 -7 6 C-4.80090595 3.80090595 -2.43929746 1.92576115 0 0 Z " transform="matrix(1, 0, 0, 1, 101.99999999999997, 262)" style="fill: url(#gradient-48-41);" id="object-41"/>
    <path d="M0 0 C0.99 0 1.98 0 3 0 C1.92598892 2.91517292 1.22189824 4.77810176 -1 7 C-1.99 6.34 -2.98 5.68 -4 5 C-2.1875 2.5 -2.1875 2.5 0 0 Z " transform="matrix(1, 0, 0, 1, 108.99999999999997, 178.99999999999997)" style="fill: url(#gradient-48-42);" id="object-42"/>
    <path d="M0 0 C0.33 0.99 0.66 1.98 1 3 C-1.31 4.98 -3.62 6.96 -6 9 C-6 6 -6 6 -4.6875 4.39453125 C-4.130625 3.87246094 -3.57375 3.35039062 -3 2.8125 C-2.443125 2.28269531 -1.88625 1.75289062 -1.3125 1.20703125 C-0.6628125 0.60955078 -0.6628125 0.60955078 0 0 Z " transform="matrix(1, 0, 0, 1, 104.99999999999997, 148)" style="fill: url(#gradient-48-43);" id="object-43"/>
    <path d="M0 0 C0.33 0.99 0.66 1.98 1 3 C-0.375 4.5 -0.375 4.5 -2 6 C-3.66666667 6 -5.33333333 6 -7 6 C-6.67 4.68 -6.34 3.36 -6 2 C-5.67 2.66 -5.34 3.32 -5 4 C-3.35 2.68 -1.7 1.36 0 0 Z " transform="matrix(1, 0, 0, 1, 96.99999999999997, 215.99999999999997)" style="fill: url(#gradient-48-44);" id="object-44"/>
    <path d="M0 0 C1.32 0.66 2.64 1.32 4 2 C3.34 3.32 2.68 4.64 2 6 C1.01 5.34 0.02 4.68 -1 4 C-0.67 2.68 -0.34 1.36 0 0 Z " transform="matrix(1, 0, 0, 1, 74.99999999999997, 275)" style="fill: url(#gradient-48-45);" id="object-45"/>
    <path d="M0 0 C1.32 0.33 2.64 0.66 4 1 C3.34 2.32 2.68 3.64 2 5 C-1 5 -1 5 -3 4 C-2.01 2.68 -1.02 1.36 0 0 Z " transform="matrix(1, 0, 0, 1, 107.99999999999997, 231.99999999999997)" style="fill: url(#gradient-48-46);" id="object-46"/>
    <path d="M0 0 C0.33 0.99 0.66 1.98 1 3 C-0.98 4.32 -2.96 5.64 -5 7 C-5.66 6.67 -6.32 6.34 -7 6 C-4.69 4.02 -2.38 2.04 0 0 Z " transform="matrix(1, 0, 0, 1, 106.99999999999997, 202.99999999999997)" style="fill: url(#gradient-48-47);" id="object-47"/>
</svg>