<?xml version="1.0" encoding="utf-8"?>
<svg xmlns="http://www.w3.org/2000/svg" viewBox="0 81.702 512.001 348.596" width="800.002px" height="544.681px">
			<path d="M256.005,125.277c-72.081,0-130.723,58.643-130.723,130.723c0,28.927,9.265,56.345,26.794,79.288 c2.74,3.585,7.867,4.272,11.452,1.533c3.586-2.74,4.273-7.867,1.533-11.452c-15.334-20.069-23.439-44.057-23.439-69.368 c0-63.071,51.312-114.383,114.383-114.383S370.388,192.929,370.388,256c0,63.071-51.312,114.383-114.383,114.383 c-25.311,0-49.299-8.105-69.368-23.439c-3.585-2.74-8.713-2.052-11.454,1.532c-2.74,3.586-2.053,8.713,1.532,11.452 c22.944,17.53,50.362,26.795,79.29,26.795c72.081,0,130.723-58.643,130.723-130.723S328.086,125.277,256.005,125.277z" fill="#9E0927"/>
			<path d="M256.005,81.702c-96.109,0-174.298,78.19-174.298,174.298s78.189,174.298,174.298,174.298S430.303,352.108,430.303,256 S352.113,81.702,256.005,81.702z M256.005,413.957c-87.098,0-157.957-70.86-157.957-157.957s70.86-157.957,157.957-157.957 S413.963,168.902,413.963,256S343.103,413.957,256.005,413.957z" fill="#9E0927"/>
			<path d="M73.532,81.702c-4.513,0-8.17,3.658-8.17,8.17v51.745h-16.34V89.872c0-4.512-3.657-8.17-8.17-8.17s-8.17,3.658-8.17,8.17 v51.745H16.34V89.872c0-4.512-3.657-8.17-8.17-8.17S0,85.36,0,89.872v81.702c0,12.888,6.157,25.01,16.34,32.67v201.543 c0,13.516,10.996,24.511,24.511,24.511c13.515,0,24.511-10.995,24.511-24.511V204.244c10.183-7.66,16.34-19.782,16.34-32.67 V89.872C81.702,85.36,78.045,81.702,73.532,81.702z M65.362,171.574c0,8.716-4.698,16.849-12.263,21.226 c-2.523,1.461-4.077,4.156-4.077,7.072v205.914c0,4.506-3.665,8.17-8.17,8.17s-8.17-3.665-8.17-8.17V199.873 c0-2.916-1.555-5.61-4.077-7.071c-7.565-4.378-12.263-12.511-12.263-21.227v-13.617h49.021V171.574z" fill="#9E0927"/>
			<path d="M479.319,81.702c-18.02,0-32.681,14.661-32.681,32.681v128c0,18.02,14.661,32.681,32.681,32.681h16.34v130.723 c0,4.506-3.665,8.17-8.17,8.17c-4.506,0-8.17-3.665-8.17-8.171l-0.011-106.213c0-4.512-3.658-8.17-8.171-8.169 c-4.512,0-8.169,3.658-8.169,8.171l0.011,106.212c0,13.516,10.996,24.511,24.511,24.511c13.515,0,24.511-10.995,24.511-24.511 V114.383C512,96.363,497.339,81.702,479.319,81.702z M495.66,258.723h-16.34c-9.01,0-16.34-7.33-16.34-16.34v-128 c0-9.01,7.33-16.34,16.34-16.34s16.34,7.33,16.34,16.34V258.723z" fill="#9E0927"/>

</svg>