<?xml version="1.0" encoding="utf-8"?><!-- Uploaded to: SVG Repo, www.svgrepo.com, Generator: SVG Repo Mixer Tools -->
<svg width="800px" height="800px" viewBox="0 0 24 24" fill="none" xmlns="http://www.w3.org/2000/svg">
<path d="M20 20L22 22" stroke="#9E0927" stroke-width="1.5" stroke-linecap="round"/>
<path d="M6.75 3.27093C8.14732 2.46262 9.76964 2 11.5 2C16.7467 2 21 6.25329 21 11.5C21 16.7467 16.7467 21 11.5 21C6.25329 21 2 16.7467 2 11.5C2 9.76964 2.46262 8.14732 3.27093 6.75" stroke="#9E0927" stroke-width="1.5" stroke-linecap="round"/>
<path d="M10.125 8.875C10.125 7.83947 10.9645 7 12 7C13.0355 7 13.875 7.83947 13.875 8.875C13.875 9.56245 13.505 10.1635 12.9534 10.4899C12.478 10.7711 12 11.1977 12 11.75V13" stroke="#9E0927" stroke-width="1.5" stroke-linecap="round"/>
<circle cx="12" cy="16" r="1" fill="#9E0927"/>
</svg>