<?xml version="1.0" encoding="utf-8"?>
<svg xmlns="http://www.w3.org/2000/svg" viewBox="31.6273 70.9895 448.7692 446.6824" width="448.7692px" height="446.6824px">
  <path d="M 0 0 C 2.5 2.125 2.5 2.125 4.5 5.125 C 7.394 5.338 7.394 5.338 10.688 5.063 C 16.753 4.935 19.774 5.304 24.5 9.125 C 30.672 15.983 32.082 26.373 31.785 35.336 C 31.207 40.995 30.449 47.262 27.192 52.047 C 24.026 56.751 23.145 59.64 24.141 65.297 C 24.644 67.497 25.181 69.69 25.75 71.875 C 26.284 74.076 26.811 76.279 27.328 78.484 C 27.575 79.448 27.821 80.412 28.075 81.405 C 28.727 85.578 27.631 89.137 26.25 93.063 C 26.039 93.69 25.827 94.318 25.609 94.965 C 24.5 97.125 24.5 97.125 21.961 99.523 C 17.85 104.315 18.575 110.817 18.375 116.813 C 18.24 119.426 18.1 122.039 17.953 124.652 C 17.848 126.564 17.848 126.564 17.74 128.515 C 16.047 153.962 16.047 153.962 8.25 162.625 C 4.582 164.626 1.657 164.843 -2.5 165.125 C -1.716 173.399 -1.716 173.399 2.645 180.078 C 4.357 181.035 6.098 181.941 7.863 182.797 C 12.784 185.275 16.663 189.219 20.461 193.16 C 26.67 199.143 34.996 202.387 42.878 205.589 C 51.96 209.363 56.135 214.72 60.008 223.57 C 66.212 238.895 69.738 255.078 69.563 271.625 C 69.556 272.859 69.556 272.859 69.549 274.117 C 69.537 276.12 69.519 278.122 69.5 280.125 C 70.77 280.102 72.039 280.079 73.348 280.055 C 83.941 279.923 94.045 280.351 104.5 282.125 C 103.993 281.091 103.993 281.091 103.477 280.035 C 95.411 263.041 96.496 248.433 102.609 230.953 C 104.101 224.543 103.859 218.02 103.891 211.461 C 104.038 204.697 104.62 198.849 108.5 193.125 C 110.754 191.547 110.754 191.547 113.063 190.875 C 115.938 189.802 117.358 189.267 119.563 187.063 C 121.699 180.369 120.517 173.249 119.813 166.375 C 119.369 160.872 119.491 157.784 122.5 153.125 C 123.543 152.464 124.586 151.802 125.66 151.121 C 127.819 149.364 128.44 148.591 128.8 145.793 C 128.637 142.89 128.294 140.065 127.875 137.188 C 127.631 135.126 127.391 133.063 127.156 131 C 126.976 129.498 126.976 129.498 126.793 127.965 C 126.214 122.354 126.324 116.758 126.5 111.125 C 125.716 111.166 124.933 111.208 124.125 111.25 C 121.5 111.125 121.5 111.125 119.5 109.125 C 119.607 105.483 121.05 103.143 123 100.188 C 126.005 95.555 126.54 92.005 126.422 86.48 C 126.412 82.016 127.097 77.812 127.938 73.438 C 128.14 72.338 128.14 72.338 128.346 71.217 C 128.894 68.252 129.446 65.324 130.242 62.414 C 130.588 59.346 129.685 57.857 128.188 55.188 C 122.542 44.98 121.272 34.026 123.777 22.629 C 125.788 15.661 128.548 11.304 134.5 7.125 C 137.448 6.142 139.427 5.991 142.5 6 C 143.366 5.997 144.233 5.995 145.125 5.992 C 147.5 6.125 147.5 6.125 150.5 7.125 C 150.809 6.259 150.809 6.259 151.125 5.375 C 153.808 0.984 157.43 -0.612 162.313 -1.812 C 167.086 -2.178 171.285 -1.119 175.5 1.125 C 178.413 3.72 180.344 6.891 182.5 10.125 C 183.341 9.41 183.341 9.41 184.199 8.68 C 188.013 6.102 191.978 6.013 196.5 6.125 C 202.843 7.997 206.558 11.282 210.25 16.688 C 211.379 18.888 211.955 20.736 212.5 23.125 C 213.224 23.079 213.949 23.032 214.695 22.984 C 220.875 22.754 224.709 22.791 229.5 27.125 C 235.62 33.364 236.92 38.709 236.861 47.325 C 236.54 58.746 230.462 68.163 222.5 76.125 C 222.027 78.221 221.56 80.32 221.133 82.426 C 220.187 86.46 218.797 90.322 217.453 94.238 C 216.266 97.835 215.351 101.436 214.5 105.125 C 215.224 105.465 215.949 105.806 216.695 106.156 C 224.52 110.079 229.654 113.896 232.621 122.301 C 233.636 126.716 233.868 130.864 234 135.375 C 234.194 149.73 234.194 149.73 240.5 162.125 C 246.419 167.415 252.947 169.05 260.5 171.125 C 262.731 171.739 264.96 172.358 267.186 172.988 C 268.65 173.402 270.117 173.807 271.587 174.199 C 279.019 176.294 283.962 179.948 288.5 186.125 C 292.975 195.638 290.172 206.057 287.835 215.83 C 286.297 222.618 285.875 228.808 289 235.188 C 292.471 239.266 296.447 242.639 300.5 246.125 C 306.947 251.986 312.854 260.214 313.82 269.055 C 313.988 273.616 314.069 277.033 311.938 281.125 C 308.94 283.585 305.943 285.337 302.5 287.125 C 302.83 288.198 303.16 289.27 303.5 290.375 C 305.045 296.61 306.086 304.033 303.086 309.883 C 299.561 314.866 295.341 316.041 289.5 317.125 C 286.681 317.362 283.89 317.361 281.063 317.32 C 280.297 317.317 279.531 317.315 278.743 317.312 C 276.328 317.301 273.914 317.276 271.5 317.25 C 269.85 317.24 268.201 317.231 266.551 317.223 C 262.534 317.201 258.517 317.166 254.5 317.125 C 254.606 318.354 254.606 318.354 254.714 319.608 C 255.285 326.545 255.666 333.415 255.625 340.375 C 255.618 341.706 255.618 341.706 255.61 343.064 C 255.586 345.752 255.547 348.438 255.5 351.125 C 255.487 351.958 255.475 352.792 255.462 353.65 C 255.416 355.977 255.34 358.3 255.25 360.625 C 255.236 361.312 255.222 362 255.208 362.708 C 255.045 365.934 254.501 368.123 252.953 370.969 C 247.872 375.435 240.95 375.416 234.458 375.32 C 233.697 375.317 232.936 375.314 232.153 375.311 C 230.513 375.304 228.874 375.292 227.234 375.275 C 224.62 375.25 222.005 375.237 219.391 375.227 C 212.889 375.2 206.388 375.152 199.887 375.104 C 194.397 375.064 188.908 375.033 183.418 375.013 C 180.878 375 178.337 374.975 175.797 374.95 C 166.795 374.894 158.003 375.3 149.064 376.42 C 136.074 378.02 136.074 378.02 130.625 376.125 C 127.415 375.098 125.276 375.085 121.938 375.188 C 118.644 375.232 116.578 375.152 113.438 374.063 C 109.97 370.595 109.562 366.15 109.273 361.393 C 109.289 359.437 109.289 359.437 109.305 357.441 C 109.308 356.741 109.31 356.041 109.313 355.319 C 109.324 353.108 109.349 350.898 109.375 348.688 C 109.385 347.178 109.394 345.668 109.402 344.158 C 109.424 340.48 109.459 336.803 109.5 333.125 C 106.708 335.277 104.512 337.109 102.375 339.938 C 96.986 346.614 87.902 351.536 79.5 353.125 C 77.5 353.166 75.499 353.173 73.5 353.125 C 73.535 354.248 73.57 355.371 73.605 356.527 C 73.999 374.621 73.999 374.621 69.207 380.789 C 64.438 384.521 57.366 383.115 51.68 382.965 C 48.341 382.861 48.341 382.861 45.5 385.125 C 43.41 385.379 43.41 385.379 40.961 385.384 C 40.034 385.39 39.107 385.396 38.152 385.403 C 37.141 385.399 36.131 385.395 35.09 385.391 C 34.032 385.393 32.974 385.396 31.883 385.399 C 28.401 385.403 24.92 385.39 21.438 385.375 C 20.247 385.372 19.056 385.369 17.828 385.367 C -21.759 385.259 -61.152 383.026 -100.437 378.125 C -101.693 377.971 -102.949 377.817 -104.243 377.659 C -125.183 374.916 -125.183 374.916 -131.5 368.125 C -135.283 362.482 -134.918 357.045 -134.812 350.5 C -134.803 349.376 -134.794 348.252 -134.785 347.094 C -134.306 313.544 -134.306 313.544 -131.5 305.125 C -130.84 305.125 -130.18 305.125 -129.5 305.125 C -129.654 304.326 -129.808 303.526 -129.967 302.703 C -130.604 298.425 -130.837 294.196 -131.035 289.879 C -131.078 288.991 -131.121 288.103 -131.165 287.187 C -131.255 285.309 -131.343 283.431 -131.43 281.552 C -131.561 278.728 -131.699 275.904 -131.838 273.08 C -133.166 245.388 -133.166 245.388 -131.75 232.438 C -131.663 231.639 -131.575 230.84 -131.486 230.017 C -130.383 220.954 -128.461 210.593 -121.5 204.125 C -112.772 198.751 -103.009 195.69 -93.324 192.545 C -90.841 191.739 -88.364 190.919 -85.887 190.098 C -84.308 189.577 -82.728 189.058 -81.148 188.539 C -80.409 188.295 -79.669 188.052 -78.908 187.801 C -73.735 186.125 -73.735 186.125 -71.5 186.125 C -71.459 185.548 -71.417 184.97 -71.375 184.375 C -69.793 180.308 -65.867 178.756 -62.062 177 C -60.048 176.312 -57.997 175.729 -55.937 175.188 C -52.709 174.189 -51.122 173.114 -48.5 171.125 C -47.18 171.125 -45.86 171.125 -44.5 171.125 C -44.256 168.579 -44.021 166.032 -43.797 163.484 C -43.59 161.14 -43.37 158.796 -43.141 156.453 C -43.032 155.231 -42.924 154.009 -42.812 152.75 C -42.652 151.037 -42.652 151.037 -42.488 149.289 C -42.5 145.995 -43.17 144.094 -44.5 141.125 C -44.625 137.813 -44.625 137.813 -44.5 135.125 C -45.057 135.063 -45.614 135.001 -46.187 134.938 C -49.988 133.602 -52.453 130.772 -54.59 127.41 C -56.281 123.165 -56.365 118.561 -56.84 114.047 C -57.448 110.436 -58.367 107.523 -59.713 104.156 C -61.031 100.755 -61.995 97.254 -63 93.75 C -63.219 93.006 -63.439 92.262 -63.665 91.496 C -64.578 88.391 -65.458 85.301 -66.207 82.152 C -67.698 76.081 -70.441 72.438 -74.496 67.719 C -81.356 58.84 -83.393 49.103 -82.5 38.125 C -80.832 31.323 -77.197 27.054 -71.5 23.125 C -69.147 21.949 -67.679 21.991 -65.062 22 C -63.889 21.996 -63.889 21.996 -62.691 21.992 C -60.5 22.125 -60.5 22.125 -57.5 23.125 C -57.479 22.135 -57.459 21.145 -57.437 20.125 C -56.681 14.881 -53.352 11.538 -49.5 8.125 C -44.572 5.258 -40.1 4.272 -34.5 5.125 C -32.016 5.944 -29.851 6.95 -27.5 8.125 C -26.778 7.032 -26.056 5.939 -25.312 4.813 C -19.16 -3.791 -9.073 -4.86 0 0 Z M 154.625 6.875 C 152.992 10.141 153.777 12.701 154.5 16.125 C 155.744 22.872 156.764 29.254 156.5 36.125 C 155.51 36.125 154.52 36.125 153.5 36.125 C 153.535 35.196 153.57 34.266 153.605 33.309 C 153.987 23.739 153.987 23.739 150.5 15.125 C 146.816 12.055 143.24 11.374 138.5 11.125 C 134.409 11.847 132.932 12.609 130.25 15.813 C 125.496 24.81 124.68 35.861 127.516 45.621 C 128.726 48.541 130.034 51.326 131.5 54.125 C 131.898 55.151 132.296 56.178 132.706 57.235 C 134.207 60.37 134.207 60.37 137.242 60.926 C 138.347 60.953 139.452 60.98 140.59 61.008 C 141.835 61.058 143.08 61.109 144.363 61.161 C 145.358 61.182 145.358 61.182 146.373 61.204 C 149.9 61.282 153.422 61.455 156.945 61.625 C 157.665 61.658 158.384 61.691 159.125 61.725 C 166.102 62.082 172.923 63.118 179.813 64.25 C 189.162 65.727 198.28 66.499 207.75 66.5 C 208.815 66.501 209.88 66.503 210.978 66.504 C 216.768 66.422 222.044 66.152 227.5 64.125 C 229.455 61.961 229.455 61.961 230.438 59.25 C 230.818 58.386 231.198 57.523 231.59 56.633 C 233.023 52.683 233.655 49.337 233.688 45.125 C 233.702 44.279 233.716 43.434 233.73 42.563 C 233.372 38.774 232.265 36.851 229.512 34.238 C 228.745 33.644 227.978 33.05 227.188 32.438 C 226.428 31.836 225.669 31.234 224.887 30.613 C 222.328 29.017 220.492 28.401 217.5 28.125 C 213.786 29.805 211.62 31.676 209.5 35.125 C 208.826 37.734 208.27 40.232 207.813 42.875 C 207.618 43.921 207.618 43.921 207.42 44.988 C 207.104 46.699 206.8 48.412 206.5 50.125 C 205.84 50.125 205.18 50.125 204.5 50.125 C 204.785 47.937 205.079 45.749 205.375 43.563 C 205.549 42.279 205.723 40.995 205.902 39.672 C 206.364 36.932 206.887 34.835 207.938 32.313 C 208.703 27.974 207.354 25.855 205.055 22.207 C 201.952 18.052 198.885 15.729 194.063 13.625 C 189.558 12.993 187.409 13.87 183.5 16.125 C 179.798 19.754 179.371 24.42 178.438 29.313 C 178.121 30.953 177.797 32.593 177.465 34.23 C 177.327 34.954 177.189 35.677 177.047 36.423 C 176.866 36.984 176.686 37.546 176.5 38.125 C 175.51 38.62 175.51 38.62 174.5 39.125 C 174.705 37.846 174.91 36.568 175.121 35.25 C 175.393 33.542 175.665 31.833 175.938 30.125 C 176.072 29.286 176.207 28.447 176.346 27.582 C 176.74 25.098 177.122 22.612 177.5 20.125 C 177.623 19.367 177.745 18.61 177.871 17.829 C 178.42 14.141 178.606 12.365 177.063 8.875 C 173.306 4.843 169.271 2.576 163.813 1.688 C 159.956 2.417 157.458 4.231 154.625 6.875 Z M -21.5 7.125 C -23.778 9.088 -23.778 9.088 -24.5 12.125 C -24.26 14.765 -23.754 17.267 -23.184 19.855 C -22.388 23.659 -21.866 27.46 -21.375 31.313 C -21.124 33.252 -21.124 33.252 -20.867 35.23 C -20.685 36.663 -20.685 36.663 -20.5 38.125 C -21.49 37.63 -21.49 37.63 -22.5 37.125 C -22.904 35.271 -22.904 35.271 -23.148 32.863 C -24.127 22.771 -24.127 22.771 -29.184 14.43 C -33.655 12.118 -37.357 11.18 -42.375 10.938 C -47.786 12.994 -51.118 15.642 -53.5 20.875 C -54.726 24.77 -54.344 27.463 -53.25 31.34 C -52.241 35.086 -51.569 38.873 -50.875 42.688 C -50.612 44.106 -50.349 45.523 -50.086 46.941 C -49.893 47.992 -49.699 49.043 -49.5 50.125 C -50.49 50.125 -51.48 50.125 -52.5 50.125 C -52.621 49.268 -52.742 48.411 -52.867 47.527 C -53.61 37.303 -53.61 37.303 -58.125 28.688 C -63.359 27.448 -67.017 27.355 -71.75 29.813 C -76.62 33.907 -79.238 37.193 -79.812 43.625 C -79.639 54.109 -73.681 62.803 -67.437 70.75 C -65.597 72.384 -65.597 72.384 -63.344 71.852 C -60.597 71.15 -57.894 70.344 -55.183 69.513 C -45.898 66.721 -36.495 64.94 -26.937 63.375 C -25.654 63.165 -24.37 62.954 -23.047 62.737 C -12.472 61.05 -2.137 59.974 8.563 59.563 C 10.147 59.498 10.147 59.498 11.764 59.432 C 14.342 59.327 16.921 59.224 19.5 59.125 C 20.651 56.877 21.796 54.627 22.938 52.375 C 23.426 51.424 23.426 51.424 23.924 50.453 C 28.47 41.454 29.109 30.722 26.711 20.891 C 25.195 16.98 23.753 13.862 20.5 11.125 C 17.451 10.109 15.196 9.927 12 9.875 C 10.561 9.836 10.561 9.836 9.094 9.797 C 6.495 9.913 6.495 9.913 4.762 11.398 C -0.353 18.397 0.155 26.847 0.5 35.125 C -0.49 35.125 -1.48 35.125 -2.5 35.125 C -2.385 32.624 -2.26 30.125 -2.125 27.625 C -2.087 26.89 -2.049 26.156 -2.009 25.399 C -1.774 21.541 -1.379 18.122 -0.125 14.438 C 0.081 13.344 0.288 12.251 0.5 11.125 C -2.384 7.069 -5.924 4.975 -10.5 3.125 C -15.141 3.125 -17.842 4.47 -21.5 7.125 Z M -62.5 75.125 C -63.16 76.115 -63.82 77.105 -64.5 78.125 C -63.699 81.364 -63.699 81.364 -62.25 84.875 C -60.43 89.599 -58.826 94.246 -57.5 99.125 C -56.553 98.489 -56.553 98.489 -55.586 97.84 C -35.877 84.919 -14.047 76.331 9.846 80.538 C 12.94 81.297 15.921 82.271 18.918 83.348 C 21.578 84.419 21.578 84.419 24.5 83.125 C 24.077 80.185 23.638 77.249 23.188 74.313 C 23.011 73.062 23.011 73.062 22.83 71.787 C 22.642 70.583 22.642 70.583 22.449 69.355 C 22.339 68.617 22.229 67.879 22.116 67.118 C 21.368 64.699 20.497 63.663 18.5 62.125 C -5.515 59.071 -40.857 64.108 -62.5 75.125 Z M 134.199 64.746 C 132.076 67.719 131.701 69.95 131.25 73.563 C 131.1 74.675 130.951 75.787 130.797 76.934 C 130.54 79.692 130.438 82.358 130.5 85.125 C 131.579 84.836 132.658 84.548 133.77 84.25 C 156.42 78.507 178.512 80.006 198.988 92.152 C 201.243 93.523 203.465 94.931 205.688 96.355 C 207.924 97.763 210.112 99.005 212.5 100.125 C 213.148 97.417 213.794 94.709 214.438 92 C 214.62 91.239 214.802 90.479 214.99 89.695 C 215.98 85.521 216.856 81.37 217.5 77.125 C 201.567 69.298 150.227 53.453 134.199 64.746 Z M 157.5 83.125 C 157.17 84.775 156.84 86.425 156.5 88.125 C 157.16 87.465 157.82 86.805 158.5 86.125 C 158.17 85.135 157.84 84.145 157.5 83.125 Z M -21.5 84.125 C -21.5 84.455 -21.5 84.785 -21.5 85.125 C -15.56 86.115 -15.56 86.115 -9.5 87.125 C -12.363 84.262 -14.159 84.131 -18.187 84.063 C -19.281 84.083 -20.374 84.104 -21.5 84.125 Z M 142.5 85.125 C 143.5 87.125 143.5 87.125 143.5 87.125 L 142.5 85.125 Z M -7.5 88.125 C -5.69 89.753 -5.69 89.753 -3.5 91.125 C -2.51 90.795 -1.52 90.465 -0.5 90.125 C -3.147 88.664 -4.394 88.125 -7.5 88.125 Z M 155.5 88.125 C 155.5 91.125 155.5 91.125 155.5 91.125 L 155.5 88.125 Z M 164.5 88.125 C 164.108 89.012 163.716 89.899 163.313 90.813 C 158.312 99.952 148.122 105.727 138.5 109.125 C 135.843 109.839 133.177 110.485 130.5 111.125 C 129.994 129.418 129.936 149.328 142.375 164.125 C 147.105 168.988 151.174 172.24 158.188 172.688 C 164.557 172.408 169.846 169.893 175.5 167.125 C 176.896 166.473 176.896 166.473 178.32 165.809 C 188.529 160.704 197.215 153.331 202.5 143.125 C 202.5 142.465 202.5 141.805 202.5 141.125 C 201.861 141.022 201.221 140.919 200.563 140.813 C 199.882 140.586 199.201 140.359 198.5 140.125 C 198.17 139.135 197.84 138.145 197.5 137.125 C 198.08 137.244 198.66 137.362 199.258 137.484 C 203.449 138.176 205.811 138.443 209.75 136.625 C 215.04 131.816 218.209 127.653 218.633 120.328 C 218.335 115.383 216.192 112.028 213.25 108.188 C 210.593 105.861 210.593 105.861 207 105.563 C 202.922 106.218 201.322 107.142 198.5 110.125 C 196.982 113.09 196.5 114.783 196.5 118.125 C 195.015 118.62 195.015 118.62 193.5 119.125 C 193.17 119.785 192.84 120.445 192.5 121.125 C 191.972 119.93 191.972 119.93 191.434 118.711 C 187.806 110.925 184.558 106.181 177.23 101.754 C 171.253 98.096 168.339 94.545 165.5 88.125 C 165.17 88.125 164.84 88.125 164.5 88.125 Z M 180.5 88.125 C 180.83 88.785 181.16 89.445 181.5 90.125 C 182.16 89.795 182.82 89.465 183.5 89.125 C 182.51 88.795 181.52 88.465 180.5 88.125 Z M 183.5 90.125 C 185.398 92.475 185.398 92.475 188.625 92.25 C 189.574 92.209 190.523 92.168 191.5 92.125 C 191.5 91.795 191.5 91.465 191.5 91.125 C 188.86 90.795 186.22 90.465 183.5 90.125 Z M -0.5 91.125 C 2.51 94.135 4.729 94.103 8.953 94.223 C 10.206 94.211 11.459 94.199 12.75 94.188 C 14.013 94.178 15.277 94.169 16.578 94.16 C 18.024 94.143 18.024 94.143 19.5 94.125 C 19.83 93.465 20.16 92.805 20.5 92.125 C 19.106 92.142 19.106 92.142 17.684 92.16 C 5.405 92.25 5.405 92.25 -0.5 91.125 Z M -38.5 92.125 C -38.5 95.125 -38.5 95.125 -38.5 95.125 L -38.5 92.125 Z M 150.5 93.125 C 150.17 93.785 149.84 94.445 149.5 95.125 C 150.49 94.795 151.48 94.465 152.5 94.125 C 151.84 93.795 151.18 93.465 150.5 93.125 Z M -40.5 95.125 C -41.854 97.834 -41.565 100.134 -41.5 103.125 C -40.071 100.771 -39.413 99.645 -39.875 96.875 C -40.081 96.298 -40.287 95.72 -40.5 95.125 Z M -12.5 98.125 C -12.912 99.074 -13.325 100.023 -13.75 101 C -15.617 104.333 -16.054 104.898 -19.5 106.125 C -22.516 106.32 -22.516 106.32 -25.75 106.25 C -26.828 106.232 -27.905 106.214 -29.016 106.195 C -29.835 106.172 -30.655 106.149 -31.5 106.125 C -31.693 106.956 -31.887 107.788 -32.086 108.645 C -32.346 109.731 -32.607 110.818 -32.875 111.938 C -33.13 113.016 -33.385 114.095 -33.648 115.207 C -34.5 118.125 -34.5 118.125 -36.5 121.125 C -36.919 123.269 -36.919 123.269 -37.062 125.563 C -37.308 128.524 -37.71 131.258 -38.5 134.125 C -39.16 134.125 -39.82 134.125 -40.5 134.125 C -41.165 139.396 -41.165 139.396 -39.258 144.191 C -37.448 146.322 -35.551 148.226 -33.5 150.125 C -32.848 150.746 -32.195 151.368 -31.523 152.008 C -23.336 159.092 -12.701 163.059 -1.844 162.484 C 2.346 161.842 5.288 160.534 8.059 157.313 C 15.008 146.766 14.838 129.297 14.5 117.125 C 11.2 117.455 7.9 117.785 4.5 118.125 C 4.5 117.135 4.5 116.145 4.5 115.125 C 8.13 115.125 11.76 115.125 15.5 115.125 C 15.5 110.835 15.5 106.545 15.5 102.125 C 13.976 102.069 13.976 102.069 12.422 102.012 C 3.782 101.623 -4.167 100.634 -12.5 98.125 Z M 134.5 98.125 C 134.5 98.455 134.5 98.785 134.5 99.125 C 136.387 99.187 136.387 99.187 138.313 99.25 C 139.02 99.273 139.728 99.296 140.457 99.32 C 142.814 99.258 142.814 99.258 145.5 97.125 C 141.713 97.125 138.235 97.55 134.5 98.125 Z M -54.5 101.125 C -54.5 102.445 -54.5 103.765 -54.5 105.125 C -53.84 105.125 -53.18 105.125 -52.5 105.125 C -53.16 103.805 -53.82 102.485 -54.5 101.125 Z M -50.5 111.125 C -46.5 112.125 -46.5 112.125 -46.5 112.125 L -50.5 111.125 Z M -50.125 116.375 C -51.756 118.451 -52.349 119.476 -52.5 122.125 C -50.886 126.203 -49.026 129.454 -45.5 132.125 C -43.343 132.211 -43.343 132.211 -41.5 131.125 C -39.199 127.673 -39.362 126.89 -39.875 122.938 C -39.986 122.036 -40.097 121.135 -40.211 120.207 C -40.306 119.52 -40.402 118.833 -40.5 118.125 C -42.086 119.934 -42.086 119.934 -43.5 122.125 C -43.274 125.317 -43.274 125.317 -42.5 128.125 C -43.49 128.125 -44.48 128.125 -45.5 128.125 C -46.125 124.75 -46.125 124.75 -46.5 121.125 C -45.84 120.465 -45.18 119.805 -44.5 119.125 C -44.819 117.017 -44.819 117.017 -45.5 115.125 C -48.445 114.82 -48.445 114.82 -50.125 116.375 Z M 223.5 118.125 C 224.16 118.785 224.82 119.445 225.5 120.125 C 225.5 119.465 225.5 118.805 225.5 118.125 C 224.84 118.125 224.18 118.125 223.5 118.125 Z M 225.5 120.125 C 226.5 122.125 226.5 122.125 226.5 122.125 L 225.5 120.125 Z M 226.5 122.125 C 227.5 124.125 227.5 124.125 227.5 124.125 L 226.5 122.125 Z M 227.5 124.125 C 227.523 125.297 227.546 126.469 227.57 127.676 C 227.677 135.561 227.568 142.86 225.887 150.598 C 224.902 157.035 225.911 163.204 228.5 169.125 C 229.833 166.125 229.833 166.125 228.5 163.125 C 228.132 156.137 228.094 149.239 229.563 142.375 C 230.72 136.897 230.7 131.61 229.5 126.125 C 228.84 125.465 228.18 124.805 227.5 124.125 Z M 214.5 143.125 C 215.5 146.125 215.5 146.125 215.5 146.125 L 214.5 143.125 Z M 215.5 146.125 C 215.367 146.956 215.234 147.788 215.098 148.645 C 214.921 149.731 214.744 150.818 214.563 151.938 C 214.388 153.016 214.214 154.095 214.035 155.207 C 213.5 158.125 213.5 158.125 212.5 161.125 C 212.432 162.853 212.415 164.583 212.438 166.313 C 212.447 167.214 212.456 168.115 212.465 169.043 C 212.476 169.73 212.488 170.417 212.5 171.125 C 212.83 171.125 213.16 171.125 213.5 171.125 C 213.633 170.294 213.766 169.462 213.902 168.605 C 214.079 167.519 214.256 166.432 214.438 165.313 C 214.612 164.234 214.786 163.155 214.965 162.043 C 215.5 159.125 215.5 159.125 216.5 156.125 C 216.568 154.397 216.585 152.667 216.563 150.938 C 216.553 150.036 216.544 149.135 216.535 148.207 C 216.524 147.52 216.512 146.833 216.5 146.125 C 216.17 146.125 215.84 146.125 215.5 146.125 Z M -38.5 150.125 C -39.005 153.208 -39.503 156.291 -40 159.375 C -40.143 160.248 -40.286 161.12 -40.434 162.02 C -40.569 162.864 -40.704 163.708 -40.844 164.578 C -40.969 165.353 -41.095 166.128 -41.225 166.927 C -41.583 169.417 -41.583 169.417 -41.5 173.125 C -35.431 176.846 -29.262 178.922 -22.375 180.5 C -21.624 180.68 -20.872 180.859 -20.098 181.044 C -14.497 182.248 -8.804 182.777 -3.5 180.125 C -3.705 178.187 -3.705 178.187 -4.5 176.125 C -6.211 174.806 -6.211 174.806 -8.402 173.863 C -9.206 173.471 -10.01 173.079 -10.838 172.675 C -11.696 172.267 -12.554 171.858 -13.437 171.438 C -23.704 166.293 -32.459 160.894 -37.5 150.125 C -37.83 150.125 -38.16 150.125 -38.5 150.125 Z M 188.5 163.125 C 187.441 164.386 186.428 165.685 185.438 167 C 184.89 167.719 184.342 168.439 183.777 169.18 C 182.317 171.016 182.317 171.016 182.5 173.125 C 181.607 173.537 181.607 173.537 180.695 173.957 C 178.594 175.075 177.12 176.212 175.375 177.813 C 172.45 180.438 169.389 182.474 166.063 184.563 C 163.494 186.213 163.494 186.213 161.5 188.125 C 160.66 191.926 160.66 191.926 161.5 195.125 C 169.273 199.012 180.29 195.527 188.285 193.488 C 192.028 191.901 193.582 190.711 195.5 187.125 C 195.183 184.081 195.183 184.081 193.875 181 C 191.779 175.069 190.446 169.334 189.5 163.125 C 189.17 163.125 188.84 163.125 188.5 163.125 Z M 229.5 169.125 C 229.83 170.115 230.16 171.105 230.5 172.125 C 230.5 171.135 230.5 170.145 230.5 169.125 C 230.17 169.125 229.84 169.125 229.5 169.125 Z M 213.5 171.125 C 214.5 173.125 214.5 173.125 214.5 173.125 L 213.5 171.125 Z M 214.5 173.125 C 215.5 175.125 215.5 175.125 215.5 175.125 L 214.5 173.125 Z M -48.289 174.805 C -52.087 177.277 -53.334 178.439 -54.437 183 C -54.492 184.708 -54.507 186.417 -54.5 188.125 C -54.548 189.314 -54.595 190.502 -54.645 191.727 C -54.921 201.934 -54.361 209.967 -47.164 217.625 C -40.631 223.514 -32.497 225.624 -23.852 225.371 C -15.906 224.54 -8.388 221.614 -2.5 216.125 C -0.836 213.561 -0.135 211.099 0.5 208.125 C 0.802 206.8 0.802 206.8 1.109 205.449 C 2.869 196.854 3.502 190.128 -0.5 182.125 C -1.242 182.455 -1.985 182.785 -2.75 183.125 C -15.94 186.642 -29.862 182.595 -41.547 176.176 C -44.784 174.33 -44.784 174.33 -48.289 174.805 Z M 215.5 175.125 C 216.5 177.125 216.5 177.125 216.5 177.125 L 215.5 175.125 Z M 234.5 175.125 C 237.179 178.663 240.832 179.266 244.938 180.25 C 245.606 180.419 246.274 180.588 246.963 180.762 C 248.806 181.226 250.653 181.676 252.5 182.125 C 253.833 182.458 255.167 182.791 256.5 183.125 C 253.821 179.587 250.168 178.984 246.063 178 C 245.394 177.831 244.726 177.662 244.037 177.488 C 242.194 177.024 240.347 176.574 238.5 176.125 C 237.167 175.792 235.833 175.459 234.5 175.125 Z M -63.625 182 C -64.329 182.348 -65.033 182.696 -65.758 183.055 C -67.665 184.015 -67.665 184.015 -68.5 186.125 C -68.563 189.076 -68.567 192.003 -68.527 194.953 C -68.513 196.795 -68.499 198.636 -68.486 200.478 C -68.478 201.442 -68.469 202.407 -68.461 203.401 C -68.174 239.896 -68.174 239.896 -71.223 254.613 C -71.644 259.943 -69.897 264.352 -68.238 269.365 C -66.237 275.84 -66.325 280.6 -68.5 287.125 C -67.81 289.906 -67.052 292.586 -66.187 295.313 C -65.731 296.785 -65.277 298.257 -64.824 299.73 C -64.589 300.458 -64.353 301.185 -64.111 301.935 C -63.5 304.125 -63.5 304.125 -63.237 306.319 C -63 308.753 -63 308.753 -61.5 312.125 C -54.878 316.698 -45.685 317.478 -37.937 318.813 C -36.77 319.025 -35.603 319.237 -34.4 319.455 C -23.491 321.403 -12.994 322.356 -1.906 322.42 C -0.505 322.432 0.896 322.452 2.297 322.482 C 4.348 322.524 6.398 322.541 8.449 322.551 C 9.659 322.565 10.869 322.58 12.116 322.595 C 16.134 322.037 18.319 320.578 21.5 318.125 C 21.098 316.949 21.098 316.949 20.688 315.75 C 20.296 314.554 19.904 313.358 19.5 312.125 C 19.236 311.363 18.971 310.601 18.699 309.816 C 16.903 304.359 15.178 298.868 16.5 293.125 C 23.28 284.407 38.325 283.323 48.5 281.125 C 49.229 267.951 44.265 259.973 36.125 249.938 C 24.725 235.479 19.523 219.843 17.047 201.828 C 16.395 197.363 15.988 194.758 13.188 191.125 C 10.699 189.273 8.169 187.698 5.5 186.125 C 5.455 186.678 5.41 187.232 5.364 187.802 C 3.319 212.282 3.319 212.282 -1.562 218.938 C -11.327 226.209 -20.503 227.906 -32.5 227.125 C -41.561 225.442 -47.61 221.711 -53.203 214.418 C -57.218 207.32 -56.742 200.132 -56.625 192.188 C -56.616 191.027 -56.607 189.866 -56.598 188.67 C -56.574 185.821 -56.541 182.973 -56.5 180.125 C -59.638 180.125 -60.885 180.615 -63.625 182 Z M 220.5 181.125 C 221.49 182.61 221.49 182.61 222.5 184.125 C 223.16 183.795 223.82 183.465 224.5 183.125 C 223.18 182.465 221.86 181.805 220.5 181.125 Z M 256.5 183.125 C 257.49 184.115 258.48 185.105 259.5 186.125 C 259.17 185.135 258.84 184.145 258.5 183.125 C 257.84 183.125 257.18 183.125 256.5 183.125 Z M 224.5 184.125 C 225.49 185.115 226.48 186.105 227.5 187.125 C 228.16 186.795 228.82 186.465 229.5 186.125 C 227.025 185.135 227.025 185.135 224.5 184.125 Z M 136.496 187.172 C 135.477 187.491 135.477 187.491 134.438 187.816 C 133.004 188.267 131.571 188.721 130.139 189.178 C 127.946 189.872 125.748 190.545 123.549 191.219 C 122.156 191.66 120.763 192.103 119.371 192.547 C 118.713 192.745 118.054 192.943 117.376 193.147 C 114.775 193.998 112.816 194.805 110.879 196.769 C 110.25 200.68 112.015 203.885 113.559 207.398 C 113.9 208.2 114.241 209.001 114.593 209.827 C 115.321 211.523 116.057 213.216 116.801 214.905 C 117.926 217.474 119.014 220.055 120.1 222.641 C 120.813 224.29 121.528 225.938 122.246 227.586 C 122.566 228.352 122.886 229.118 123.216 229.907 C 125.88 235.846 129.605 240.177 135.5 243.125 C 142.018 243.935 146.235 243.048 151.5 239.125 C 155.096 234.866 156.073 231.627 156.5 226.125 C 156.188 223.11 155.572 220.192 154.918 217.234 C 154.744 216.408 154.569 215.582 154.39 214.73 C 154.021 212.994 153.647 211.26 153.267 209.526 C 152.687 206.872 152.126 204.214 151.568 201.555 C 151.207 199.864 150.844 198.174 150.48 196.484 C 150.313 195.691 150.145 194.897 149.972 194.079 C 149.2 190.587 148.505 188.133 146.5 185.125 C 142.904 185.125 139.888 186.106 136.496 187.172 Z M 259.5 186.125 C 259.83 192.065 260.16 198.005 260.5 204.125 C 260.83 204.125 261.16 204.125 261.5 204.125 C 261.5 198.515 261.5 192.905 261.5 187.125 C 260.84 186.795 260.18 186.465 259.5 186.125 Z M 198.5 189.125 C 197.634 190.239 197.634 190.239 196.75 191.375 C 190.215 197.966 178.282 199.255 169.438 199.313 C 168.436 199.327 167.434 199.341 166.402 199.355 C 163.394 199.117 161.223 198.389 158.5 197.125 C 157.51 198.445 156.52 199.765 155.5 201.125 C 168.924 207.569 182.119 203.373 195.5 199.125 C 195.995 200.61 195.995 200.61 196.5 202.125 C 195.943 202.246 195.386 202.367 194.813 202.492 C 193.668 202.744 193.668 202.744 192.5 203 C 191.386 203.244 191.386 203.244 190.25 203.492 C 188.071 203.994 185.91 204.573 183.758 205.18 C 179.272 206.305 174.981 206.422 170.375 206.375 C 169.603 206.383 168.831 206.39 168.035 206.398 C 163.468 206.383 159.798 205.855 155.5 204.125 C 155.609 210.989 156.926 214.877 161.418 220.109 C 166.742 225.263 172.543 227.882 179.957 228.25 C 187.558 227.876 193.37 225.333 198.875 220.094 C 201.47 216.95 202.407 214.048 203.5 210.125 C 203.682 209.499 203.864 208.872 204.051 208.227 C 205.201 202.845 205.322 197.083 203.188 192 C 201.546 189.866 201.546 189.866 198.5 189.125 Z M -81.191 192.609 C -82.359 192.995 -82.359 192.995 -83.551 193.388 C -85.207 193.935 -86.862 194.483 -88.517 195.032 C -91.026 195.863 -93.537 196.685 -96.049 197.508 C -97.659 198.041 -99.269 198.575 -100.879 199.109 C -101.622 199.351 -102.365 199.593 -103.131 199.842 C -111.245 202.558 -119.006 205.417 -123.5 213.125 C -126.409 220.578 -128.701 228.441 -128.562 236.5 C -128.542 237.696 -128.521 238.893 -128.5 240.125 C -126.52 239.63 -126.52 239.63 -124.5 239.125 C -124.546 240.218 -124.593 241.311 -124.641 242.438 C -125.167 260.808 -123.977 289.409 -113.5 305.125 C -107.475 304.641 -102.851 301.994 -97.625 299.188 C -96.247 298.457 -96.247 298.457 -94.841 297.711 C -81.4 291.035 -81.4 291.035 -69.5 282.125 C -68.664 274.125 -71.384 266.907 -73.75 259.375 C -74.151 258.068 -74.55 256.761 -74.949 255.453 C -77.104 248.426 -79.371 241.447 -81.792 234.507 C -82.5 232.125 -82.5 232.125 -82.5 229.125 C -81.84 228.795 -81.18 228.465 -80.5 228.125 C -80.318 228.815 -80.136 229.504 -79.949 230.215 C -78.332 236.262 -76.558 242.213 -74.5 248.125 C -73.84 248.125 -73.18 248.125 -72.5 248.125 C -71.577 236.401 -71.389 224.692 -71.375 212.938 C -71.373 212.21 -71.37 211.482 -71.367 210.733 C -71.361 208.62 -71.363 206.507 -71.367 204.395 C -71.369 202.548 -71.369 202.548 -71.371 200.663 C -71.501 197.087 -71.93 193.656 -72.5 190.125 C -75.331 190.125 -78.489 191.717 -81.191 192.609 Z M 207.5 196.125 C 207.748 196.868 207.748 196.868 208 197.625 C 209.919 207.219 206.603 214.141 201.5 222.125 C 196.646 227.377 191.056 229.744 183.934 230.34 C 174.489 230.668 167.44 228.024 159.5 223.125 C 159.402 223.922 159.304 224.718 159.203 225.539 C 158.327 231.745 157.664 236.349 153.5 241.125 C 152.758 241.661 152.015 242.198 151.25 242.75 C 150.384 243.431 150.384 243.431 149.5 244.125 C 149.5 245.445 149.5 246.765 149.5 248.125 C 150.416 252.671 152.053 261.967 157.258 268.238 C 158.939 270.263 159.161 272.876 160.659 274.52 C 163.066 277.162 167.22 275.57 169.483 277.598 C 169.656 277.425 181.254 285.328 181.03 285.432 C 179.857 285.978 196.231 288.291 197.551 288.293 C 198.442 288.296 199.334 288.3 200.252 288.303 C 202.14 288.308 204.027 288.31 205.914 288.31 C 208.791 288.312 211.668 288.331 214.545 288.35 C 216.38 288.353 218.215 288.355 220.051 288.355 C 221.335 288.366 221.335 288.366 222.646 288.377 C 227.333 288.359 231.091 287.929 235.5 286.125 C 235.16 285.698 234.819 285.272 234.469 284.832 C 217.624 263.104 215.121 242.701 215.375 216.125 C 215.385 214.271 215.394 212.417 215.402 210.563 C 215.424 206.083 215.458 201.604 215.5 197.125 C 212.86 196.795 210.22 196.465 207.5 196.125 Z M 219.5 198.125 C 212.624 211.877 216.803 242.904 221.5 257.125 C 225.658 267.393 231.125 277.668 239.5 285.125 C 240.16 285.125 240.82 285.125 241.5 285.125 C 243.554 275.367 242.922 269.27 238.152 260.516 C 235.315 254.694 233.754 248.508 232.079 242.271 C 231.515 240.182 230.929 238.101 230.336 236.02 C 224.272 214.494 224.272 214.494 229.457 204.23 C 230.933 201.958 232.586 200.039 234.5 198.125 C 229.55 198.125 224.6 198.125 219.5 198.125 Z M 20.5 199.125 C 19.159 218.228 28.981 236.593 40.5 251.125 C 41.474 252.15 42.46 253.166 43.5 254.125 C 46.006 241.056 47.945 225.726 42.5 213.125 C 39.057 208.206 35.785 205.778 30.375 203.313 C 29.755 203.014 29.135 202.716 28.496 202.408 C 25.862 201.153 23.27 200.048 20.5 199.125 Z M 232.5 204.125 C 228.686 210.03 228.505 216.266 229.5 223.125 C 230.992 228.879 233.191 234.407 235.31 239.952 C 236.678 243.601 237.978 247.27 239.273 250.945 C 240.002 252.994 240.732 255.041 241.463 257.088 C 241.943 258.439 242.421 259.791 242.895 261.143 C 243.569 263.058 244.259 264.967 244.949 266.875 C 245.345 267.984 245.74 269.092 246.147 270.234 C 247.564 273.262 248.947 274.994 251.5 277.125 C 254.413 278.121 256.234 278.17 259.273 277.656 C 269.459 275.979 278.67 277.268 288.546 279.79 C 293.024 280.978 293.024 280.978 297.5 280.125 C 287.2 254.994 274.492 226.076 254.5 207.125 C 253.984 206.59 253.469 206.055 252.938 205.504 C 246.907 199.72 238.785 198.113 232.5 204.125 Z M 261.5 204.125 C 261.844 206.598 261.844 206.598 262.5 209.125 C 263.16 209.455 263.82 209.785 264.5 210.125 C 263.84 208.145 263.18 206.165 262.5 204.125 C 262.17 204.125 261.84 204.125 261.5 204.125 Z M 46.5 213.125 C 46.644 214.118 46.789 215.11 46.938 216.133 C 48.829 229.718 50.904 245.912 46.5 259.125 C 47.236 261.008 47.236 261.008 48.375 263 C 51.211 268.917 51.226 274.628 51.5 281.125 C 56.45 280.795 61.4 280.465 66.5 280.125 C 67.191 258.944 64.33 232.903 50.25 216 C 49.343 215.051 48.435 214.103 47.5 213.125 C 47.17 213.125 46.84 213.125 46.5 213.125 Z M 268.5 214.125 C 268.83 214.785 269.16 215.445 269.5 216.125 C 270.16 215.795 270.82 215.465 271.5 215.125 C 270.51 214.795 269.52 214.465 268.5 214.125 Z M 276.5 221.125 C 277.5 223.125 277.5 223.125 277.5 223.125 L 276.5 221.125 Z M 115.5 222.125 C 113.976 223.649 114.37 225.011 114.367 227.133 C 114.366 227.955 114.365 228.778 114.363 229.625 C 114.367 230.491 114.371 231.358 114.375 232.25 C 114.371 233.093 114.367 233.936 114.363 234.805 C 114.371 239.685 114.679 244.314 115.5 249.125 C 118.56 249.471 118.56 249.471 120.324 247.375 C 121.247 246.261 121.247 246.261 122.188 245.125 C 122.81 244.383 123.433 243.64 124.074 242.875 C 124.545 242.298 125.015 241.72 125.5 241.125 C 123.87 236.987 122.133 232.897 120.375 228.813 C 120.098 228.167 119.821 227.522 119.535 226.857 C 118.857 225.28 118.179 223.702 117.5 222.125 C 116.84 222.125 116.18 222.125 115.5 222.125 Z M 277.5 223.125 C 278.5 225.125 278.5 225.125 278.5 225.125 L 277.5 223.125 Z M 278.5 225.125 C 279.05 231.173 280.404 236.431 282.5 242.125 C 283.791 238.253 282.723 235.683 281.563 231.938 C 281.367 231.283 281.172 230.629 280.971 229.955 C 280.488 228.343 279.995 226.734 279.5 225.125 C 279.17 225.125 278.84 225.125 278.5 225.125 Z M 109.5 234.125 C 105.09 250.294 106.584 266.572 107.5 283.125 C 108.49 283.455 109.48 283.785 110.5 284.125 C 113.964 259.57 113.964 259.57 111.5 235.125 C 110.84 234.795 110.18 234.465 109.5 234.125 Z M 283.5 242.125 C 283.83 243.115 284.16 244.105 284.5 245.125 C 284.5 244.135 284.5 243.145 284.5 242.125 C 284.17 242.125 283.84 242.125 283.5 242.125 Z M 127.5 243.125 C 117.525 253.416 114.28 262.889 114.438 277.063 C 114.442 277.842 114.447 278.621 114.451 279.424 C 114.463 281.324 114.481 283.225 114.5 285.125 C 115.355 285.535 116.209 285.945 117.09 286.367 C 118.195 286.906 119.299 287.445 120.438 288 C 121.54 288.534 122.642 289.067 123.777 289.617 C 126.5 291.125 126.5 291.125 127.5 293.125 C 127.571 295.332 127.584 297.542 127.563 299.75 C 127.553 300.939 127.544 302.127 127.535 303.352 C 127.524 304.267 127.512 305.182 127.5 306.125 C 131.107 307.776 133.854 308.356 137.813 308.25 C 138.696 308.232 139.579 308.214 140.488 308.195 C 141.152 308.172 141.816 308.149 142.5 308.125 C 142.535 305.533 142.522 303.234 142 300.688 C 141.426 297.747 141.301 295.114 141.5 292.125 C 143.639 289.986 144.633 289.698 147.5 289.125 C 147.356 287.908 147.211 286.691 147.063 285.438 C 146.981 284.753 146.9 284.069 146.816 283.363 C 146.525 281.079 146.525 281.079 145.945 278.68 C 145.471 275.959 145.61 273.686 145.813 270.938 C 145.849 265.116 144.683 260.026 143 254.5 C 142.672 253.309 142.672 253.309 142.337 252.093 C 141.591 249.828 140.907 248.054 139.5 246.125 C 136.881 244.82 134.381 244.469 131.5 244.125 C 130.163 243.808 128.828 243.479 127.5 243.125 Z M 285.5 245.125 C 286.16 246.445 286.82 247.765 287.5 249.125 C 288.49 249.125 289.48 249.125 290.5 249.125 C 288.85 247.805 287.2 246.485 285.5 245.125 Z M -128.5 246.125 C -128.848 265.547 -127.85 284.762 -126.5 304.125 C -123.86 303.795 -121.22 303.465 -118.5 303.125 C -118.742 302.092 -118.985 301.06 -119.234 299.996 C -123.337 282.218 -126.969 264.407 -127.5 246.125 C -127.83 246.125 -128.16 246.125 -128.5 246.125 Z M 290.5 250.125 C 291.49 251.61 291.49 251.61 292.5 253.125 C 293.16 252.795 293.82 252.465 294.5 252.125 C 293.18 251.465 291.86 250.805 290.5 250.125 Z M 296.5 254.125 C 296.83 254.785 297.16 255.445 297.5 256.125 C 298.16 255.795 298.82 255.465 299.5 255.125 C 298.51 254.795 297.52 254.465 296.5 254.125 Z M 149.5 265.125 C 147.416 269.301 147.455 272.002 148.25 276.563 C 148.43 277.654 148.611 278.746 148.797 279.871 C 149.486 283.059 150.407 286.055 151.5 289.125 C 155.51 289.304 155.51 289.304 159.5 289.125 C 160.16 288.465 160.82 287.805 161.5 287.125 C 161.255 279.491 157.961 272.08 152.965 266.371 C 151.567 264.909 151.567 264.909 149.5 265.125 Z M 162.5 278.125 C 162.83 279.115 163.16 280.105 163.5 281.125 C 163.732 283.848 163.631 286.375 163.5 289.125 C 160.566 292.059 157.317 291.587 153.375 291.75 C 152.244 291.808 152.244 291.808 151.09 291.867 C 149.227 291.962 147.364 292.044 145.5 292.125 C 145.5 293.445 145.5 294.765 145.5 296.125 C 149.79 296.125 154.08 296.125 158.5 296.125 C 158.5 297.115 158.5 298.105 158.5 299.125 C 153.88 299.125 149.26 299.125 144.5 299.125 C 144.83 300.115 145.16 301.105 145.5 302.125 C 151.44 302.125 157.38 302.125 163.5 302.125 C 163.5 303.115 163.5 304.105 163.5 305.125 C 157.56 305.125 151.62 305.125 145.5 305.125 C 145.83 306.445 146.16 307.765 146.5 309.125 C 152.611 309.238 158.452 309.021 164.5 308.125 C 164.5 309.115 164.5 310.105 164.5 311.125 C 158.56 311.455 152.62 311.785 146.5 312.125 C 146.17 313.115 145.84 314.105 145.5 315.125 C 148.691 316.721 152.123 316.31 155.625 316.313 C 156.34 316.325 157.056 316.337 157.793 316.35 C 162.721 316.362 167.413 315.863 172.285 315.13 C 182.468 313.758 192.659 313.829 202.918 313.82 C 206.446 313.816 209.974 313.799 213.502 313.779 C 223.52 313.724 233.539 313.693 243.557 313.669 C 249.716 313.653 255.875 313.623 262.033 313.584 C 264.368 313.572 266.702 313.566 269.036 313.566 C 272.297 313.566 275.557 313.548 278.818 313.526 C 279.771 313.53 280.723 313.535 281.704 313.54 C 287.674 313.475 293.064 312.736 298.5 310.125 C 301.117 307.27 301.448 305.59 301.875 301.75 C 301.347 295.969 301.347 295.969 298.5 291.125 C 286.678 284.047 271.931 282.704 258.5 281.125 C 258.5 282.115 258.5 283.105 258.5 284.125 C 257.509 284.238 256.518 284.351 255.497 284.468 C 252.1 284.95 248.961 285.883 245.7 286.957 C 234.734 290.473 224.172 290.927 212.721 290.832 C 209.607 290.812 206.497 290.852 203.383 290.896 C 192.335 290.943 183.796 290.646 174.5 284.125 C 173.607 283.534 172.715 282.943 171.795 282.335 C 170.292 281.325 168.805 280.291 167.34 279.227 C 165.428 277.868 165.428 277.868 162.5 278.125 Z M 20.5 295.125 C 21.16 296.445 21.82 297.765 22.5 299.125 C 23.045 298.871 23.591 298.617 24.152 298.355 C 29.512 295.909 34.889 293.907 40.5 292.125 C 41.77 291.619 41.77 291.619 43.066 291.104 C 47.349 289.883 51.252 289.783 55.684 289.754 C 56.568 289.743 57.453 289.732 58.364 289.721 C 61.222 289.694 64.079 289.687 66.938 289.688 C 67.907 289.686 68.876 289.684 69.875 289.682 C 88.677 289.697 105.053 291.807 122.5 299.125 C 122.83 297.475 123.16 295.825 123.5 294.125 C 102.846 275.989 40.008 276.144 20.5 295.125 Z M -72.5 288.125 C -76.652 292.013 -79.845 296.196 -83.062 300.875 C -84.109 302.387 -85.155 303.899 -86.203 305.41 C -86.74 306.185 -87.277 306.96 -87.83 307.758 C -89.51 310.139 -91.238 312.477 -92.984 314.809 C -93.542 315.564 -94.099 316.319 -94.674 317.097 C -95.746 318.546 -96.831 319.986 -97.93 321.415 C -100.851 325.388 -100.851 325.388 -101.52 330.176 C -98.552 338.76 -94.783 348.509 -86.5 353.125 C -80.527 355.056 -74.545 355.432 -68.312 355.426 C -67.034 355.434 -67.034 355.434 -65.73 355.442 C -62.987 355.454 -60.244 355.448 -57.5 355.438 C -56.562 355.436 -55.624 355.435 -54.658 355.434 C -38.188 355.394 -22.172 354.408 -5.969 351.258 C 14.596 347.357 36.967 347.815 57.66 350.688 C 73.054 352.441 84.913 348.552 97.531 339.809 C 99.764 338.192 99.764 338.192 100.5 335.125 C 99.302 335.269 98.105 335.414 96.871 335.563 C 64.119 339.362 64.119 339.362 50.5 333.125 C 48.333 330.132 48.435 327.726 48.5 324.125 C 49.415 323.859 50.33 323.594 51.273 323.32 C 52.462 322.967 53.65 322.614 54.875 322.25 C 56.058 321.902 57.242 321.554 58.461 321.195 C 61.565 320.348 61.565 320.348 63.5 318.125 C 63.17 317.135 62.84 316.145 62.5 315.125 C 58.553 315 54.607 314.91 50.659 314.85 C 48.668 314.813 46.678 314.75 44.688 314.686 C 34.839 314.561 28.515 316.301 20.7 322.26 C 16.977 324.43 14.065 324.72 9.875 324.691 C 9.143 324.7 8.411 324.708 7.657 324.716 C 5.271 324.732 2.886 324.713 0.5 324.688 C -0.317 324.684 -1.134 324.681 -1.976 324.678 C -21.788 324.563 -41.034 322.072 -59.936 315.903 C -62.372 315.028 -62.372 315.028 -64.5 315.125 C -64.647 313.944 -64.647 313.944 -64.797 312.738 C -65.907 304.652 -67.44 296.727 -70.5 289.125 C -71.16 288.795 -71.82 288.465 -72.5 288.125 Z M 62.5 293.125 C 62.995 295.6 62.995 295.6 63.5 298.125 C 61.656 300.415 60.126 301.812 57.5 303.125 C 55.233 303.274 52.96 303.346 50.688 303.375 C 48.853 303.414 48.853 303.414 46.98 303.453 C 43.26 303.102 41.411 302.428 38.5 300.125 C 38.17 299.135 37.84 298.145 37.5 297.125 C 32.827 297.574 30.112 298.144 26.5 301.125 C 51.787 312.55 87.029 311.381 113.023 303.125 C 115.622 302.263 115.622 302.263 117.5 300.125 C 111.516 297.798 105.92 295.696 99.5 295.125 C 99.17 297.105 98.84 299.085 98.5 301.125 C 94.184 302.759 90.548 303.421 85.938 303.438 C 84.843 303.454 83.749 303.471 82.621 303.488 C 79.143 303.083 77.269 302.239 74.5 300.125 C 73.717 297.657 73.5 295.697 73.5 293.125 C 69.87 293.125 66.24 293.125 62.5 293.125 Z M 19.5 302.125 C 19.952 303.731 20.412 305.335 20.875 306.938 C 21.13 307.831 21.385 308.724 21.648 309.645 C 22.453 312.33 22.453 312.33 24.5 315.125 C 25.525 314.783 25.525 314.783 26.57 314.434 C 36.885 311.492 46.561 312.239 57.152 312.983 C 59.938 313.152 62.709 313.176 65.5 313.125 C 66.313 315.313 66.313 315.313 66.5 318.125 C 62.658 323.888 56.993 324.726 50.5 326.125 C 51.201 327.074 51.903 328.023 52.625 329 C 53.217 329.801 53.217 329.801 53.82 330.617 C 61.553 337.559 77.913 334.521 87.5 334.125 C 97.726 333.549 106.159 332.415 113.52 324.586 C 118.665 318.192 124.5 310.776 124.5 302.125 C 123.696 302.393 122.891 302.661 122.063 302.938 C 120.887 303.329 119.711 303.721 118.5 304.125 C 117.825 304.36 117.151 304.596 116.456 304.838 C 101.839 309.873 87.256 310.43 71.938 310.5 C 70.775 310.512 70.775 310.512 69.588 310.524 C 54.62 310.641 40.018 309.187 25.883 303.992 C 23.766 303.222 21.694 302.625 19.5 302.125 Z M -124.75 307.125 C -125.987 307.455 -127.225 307.785 -128.5 308.125 C -128.935 312.995 -129.362 317.866 -129.782 322.737 C -129.925 324.387 -130.071 326.038 -130.218 327.688 C -133.087 347.079 -133.087 347.079 -128.5 365.125 C -124.187 369.313 -120.528 371.117 -114.602 372.309 C -113.856 372.47 -113.111 372.631 -112.343 372.798 C -104.91 374.354 -97.424 375.378 -89.875 376.188 C -89.155 376.268 -88.435 376.348 -87.693 376.431 C -50.824 380.508 -13.562 382.118 23.516 382.299 C 25.243 382.308 26.97 382.32 28.698 382.334 C 31.103 382.352 33.508 382.356 35.914 382.355 C 36.638 382.363 37.361 382.37 38.107 382.377 C 41.8 382.36 43.34 382.231 46.5 380.125 C 47.559 376.947 47.615 374.699 47.598 371.363 C 47.594 370.245 47.591 369.127 47.588 367.975 C 47.58 366.807 47.571 365.64 47.563 364.438 C 47.556 362.669 47.556 362.669 47.549 360.865 C 47.537 357.952 47.521 355.038 47.5 352.125 C 26.168 350.493 5.892 351.907 -15.25 355.188 C -25.705 356.79 -35.926 357.956 -46.5 358.125 C -47.623 358.145 -48.746 358.166 -49.903 358.187 C -53.748 358.247 -57.592 358.285 -61.437 358.313 C -63.269 358.332 -63.269 358.332 -65.138 358.353 C -85.434 358.369 -85.434 358.369 -92.5 352.125 C -101.985 341.785 -106.068 327.338 -108.987 313.878 C -109.412 311.941 -109.948 310.03 -110.5 308.125 C -115.268 305.638 -119.642 305.763 -124.75 307.125 Z M 125.5 309.125 C 124.67 313.277 124.449 316.343 124.563 320.5 C 124.607 325.467 124.079 329.387 122.5 334.125 C 120.733 344.374 119.339 358.029 124.25 367.5 C 127.664 371.483 130.051 373.002 135.355 373.453 C 136.8 373.443 138.244 373.416 139.688 373.375 C 140.392 373.37 141.096 373.365 141.822 373.359 C 145.648 373.304 149.412 373.056 153.215 372.645 C 159.426 371.988 165.634 371.761 171.875 371.563 C 172.526 371.541 173.177 371.519 173.848 371.496 C 183.873 371.17 193.889 371.101 203.918 371.133 C 205.663 371.138 205.663 371.138 207.444 371.143 C 213.301 371.162 219.158 371.197 225.015 371.25 C 227.199 371.262 229.383 371.274 231.566 371.285 C 232.566 371.299 233.566 371.312 234.596 371.326 C 239.929 371.345 244.547 371.213 249.5 369.125 C 251.373 366.25 251.749 363.98 251.743 360.588 C 251.746 359.697 251.749 358.806 251.752 357.888 C 251.745 356.934 251.738 355.979 251.73 354.996 C 251.73 354.01 251.73 353.024 251.729 352.008 C 251.726 349.926 251.718 347.844 251.706 345.762 C 251.688 342.571 251.685 339.38 251.686 336.189 C 251.681 334.167 251.675 332.144 251.668 330.121 C 251.666 328.687 251.666 328.687 251.665 327.223 C 251.658 326.335 251.652 325.448 251.645 324.533 C 251.641 323.752 251.638 322.972 251.634 322.167 C 251.573 319.923 251.573 319.923 250.5 317.125 C 237.995 316.004 225.511 315.939 212.963 315.94 C 209.479 315.937 205.996 315.919 202.512 315.9 C 200.279 315.897 198.046 315.895 195.813 315.895 C 194.78 315.887 193.748 315.88 192.684 315.873 C 187.222 315.89 182.661 316.304 177.5 318.125 C 177.463 318.8 177.425 319.476 177.387 320.172 C 177.321 321.064 177.255 321.956 177.188 322.875 C 177.129 323.757 177.071 324.638 177.012 325.547 C 176.42 328.526 175.64 329.98 173.5 332.125 C 169.05 332.699 166.713 332.759 162.75 330.688 C 159.695 327.208 158.143 323.419 156.5 319.125 C 155.344 319.034 155.344 319.034 154.164 318.941 C 153.161 318.858 152.158 318.774 151.125 318.688 C 150.127 318.606 149.13 318.525 148.102 318.441 C 145.5 318.125 145.5 318.125 143.5 317.125 C 143.17 315.145 142.84 313.165 142.5 311.125 C 136.89 310.465 131.28 309.805 125.5 309.125 Z M 164.188 318.625 C 162.863 318.764 162.863 318.764 161.512 318.906 C 160.516 319.015 160.516 319.015 159.5 319.125 C 162.195 325.753 162.195 325.753 167.5 330.125 C 170.135 330.131 170.135 330.131 172.5 329.125 C 174.559 326.036 174.739 325.416 174.625 321.938 C 174.563 320.05 174.563 320.05 174.5 318.125 C 171.021 318.075 167.647 318.256 164.188 318.625 Z M 116.977 322.855 C 111.447 329.275 112.607 337.656 112.807 345.654 C 112.875 348.448 112.889 351.238 112.895 354.033 C 112.914 355.81 112.936 357.587 112.961 359.363 C 112.967 360.198 112.974 361.032 112.981 361.892 C 112.996 366.154 112.996 366.154 114.829 369.856 C 117.315 371.744 119.477 371.327 122.5 371.125 C 122.191 370.424 121.881 369.723 121.563 369 C 119.066 362.246 119.317 355.357 119.313 348.25 C 119.3 347.199 119.288 346.149 119.275 345.066 C 119.264 339.018 119.858 333.934 121.5 328.125 C 121.736 325.689 121.736 325.689 121.625 323.625 C 121.584 322.47 121.543 321.315 121.5 320.125 C 119.547 320.125 118.373 321.621 116.977 322.855 Z M 50.5 353.125 C 50.5 361.705 50.5 370.285 50.5 379.125 C 52.913 379.187 55.326 379.249 57.813 379.313 C 58.568 379.34 59.324 379.367 60.103 379.395 C 62.912 379.43 64.99 379.447 67.402 377.926 C 71.679 370.91 70.505 361.861 69.5 354.125 C 63.23 353.795 56.96 353.465 50.5 353.125 Z" fill="#000000" transform="matrix(1, 0, 0, 1, 166.5, 73.875)"/>
  <path d="M0 0 C1.9085083 0.28933716 1.9085083 0.28933716 4 1 C5.15506496 3.65957752 6.00846257 6.09698733 6.796875 8.8671875 C7.0353717 9.65771515 7.27386841 10.4482428 7.51959229 11.26272583 C8.02140446 12.93665056 8.51515424 14.6130101 9.00146484 16.29150391 C9.74630876 18.86226004 10.51332148 21.425514 11.28515625 23.98828125 C11.76953566 25.61419468 12.25265103 27.24048534 12.734375 28.8671875 C12.96243835 29.63602264 13.19050171 30.40485779 13.42547607 31.19699097 C14.30066309 34.22502919 15 36.83093972 15 40 C13.68 40 12.36 40 11 40 C9.26131692 34.78926901 7.53432212 29.57486647 5.81811523 24.35668945 C5.23245979 22.58153808 4.64360627 20.80743851 4.05151367 19.03442383 C3.20171567 16.48787909 2.36343545 13.93779134 1.52734375 11.38671875 C1.12587379 10.19594978 1.12587379 10.19594978 0.71629333 8.98112488 C-1.11387171 3.34161512 -1.11387171 3.34161512 0 0 Z " fill="#000000" transform="matrix(1, 0, 0, 1, 295, 267)"/>
  <path d="M0 0 C3 1 3 1 4.41040039 3.69628906 C4.88469482 4.87416992 5.35898926 6.05205078 5.84765625 7.265625 C6.1050206 7.89603699 6.36238495 8.52644897 6.62754822 9.17596436 C7.44964343 11.19659285 8.25618253 13.22303083 9.0625 15.25 C9.60901482 16.60067002 10.15652953 17.95093592 10.70507812 19.30078125 C12.1492891 22.86220426 13.5770528 26.43002155 15 30 C15.39372803 30.90717773 15.78745605 31.81435547 16.19311523 32.74902344 C17.18958129 35.52887731 16.7998599 37.20049034 16 40 C12.35492648 36.82772052 10.55375666 33.38877691 8.73046875 29.00390625 C8.44520828 28.33334702 8.15994781 27.66278778 7.86604309 26.97190857 C7.26876951 25.55945127 6.67654389 24.14484988 6.08911133 22.72827148 C5.18889299 20.56584612 4.26453909 18.41488149 3.33789062 16.26367188 C2.758927 14.88604177 2.18140335 13.50780542 1.60546875 12.12890625 C1.32849655 11.48917374 1.05152435 10.84944122 0.76615906 10.19032288 C-0.77854106 6.39868907 -1.26834109 3.93115665 0 0 Z " fill="#000000" transform="matrix(1, 0, 0, 1, 282, 271)"/>
  <path d="M0 0 C1.32 0 2.64 0 4 0 C6.17670397 8.49840803 8.28500318 17.01244578 10.25 25.5625 C10.42499023 26.29903809 10.59998047 27.03557617 10.78027344 27.79443359 C11.80028658 32.30650379 12.17020656 36.37402885 12 41 C11.01 41 10.02 41 9 41 C7.71066888 35.96650314 6.42916186 30.93110265 5.15478516 25.89379883 C4.72039486 24.18134225 4.28389179 22.46942013 3.84521484 20.75805664 C3.21412489 18.29451615 2.59072093 15.82913763 1.96875 13.36328125 C1.67345398 12.22080681 1.67345398 12.22080681 1.37219238 11.05525208 C0.43254603 7.29863608 -0.2413858 3.87893573 0 0 Z " fill="#000000" transform="matrix(1, 0, 0, 1, 308, 263)"/>
  <path d="M0 0 C3.13534313 0.63411434 5.4537526 1.73176386 8.1875 3.375 C20.76538293 10.47178923 34.82843799 11.19262465 49 12 C49 12.99 49 13.98 49 15 C31.6828264 15.57866793 17.09307494 14.07771899 2 5 C1.34 4.34 0.68 3.68 0 3 C0 2.01 0 1.02 0 0 Z " fill="#000000" transform="matrix(1, 0, 0, 1, 118, 257)"/>
  <path d="M0 0 C0.33 1.98 0.66 3.96 1 6 C0.01 6 -0.98 6 -2 6 C-2.33 4.68 -2.66 3.36 -3 2 C-4.65 2.33 -6.3 2.66 -8 3 C-7.40049704 6.68266103 -6.75241109 10.34543185 -6 14 C-7.65 15.32 -9.3 16.64 -11 18 C-11.93423645 14.98968256 -12.04449911 14.13349732 -11 11 C-11.33 10.34 -11.66 9.68 -12 9 C-12.16796875 7.125 -12.16796875 7.125 -12.1875 5 C-12.20167969 4.29875 -12.21585937 3.5975 -12.23046875 2.875 C-12 1 -12 1 -10 -1 C-6.26183697 -2.60206987 -3.66390294 -1.41559886 0 0 Z " fill="#000000" transform="matrix(1, 0, 0, 1, 379, 188)"/>
  <path d="M0 0 C0.99 0 1.98 0 3 0 C2.4916752 4.44784203 1.16430777 6.83569223 -2 10 C-7.89174059 14.15478876 -13.9384288 14.74038341 -21 15 C-21 13.68 -21 12.36 -21 11 C-20.21496094 10.92523438 -19.42992187 10.85046875 -18.62109375 10.7734375 C-11.44639296 9.87549949 -6.75927588 8.59998629 -2 3 C-1.34 2.01 -0.68 1.02 0 0 Z " fill="#000000" transform="matrix(1, 0, 0, 1, 338, 218)"/>
  <path d="M0 0 C0.99 0 1.98 0 3 0 C4.65433237 4.35662826 5.29627689 8.03146618 5.3125 12.6875 C5.32925781 13.80511719 5.34601563 14.92273438 5.36328125 16.07421875 C5 19 5 19 3.7421875 20.8515625 C0.68159914 22.86908038 -2.39462152 22.70447717 -6 23 C-6.33 22.34 -6.66 21.68 -7 21 C-6.67 20.34 -6.34 19.68 -6 19 C-3.6859378 18.26924352 -1.35171131 17.59861742 1 17 C1.10469338 11.24186425 0.74016701 5.70985978 0 0 Z " fill="#000000" transform="matrix(1, 0, 0, 1, 165, 192)"/>
  <path d="M0 0 C0.66 0.33 1.32 0.66 2 1 C1.98839844 1.98742187 1.97679687 2.97484375 1.96484375 3.9921875 C1.95582031 5.27351562 1.94679688 6.55484375 1.9375 7.875 C1.92589844 9.15117187 1.91429687 10.42734375 1.90234375 11.7421875 C1.76823431 14.88664652 1.76823431 14.88664652 3 17 C5.3140622 17.73075648 7.64828869 18.40138258 10 19 C9.67 19.99 9.34 20.98 9 22 C1.55541719 21.51183064 1.55541719 21.51183064 -0.7421875 19.39453125 C-2.45362446 16.13642301 -2.36256924 13.60025734 -2.3125 9.9375 C-2.30863281 8.70902344 -2.30476563 7.48054687 -2.30078125 6.21484375 C-2 3 -2 3 0 0 Z " fill="#000000" transform="matrix(1, 0, 0, 1, 316, 196)"/>
  <path d="M0 0 C4 0 4 0 6.5 2.375 C7.325 3.24125 8.15 4.1075 9 5 C12.16897568 7.04450044 15.28915196 7.49397527 19 8 C19 8.99 19 9.98 19 11 C11.59557608 11.80775534 7.73374231 9.59175214 2 5 C1.34 4.34 0.68 3.68 0 3 C0 2.01 0 1.02 0 0 Z " fill="#000000" transform="matrix(1, 0, 0, 1, 146, 215)"/>
  <path d="M0 0 C4.875 0.875 4.875 0.875 6 2 C6.1875 4.9375 6.1875 4.9375 6 8 C5.34 8.66 4.68 9.32 4 10 C2 9.875 2 9.875 0 9 C-1.375 7.25 -1.375 7.25 -2 5 C-1.125 2.25 -1.125 2.25 0 0 Z " fill="#000000" transform="matrix(1, 0, 0, 1, 330, 195)"/>
  <path d="M0 0 C2.625 0.375 2.625 0.375 5 1 C5.625 3.875 5.625 3.875 6 7 C4 9 4 9 1.375 9.125 C0.59125 9.08375 -0.1925 9.0425 -1 9 C-1.625 5.625 -1.625 5.625 -2 2 C-1.34 1.34 -0.68 0.68 0 0 Z " fill="#000000" transform="matrix(1, 0, 0, 1, 302, 198)"/>
  <path d="M0 0 C1.65 0 3.3 0 5 0 C5.625 2.875 5.625 2.875 6 6 C5.34 6.66 4.68 7.32 4 8 C1.875 7.625 1.875 7.625 0 7 C-1.125 2.25 -1.125 2.25 0 0 Z " fill="#000000" transform="matrix(1, 0, 0, 1, 149, 194)"/>
  <path d="M0 0 C2.125 0.9375 2.125 0.9375 4 2 C4 3.65 4 5.3 4 7 C2.125 8.0625 2.125 8.0625 0 9 C-0.66 8.67 -1.32 8.34 -2 8 C-2 5.69 -2 3.38 -2 1 C-1.34 0.67 -0.68 0.34 0 0 Z " fill="#000000" transform="matrix(1, 0, 0, 1, 175, 193)"/>
  <path d="M0 0 C0 0.99 0 1.98 0 3 C-2.52475462 4.26237731 -4.31200466 4.09856404 -7.125 4.0625 C-8.03507812 4.05347656 -8.94515625 4.04445312 -9.8828125 4.03515625 C-10.58148438 4.02355469 -11.28015625 4.01195312 -12 4 C-12 3.01 -12 2.02 -12 1 C-7.95858806 0.36605303 -4.0934693 -0.12404452 0 0 Z " fill="#000000" transform="matrix(1, 0, 0, 1, 310, 187)"/>
  <path d="M0 0 C-0.33 0.99 -0.66 1.98 -1 3 C-4.63 3 -8.26 3 -12 3 C-12 2.01 -12 1.02 -12 0 C-7.6835078 -0.76173392 -4.25566547 -1.16063604 0 0 Z " fill="#000000" transform="matrix(1, 0, 0, 1, 339, 186)"/>
  <path d="M0 0 C-0.33 0.99 -0.66 1.98 -1 3 C-3.64 3 -6.28 3 -9 3 C-9 2.01 -9 1.02 -9 0 C-3.375 -1.125 -3.375 -1.125 0 0 Z " fill="#000000" transform="matrix(1, 0, 0, 1, 154, 189)"/>
  <path d="M 213.999 465.013 C 214.165 465.026 214.333 465.038 214.503 465.051 C 215.613 465.339 216.278 465.867 216.862 466.834 C 216.999 467.126 217.131 467.42 217.261 467.716 C 217.411 468.036 217.562 468.356 217.713 468.675 C 217.945 469.177 218.173 469.679 218.399 470.183 C 219.16 472.079 219.16 472.079 220.508 473.52 C 221.04 473.64 221.507 473.661 222.052 473.659 C 222.431 473.716 222.81 473.779 223.188 473.848 C 223.566 473.906 223.943 473.963 224.322 474.02 C 224.517 474.05 224.712 474.08 224.914 474.111 C 225.389 474.183 225.864 474.255 226.339 474.326 C 226.421 474.054 226.421 474.054 226.504 473.777 C 226.847 472.834 227.28 471.969 227.749 471.083 C 227.833 470.918 227.915 470.752 228.001 470.582 C 228.682 469.297 229.404 468.344 230.851 467.867 C 232.275 467.748 233.308 467.888 234.462 468.758 C 235.412 469.951 235.957 471.313 236.476 472.723 C 237.588 475.945 237.588 475.945 239.847 478.357 C 241.813 479.165 244.042 479.211 246.143 479.212 C 246.743 479.223 247.208 479.271 247.775 479.449 C 247.835 479.258 247.896 479.067 247.959 478.872 C 248.381 477.676 248.956 476.555 249.523 475.421 C 249.664 475.137 249.803 474.853 249.941 474.568 C 250.867 472.65 251.653 471.091 253.726 470.22 C 255.064 470.015 256.116 470.078 257.323 470.707 C 258.402 471.6 259.043 472.64 259.66 473.876 C 259.771 474.095 259.771 474.095 259.884 474.318 C 260.038 474.624 260.192 474.93 260.346 475.236 C 260.582 475.706 260.818 476.175 261.057 476.644 C 261.207 476.941 261.357 477.239 261.508 477.538 C 261.579 477.678 261.65 477.818 261.723 477.962 C 262.215 478.952 262.215 478.952 262.215 479.449 C 263.188 479.295 264.159 479.14 265.13 478.986 C 265.46 478.933 265.791 478.88 266.12 478.827 C 266.596 478.752 267.073 478.676 267.548 478.601 C 267.834 478.555 268.121 478.509 268.415 478.463 C 268.677 478.421 268.941 478.378 269.212 478.336 C 269.565 478.328 269.565 478.328 269.927 478.322 C 270.663 478.081 270.727 477.967 271.098 477.328 C 271.272 476.98 271.439 476.631 271.604 476.279 C 271.695 476.094 271.785 475.908 271.879 475.718 C 272.17 475.127 272.453 474.532 272.736 473.936 C 273.023 473.345 273.31 472.755 273.599 472.164 C 273.778 471.797 273.956 471.429 274.131 471.06 C 274.724 469.832 275.246 468.816 276.488 468.132 C 277.708 467.751 278.623 467.687 279.858 468.118 C 281.293 469.062 281.975 470.441 282.708 471.932 C 282.8 472.113 282.891 472.295 282.986 472.481 C 283.651 473.818 283.651 473.818 283.651 474.326 C 284.617 474.197 285.581 474.06 286.544 473.922 C 286.818 473.885 287.091 473.849 287.374 473.811 C 287.636 473.773 287.899 473.734 288.17 473.695 C 288.412 473.662 288.655 473.628 288.904 473.593 C 289.587 473.418 289.787 473.324 290.196 472.767 C 290.465 472.272 290.714 471.78 290.955 471.272 C 291.1 470.973 291.247 470.675 291.392 470.377 C 291.619 469.909 291.846 469.44 292.07 468.97 C 292.287 468.516 292.51 468.063 292.732 467.611 C 292.797 467.472 292.862 467.332 292.929 467.188 C 293.42 466.202 293.969 465.725 294.935 465.195 C 295.448 465.027 295.448 465.027 295.922 464.971 C 296.154 464.938 296.154 464.938 296.392 464.902 C 297.309 465.013 298.029 465.318 298.77 465.863 C 299.254 466.476 299.58 467.137 299.913 467.84 C 300.008 468.027 300.103 468.214 300.201 468.406 C 300.643 469.277 301.058 470.156 301.45 471.05 C 301.514 471.194 301.58 471.337 301.648 471.483 C 301.82 471.864 301.981 472.25 302.142 472.636 C 302.84 473.503 303.559 473.519 304.637 473.659 C 304.865 473.692 305.092 473.725 305.326 473.759 C 306.343 473.905 307.36 474.045 308.379 474.175 C 310.032 474.409 311.338 474.656 312.521 475.899 C 312.892 476.914 312.951 477.94 312.76 479.003 C 312.165 480.048 311.394 480.885 310.546 481.732 C 310.434 481.849 310.323 481.967 310.207 482.089 C 309.401 482.896 308.731 483.248 307.571 483.458 C 306.887 483.307 306.575 483.172 306.132 482.636 C 305.923 481.868 306.03 481.336 306.217 480.563 C 306.629 480.061 306.995 479.665 307.472 479.24 C 307.589 479.131 307.707 479.02 307.827 478.907 C 308.115 478.639 308.407 478.375 308.699 478.113 C 308.489 478.084 308.278 478.054 308.061 478.024 C 307.273 477.915 306.488 477.8 305.701 477.686 C 305.362 477.636 305.021 477.588 304.682 477.542 C 304.192 477.474 303.702 477.402 303.212 477.33 C 302.918 477.287 302.624 477.245 302.321 477.203 C 301.204 476.932 300.272 476.567 299.53 475.654 C 299.451 475.495 299.373 475.336 299.29 475.174 C 299.2 474.997 299.108 474.82 299.014 474.638 C 298.925 474.452 298.835 474.267 298.742 474.076 C 298.598 473.791 298.598 473.791 298.451 473.502 C 298.263 473.129 298.077 472.755 297.892 472.381 C 297.583 471.758 297.259 471.142 296.938 470.526 C 296.515 469.707 296.515 469.707 296.515 469.204 C 296.366 469.204 296.216 469.204 296.063 469.204 C 296.001 469.398 295.938 469.593 295.874 469.793 C 295.452 470.991 294.87 472.105 294.3 473.24 C 294.124 473.603 294.124 473.603 293.944 473.972 C 293.827 474.205 293.711 474.437 293.59 474.676 C 293.434 474.992 293.434 474.992 293.273 475.315 C 292.668 476.249 292.047 476.701 290.97 477.002 C 290.671 477.055 290.37 477.105 290.069 477.152 C 289.912 477.179 289.754 477.206 289.592 477.234 C 288.22 477.457 286.845 477.592 285.457 477.667 C 285.532 477.814 285.607 477.961 285.683 478.113 C 286.346 478.24 286.996 478.34 287.665 478.425 C 287.867 478.452 288.067 478.48 288.273 478.508 C 289.135 478.626 289.996 478.738 290.858 478.852 C 291.486 478.936 292.114 479.021 292.743 479.107 C 292.935 479.131 293.128 479.156 293.325 479.181 C 294.813 479.385 296.375 479.612 297.403 480.785 C 297.979 481.613 298.135 482.209 298.164 483.193 C 298.172 483.379 298.181 483.564 298.19 483.755 C 297.982 485.037 296.971 485.957 296.066 486.839 C 295.856 487.046 295.645 487.252 295.427 487.465 C 295.207 487.679 294.985 487.893 294.765 488.107 C 294.541 488.327 294.316 488.546 294.093 488.765 C 293.547 489.298 293 489.831 292.452 490.362 C 293.403 489.917 293.403 489.917 294.348 489.462 C 295.492 488.955 296.433 488.935 297.642 489.249 C 298.434 489.554 299.177 489.927 299.927 490.32 C 300.12 490.418 300.312 490.516 300.512 490.617 C 301.602 491.173 302.673 491.758 303.734 492.368 C 303.706 492.09 303.676 491.814 303.646 491.529 C 303.614 491.163 303.582 490.798 303.552 490.432 C 303.521 490.159 303.521 490.159 303.49 489.881 C 303.413 488.886 303.397 488.503 304.029 487.68 C 304.637 487.244 304.637 487.244 305.314 487.105 C 306.239 487.295 306.526 487.639 307.119 488.358 C 307.344 488.96 307.441 489.561 307.529 490.196 C 307.554 490.364 307.581 490.533 307.607 490.707 C 308.105 494.092 308.105 494.092 306.893 495.708 C 306.024 496.515 305.093 496.461 303.956 496.449 C 302.841 496.328 301.969 495.862 300.999 495.331 C 300.811 495.235 300.624 495.138 300.432 495.038 C 299.685 494.649 298.946 494.255 298.227 493.819 C 297.219 493.209 297.219 493.209 296.075 493.007 C 295.052 493.379 294.113 493.869 293.157 494.385 C 292.959 494.49 292.761 494.596 292.557 494.704 C 292.07 494.963 291.583 495.223 291.098 495.485 C 291.203 496.495 291.315 497.493 291.503 498.492 C 291.533 498.658 291.564 498.822 291.596 498.993 C 291.66 499.328 291.724 499.662 291.791 499.995 C 292.063 501.482 292.084 502.855 291.423 504.241 C 290.483 505.263 289.599 505.688 288.205 505.798 C 287.242 505.775 286.503 505.46 285.669 505.007 C 285.52 504.93 285.371 504.853 285.218 504.774 C 284.474 504.39 283.736 503.993 282.998 503.598 C 282.533 503.35 282.067 503.103 281.602 502.856 C 281.14 502.612 280.682 502.366 280.225 502.116 C 280.012 502.004 279.8 501.892 279.58 501.776 C 279.393 501.674 279.204 501.573 279.01 501.468 C 278.143 501.164 277.588 501.382 276.776 501.755 C 276.488 501.913 276.488 501.913 276.194 502.074 C 275.874 502.247 275.874 502.247 275.547 502.425 C 275.328 502.546 275.107 502.668 274.88 502.793 C 274.662 502.912 274.444 503.031 274.219 503.154 C 273.07 503.78 271.93 504.418 270.79 505.062 C 270.833 505.294 270.878 505.525 270.923 505.763 C 271.084 506.629 271.24 507.497 271.394 508.365 C 271.461 508.739 271.53 509.113 271.6 509.486 C 272.46 514.068 272.46 514.068 271.401 515.779 C 270.651 516.792 269.771 517.303 268.534 517.535 C 266.865 517.56 265.585 517.093 264.134 516.323 C 263.942 516.225 263.751 516.127 263.553 516.026 C 262.955 515.717 262.359 515.402 261.765 515.085 C 261.471 514.928 261.471 514.928 261.17 514.768 C 257.844 512.996 257.844 512.996 257.252 512.412 C 257.184 511.953 257.184 511.953 257.181 511.423 C 257.177 511.249 257.174 511.075 257.169 510.895 C 257.273 510.284 257.446 510.125 257.928 509.74 C 259.637 509.295 261.085 510.194 262.526 510.992 C 262.853 511.166 262.853 511.166 263.185 511.344 C 264.077 511.822 264.964 512.31 265.85 512.799 C 266.074 512.921 266.296 513.044 266.527 513.169 C 266.727 513.28 266.929 513.392 267.137 513.506 C 267.606 513.781 267.606 513.781 268.082 513.748 C 268.132 512.307 267.947 510.988 267.68 509.573 C 267.596 509.112 267.513 508.649 267.43 508.187 C 267.299 507.466 267.166 506.745 267.032 506.025 C 266.902 505.324 266.777 504.623 266.65 503.921 C 266.589 503.602 266.589 503.602 266.528 503.276 C 266.22 501.544 266.098 499.872 267.097 498.33 C 267.747 497.498 268.505 496.773 269.267 496.042 C 269.431 495.881 269.595 495.721 269.764 495.555 C 270.684 494.66 271.63 493.808 272.607 492.975 C 273.349 492.324 274.043 491.63 274.739 490.933 C 274.881 490.791 275.025 490.649 275.171 490.503 C 275.517 490.16 275.861 489.816 276.206 489.471 C 276.131 489.251 276.057 489.03 275.98 488.804 C 275.831 488.782 275.682 488.762 275.528 488.74 C 273.972 488.522 272.417 488.302 270.861 488.078 C 270.281 487.996 269.701 487.914 269.12 487.833 C 268.285 487.716 267.451 487.597 266.615 487.476 C 266.357 487.441 266.098 487.406 265.833 487.369 C 263.9 487.087 262.392 486.786 261.088 485.24 C 260.719 484.674 260.409 484.086 260.1 483.486 C 260.009 483.31 259.916 483.134 259.821 482.952 C 258.306 480.032 256.883 477.063 255.447 474.104 C 255.149 474.104 254.851 474.104 254.544 474.104 C 254.479 474.238 254.414 474.372 254.346 474.51 C 253.665 475.91 252.979 477.308 252.292 478.705 C 252.037 479.226 251.782 479.748 251.527 480.27 C 251.161 481.021 250.793 481.771 250.423 482.521 C 250.255 482.87 250.255 482.87 250.082 483.227 C 249.165 485.076 248.202 486.316 246.196 487.022 C 245.255 487.237 244.31 487.37 243.353 487.498 C 242.952 487.556 242.952 487.556 242.542 487.614 C 241.692 487.735 240.841 487.852 239.99 487.968 C 239.411 488.05 238.833 488.131 238.254 488.213 C 236.84 488.413 235.426 488.61 234.01 488.804 C 233.918 489.675 233.918 489.675 234.376 490.159 C 234.543 490.322 234.712 490.484 234.885 490.652 C 235.07 490.833 235.255 491.014 235.447 491.201 C 235.741 491.482 235.741 491.482 236.041 491.768 C 236.23 491.953 236.42 492.138 236.615 492.328 C 237.613 493.295 238.632 494.227 239.691 495.128 C 240.327 495.679 240.929 496.259 241.528 496.849 C 241.642 496.96 241.758 497.071 241.877 497.186 C 243.2 498.488 243.657 499.46 243.712 501.276 C 243.64 502.11 243.494 502.925 243.34 503.748 C 243.3 503.977 243.26 504.208 243.218 504.445 C 243.09 505.176 242.958 505.905 242.824 506.635 C 242.693 507.365 242.563 508.096 242.434 508.827 C 242.354 509.28 242.272 509.733 242.19 510.186 C 241.974 511.394 241.866 512.522 241.908 513.748 C 242.855 513.458 243.71 513.103 244.588 512.65 C 244.834 512.523 245.079 512.397 245.332 512.267 C 245.583 512.136 245.835 512.004 246.097 511.869 C 246.35 511.738 246.603 511.608 246.865 511.474 C 248.206 510.785 248.206 510.785 249.515 510.036 C 250.086 509.708 250.42 509.649 251.074 509.656 C 251.245 509.654 251.416 509.652 251.591 509.65 C 252.189 509.764 252.385 509.921 252.739 510.407 C 252.845 510.88 252.845 510.88 252.853 511.396 C 252.863 511.65 252.863 511.65 252.874 511.91 C 252.65 512.744 251.947 513.104 251.22 513.535 C 250.767 513.783 250.311 514.023 249.853 514.259 C 249.684 514.346 249.515 514.434 249.342 514.523 C 248.987 514.706 248.631 514.889 248.276 515.071 C 247.736 515.347 247.201 515.628 246.664 515.911 C 242.763 517.927 242.763 517.927 240.497 517.312 C 239.526 516.885 238.83 516.212 238.297 515.307 C 237.884 514.186 237.816 513.365 237.988 512.19 C 238.009 512.042 238.029 511.895 238.05 511.743 C 238.38 509.508 238.793 507.284 239.2 505.062 C 238.212 504.518 237.224 503.975 236.234 503.435 C 235.57 503.073 234.911 502.707 234.256 502.332 C 234.003 502.19 233.749 502.048 233.488 501.902 C 233.267 501.775 233.044 501.648 232.815 501.517 C 232.077 501.225 231.834 501.289 231.077 501.499 C 230.578 501.725 230.086 501.968 229.6 502.219 C 229.389 502.328 229.389 502.328 229.177 502.437 C 228.733 502.666 228.29 502.897 227.848 503.127 C 227.553 503.28 227.258 503.432 226.963 503.584 C 226.82 503.659 226.676 503.733 226.529 503.809 C 226.387 503.882 226.246 503.955 226.102 504.03 C 225.028 504.584 225.028 504.584 223.956 505.141 C 222.892 505.686 222.107 505.952 220.923 505.73 C 219.931 505.412 219.27 505.005 218.568 504.241 C 217.716 502.459 218.05 500.74 218.427 498.867 C 218.514 498.416 218.601 497.964 218.687 497.513 C 218.727 497.315 218.766 497.118 218.806 496.916 C 218.916 496.32 218.916 496.32 218.892 495.485 C 218.134 495.066 217.371 494.656 216.608 494.246 C 216.285 494.068 216.285 494.068 215.957 493.886 C 215.747 493.775 215.538 493.664 215.323 493.549 C 215.131 493.445 214.94 493.342 214.743 493.235 C 213.751 492.898 213.054 493.141 212.126 493.569 C 211.894 493.699 211.661 493.828 211.423 493.961 C 211.163 494.101 210.904 494.242 210.636 494.385 C 210.231 494.607 209.826 494.829 209.423 495.056 C 207.676 496.033 206.26 496.692 204.225 496.376 C 203.278 496.037 202.816 495.476 202.357 494.589 C 201.87 493.266 202.239 491.837 202.521 490.509 C 202.582 490.21 202.644 489.91 202.706 489.611 C 202.802 489.15 202.9 488.689 203.011 488.231 C 203.251 487.222 203.422 486.283 203.323 485.24 C 202.717 484.359 201.943 483.839 201.066 483.235 C 200.745 482.943 200.428 482.645 200.121 482.34 C 199.978 482.2 199.835 482.059 199.687 481.915 C 199.546 481.777 199.406 481.637 199.261 481.495 C 199.114 481.353 198.966 481.21 198.814 481.062 C 198.603 480.854 198.603 480.854 198.387 480.641 C 198.2 480.458 198.2 480.458 198.008 480.27 C 197.162 479.295 197.133 478.398 197.161 477.154 C 197.261 476.296 197.534 475.839 198.132 475.217 C 199.138 474.63 200.079 474.404 201.224 474.263 C 201.556 474.218 201.888 474.172 202.219 474.127 C 202.738 474.059 203.257 473.991 203.776 473.924 C 204.279 473.859 204.783 473.79 205.286 473.721 C 205.44 473.702 205.596 473.683 205.755 473.664 C 206.343 473.582 206.829 473.504 207.328 473.177 C 207.743 472.574 208.057 471.931 208.369 471.272 C 208.515 470.973 208.661 470.675 208.807 470.377 C 209.033 469.909 209.26 469.44 209.484 468.97 C 209.701 468.516 209.923 468.063 210.146 467.611 C 210.211 467.472 210.276 467.332 210.342 467.188 C 210.835 466.201 211.38 465.724 212.348 465.195 C 213.007 464.978 213.325 464.953 213.999 465.013 Z M 213.477 469.204 C 213.382 469.401 213.288 469.599 213.191 469.803 C 212.838 470.541 212.48 471.276 212.117 472.01 C 211.963 472.327 211.809 472.644 211.658 472.963 C 211.438 473.424 211.213 473.88 210.987 474.337 C 210.921 474.479 210.854 474.62 210.787 474.766 C 210.242 475.843 209.623 476.352 208.512 476.776 C 207.905 476.92 207.344 477.028 206.729 477.107 C 206.566 477.13 206.403 477.154 206.236 477.178 C 205.721 477.251 205.206 477.32 204.691 477.389 C 204.34 477.438 203.988 477.488 203.636 477.538 C 202.78 477.658 201.924 477.775 201.066 477.889 C 201.821 478.771 202.579 479.636 203.408 480.451 C 203.579 480.621 203.751 480.79 203.929 480.965 C 204.416 481.421 204.919 481.841 205.438 482.261 C 206.25 482.963 206.669 483.51 206.933 484.572 C 206.97 486.34 206.58 488.112 206.26 489.846 C 206.093 490.774 205.996 491.642 206.031 492.589 C 206.363 492.423 206.363 492.423 206.701 492.255 C 207.511 491.851 208.323 491.455 209.136 491.057 C 209.614 490.822 210.089 490.579 210.562 490.335 C 213.21 489 213.21 489 214.575 489.292 C 215.367 489.587 216.11 489.959 216.846 490.371 C 217.077 490.477 217.077 490.477 217.313 490.585 C 217.462 490.512 217.61 490.438 217.764 490.362 C 217.609 490.212 217.455 490.061 217.294 489.906 C 216.719 489.346 216.145 488.784 215.572 488.223 C 215.323 487.98 215.074 487.738 214.825 487.495 C 214.467 487.147 214.11 486.797 213.754 486.447 C 213.643 486.34 213.531 486.232 213.417 486.122 C 212.5 485.218 212.059 484.561 212.039 483.277 C 212.064 482.115 212.316 481.489 213.025 480.563 C 213.79 480.033 214.42 479.793 215.339 479.658 C 215.567 479.623 215.796 479.589 216.031 479.553 C 216.272 479.518 216.514 479.484 216.763 479.449 C 217.136 479.394 217.136 479.394 217.515 479.336 C 218.275 479.223 219.035 479.113 219.795 479.003 C 220.252 478.936 220.712 478.866 221.17 478.798 C 222.216 478.642 223.261 478.487 224.307 478.336 C 224.382 478.115 224.457 477.895 224.533 477.667 C 224.371 477.645 224.208 477.622 224.04 477.599 C 223.297 477.496 222.554 477.387 221.811 477.278 C 221.428 477.225 221.428 477.225 221.036 477.171 C 220.662 477.115 220.662 477.115 220.28 477.058 C 220.053 477.026 219.824 476.993 219.589 476.959 C 218.323 476.626 217.55 476.232 216.823 475.171 C 216.684 474.895 216.548 474.616 216.418 474.337 C 216.346 474.189 216.273 474.043 216.197 473.891 C 215.968 473.425 215.745 472.957 215.522 472.489 C 215.366 472.171 215.211 471.853 215.054 471.535 C 214.674 470.76 214.3 469.983 213.927 469.204 C 213.779 469.204 213.63 469.204 213.477 469.204 Z M 231.754 471.431 C 231.585 471.763 231.418 472.095 231.249 472.427 C 231.094 472.733 230.939 473.039 230.782 473.346 C 230.268 474.356 229.764 475.371 229.266 476.39 C 229.148 476.628 229.03 476.868 228.909 477.114 C 228.674 477.588 228.442 478.064 228.212 478.541 C 227.535 479.904 227.028 480.879 225.535 481.452 C 224.565 481.732 223.603 481.874 222.604 482.012 C 222.297 482.056 222.297 482.056 221.987 482.1 C 221.341 482.192 220.694 482.282 220.049 482.372 C 219.609 482.434 219.169 482.497 218.731 482.559 C 217.656 482.712 216.581 482.862 215.508 483.013 C 216.36 484.022 217.244 484.97 218.204 485.879 C 218.453 486.119 218.703 486.36 218.952 486.601 C 219.339 486.973 219.726 487.344 220.116 487.712 C 220.497 488.073 220.874 488.438 221.25 488.802 C 221.424 488.964 221.424 488.964 221.601 489.129 C 222.436 489.947 222.898 490.789 223.18 491.921 C 223.179 492.695 223.179 492.695 223.052 493.494 C 223.031 493.641 223.009 493.789 222.986 493.94 C 222.734 495.581 222.431 497.217 222.124 498.849 C 221.932 499.894 221.771 500.876 221.826 501.944 C 222.91 501.625 223.867 501.163 224.853 500.627 C 225.176 500.455 225.501 500.285 225.824 500.114 C 226.328 499.847 226.831 499.579 227.331 499.305 C 231.208 497.199 231.208 497.199 233.108 497.712 C 234.29 498.194 235.394 498.778 236.507 499.397 C 236.951 499.639 237.397 499.879 237.843 500.118 C 238.243 500.333 238.641 500.552 239.039 500.772 C 239.241 500.865 239.444 500.957 239.651 501.053 C 239.801 500.98 239.949 500.906 240.103 500.83 C 238.859 499.394 237.585 498.024 236.13 496.794 C 235.024 495.842 233.971 494.843 232.925 493.828 C 232.639 493.559 232.639 493.559 232.347 493.283 C 231.092 492.062 230.268 491.095 230.125 489.303 C 230.268 488.106 230.47 487.286 231.302 486.354 C 232.286 485.602 233.151 485.287 234.364 485.115 C 234.529 485.088 234.693 485.062 234.864 485.036 C 235.406 484.95 235.949 484.872 236.493 484.794 C 236.681 484.767 236.869 484.74 237.063 484.712 C 238.654 484.482 240.245 484.256 241.839 484.043 C 242.438 483.962 243.037 483.877 243.634 483.792 C 243.818 483.768 244.001 483.745 244.189 483.72 C 244.637 483.655 245.079 483.559 245.518 483.458 C 245.667 483.237 245.817 483.017 245.97 482.79 C 245.736 482.752 245.503 482.715 245.263 482.678 C 244.393 482.539 243.525 482.398 242.657 482.256 C 242.282 482.195 241.907 482.134 241.531 482.075 C 240.991 481.989 240.45 481.9 239.91 481.811 C 239.66 481.772 239.66 481.772 239.404 481.732 C 238.158 481.522 237.355 481.213 236.483 480.306 C 235.917 479.494 235.493 478.648 235.065 477.76 C 234.975 477.579 234.886 477.398 234.796 477.211 C 234.514 476.635 234.234 476.058 233.954 475.481 C 233.763 475.09 233.571 474.697 233.38 474.306 C 232.911 473.348 232.445 472.39 231.98 471.431 C 231.905 471.431 231.831 471.431 231.754 471.431 Z M 278.011 471.431 C 277.887 471.689 277.764 471.945 277.636 472.21 C 277.174 473.168 276.708 474.125 276.242 475.081 C 276.04 475.494 275.841 475.908 275.642 476.322 C 275.354 476.918 275.063 477.513 274.772 478.108 C 274.684 478.293 274.596 478.477 274.506 478.667 C 273.924 479.845 273.332 480.934 272.042 481.454 C 271.834 481.495 271.626 481.537 271.411 481.579 C 271.161 481.629 270.908 481.679 270.651 481.73 C 268.446 482.116 266.234 482.455 264.021 482.79 C 264.39 483.493 264.39 483.493 264.978 483.6 C 265.187 483.627 265.397 483.655 265.613 483.683 C 265.851 483.716 266.09 483.748 266.335 483.783 C 266.594 483.815 266.853 483.848 267.118 483.881 C 267.384 483.918 267.65 483.955 267.924 483.992 C 269.061 484.149 270.201 484.298 271.339 484.448 C 272.171 484.558 273.001 484.672 273.831 484.786 C 274.087 484.819 274.343 484.851 274.606 484.884 C 276.306 485.119 277.745 485.422 278.999 486.66 C 279.768 487.887 279.858 488.829 279.743 490.237 C 279.402 491.51 278.452 492.432 277.528 493.341 C 277.419 493.449 277.31 493.556 277.196 493.668 C 276.965 493.895 276.733 494.122 276.502 494.348 C 276.153 494.689 275.806 495.031 275.458 495.374 C 274.356 496.458 273.24 497.516 272.059 498.516 C 271.625 498.884 271.21 499.265 270.805 499.661 C 270.677 499.784 270.549 499.907 270.418 500.034 C 270.061 500.401 270.061 500.401 269.888 501.053 C 270.836 500.767 271.66 500.411 272.521 499.93 C 272.759 499.802 272.998 499.673 273.245 499.54 C 273.741 499.269 274.234 498.996 274.726 498.719 C 276.294 497.881 277.575 497.36 279.366 497.712 C 280.222 498.005 280.997 498.395 281.791 498.826 C 282.004 498.937 282.218 499.047 282.438 499.16 C 283.072 499.489 283.701 499.824 284.329 500.162 C 284.839 500.433 285.35 500.702 285.862 500.971 C 286.15 501.125 286.437 501.278 286.723 501.435 C 287.404 501.824 287.404 501.824 288.164 501.944 C 288.024 499.635 287.622 497.403 287.181 495.134 C 286.569 491.819 286.569 491.819 287.406 490.41 C 288.027 489.579 288.713 488.879 289.459 488.159 C 289.603 488.018 289.747 487.877 289.895 487.732 C 290.352 487.285 290.81 486.84 291.268 486.396 C 291.728 485.946 292.19 485.497 292.651 485.047 C 292.935 484.767 293.222 484.489 293.509 484.21 C 293.838 483.89 294.161 483.563 294.484 483.235 C 294.484 483.161 294.484 483.089 294.484 483.013 C 294.213 482.975 293.942 482.938 293.663 482.9 C 292.652 482.762 291.64 482.62 290.63 482.478 C 290.194 482.417 289.757 482.357 289.321 482.297 C 288.691 482.212 288.062 482.123 287.432 482.034 C 287.142 481.995 287.142 481.995 286.848 481.956 C 283.965 481.54 283.965 481.54 282.909 480.496 C 282.492 479.845 282.13 479.19 281.784 478.5 C 281.719 478.368 281.653 478.237 281.584 478.102 C 281.374 477.683 281.167 477.264 280.959 476.846 C 280.82 476.569 280.682 476.293 280.543 476.017 C 280.274 475.481 280.007 474.945 279.74 474.408 C 279.243 473.413 278.741 472.422 278.237 471.431 C 278.162 471.431 278.087 471.431 278.011 471.431 Z" fill="#000000" style=""/>
</svg>