<?xml version="1.0" encoding="utf-8"?>
<svg xmlns="http://www.w3.org/2000/svg" viewBox="30.5456 100.4187 451.5258 329.92" width="451.5258px" height="329.92px">
  <path d="M0 0 C2.43795183 1.80711994 4.10977543 3.87503901 6.0078125 6.23828125 C8.56438874 9.5318704 8.56438874 9.5318704 12.296875 10.9296875 C13.83239397 10.8449515 15.36627607 10.71844078 16.89453125 10.546875 C20.39791342 10.44973871 22.40967066 12.33372461 25.0078125 14.48828125 C25.6678125 15.14828125 26.3278125 15.80828125 27.0078125 16.48828125 C28.93168951 16.91974884 28.93168951 16.91974884 31.1875 17.05078125 C32.07945068 17.12433838 32.97140137 17.19789551 33.89038086 17.27368164 C34.8778833 17.34449951 35.86538574 17.41531738 36.8828125 17.48828125 C37.9147876 17.56876709 38.9467627 17.64925293 40.01000977 17.73217773 C51.53828747 18.59519033 63.08527244 19.2019335 74.63037109 19.79101562 C94.8140234 20.83047909 94.8140234 20.83047909 99.0703125 23.17578125 C105.07726745 33.44573648 100.34824334 54.01097528 99.6784668 65.59008789 C99.5352481 68.11601056 99.39234277 70.64195102 99.24972534 73.16790771 C98.8230125 80.70118425 98.38951328 88.23405942 97.95489404 95.76688328 C97.74997114 99.32210353 97.54596453 102.87737632 97.34189796 106.4326458 C96.66294383 118.25693108 95.98231657 130.08111769 95.29597759 141.90497684 C95.25221811 142.65890344 95.20845863 143.41283003 95.1633731 144.18960288 C95.11951526 144.94521381 95.07565742 145.70082475 95.03047055 146.47933298 C94.94161584 148.01022896 94.85276433 149.54112513 94.76391602 151.07202148 C94.71984373 151.83138091 94.67577144 152.59074033 94.63036362 153.37311064 C93.91468644 165.70966875 93.21093924 178.04687693 92.51218977 190.38440425 C91.79342903 203.07211253 91.06455699 215.75920726 90.32557231 228.44575399 C89.91136253 235.56087148 89.50153847 242.67618169 89.10294151 249.79219246 C88.72865111 256.47344539 88.34061529 263.15375791 87.9431572 269.8336792 C87.79939228 272.28724292 87.66026328 274.74108323 87.5260601 277.19518852 C87.34248857 280.53916168 87.14239272 283.8817449 86.93803406 287.22450256 C86.86359551 288.68829231 86.86359551 288.68829231 86.78765315 290.18165356 C86.47373074 295.01553724 86.1556257 298.57482841 83.0078125 302.48828125 C80.10551397 304.48780168 77.93728356 304.70498892 74.46728516 304.50341797 C73.55524323 304.45596436 72.64320129 304.40851074 71.70352173 304.35961914 C70.70307831 304.29637451 69.70263489 304.23312988 68.671875 304.16796875 C67.60125824 304.10939697 66.53064148 304.0508252 65.42758179 303.99047852 C61.82868463 303.79146764 58.23085215 303.57719555 54.6328125 303.36328125 C52.09511994 303.22030743 49.55735733 303.07857214 47.01953125 302.93798828 C42.90550611 302.70991443 38.79152744 302.48131488 34.67779541 302.24801636 C23.17273773 301.59710177 11.66520512 301.00330044 0.15625 300.42578125 C-1.61721898 300.33653641 -3.390687 300.24727252 -5.16415405 300.1579895 C-12.17796228 299.80517487 -19.19180806 299.45312279 -26.20574951 299.10296631 C-30.35601628 298.89555196 -34.50614794 298.6855951 -38.65620041 298.47393799 C-40.18931957 298.39618608 -41.72248365 298.31931364 -43.25569534 298.2434082 C-71.74317256 296.83208463 -71.74317256 296.83208463 -76.70977783 291.72058105 C-78.3200695 288.91753467 -78.26585144 287.29668222 -78.07324219 284.08398438 C-78.01618103 283.00185669 -77.95911987 281.919729 -77.90032959 280.80480957 C-77.82236145 279.63816772 -77.74439331 278.47152588 -77.6640625 277.26953125 C-77.5956012 276.06067261 -77.52713989 274.85181396 -77.456604 273.60632324 C-77.2334531 269.73259321 -76.98793683 265.86063661 -76.7421875 261.98828125 C-76.59101406 259.41023993 -76.44125831 256.83211506 -76.29296875 254.25390625 C-75.652824 243.31960832 -74.94549363 232.40022627 -73.9921875 221.48828125 C-74.6521875 221.81828125 -75.3121875 222.14828125 -75.9921875 222.48828125 C-88.51523763 223.9648797 -96.87592527 219.93396111 -106.5546875 212.30078125 C-112.35343059 207.34243571 -117.67900742 201.95646496 -122.9921875 196.48828125 C-123.73597656 195.86566406 -124.47976562 195.24304688 -125.24609375 194.6015625 C-126.9921875 192.48828125 -126.9921875 192.48828125 -127.14453125 189.0234375 C-127.58786647 185.48054498 -127.58786647 185.48054498 -129.80517578 184.17919922 C-132.35224725 182.96658194 -134.91569893 181.92264936 -137.5546875 180.92578125 C-147.03100993 177.19478213 -154.653807 173.50830347 -159.9921875 164.48828125 C-160.89783931 163.18886778 -161.81474553 161.89723294 -162.7421875 160.61328125 C-163.4846875 159.58203125 -164.2271875 158.55078125 -164.9921875 157.48828125 C-165.19583374 162.94218217 -164.66169034 167.76236513 -163.56860352 173.10131836 C-161.6032212 182.73177497 -160.58390174 192.09299984 -160.5546875 201.92578125 C-160.54018555 203.47833618 -160.54018555 203.47833618 -160.52539062 205.06225586 C-160.60216291 211.96329419 -161.19527085 218.00998119 -165.67578125 223.58203125 C-166.25457031 224.04609375 -166.83335937 224.51015625 -167.4296875 224.98828125 C-168.29400391 225.7153125 -168.29400391 225.7153125 -169.17578125 226.45703125 C-170.9921875 227.48828125 -170.9921875 227.48828125 -174.9921875 227.48828125 C-174.94429581 228.23091721 -174.89640411 228.97355316 -174.84706116 229.73869324 C-174.38942642 236.83993947 -173.93351337 243.94129385 -173.47939396 251.04276562 C-173.24603684 254.69108549 -173.01208182 258.3393647 -172.77661133 261.98754883 C-172.24364458 270.25137122 -171.72560172 278.51589376 -171.22393799 286.78167725 C-171.00986715 290.20551393 -170.77499794 293.62724241 -170.53466797 297.04931641 C-170.41432043 298.94168621 -170.29463462 300.83409827 -170.17578125 302.7265625 C-170.11084976 303.56011765 -170.04591827 304.39367279 -169.97901917 305.25248718 C-169.70275926 310.02503251 -170.07958571 312.68901878 -172.9921875 316.48828125 C-183.91114753 321.77047948 -199.341577 320.48810633 -211.1640625 321.05859375 C-213.61587763 321.18540646 -216.06763896 321.31326328 -218.51934814 321.44210815 C-224.95003341 321.77735442 -231.38133087 322.09889421 -237.81286621 322.4173584 C-244.3157593 322.74160405 -250.81801227 323.0781714 -257.3203125 323.4140625 C-264.65448773 323.79238474 -271.98870353 324.16954586 -279.32342529 324.53713989 C-290.04169206 325.07470836 -300.75738745 325.62768158 -311.46905518 326.28488159 C-326.93920547 327.17801389 -326.93920547 327.17801389 -330.7890625 324.65625 C-333.80490882 321.68852889 -334.11225521 319.19763592 -334.34949589 315.14457989 C-334.40373787 314.25200786 -334.45797985 313.35943584 -334.51386553 312.43981618 C-334.56931691 311.45813067 -334.6247683 310.47644515 -334.68190002 309.4650116 C-334.74400773 308.42285329 -334.80611544 307.38069498 -334.87010521 306.30695611 C-335.07821916 302.79754904 -335.28042403 299.28782618 -335.48266602 295.77807617 C-335.6302531 293.26834129 -335.7781903 290.75862697 -335.92645264 288.24893188 C-336.28713141 282.1266919 -336.64393725 276.00423673 -336.99887104 269.88166132 C-337.28772481 264.90035967 -337.57818486 259.91915411 -337.86979485 254.93801308 C-337.91128977 254.22919383 -337.9527847 253.52037458 -337.99553705 252.79007596 C-338.0798468 251.35001158 -338.16416028 249.90994742 -338.24847745 248.46988348 C-339.03976493 234.95214156 -339.8260115 221.43411002 -340.61054175 207.91597448 C-341.28260695 196.33771486 -341.95893554 184.75971081 -342.63842773 173.18188477 C-343.42791829 159.72976712 -344.21473991 146.27749768 -344.99736351 132.82497865 C-345.08103763 131.38682652 -345.16471509 129.94867458 -345.24839592 128.51052284 C-345.28956259 127.80300144 -345.33072925 127.09548003 -345.37314339 126.36651858 C-345.66220251 121.40164348 -345.9531378 116.43688041 -346.24481392 111.47215843 C-346.63856372 104.76901957 -347.0279374 98.06563976 -347.41445923 91.36207962 C-347.55656328 88.90872542 -347.70003472 86.45544996 -347.84501457 84.00226402 C-348.21736564 77.69445255 -348.56954094 71.38672135 -348.86700559 65.07489944 C-348.94652855 63.43172647 -349.03303101 61.7888649 -349.12893558 60.14656663 C-349.72576042 49.67078804 -349.72576042 49.67078804 -346.93104553 45.16575623 C-343.38575243 43.14213331 -341.04802008 42.78653669 -336.97045898 42.64868164 C-336.28365051 42.61857498 -335.59684204 42.58846832 -334.88922119 42.55744934 C-333.40551096 42.49526775 -331.92131607 42.44389394 -330.43688774 42.40223885 C-328.08574554 42.3351518 -325.7376469 42.237401 -323.38795471 42.13145447 C-317.5559476 41.87426006 -311.72248024 41.66442127 -305.88830566 41.46307373 C-300.95143046 41.29199625 -296.0165769 41.09819151 -291.08192635 40.87158012 C-288.76886044 40.77471804 -286.45641616 40.7118337 -284.14219666 40.64967346 C-282.72289249 40.58731592 -281.30366102 40.52327339 -279.88452148 40.45727539 C-278.64717758 40.41462051 -277.40983368 40.37196564 -276.13499451 40.32801819 C-272.73154385 39.75460062 -272.73154385 39.75460062 -270.69813538 36.58006287 C-270.13517258 35.55977493 -269.57220978 34.539487 -268.9921875 33.48828125 C-266.7293368 30.96681905 -265.28908019 29.5851348 -261.84765625 29.328125 C-256.74006139 29.67540757 -253.68863401 30.79183474 -249.9921875 34.48828125 C-249.2290625 35.23078125 -248.4659375 35.97328125 -247.6796875 36.73828125 C-247.1228125 37.31578125 -246.5659375 37.89328125 -245.9921875 38.48828125 C-245.6621875 37.49828125 -245.3321875 36.50828125 -244.9921875 35.48828125 C-239.37125912 31.33368202 -233.9560301 30.21518938 -226.9921875 30.48828125 C-222.45568892 31.44189957 -218.84625753 32.91890123 -214.9921875 35.48828125 C-212.41432965 35.6070365 -209.93898289 35.62513789 -207.3671875 35.55078125 C-205.92191025 35.5332588 -204.47659082 35.51891543 -203.03125 35.5078125 C-202.33547852 35.50217285 -201.63970703 35.4965332 -200.92285156 35.49072266 C-191.48595368 35.4787893 -191.48595368 35.4787893 -187.81884766 37.95703125 C-185.10955949 41.71136161 -185.21590691 45.20284731 -185.015625 49.73828125 C-184.96002914 50.65692459 -184.90443329 51.57556793 -184.84715271 52.52204895 C-184.67000741 55.51008613 -184.51858149 58.49883898 -184.3671875 61.48828125 C-184.25022068 63.53225652 -184.13131863 65.57612195 -184.01049805 67.61987305 C-183.77170424 71.68288215 -183.54113118 75.74622128 -183.31689453 79.81005859 C-182.89648988 87.31337789 -182.36023888 94.80636302 -181.8046875 102.30078125 C-181.64433091 104.5156105 -181.48415016 106.7304525 -181.32421875 108.9453125 C-181.21372244 110.45964862 -181.10312623 111.97397748 -180.9921875 113.48828125 C-180.32960937 113.03839844 -179.66703125 112.58851563 -178.984375 112.125 C-175.47752184 110.20676048 -171.9723807 109.22674821 -168.1171875 108.30078125 C-167.43527344 108.12353516 -166.75335938 107.94628906 -166.05078125 107.76367188 C-161.58376631 106.66180819 -157.59048472 106.31419428 -152.9921875 106.48828125 C-152.3321875 107.80828125 -151.6721875 109.12828125 -150.9921875 110.48828125 C-145.35393973 109.49636729 -140.68230928 108.08561554 -135.71875 105.1953125 C-133.9921875 104.48828125 -133.9921875 104.48828125 -130.9921875 105.48828125 C-131.31203708 111.67203986 -132.34888203 115.11328268 -136.9921875 119.48828125 C-140.12109375 121.4296875 -140.12109375 121.4296875 -143.5546875 123.05078125 C-144.16094971 123.34178711 -144.76721191 123.63279297 -145.3918457 123.93261719 C-150.36082151 126.28664924 -155.43432852 128.37538281 -160.56640625 130.34765625 C-163.01745718 131.50016329 -164.42169095 132.28854602 -165.9921875 134.48828125 C-166.35365207 136.77158226 -166.35365207 136.77158226 -166.1796875 139.17578125 C-166.13908203 140.38814453 -166.13908203 140.38814453 -166.09765625 141.625 C-166.06285156 142.23988281 -166.02804688 142.85476562 -165.9921875 143.48828125 C-165.3321875 143.48828125 -164.6721875 143.48828125 -163.9921875 143.48828125 C-163.6621875 141.83828125 -163.3321875 140.18828125 -162.9921875 138.48828125 C-159.98187006 137.5540448 -159.12568482 137.44378214 -155.9921875 138.48828125 C-154.83633795 141.01972361 -154.01956247 143.59532897 -153.15234375 146.23828125 C-152.21232149 148.67539082 -152.21232149 148.67539082 -149.86328125 149.30078125 C-149.24582031 149.36265625 -148.62835938 149.42453125 -147.9921875 149.48828125 C-148.8171875 148.60140625 -149.6421875 147.71453125 -150.4921875 146.80078125 C-152.35900897 144.56376855 -152.95955146 143.69342206 -153.4296875 140.73828125 C-152.9921875 138.48828125 -152.9921875 138.48828125 -150.9921875 136.48828125 C-145.39327153 136.69114052 -142.18926464 138.31708086 -137.7421875 141.61328125 C-136.61094604 142.43965494 -135.47810604 143.26384438 -134.34375 144.0859375 C-133.78333008 144.49473145 -133.22291016 144.90352539 -132.64550781 145.32470703 C-130.2163061 147.03433128 -127.66742809 148.52976999 -125.1171875 150.05078125 C-120.21664435 153.12169262 -116.23893099 156.66803067 -112.9921875 161.48828125 C-112.9921875 162.14828125 -112.9921875 162.80828125 -112.9921875 163.48828125 C-111.80367187 163.37742187 -110.61515625 163.2665625 -109.390625 163.15234375 C-105.09432231 163.15423723 -103.16020161 164.37766987 -100.12109375 167.30078125 C-99.62480469 167.81640625 -99.12851562 168.33203125 -98.6171875 168.86328125 C-98.09769531 169.37117187 -97.57820312 169.8790625 -97.04296875 170.40234375 C-95.67451659 171.74604354 -94.33173302 173.11576231 -92.9921875 174.48828125 C-92.3321875 175.14828125 -91.6721875 175.80828125 -90.9921875 176.48828125 C-90.57259766 175.08642578 -90.57259766 175.08642578 -90.14453125 173.65625 C-79.1200938 137.31921649 -79.1200938 137.31921649 -70.95046997 128.21232605 C-68.71296728 125.0998754 -68.41400509 123.46254305 -68.20263672 119.67700195 C-68.12924576 118.524711 -68.0558548 117.37242004 -67.98023987 116.18521118 C-67.91972946 114.94073212 -67.85921906 113.69625305 -67.796875 112.4140625 C-67.7190831 111.11334808 -67.6412912 109.81263367 -67.56114197 108.47250366 C-67.35197918 104.97132631 -67.1650999 101.46928927 -66.98248672 97.96664047 C-66.79042904 94.35889801 -66.57729737 90.75240768 -66.3659668 87.14575195 C-66.03661741 81.48348142 -65.7181833 75.82072314 -65.41064453 70.15722656 C-64.94116418 61.51555122 -64.43744141 52.87612609 -63.92510986 44.23690796 C-63.80874055 42.24515247 -63.69797026 40.25307229 -63.58740234 38.26098633 C-63.40439409 35.00223714 -63.19966636 31.7455393 -62.9921875 28.48828125 C-62.92717041 27.04509521 -62.92717041 27.04509521 -62.86083984 25.57275391 C-62.61856125 21.72631944 -62.44346342 19.19742913 -60.3515625 15.91015625 C-57.242762 14.03664072 -54.85401336 13.88275428 -51.2421875 13.73828125 C-50.07171875 13.6815625 -48.90125 13.62484375 -47.6953125 13.56640625 C-46.80328125 13.540625 -45.91125 13.51484375 -44.9921875 13.48828125 C-44.6621875 12.49828125 -44.3321875 11.50828125 -43.9921875 10.48828125 C-42.0121875 11.14828125 -40.0321875 11.80828125 -37.9921875 12.48828125 C-37.53779297 11.69164063 -37.53779297 11.69164063 -37.07421875 10.87890625 C-33.55298352 4.94156192 -29.89041804 0.65352682 -23.26953125 -1.96875 C-15.63879827 -3.78808428 -7.05707874 -3.58062113 0 0 Z M-26.9921875 10.48828125 C-25.9921875 12.48828125 -25.9921875 12.48828125 -25.9921875 12.48828125 Z M-21.9921875 15.48828125 C-20.23754422 17.71144004 -20.23754422 17.71144004 -18.07421875 17.5 C-17.32527344 17.39300781 -16.57632812 17.28601563 -15.8046875 17.17578125 C-15.00804687 17.0675 -14.21140625 16.95921875 -13.390625 16.84765625 C-12.59914063 16.7290625 -11.80765625 16.61046875 -10.9921875 16.48828125 C-9.92871094 16.34132813 -9.92871094 16.34132813 -8.84375 16.19140625 C-7.22517848 15.96678816 -5.60844288 15.72900014 -3.9921875 15.48828125 C-3.9921875 15.15828125 -3.9921875 14.82828125 -3.9921875 14.48828125 C-10.06812312 14.37576392 -15.95664202 14.79567767 -21.9921875 15.48828125 Z M-36.9921875 19.48828125 C-36.6621875 21.79828125 -36.3321875 24.10828125 -35.9921875 26.48828125 C-35.0021875 26.48828125 -34.0121875 26.48828125 -32.9921875 26.48828125 C-33.9821875 24.17828125 -34.9721875 21.86828125 -35.9921875 19.48828125 C-36.3221875 19.48828125 -36.6521875 19.48828125 -36.9921875 19.48828125 Z M16.0078125 21.48828125 C17.6578125 23.13828125 19.3078125 24.78828125 21.0078125 26.48828125 C20.21663346 24.48844591 20.21663346 24.48844591 19.0078125 22.48828125 C18.0178125 22.15828125 17.0278125 21.82828125 16.0078125 21.48828125 Z M-9.9921875 22.48828125 C-9.9921875 22.81828125 -9.9921875 23.14828125 -9.9921875 23.48828125 C-6.0321875 23.81828125 -2.0721875 24.14828125 2.0078125 24.48828125 C0.19588244 22.24503289 0.19588244 22.24503289 -2.375 22.29296875 C-3.27992188 22.31617187 -4.18484375 22.339375 -5.1171875 22.36328125 C-6.02726562 22.38132812 -6.93734375 22.399375 -7.875 22.41796875 C-8.57367188 22.44117187 -9.27234375 22.464375 -9.9921875 22.48828125 Z M-52.9921875 25.48828125 C-53.9556557 28.92997514 -53.97772154 32.43109161 -54.1171875 35.98828125 C-54.21265869 37.68936035 -54.21265869 37.68936035 -54.31005859 39.42480469 C-54.46074077 42.12880834 -54.60199416 44.83224068 -54.734375 47.53710938 C-55.02923442 53.39381507 -55.4044773 59.24523582 -55.7734375 65.09765625 C-56.05627636 69.64443367 -56.3370444 74.19133701 -56.6171875 78.73828125 C-56.68585022 79.84647217 -56.75451294 80.95466309 -56.82525635 82.09643555 C-57.56974613 94.23886428 -58.23614826 106.31981431 -57.9921875 118.48828125 C-45.95135158 115.63539075 -35.5023667 110.8074373 -25.234375 103.90625 C-22.9921875 102.48828125 -22.9921875 102.48828125 -19.9921875 101.48828125 C-18.18952481 98.07270984 -17.7732535 95.31962624 -17.9921875 91.48828125 C-18.59546875 91.34132813 -19.19875 91.194375 -19.8203125 91.04296875 C-20.61953125 90.81867188 -21.41875 90.594375 -22.2421875 90.36328125 C-23.42554688 90.05003906 -23.42554688 90.05003906 -24.6328125 89.73046875 C-28.7747614 87.5497738 -30.48824136 83.9577882 -31.96875 79.640625 C-34.79125 65.6471461 -35.9921875 50.76998129 -35.9921875 36.48828125 C-37.0646875 35.80765625 -38.1371875 35.12703125 -39.2421875 34.42578125 C-43.74084257 31.396261 -45.24135167 27.47979458 -46.9921875 22.48828125 C-49.74872825 22.48828125 -50.96863257 23.74840224 -52.9921875 25.48828125 Z M-12.9921875 23.48828125 C-13.3221875 24.14828125 -13.6521875 24.80828125 -13.9921875 25.48828125 C-12.6721875 24.82828125 -11.3521875 24.16828125 -9.9921875 23.48828125 C-10.9821875 23.48828125 -11.9721875 23.48828125 -12.9921875 23.48828125 Z M2.0078125 24.48828125 C2.9978125 25.97328125 2.9978125 25.97328125 4.0078125 27.48828125 C4.6678125 27.15828125 5.3278125 26.82828125 6.0078125 26.48828125 C4.6878125 25.82828125 3.3678125 25.16828125 2.0078125 24.48828125 Z M92.0078125 24.48828125 C92.0236032 25.20768607 92.0393939 25.92709089 92.05566311 26.66829586 C92.1968853 39.00483312 91.37517408 51.28057174 90.64672852 63.59008789 C90.50023136 66.11600823 90.35408192 68.64194876 90.20825195 71.16790771 C89.85411371 77.28532178 89.49620585 83.40250494 89.13642091 89.51958919 C88.84413743 94.49052211 88.5535023 99.46154893 88.26402092 104.4326458 C88.22267922 105.14257316 88.18133753 105.85250053 88.13874305 106.58394084 C88.05474944 108.02643946 87.97076019 109.46893833 87.88677525 110.91143744 C87.10133148 124.3988881 86.31100096 137.88604892 85.51891058 151.37311064 C84.83962961 162.94115755 84.16431925 174.50943062 83.49194336 186.07788086 C82.7098501 199.53400041 81.92549629 212.98998486 81.13739532 226.44575399 C81.05340132 227.87992206 80.96940948 229.31409026 80.88541985 230.74825859 C80.8440989 231.45380154 80.80277796 232.15934449 80.76020487 232.88626753 C80.46936513 237.85483595 80.18012176 242.82349583 79.8914814 247.79219246 C79.50333076 254.47288835 79.11140961 261.15335287 78.71694183 267.8336792 C78.57261371 270.28744357 78.42949133 272.74127919 78.28764915 275.19518852 C78.09419981 278.53849452 77.89642502 281.88151707 77.69752502 285.22450256 C77.64207364 286.20036239 77.58662226 287.17622222 77.52949053 288.18165356 C77.47524855 289.07820768 77.42100657 289.9747618 77.36512089 290.89848423 C77.31993417 291.66970161 77.27474745 292.44091899 77.22819144 293.23550659 C76.98714586 295.6995414 76.52986024 298.06952392 76.0078125 300.48828125 C79.29857246 300.10923917 79.29857246 300.10923917 82.0078125 298.48828125 C82.22122185 297.15748412 82.3744617 295.81692349 82.50116062 294.47509193 C82.58209632 293.63050151 82.66303203 292.78591109 82.74642032 291.91572702 C82.82877731 290.99693218 82.91113429 290.07813735 82.99598694 289.13150024 C83.08329734 288.18256193 83.17060774 287.23362361 83.26056391 286.25592959 C84.09809234 276.91259201 84.68086881 267.56244257 85.19702148 258.19677734 C85.30047508 256.37495484 85.40428714 254.55315266 85.50842285 252.73136902 C85.78685862 247.84317702 86.06040408 242.95472282 86.33302569 238.06620359 C86.62355756 232.87295516 86.9188641 227.67997805 87.21363831 222.48696899 C87.77275123 212.62504889 88.32787557 202.76290873 88.88143355 192.90067542 C89.68298655 178.62337497 90.49063754 164.34641927 91.29827309 150.06946182 C91.41952694 147.92572308 91.54077521 145.78198401 91.66201782 143.63824463 C91.72160537 142.58472439 91.78119292 141.53120415 91.84258616 140.44575906 C92.19870225 134.14643562 92.55342777 127.84703567 92.90699303 121.54756856 C93.92366176 103.43485028 94.94078832 85.32258946 96.05908203 67.21582031 C96.13518361 65.97378405 96.21128519 64.73174778 96.28969288 63.45207405 C96.62150171 58.04279949 96.9593807 52.63410029 97.31236267 47.22616577 C97.42343059 45.44066987 97.53425509 43.65515879 97.64477539 41.86962891 C97.6978718 41.10298542 97.75096821 40.33634193 97.8056736 39.54646683 C98.07834159 35.00080279 97.79065303 30.94573021 97.0078125 26.48828125 C95.3578125 25.82828125 93.7078125 25.16828125 92.0078125 24.48828125 Z M-19.9921875 28.48828125 C-17.51951985 28.14383244 -17.51951985 28.14383244 -14.9921875 27.48828125 C-14.6621875 26.82828125 -14.3321875 26.16828125 -13.9921875 25.48828125 C-16.75442028 25.48828125 -17.88500204 26.80253288 -19.9921875 28.48828125 Z M21.0078125 26.48828125 C21.6678125 27.80828125 22.3278125 29.12828125 23.0078125 30.48828125 C22.6778125 29.16828125 22.3478125 27.84828125 22.0078125 26.48828125 C21.6778125 26.48828125 21.3478125 26.48828125 21.0078125 26.48828125 Z M30.0078125 27.48828125 C30.0078125 30.45828125 30.0078125 33.42828125 30.0078125 36.48828125 C33.9678125 36.48828125 37.9278125 36.48828125 42.0078125 36.48828125 C42.3378125 33.51828125 42.6678125 30.54828125 43.0078125 27.48828125 C38.7178125 27.48828125 34.4278125 27.48828125 30.0078125 27.48828125 Z M-30.9921875 28.48828125 C-26.45998783 30.75438109 -24.81445825 30.41564101 -19.9921875 29.48828125 C-19.9921875 29.15828125 -19.9921875 28.82828125 -19.9921875 28.48828125 C-23.6221875 28.48828125 -27.2521875 28.48828125 -30.9921875 28.48828125 Z M46.0078125 28.48828125 C45.6778125 32.44828125 45.3478125 36.40828125 45.0078125 40.48828125 C42.5328125 39.99328125 42.5328125 39.99328125 40.0078125 39.48828125 C38.23803489 39.42369083 36.46611098 39.4021706 34.6953125 39.42578125 C33.37080078 39.43931641 33.37080078 39.43931641 32.01953125 39.453125 C31.02373047 39.47052734 31.02373047 39.47052734 30.0078125 39.48828125 C29.70488281 40.55046875 29.40195312 41.61265625 29.08984375 42.70703125 C24.81200092 57.29340671 24.81200092 57.29340671 20.0078125 63.48828125 C18.5228125 63.98328125 18.5228125 63.98328125 17.0078125 64.48828125 C16.23469298 66.42373358 16.23469298 66.42373358 15.8828125 68.73828125 C15.73585938 69.5065625 15.58890625 70.27484375 15.4375 71.06640625 C15.29570312 71.865625 15.15390625 72.66484375 15.0078125 73.48828125 C14.8015625 74.2153125 14.5953125 74.94234375 14.3828125 75.69140625 C13.818374 79.90117675 14.49318311 83.8115013 15.1328125 87.98828125 C15.23851562 88.83003906 15.34421875 89.67179687 15.453125 90.5390625 C16.29033755 96.07687465 17.49444451 98.84933627 22.0078125 102.48828125 C22.63300781 103.06191406 23.25820313 103.63554687 23.90234375 104.2265625 C34.43568389 112.87205349 47.39009896 117.94138966 60.09301758 122.52319336 C67.16054119 125.18341296 71.75293023 129.19509952 77.0078125 134.48828125 C78.02706855 130.12169224 78.3262471 125.77062811 78.58032227 121.30834961 C78.65369308 120.09258743 78.65369308 120.09258743 78.72854614 118.8522644 C78.88897191 116.17774832 79.04426085 113.50296305 79.19921875 110.828125 C79.30968522 108.95828558 79.42036046 107.08845848 79.53123474 105.21864319 C79.76294001 101.29734115 79.99210222 97.37590084 80.21948242 93.4543457 C80.50945191 88.45682681 80.80568454 83.45970316 81.10386753 78.46266842 C81.33378061 74.59779126 81.56030128 70.73272076 81.78584099 66.86758614 C81.89364628 65.02695215 82.00247685 63.18637789 82.11239815 61.34586906 C82.40511624 56.42832969 82.67939172 51.51082784 82.90855789 46.58988571 C83.00110971 44.63020528 83.10672028 42.67115367 83.21334839 40.71218872 C83.24985504 39.63613373 83.28636169 38.56007874 83.32397461 37.45141602 C83.3608287 36.54923843 83.3976828 35.64706085 83.43565369 34.71754456 C83.19818096 32.33734923 83.19818096 32.33734923 81.19386292 30.71006775 C78.06466513 28.96115492 75.38888432 28.96185019 71.8203125 28.80078125 C71.13066406 28.76734619 70.44101562 28.73391113 69.73046875 28.69946289 C61.82723719 28.3574278 53.91611294 28.40019375 46.0078125 28.48828125 Z M11.0078125 30.48828125 C11.6678125 33.12828125 12.3278125 35.76828125 13.0078125 38.48828125 C14.37064424 34.7284848 14.37064424 34.7284848 13.0703125 32.23828125 C12.7196875 31.66078125 12.3690625 31.08328125 12.0078125 30.48828125 C11.6778125 30.48828125 11.3478125 30.48828125 11.0078125 30.48828125 Z M23.0078125 30.48828125 C23.0078125 33.78828125 23.0078125 37.08828125 23.0078125 40.48828125 C23.6678125 40.15828125 24.3278125 39.82828125 25.0078125 39.48828125 C24.6778125 36.51828125 24.3478125 33.54828125 24.0078125 30.48828125 C23.6778125 30.48828125 23.3478125 30.48828125 23.0078125 30.48828125 Z M-11.4296875 33.92578125 C-16.23348954 37.69789426 -20.19695295 37.60675564 -26.2421875 37.55078125 C-27.50546875 37.54175781 -28.76875 37.53273438 -30.0703125 37.5234375 C-31.03453125 37.51183594 -31.99875 37.50023437 -32.9921875 37.48828125 C-32.9921875 40.45828125 -32.9921875 43.42828125 -32.9921875 46.48828125 C-28.5371875 45.99328125 -28.5371875 45.99328125 -23.9921875 45.48828125 C-23.9921875 46.47828125 -23.9921875 47.46828125 -23.9921875 48.48828125 C-26.9621875 48.15828125 -29.9321875 47.82828125 -32.9921875 47.48828125 C-32.66262311 55.93194817 -32.05428377 64.26903075 -30.6796875 72.61328125 C-30.52149536 73.65923462 -30.52149536 73.65923462 -30.36010742 74.72631836 C-29.52523797 79.46029708 -28.05990545 82.78701285 -24.9921875 86.48828125 C-20.08209016 89.11701405 -14.54921902 88.74627243 -9.31640625 87.3125 C-1.86486828 84.67002183 4.38287091 81.05072349 10.0078125 75.48828125 C10.6471875 74.89015625 11.2865625 74.29203125 11.9453125 73.67578125 C13.66525944 70.13471403 13.41584462 66.35673964 13.0078125 62.48828125 C12.6778125 62.15828125 12.3478125 61.82828125 12.0078125 61.48828125 C11.64020519 59.16010161 11.30539669 56.82644275 11.0078125 54.48828125 C10.3478125 54.48828125 9.6878125 54.48828125 9.0078125 54.48828125 C8.90984375 53.76382813 8.811875 53.039375 8.7109375 52.29296875 C7.27258109 42.99325056 4.4293134 38.21838749 -3.08984375 32.58984375 C-6.6430291 30.53235244 -8.48369548 31.60966726 -11.4296875 33.92578125 Z M-230.9921875 39.48828125 C-230.3321875 40.14828125 -229.6721875 40.80828125 -228.9921875 41.48828125 C-228.0021875 41.15828125 -227.0121875 40.82828125 -225.9921875 40.48828125 C-227.6421875 40.15828125 -229.2921875 39.82828125 -230.9921875 39.48828125 Z M-240.9921875 41.48828125 C-240.6621875 42.14828125 -240.3321875 42.80828125 -239.9921875 43.48828125 C-237.6821875 43.48828125 -235.3721875 43.48828125 -232.9921875 43.48828125 C-234.88973894 41.13854307 -234.88973894 41.13854307 -238.1171875 41.36328125 C-239.0659375 41.40453125 -240.0146875 41.44578125 -240.9921875 41.48828125 Z M-207.9921875 44.48828125 C-207.08699318 50.95974511 -205.54421551 55.9530235 -202.015625 61.48046875 C-200.9921875 63.48828125 -200.9921875 63.48828125 -200.9921875 67.48828125 C-202.3121875 67.81828125 -203.6321875 68.14828125 -204.9921875 68.48828125 C-205.03182617 69.1524707 -205.07146484 69.81666016 -205.11230469 70.50097656 C-206.94319863 99.66377898 -206.94319863 99.66377898 -214.9921875 110.48828125 C-215.3221875 111.47828125 -215.6521875 112.46828125 -215.9921875 113.48828125 C-219.59351459 115.79313059 -223.99755401 117.0235823 -227.9921875 118.48828125 C-229.59901293 126.20058395 -229.59901293 126.20058395 -227.9453125 133.6640625 C-222.85468175 138.7430175 -215.55522168 140.78332135 -208.87207031 143.00537109 C-198.09073669 146.60277612 -198.09073669 146.60277612 -194.6484375 151.3359375 C-193.7704802 154.2154284 -193.63113214 156.92110334 -193.4921875 159.92578125 C-193.29221571 164.24017272 -192.8152104 167.5555504 -190.9921875 171.48828125 C-190.6621875 171.48828125 -190.3321875 171.48828125 -189.9921875 171.48828125 C-186.12299233 148.19157176 -189.86775228 122.94750075 -191.25170898 99.52355957 C-191.49074895 95.44692813 -191.72258659 91.36990018 -191.95429897 87.29284668 C-192.17918662 83.34470393 -192.40724803 79.39674988 -192.63640022 75.44885254 C-192.7451172 73.57348557 -192.85315424 71.69807906 -192.96047783 69.82263184 C-193.11051234 67.2135975 -193.26451652 64.60482759 -193.41967773 61.99609375 C-193.46283615 61.23452972 -193.50599457 60.4729657 -193.55046082 59.68832397 C-193.54075413 51.40104137 -193.54075413 51.40104137 -196.9921875 44.48828125 C-199.66168159 44.24512469 -199.66168159 44.24512469 -202.6171875 44.36328125 C-203.62007812 44.38132813 -204.62296875 44.399375 -205.65625 44.41796875 C-206.81253906 44.45277344 -206.81253906 44.45277344 -207.9921875 44.48828125 Z M-219.9921875 45.48828125 C-219.3321875 46.80828125 -218.6721875 48.12828125 -217.9921875 49.48828125 C-218.3221875 48.16828125 -218.6521875 46.84828125 -218.9921875 45.48828125 C-219.3221875 45.48828125 -219.6521875 45.48828125 -219.9921875 45.48828125 Z M-229.9921875 46.48828125 C-229.6621875 48.13828125 -229.3321875 49.78828125 -228.9921875 51.48828125 C-228.6621875 50.49828125 -228.3321875 49.50828125 -227.9921875 48.48828125 C-228.6521875 47.82828125 -229.3121875 47.16828125 -229.9921875 46.48828125 Z M-344.9921875 48.48828125 C-346.4731958 51.45029784 -345.93994172 54.36274329 -345.75794983 57.58995056 C-345.72042677 58.33061882 -345.68290372 59.07128707 -345.6442436 59.83439982 C-345.51587579 62.3351549 -345.37925685 64.83538768 -345.24243164 67.33569336 C-345.14788309 69.13254878 -345.05366093 70.92942141 -344.95974064 72.72630978 C-344.64734388 78.64753333 -344.32141168 84.56797198 -343.9921875 90.48828125 C-343.93674821 91.48575079 -343.88130893 92.48322034 -343.82418966 93.51091623 C-342.97263231 108.78990648 -342.08799061 124.06695666 -341.19725299 139.34370542 C-340.91330669 144.21626061 -340.63030428 149.08887048 -340.34725243 153.9614777 C-339.68039465 165.44014775 -339.01176548 176.91871367 -338.34204102 188.3972168 C-337.65301279 200.20724367 -336.96743462 212.01746752 -336.28340858 223.82778507 C-335.69183787 234.0393554 -335.09799779 244.25079208 -334.50236374 254.4621262 C-334.14833478 260.53203684 -333.7951977 266.60199603 -333.44433403 272.67209053 C-333.11614503 278.34846195 -332.78513033 284.02466158 -332.45192719 289.70074081 C-332.33037199 291.77958585 -332.2098226 293.85848998 -332.09035683 295.93745613 C-331.92713917 298.77504562 -331.76028161 301.61239869 -331.59251404 304.44972229 C-331.52305617 305.67973248 -331.52305617 305.67973248 -331.45219511 306.93459135 C-331.46218337 315.35045591 -331.46218337 315.35045591 -328.1171875 322.48828125 C-325.88664244 323.83647475 -325.88664244 323.83647475 -322.9921875 322.48828125 C-323.31228015 321.92073006 -323.63237281 321.35317887 -323.96216524 320.76842916 C-325.05400776 318.35143047 -325.32016324 316.64030736 -325.47254372 314.00591469 C-325.55689326 312.65884499 -325.55689326 312.65884499 -325.64294684 311.28456175 C-325.69548538 310.30189813 -325.74802392 309.31923452 -325.80215454 308.30679321 C-325.86511668 307.25969693 -325.92807881 306.21260064 -325.99294889 305.13377416 C-326.20242334 301.61387279 -326.39926422 298.09337791 -326.59619141 294.57275391 C-326.74352269 292.05299587 -326.89161748 289.53328239 -327.04042053 287.01361084 C-327.40112888 280.87097389 -327.75364364 274.72791313 -328.10240127 268.58458753 C-328.50936042 261.4222361 -328.92559979 254.2604331 -329.34221952 247.09863822 C-330.08595209 234.30819437 -330.82122176 221.51727798 -331.55175781 208.72607422 C-332.25944392 196.33508675 -332.97304946 183.94445936 -333.69335938 171.55419922 C-333.73763886 170.7925209 -333.78191835 170.03084258 -333.82753964 169.2460831 C-333.87174555 168.48568313 -333.91595146 167.72528316 -333.96149695 166.94184077 C-334.78249749 152.81890877 -335.59815355 138.69567259 -336.41118801 124.57227988 C-336.69808861 119.59038189 -336.98650289 114.60857286 -337.27537918 109.62678909 C-337.66522774 102.90148363 -338.05046612 96.17592784 -338.43275261 89.45018768 C-338.57327061 86.98877251 -338.71513127 84.52743354 -338.85847282 82.06618118 C-340.24669028 58.19952505 -340.24669028 58.19952505 -339.9921875 46.48828125 C-341.88661729 46.48828125 -343.38203751 47.58257188 -344.9921875 48.48828125 Z M-290.9921875 49.48828125 C-290.6621875 52.78828125 -290.3321875 56.08828125 -289.9921875 59.48828125 C-283.5571875 58.99328125 -283.5571875 58.99328125 -276.9921875 58.48828125 C-275.3081985 54.27830875 -274.75158897 52.69875559 -274.9921875 48.48828125 C-277.28379069 48.46135641 -279.57548296 48.44192001 -281.8671875 48.42578125 C-283.78144531 48.40837891 -283.78144531 48.40837891 -285.734375 48.390625 C-288.87883402 48.25651556 -288.87883402 48.25651556 -290.9921875 49.48828125 Z M-265.9921875 49.48828125 C-266.3221875 50.14828125 -266.6521875 50.80828125 -266.9921875 51.48828125 C-266.3321875 51.48828125 -265.6721875 51.48828125 -264.9921875 51.48828125 C-265.3221875 50.82828125 -265.6521875 50.16828125 -265.9921875 49.48828125 Z M17.0078125 49.48828125 C17.2346875 50.74640625 17.4615625 52.00453125 17.6953125 53.30078125 C18.2073951 57.21060111 18.2073951 57.21060111 16.5703125 59.48828125 C16.0546875 59.81828125 15.5390625 60.14828125 15.0078125 60.48828125 C16.3278125 60.48828125 17.6478125 60.48828125 19.0078125 60.48828125 C20.72203663 57.21145569 20.72203663 57.21145569 22.0078125 53.48828125 C21.35098941 51.0814131 21.35098941 51.0814131 20.0078125 49.48828125 C19.0178125 49.48828125 18.0278125 49.48828125 17.0078125 49.48828125 Z M-316.9921875 49.80078125 C-317.80469971 49.82325928 -318.61721191 49.8457373 -319.4543457 49.86889648 C-324.49685338 50.09988702 -328.25349431 50.74958806 -331.9921875 54.48828125 C-332.72076963 67.37275835 -331.46356711 80.41121592 -330.6796875 93.265625 C-330.54477933 95.53102864 -330.41026454 97.79645574 -330.27612305 100.06190491 C-329.92493078 105.97536726 -329.56845506 111.88849925 -329.21081543 117.80157471 C-328.84563719 123.85515341 -328.4855432 129.90903441 -328.125 135.96289062 C-327.41899145 147.80498596 -326.70739159 159.64673797 -325.9921875 171.48828125 C-320.33049332 165.82658707 -320.66935222 153.99349623 -320.6171875 146.30078125 C-320.65159189 138.87167743 -321.62585233 131.79382966 -322.90893555 124.49145508 C-324.87573877 112.90329556 -326.14526614 100.02934627 -319.9921875 89.48828125 C-312.26815096 78.94170876 -304.1854217 74.77295489 -292.16040039 70.80126953 C-286.69095158 68.92530141 -282.97749759 66.78015365 -278.9921875 62.48828125 C-282.14149643 61.43851161 -284.38033206 61.3869653 -287.6796875 61.42578125 C-289.4328125 61.44640625 -291.1859375 61.46703125 -292.9921875 61.48828125 C-293.4871875 55.54828125 -293.4871875 55.54828125 -293.9921875 49.48828125 C-301.66961239 49.3979586 -309.32095756 49.4941094 -316.9921875 49.80078125 Z M-227.9921875 51.48828125 C-227.3321875 52.80828125 -226.6721875 54.12828125 -225.9921875 55.48828125 C-225.3321875 55.15828125 -224.6721875 54.82828125 -223.9921875 54.48828125 C-225.3121875 53.49828125 -226.6321875 52.50828125 -227.9921875 51.48828125 Z M-260.9921875 53.48828125 C-260.9921875 53.81828125 -260.9921875 54.14828125 -260.9921875 54.48828125 C-259.105 54.55015625 -259.105 54.55015625 -257.1796875 54.61328125 C-256.47199219 54.63648438 -255.76429688 54.6596875 -255.03515625 54.68359375 C-252.67859031 54.62082587 -252.67859031 54.62082587 -249.9921875 52.48828125 C-253.82444177 52.39915906 -257.25780902 52.60960396 -260.9921875 53.48828125 Z M-235.9921875 52.48828125 C-236.4871875 53.33390625 -236.9821875 54.17953125 -237.4921875 55.05078125 C-239.46714541 58.23307191 -241.80046005 59.8406751 -244.9296875 61.86328125 C-250.70750565 65.69811631 -253.81081771 69.94417189 -255.9921875 76.48828125 C-258.48417934 74.47095452 -259.21024957 72.97038383 -260.4921875 69.92578125 C-261.71242055 66.2842454 -261.71242055 66.2842454 -264.9921875 64.48828125 C-268.75797388 64.56840436 -270.47474249 65.02677624 -273.3046875 67.55078125 C-275.41036887 71.21622661 -276.55253703 74.28939544 -275.9921875 78.48828125 C-273.90762573 83.23350185 -271.58777284 86.72240029 -266.8671875 88.98828125 C-265.9184375 89.15328125 -264.9696875 89.31828125 -263.9921875 89.48828125 C-263.2084375 89.69453125 -262.4246875 89.90078125 -261.6171875 90.11328125 C-260.8128125 90.29890625 -260.8128125 90.29890625 -259.9921875 90.48828125 C-260.9821875 91.14828125 -261.9721875 91.80828125 -262.9921875 92.48828125 C-259.60905546 102.09040602 -251.12703002 107.2730975 -242.46875 111.84765625 C-236.83957058 114.50412294 -231.99911779 115.95995659 -225.8046875 114.98828125 C-217.78091818 110.70893761 -213.91939996 105.35634071 -211.12109375 96.8359375 C-208.85576872 88.76097509 -208.32265677 80.82978154 -207.9921875 72.48828125 C-211.2921875 72.81828125 -214.5921875 73.14828125 -217.9921875 73.48828125 C-217.9921875 72.16828125 -217.9921875 70.84828125 -217.9921875 69.48828125 C-213.0421875 70.47828125 -213.0421875 70.47828125 -207.9921875 71.48828125 C-207.9921875 70.49828125 -207.9921875 69.50828125 -207.9921875 68.48828125 C-208.60964844 68.32972656 -209.22710937 68.17117187 -209.86328125 68.0078125 C-219.87414265 65.24987351 -228.07723252 61.36071372 -233.9921875 52.48828125 C-234.6521875 52.48828125 -235.3121875 52.48828125 -235.9921875 52.48828125 Z M14.0078125 54.48828125 C15.0078125 56.48828125 15.0078125 56.48828125 15.0078125 56.48828125 Z M-264.9921875 55.48828125 C-264.9921875 56.47828125 -264.9921875 57.46828125 -264.9921875 58.48828125 C-264.3321875 57.49828125 -263.6721875 56.50828125 -262.9921875 55.48828125 C-263.6521875 55.48828125 -264.3121875 55.48828125 -264.9921875 55.48828125 Z M-219.9921875 57.48828125 C-218.03584775 59.89949984 -218.03584775 59.89949984 -214.3671875 59.61328125 C-213.2534375 59.57203125 -212.1396875 59.53078125 -210.9921875 59.48828125 C-210.9921875 59.15828125 -210.9921875 58.82828125 -210.9921875 58.48828125 C-213.9621875 58.15828125 -216.9321875 57.82828125 -219.9921875 57.48828125 Z M9.0078125 79.48828125 C7.71734717 81.32163199 6.50062866 83.20715181 5.3203125 85.11328125 C-0.87618555 94.55239119 -6.2053001 98.17223992 -16.9921875 101.48828125 C-11.73373506 104.99391621 -6.76128549 104.70081724 -0.6171875 104.73828125 C0.22070312 104.75890625 1.05859375 104.77953125 1.921875 104.80078125 C7.07001343 104.83315948 10.50598272 104.27442998 15.0078125 101.48828125 C14.53286198 98.38345419 14.05212502 95.27955024 13.5703125 92.17578125 C13.43560547 91.29470703 13.30089844 90.41363281 13.16210938 89.50585938 C13.02998047 88.65830078 12.89785156 87.81074219 12.76171875 86.9375 C12.64127197 86.15721436 12.5208252 85.37692871 12.39672852 84.57299805 C12.02292639 82.30548328 12.02292639 82.30548328 11.0078125 79.48828125 C10.3478125 79.48828125 9.6878125 79.48828125 9.0078125 79.48828125 Z M14.3203125 104.92578125 C5.58919023 109.04423515 -5.74393858 108.54543402 -14.89453125 105.92578125 C-18.58313286 105.15646397 -21.72906611 104.71246773 -25.02734375 106.73828125 C-26.03087891 107.60453125 -26.03087891 107.60453125 -27.0546875 108.48828125 C-32.9095037 112.8905327 -39.31386701 115.12861052 -46.15258789 117.55859375 C-59.44493814 122.31337949 -67.88807509 126.85738277 -74.3671875 139.80078125 C-85.05640366 161.31196234 -85.05640366 161.31196234 -87.28515625 183.69140625 C-86.92035156 184.366875 -86.55554688 185.04234375 -86.1796875 185.73828125 C-83.82097276 190.52916551 -82.82503771 195.23913322 -81.9921875 200.48828125 C-82.9821875 200.81828125 -83.9721875 201.14828125 -84.9921875 201.48828125 C-85.0540625 200.23015625 -85.1159375 198.97203125 -85.1796875 197.67578125 C-86.62366474 185.69264548 -93.27192004 178.21874824 -101.9921875 170.48828125 C-102.848125 169.70324219 -103.7040625 168.91820312 -104.5859375 168.109375 C-106.79917802 166.29885392 -106.79917802 166.29885392 -109.09375 166.4609375 C-113.29317735 168.73346712 -115.47518078 173.57533291 -117.9921875 177.48828125 C-118.60449219 178.38289063 -119.21679688 179.2775 -119.84765625 180.19921875 C-120.41097656 181.05773437 -120.97429687 181.91625 -121.5546875 182.80078125 C-122.07160156 183.58066406 -122.58851563 184.36054688 -123.12109375 185.1640625 C-124.23784114 187.48933322 -124.23784114 187.48933322 -123.40234375 190.0078125 C-120.7908755 194.60139238 -116.82442454 197.90946633 -112.9921875 201.48828125 C-112.33734375 202.10058594 -111.6825 202.71289062 -111.0078125 203.34375 C-98.01568863 215.36391115 -98.01568863 215.36391115 -81.4921875 219.61328125 C-73.29802055 218.28982473 -68.1611282 210.91464939 -63.46875 204.63671875 C-60.15358714 199.94466023 -60.15358714 199.94466023 -58.9921875 194.48828125 C-58.3321875 194.48828125 -57.6721875 194.48828125 -56.9921875 194.48828125 C-55.74323232 190.69337898 -55.99959689 187.13858472 -56.1171875 183.17578125 C-56.24402283 174.93621715 -54.89732918 167.51775643 -52.9921875 159.48828125 C-52.59458307 157.67616895 -52.19843835 155.86373479 -51.8046875 154.05078125 C-51.4025 152.28734375 -51.4025 152.28734375 -50.9921875 150.48828125 C-50.0021875 150.48828125 -49.0121875 150.48828125 -47.9921875 150.48828125 C-48.34152344 151.63039062 -48.69085938 152.7725 -49.05078125 153.94921875 C-52.26973259 165.17204908 -53.59261373 175.69141065 -53.62670898 187.37646484 C-53.68364881 193.44973279 -54.35998636 198.44821431 -56.29296875 204.20458984 C-57.34103742 207.62764652 -57.56245772 210.92705372 -57.6796875 214.48828125 C-57.7254895 215.59260498 -57.7254895 215.59260498 -57.7722168 216.71923828 C-57.86618214 219.30868095 -57.93027619 221.89787619 -57.9921875 224.48828125 C-58.04101074 226.11975098 -58.04101074 226.11975098 -58.09082031 227.78417969 C-58.18798393 231.31053207 -58.25122187 234.83601433 -58.3046875 238.36328125 C-58.33457764 239.49894531 -58.36446777 240.63460937 -58.39526367 241.8046875 C-58.40650269 243.40763672 -58.40650269 243.40763672 -58.41796875 245.04296875 C-58.43255127 245.99671387 -58.44713379 246.95045898 -58.4621582 247.93310547 C-57.84123555 251.30898934 -56.62820269 252.33718836 -53.9921875 254.48828125 C-51.5267496 255.08855169 -51.5267496 255.08855169 -48.8036499 255.00726318 C-47.75479614 255.02117599 -46.70594238 255.03508881 -45.62530518 255.04942322 C-43.90763947 255.04187767 -43.90763947 255.04187767 -42.15527344 255.03417969 C-40.34023315 255.0496862 -40.34023315 255.0496862 -38.48852539 255.06550598 C-35.17454874 255.08994174 -31.86141212 255.09677069 -28.54740429 255.09578609 C-25.08264494 255.09891508 -21.6180537 255.1245329 -18.15338135 255.14776611 C-11.59447965 255.18833097 -5.03567738 255.20866788 1.52333045 255.22174001 C8.99132678 255.23760848 16.45915385 255.27602338 23.92705202 255.31633329 C39.28725521 255.39873879 54.64742486 255.45282673 70.0078125 255.48828125 C71.0349705 250.15944092 71.37380879 244.86921598 71.68798828 239.46313477 C71.74826202 238.46888489 71.80853577 237.47463501 71.87063599 236.45025635 C72.0682658 233.17276366 72.26100792 229.89500766 72.453125 226.6171875 C72.58853256 224.3332421 72.72402163 222.04930154 72.85958862 219.7653656 C73.14262493 214.98165129 73.4229321 210.19778553 73.70166016 205.41381836 C74.05897187 199.28908486 74.42571366 193.16495584 74.79484749 187.04092503 C75.077577 182.32540836 75.35394188 177.60953426 75.62853622 172.89353752 C75.76102948 170.63561526 75.89580853 168.37782591 76.03293228 166.12018013 C76.22409825 162.96140933 76.40634844 159.80224198 76.58642578 156.64282227 C76.64455444 155.7142894 76.70268311 154.78575653 76.76257324 153.8290863 C77.26741239 144.63990456 76.45757911 138.88367535 70.33984375 131.76953125 C66.05685206 127.57980403 61.31671866 125.78491586 55.79980469 123.62304688 C53.24369262 122.62092898 50.68815211 121.61736717 48.1328125 120.61328125 C46.82957031 120.10547119 46.82957031 120.10547119 45.5 119.58740234 C38.56132589 116.83518353 32.27719028 113.56592533 26.0078125 109.48828125 C25.6778125 110.14828125 25.3478125 110.80828125 25.0078125 111.48828125 C23.03385727 112.22851446 21.02509388 112.87589226 19.0078125 113.48828125 C18.42515625 113.74996094 17.8425 114.01164062 17.2421875 114.28125 C4.78094243 119.50614213 -10.34522386 116.62204215 -22.9921875 113.48828125 C-22.9921875 112.49828125 -22.9921875 111.50828125 -22.9921875 110.48828125 C-22.20714844 110.69324219 -21.42210937 110.89820313 -20.61328125 111.109375 C-4.98333664 115.11754485 8.44446987 116.53644428 23.0078125 108.48828125 C21.3623747 106.80065274 19.69492673 105.13424635 18.0078125 103.48828125 C16.64681055 103.40967254 16.64681055 103.40967254 14.3203125 104.92578125 Z M-166.8671875 111.67578125 C-167.67027344 111.87236328 -168.47335938 112.06894531 -169.30078125 112.27148438 C-174.43778925 113.64671304 -177.70560433 115.07076357 -180.9921875 119.48828125 C-183.22248132 125.10557408 -183.47303616 130.83256382 -183.8671875 136.80078125 C-184.41065871 144.23389453 -185.09118807 151.63171387 -186.0078125 159.02734375 C-186.09833893 159.76250717 -186.18886536 160.49767059 -186.28213501 161.25511169 C-186.73099577 164.87886474 -187.19306301 168.50038578 -187.67138672 172.12036133 C-189.27677851 184.65906635 -190.59401142 197.83849089 -187.2421875 210.17578125 C-186.91734375 211.43777344 -186.5925 212.69976562 -186.2578125 214 C-184.75928679 218.13019587 -183.0863352 222.4412074 -178.9921875 224.48828125 C-175.02422996 225.02936637 -173.29253597 224.66495682 -169.8046875 222.61328125 C-164.18584679 217.2746452 -163.77832611 209.72758545 -163.4921875 202.36328125 C-163.47232904 194.54988004 -164.82201128 186.9736594 -166.13922119 179.29779053 C-168.14845306 167.57420228 -169.52681774 156.14600304 -169.6171875 144.23828125 C-169.63974609 143.01334961 -169.66230469 141.78841797 -169.68554688 140.52636719 C-169.61539513 132.31627517 -169.61539513 132.31627517 -167.06640625 128.9296875 C-162.00394023 126.5560535 -156.83106973 124.61098169 -151.56054688 122.75195312 C-145.38492156 120.43551103 -140.39961562 117.48944815 -135.9921875 112.48828125 C-135.9921875 111.82828125 -135.9921875 111.16828125 -135.9921875 110.48828125 C-136.90097656 110.79572266 -136.90097656 110.79572266 -137.828125 111.109375 C-143.89560271 113.06030245 -149.63521874 114.09604275 -155.9921875 114.48828125 C-155.6621875 112.83828125 -155.3321875 111.18828125 -154.9921875 109.48828125 C-159.1601847 109.48828125 -162.85649307 110.60775054 -166.8671875 111.67578125 Z M-252.9921875 110.48828125 C-254.34905773 114.35014266 -255.57183899 118.25381337 -256.7421875 122.17578125 C-257.02578125 123.10777344 -257.309375 124.03976563 -257.6015625 125 C-258.31824195 127.7326472 -258.31824195 127.7326472 -255.9921875 130.48828125 C-249.97318696 133.1968315 -242.59677267 134.73160807 -235.9921875 134.48828125 C-233.7566722 133.58020026 -233.7566722 133.58020026 -231.9921875 132.48828125 C-231.57412675 130.128454 -231.57412675 130.128454 -231.9921875 127.48828125 C-234.13868976 125.62386383 -234.13868976 125.62386383 -236.9921875 124.17578125 C-242.52890182 120.91804998 -246.67105527 117.19929007 -250.9921875 112.48828125 C-251.6521875 111.82828125 -252.3121875 111.16828125 -252.9921875 110.48828125 Z M-261.9921875 129.48828125 C-262.7553125 130.12765625 -263.5184375 130.76703125 -264.3046875 131.42578125 C-268.49523186 134.64178041 -272.01818852 134.71930884 -277.1796875 135.05078125 C-279.08814453 135.17646484 -279.08814453 135.17646484 -281.03515625 135.3046875 C-282.01097656 135.36527344 -282.98679687 135.42585937 -283.9921875 135.48828125 C-283.64285156 136.11734375 -283.29351562 136.74640625 -282.93359375 137.39453125 C-282.47855469 138.25046875 -282.02351563 139.10640625 -281.5546875 139.98828125 C-281.10222656 140.82359375 -280.64976562 141.65890625 -280.18359375 142.51953125 C-277.01576409 150.41313959 -278.29926274 157.20615494 -279.9921875 165.30078125 C-280.21640381 166.39575928 -280.44062012 167.4907373 -280.67163086 168.61889648 C-283.09380163 179.85610008 -286.40152612 191.09636363 -292.04956055 201.16821289 C-294.30821044 205.6718901 -294.6768662 209.68643024 -294.8203125 214.66796875 C-294.8590448 215.52077423 -294.8977771 216.37357971 -294.93768311 217.25222778 C-295.05616198 219.95551759 -295.14935333 222.65900263 -295.2421875 225.36328125 C-295.31869618 227.16934003 -295.39680792 228.97533165 -295.4765625 230.78125 C-295.82505874 239.02249895 -296.03859163 247.23879425 -295.9921875 255.48828125 C-291.6550383 256.04295221 -287.31746291 256.59413413 -282.97949219 257.14233398 C-281.50932367 257.32859169 -280.03926755 257.51573921 -278.56933594 257.70385742 C-264.54114782 259.49804929 -250.77205547 260.65755572 -236.62768555 260.61865234 C-234.2979489 260.61326567 -231.96840291 260.61864463 -229.63867188 260.625 C-216.96679606 261.58148424 -216.96679606 261.58148424 -205.9921875 257.61328125 C-203.99809257 253.37582952 -203.87555083 250.06426596 -203.89453125 245.4140625 C-203.8959462 244.73022995 -203.89736115 244.0463974 -203.89881897 243.34184265 C-203.90440874 241.16144403 -203.91695928 238.98114874 -203.9296875 236.80078125 C-203.93470383 235.32096503 -203.9392665 233.84114719 -203.94335938 232.36132812 C-203.95437479 228.73694568 -203.97163238 225.11262355 -203.9921875 221.48828125 C-204.72590576 221.65126709 -205.45962402 221.81425293 -206.21557617 221.98217773 C-208.70389387 222.43573287 -210.89823671 222.60406507 -213.41796875 222.5859375 C-214.21396484 222.58271484 -215.00996094 222.57949219 -215.83007812 222.57617188 C-216.64669922 222.56779297 -217.46332031 222.55941406 -218.3046875 222.55078125 C-219.14064453 222.54626953 -219.97660156 222.54175781 -220.83789062 222.53710938 C-222.88935399 222.52538673 -224.94078023 222.50745328 -226.9921875 222.48828125 C-226.9921875 221.49828125 -226.9921875 220.50828125 -226.9921875 219.48828125 C-226.1878125 219.65328125 -225.3834375 219.81828125 -224.5546875 219.98828125 C-216.67724361 221.09388741 -209.32267253 220.9424365 -201.9921875 217.48828125 C-198.95737464 214.94653867 -197.25194384 212.26755027 -195.9921875 208.48828125 C-195.89307459 205.91426057 -195.85141675 203.37428121 -195.8671875 200.80078125 C-195.868396 200.05127197 -195.86960449 199.3017627 -195.87084961 198.52954102 C-195.90640087 193.30897471 -196.17091635 188.13110237 -196.5546875 182.92578125 C-196.93741809 177.49844892 -196.79483978 172.83929648 -195.9921875 167.48828125 C-195.87001965 165.42771683 -195.78971365 163.36441687 -195.7421875 161.30078125 C-195.71640625 160.31722656 -195.690625 159.33367187 -195.6640625 158.3203125 C-196.05449331 154.95052277 -196.94436962 153.17891191 -198.9921875 150.48828125 C-202.04271795 148.26683688 -205.52091541 146.9416658 -208.9921875 145.48828125 C-209.9821875 145.06651611 -209.9821875 145.06651611 -210.9921875 144.63623047 C-213.18790752 143.71786659 -215.39779602 142.84772063 -217.6171875 141.98828125 C-218.32117676 141.69638916 -219.02516602 141.40449707 -219.75048828 141.10375977 C-224.70311732 139.27786049 -227.42860601 139.54378063 -232.22363281 141.70166016 C-238.43327066 144.4635946 -245.77187297 142.26639547 -252.0546875 140.67578125 C-252.72250244 140.51070068 -253.39031738 140.34562012 -254.07836914 140.17553711 C-255.96484375 139.65625 -255.96484375 139.65625 -258.9921875 138.48828125 C-259.4871875 137.00328125 -259.4871875 137.00328125 -259.9921875 135.48828125 C-259.15816406 135.76542969 -258.32414062 136.04257813 -257.46484375 136.328125 C-247.52241141 139.528381 -240.09680574 141.61152689 -229.9921875 138.48828125 C-229.9921875 137.49828125 -229.9921875 136.50828125 -229.9921875 135.48828125 C-230.9821875 135.81828125 -231.9721875 136.14828125 -232.9921875 136.48828125 C-242.38761372 137.31355517 -252.14452382 136.05759096 -259.9921875 130.48828125 C-260.6521875 130.15828125 -261.3121875 129.82828125 -261.9921875 129.48828125 Z M-305.9921875 142.48828125 C-311.06151253 148.42809644 -314.4677953 155.17275143 -317.8046875 162.17578125 C-318.18979492 162.98345947 -318.57490234 163.7911377 -318.97167969 164.62329102 C-322.99850162 173.30378515 -324.26762062 180.2079858 -323.7421875 189.73828125 C-323.6913501 190.81134521 -323.6405127 191.88440918 -323.58813477 192.98999023 C-322.95902679 205.50445526 -321.99839624 217.99928277 -320.9921875 230.48828125 C-318.18294467 227.126263 -315.89063466 223.77244323 -313.77734375 219.9375 C-313.17986328 218.85823242 -312.58238281 217.77896484 -311.96679688 216.66699219 C-311.33580078 215.51489258 -310.70480469 214.36279297 -310.0546875 213.17578125 C-309.39023564 211.96893141 -308.72551832 210.76222769 -308.06054688 209.55566406 C-306.36103437 206.46841847 -304.66820851 203.37755567 -302.97686768 200.28582764 C-301.44388442 197.4873469 -299.90259012 194.69344256 -298.36328125 191.8984375 C-285.3497502 170.90584779 -285.3497502 170.90584779 -280.9921875 147.48828125 C-282.9838793 141.73450493 -286.53732452 138.27143634 -291.9296875 135.48828125 C-297.36276583 135.48828125 -302.23840205 138.82834044 -305.9921875 142.48828125 Z M-149.9921875 140.48828125 C-147.86817248 144.73631129 -145.22075725 147.13909627 -141.515625 149.9609375 C-139.72974212 151.75139957 -139.38435257 153.02400076 -138.9921875 155.48828125 C-144.26534083 155.04299275 -149.00988974 154.40454962 -153.9921875 152.48828125 C-153.9921875 154.13828125 -153.9921875 155.78828125 -153.9921875 157.48828125 C-156.6321875 156.16828125 -159.2721875 154.84828125 -161.9921875 153.48828125 C-160.58561641 157.83586462 -158.53459566 161.55751191 -154.9921875 164.48828125 C-152.70821567 165.45565772 -150.48272262 166.14679889 -148.078125 166.75 C-145.72575133 167.58258169 -144.60870969 168.61949923 -142.9921875 170.48828125 C-145.3021875 170.15828125 -147.6121875 169.82828125 -149.9921875 169.48828125 C-146.56206064 173.51689379 -142.74718515 175.26354041 -137.9921875 177.30078125 C-137.280625 177.62498047 -136.5690625 177.94917969 -135.8359375 178.28320312 C-130.97880191 180.40764748 -130.97880191 180.40764748 -125.9921875 179.48828125 C-123.36090166 177.33388273 -123.36090166 177.33388273 -120.8046875 174.67578125 C-119.92425781 173.80308594 -119.04382813 172.93039062 -118.13671875 172.03125 C-115.60980422 169.10830116 -115.60980422 169.10830116 -114.9921875 165.48828125 C-118.16578757 158.52359331 -124.75995642 154.43803571 -130.9921875 150.48828125 C-131.96542969 149.86566406 -132.93867188 149.24304688 -133.94140625 148.6015625 C-135.80467605 147.41494075 -137.67269484 146.23571982 -139.546875 145.06640625 C-141.9921875 143.48828125 -141.9921875 143.48828125 -144.0625 141.78515625 C-146.15800695 140.11641586 -146.15800695 140.11641586 -149.9921875 140.48828125 Z M-159.9921875 141.48828125 C-160.32436942 144.49087642 -160.32436942 144.49087642 -158.4921875 146.17578125 C-157.9971875 146.60890625 -157.5021875 147.04203125 -156.9921875 147.48828125 C-157.6521875 145.50828125 -158.3121875 143.52828125 -158.9921875 141.48828125 C-159.3221875 141.48828125 -159.6521875 141.48828125 -159.9921875 141.48828125 Z M-166.9921875 149.48828125 C-165.9921875 151.48828125 -165.9921875 151.48828125 -165.9921875 151.48828125 Z M-61.9921875 207.48828125 C-64.04998386 210.57497579 -64.28189634 211.5208805 -64.49462891 215.06054688 C-64.5545401 215.98581177 -64.61445129 216.91107666 -64.67617798 217.86437988 C-64.73147675 218.86432983 -64.78677551 219.86427979 -64.84375 220.89453125 C-64.90750824 221.92960815 -64.97126648 222.96468506 -65.03695679 224.03112793 C-65.17047131 226.22655337 -65.29963549 228.42224702 -65.42480469 230.61816406 C-65.61488264 233.94790529 -65.81791818 237.27664864 -66.0234375 240.60546875 C-66.15181302 242.74344341 -66.2794403 244.88146315 -66.40625 247.01953125 C-66.46559723 248.00328735 -66.52494446 248.98704346 -66.58609009 250.00061035 C-66.95283482 256.50321553 -67.05916081 262.97589592 -66.9921875 269.48828125 C-65.39185605 267.08778407 -63.80700581 264.70053361 -62.3046875 262.23828125 C-61.84707031 261.51125 -61.38945312 260.78421875 -60.91796875 260.03515625 C-59.87938841 257.17796476 -60.27221272 255.51561193 -60.74378967 252.58108521 C-61.22454108 248.53065344 -60.99272518 244.46755126 -60.87109375 240.3984375 C-60.84748276 239.4539122 -60.82387177 238.5093869 -60.79954529 237.53623962 C-60.72341541 234.54091431 -60.63917517 231.5458813 -60.5546875 228.55078125 C-60.50141599 226.51108167 -60.44867601 224.47136813 -60.39648438 222.43164062 C-60.26786945 217.45033828 -60.13198393 212.46928183 -59.9921875 207.48828125 C-60.6521875 207.48828125 -61.3121875 207.48828125 -61.9921875 207.48828125 Z M-196.9921875 216.48828125 C-200.29686791 220.32171052 -201.12102078 223.4077982 -201.0546875 228.390625 C-201.04630859 229.35863037 -201.03792969 230.32663574 -201.02929688 231.32397461 C-201.01705078 232.3475708 -201.00480469 233.37116699 -200.9921875 234.42578125 C-200.93683504 242.51290216 -201.02407281 250.44947179 -201.9921875 258.48828125 C-201.0021875 259.14828125 -200.0121875 259.80828125 -198.9921875 260.48828125 C-198.6796875 263.98828125 -198.6796875 263.98828125 -198.9921875 267.48828125 C-199.6521875 268.14828125 -200.3121875 268.80828125 -200.9921875 269.48828125 C-200.60257016 277.60419226 -197.65699691 285.87845295 -195.47827148 293.65332031 C-194.92123479 295.6434808 -194.37325215 297.63598832 -193.82617188 299.62890625 C-192.69689889 305.46290514 -192.69689889 305.46290514 -189.9921875 310.48828125 C-184.66545714 310.82684953 -184.66545714 310.82684953 -179.9921875 308.48828125 C-179.60434801 305.2230143 -179.60434801 305.2230143 -179.77416992 301.37304688 C-179.78704387 300.6588987 -179.79991781 299.94475052 -179.81318188 299.20896149 C-179.85778408 296.9680917 -179.92380681 294.72853815 -179.9921875 292.48828125 C-180.02351438 291.15260732 -180.05403182 289.81691411 -180.08364868 288.48120117 C-180.28560184 280.64675893 -180.61447703 272.81844351 -180.98685932 264.99037933 C-181.17206094 261.08254186 -181.33623144 257.17614436 -181.45336914 253.265625 C-181.56877825 249.43157606 -181.73624052 245.60300485 -181.9398098 241.7726593 C-182.00780932 240.32865803 -182.05776064 238.88367757 -182.08837318 237.43840027 C-182.23200483 228.870831 -182.23200483 228.870831 -186.49765015 221.77661133 C-191.27805623 217.95092413 -191.27805623 217.95092413 -196.9921875 216.48828125 Z M-302.06640625 238.48046875 C-306.0365927 239.84803631 -309.64123371 239.70401872 -313.8046875 239.61328125 C-314.98708008 239.59974609 -314.98708008 239.59974609 -316.19335938 239.5859375 C-318.12643416 239.56250629 -320.0593513 239.52663963 -321.9921875 239.48828125 C-321.58587525 246.6926145 -321.17661607 253.89677617 -320.76538086 261.10083008 C-320.62604225 263.54773231 -320.48735952 265.99467198 -320.34936523 268.44165039 C-320.15003283 271.97422351 -319.94828276 275.50665186 -319.74609375 279.0390625 C-319.6856337 280.11972488 -319.62517365 281.20038727 -319.56288147 282.313797 C-319.1742171 289.05374553 -318.64836378 295.76907568 -317.9921875 302.48828125 C-317.6621875 302.48828125 -317.3321875 302.48828125 -316.9921875 302.48828125 C-316.76144531 301.5446875 -316.53070313 300.60109375 -316.29296875 299.62890625 C-313.73369472 289.44248881 -310.71743744 279.78289958 -305.1171875 270.80078125 C-302.42234176 266.21702495 -302.78482869 262.54484338 -303.9921875 257.48828125 C-303.18394531 257.17246094 -302.37570312 256.85664063 -301.54296875 256.53125 C-298.88818767 254.81449696 -298.88818767 254.81449696 -298.48583984 252.64697266 C-298.27397018 250.35558416 -298.19667638 248.10183106 -298.1796875 245.80078125 C-298.15455078 245.00349609 -298.12941406 244.20621094 -298.10351562 243.38476562 C-298.04468435 241.41980105 -298.01556346 239.45398734 -297.9921875 237.48828125 C-300.07470376 237.34444271 -300.07470376 237.34444271 -302.06640625 238.48046875 Z M-300.9921875 258.48828125 C-300.9921875 259.80828125 -300.9921875 261.12828125 -300.9921875 262.48828125 C-278.60816786 266.16249169 -256.31294809 268.76578745 -233.6171875 268.80078125 C-232.8936911 268.80427582 -232.1701947 268.80777039 -231.42477417 268.81137085 C-221.44853525 268.83823646 -211.85144113 268.04758924 -201.9921875 266.48828125 C-201.6621875 265.16828125 -201.3321875 263.84828125 -200.9921875 262.48828125 C-204.38674972 261.21532042 -207.21517789 261.7638672 -210.73522949 262.23471069 C-214.52948008 262.66099697 -218.31783219 262.690878 -222.1328125 262.7265625 C-223.43557129 262.74084541 -223.43557129 262.74084541 -224.76464844 262.75541687 C-227.59052848 262.77993837 -230.41621509 262.79243837 -233.2421875 262.80078125 C-234.69183899 262.80670288 -234.69183899 262.80670288 -236.17077637 262.81274414 C-254.22843918 262.84698797 -271.78839063 261.22604429 -289.66601562 258.86328125 C-293.49411807 258.43169248 -297.14772657 258.32892536 -300.9921875 258.48828125 Z M-56.9921875 257.48828125 C-57.6521875 259.13828125 -58.3121875 260.78828125 -58.9921875 262.48828125 C-45.20142049 263.50531399 -31.40678802 263.87949664 -17.5859375 264.2421875 C-15.1649917 264.30777306 -12.74405266 264.37360883 -10.32312012 264.43968201 C-4.00391025 264.6114859 2.31538474 264.77992877 8.63470459 264.94763184 C15.10418168 265.11992829 21.57357097 265.29545855 28.04296875 265.47070312 C40.6978335 265.81303098 53.35278803 266.15191237 66.0078125 266.48828125 C66.3378125 267.47828125 66.6678125 268.46828125 67.0078125 269.48828125 C66.24952148 269.33130264 65.49123047 269.17432404 64.70996094 269.0125885 C59.73052148 268.30738819 54.79702045 268.21596663 49.7734375 268.09936523 C48.08945862 268.05525513 48.08945862 268.05525513 46.37145996 268.01025391 C42.66700187 267.91424671 38.96242393 267.82425409 35.2578125 267.734375 C32.68000419 267.66889001 30.1022048 267.60305353 27.52441406 267.53688049 C22.12440883 267.39909112 16.72434931 267.26388241 11.32421875 267.13110352 C3.72048601 266.94413495 -3.88309394 266.75144531 -11.48665619 266.55768478 C-17.40513737 266.40709047 -23.32366107 266.25817862 -29.2421875 266.109375 C-30.50156128 266.07767149 -31.76093506 266.04596798 -33.05847168 266.01330376 C-36.62489743 265.92392269 -40.19134882 265.83565581 -43.7578125 265.74780273 C-45.33834412 265.70808098 -45.33834412 265.70808098 -46.95080566 265.66755676 C-51.63255453 265.55335951 -56.30858237 265.45522058 -60.9921875 265.48828125 C-64.76027434 272.01963177 -66.04837354 278.03711839 -66.9921875 285.48828125 C-63.85693547 287.30077923 -61.40126846 287.79706424 -57.79980469 287.99072266 C-56.76482849 288.05063385 -55.72985229 288.11054504 -54.66351318 288.17227173 C-52.9931601 288.25521988 -52.9931601 288.25521988 -51.2890625 288.33984375 C-49.5614267 288.43548111 -49.5614267 288.43548111 -47.79888916 288.53305054 C-44.11371528 288.73472036 -40.4280096 288.92387028 -36.7421875 289.11328125 C-34.2746979 289.24793633 -31.80724927 289.38334435 -29.33984375 289.51953125 C-26.96878691 289.64781941 -24.59769411 289.77544504 -22.2265625 289.90234375 C-20.5683548 289.99136459 -20.5683548 289.99136459 -18.87664795 290.08218384 C-13.2393566 290.37065456 -7.63679087 290.55217278 -1.9921875 290.48828125 C-0.531559 287.84089209 0.0078125 286.59379791 0.0078125 283.48828125 C0.6678125 283.48828125 1.3278125 283.48828125 2.0078125 283.48828125 C2.0078125 282.16828125 2.0078125 280.84828125 2.0078125 279.48828125 C2.9978125 279.48828125 3.9878125 279.48828125 5.0078125 279.48828125 C5.1315625 280.54015625 5.2553125 281.59203125 5.3828125 282.67578125 C5.92304497 285.97119935 6.71672326 288.44949805 8.0078125 291.48828125 C32.83422446 293.07263018 32.83422446 293.07263018 57.6953125 293.73828125 C58.95541138 293.75181641 58.95541138 293.75181641 60.2409668 293.765625 C64.59206894 293.90198056 64.59206894 293.90198056 68.0078125 291.48828125 C69.65068711 283.10962074 70.27931494 272.74870026 68.0078125 264.48828125 C66.88665039 264.44340576 65.76548828 264.39853027 64.61035156 264.35229492 C41.25351075 263.40949827 17.90831755 262.32138688 -5.4296875 260.98828125 C-6.49368774 260.92861176 -7.55768799 260.86894226 -8.65393066 260.8074646 C-21.02739057 260.11019804 -33.37202253 259.26385634 -45.71324158 258.12316895 C-46.61103836 258.04062866 -47.50883514 257.95808838 -48.43383789 257.87304688 C-49.22013077 257.79880493 -50.00642365 257.72456299 -50.81654358 257.64807129 C-52.87024895 257.49723702 -54.93295057 257.48828125 -56.9921875 257.48828125 Z M-223.52734375 272.734375 C-229.46045472 274.02534503 -235.14199462 274.61278431 -241.21264648 274.60180664 C-241.89641861 274.60195267 -242.58019073 274.60209869 -243.28468323 274.60224915 C-245.51924947 274.6015588 -247.75372978 274.59380802 -249.98828125 274.5859375 C-251.54769343 274.5840702 -253.10710619 274.58264777 -254.66651917 274.58164978 C-258.75175626 274.57784921 -262.83695725 274.56804016 -266.92218018 274.5569458 C-271.09850578 274.54667856 -275.27483726 274.54214082 -279.45117188 274.53710938 C-287.6315269 274.52641548 -295.8118527 274.5093689 -303.9921875 274.48828125 C-304.96237233 276.38086553 -305.92703764 278.27627984 -306.8894043 280.17285156 C-307.42720016 281.22804993 -307.96499603 282.28324829 -308.51908875 283.37042236 C-310.49929367 287.56158709 -311.73190973 291.74390702 -312.8046875 296.23828125 C-313.00771484 297.02332031 -313.21074219 297.80835938 -313.41992188 298.6171875 C-314.65975881 303.55198402 -315.74432323 308.39880165 -315.9921875 313.48828125 C-314.92526654 315.32710417 -314.92526654 315.32710417 -312.9921875 316.48828125 C-310.37539354 316.81055003 -310.37539354 316.81055003 -307.44921875 316.5625 C-305.83950195 316.48032227 -305.83950195 316.48032227 -304.19726562 316.39648438 C-303.07771484 316.32365234 -301.95816406 316.25082031 -300.8046875 316.17578125 C-299.67353516 316.11455078 -298.54238281 316.05332031 -297.37695312 315.99023438 C-294.58093447 315.83686626 -291.78654987 315.66900171 -288.9921875 315.48828125 C-287.21078581 309.82614694 -285.68706186 304.28499945 -284.6796875 298.42578125 C-283.39818538 292.27322917 -281.54547574 286.9786208 -276.9921875 282.48828125 C-274.296875 281.25390625 -274.296875 281.25390625 -271.9921875 280.48828125 C-273.12032801 283.25735341 -274.19616101 284.67656449 -276.4296875 286.73828125 C-281.49270533 292.1717638 -282.55065914 299.36861605 -283.6796875 306.48828125 C-283.80923828 307.26300781 -283.93878906 308.03773438 -284.07226562 308.8359375 C-284.38608759 310.71886926 -284.69018105 312.6034183 -284.9921875 314.48828125 C-274.92614515 314.59677751 -265.02105927 314.46500615 -254.9921875 313.48828125 C-254.81042969 312.85019531 -254.62867188 312.21210938 -254.44140625 311.5546875 C-254.06435547 310.31525391 -254.06435547 310.31525391 -253.6796875 309.05078125 C-253.43605469 308.22707031 -253.19242188 307.40335937 -252.94140625 306.5546875 C-252.62816406 305.87277344 -252.31492188 305.19085938 -251.9921875 304.48828125 C-251.0021875 304.15828125 -250.0121875 303.82828125 -248.9921875 303.48828125 C-249.3428125 304.39578125 -249.6934375 305.30328125 -250.0546875 306.23828125 C-250.99389321 309.49419438 -250.94733426 310.41578119 -249.9921875 313.48828125 C-244.88321644 313.22773169 -239.77461408 312.96109531 -234.66625977 312.6887207 C-232.92709045 312.59686031 -231.18783118 312.50668729 -229.44848633 312.41821289 C-226.95368485 312.29102136 -224.45926595 312.15783745 -221.96484375 312.0234375 C-221.18254898 311.98485123 -220.40025421 311.94626495 -219.59425354 311.9065094 C-215.99090964 312.02196867 -215.99090964 312.02196867 -212.9921875 310.48828125 C-212.60464193 303.64164293 -213.73804479 297.20690293 -214.9921875 290.48828125 C-214.0021875 290.48828125 -213.0121875 290.48828125 -211.9921875 290.48828125 C-211.0021875 300.38828125 -211.0021875 300.38828125 -209.9921875 310.48828125 C-205.0421875 310.48828125 -200.0921875 310.48828125 -194.9921875 310.48828125 C-193.71246145 306.64910311 -194.69849818 304.11039646 -195.79296875 300.37109375 C-196.08762276 299.32983841 -196.08762276 299.32983841 -196.38822937 298.26754761 C-196.80553455 296.79880905 -197.22693228 295.33122805 -197.65209961 293.86474609 C-198.29955993 291.63097166 -198.935072 289.39407903 -199.56835938 287.15625 C-199.97586383 285.7276651 -200.38404525 284.2992731 -200.79296875 282.87109375 C-200.98264725 282.2063504 -201.17232574 281.54160706 -201.36775208 280.85671997 C-202.39766212 277.31283333 -203.55393497 273.88749116 -204.9921875 270.48828125 C-211.47944901 270.09904556 -217.21138846 271.26373074 -223.52734375 272.734375 Z M2.0078125 288.48828125 C2.0078125 289.14828125 2.0078125 289.80828125 2.0078125 290.48828125 C2.6678125 290.48828125 3.3278125 290.48828125 4.0078125 290.48828125 C4.0078125 289.82828125 4.0078125 289.16828125 4.0078125 288.48828125 C3.3478125 288.48828125 2.6878125 288.48828125 2.0078125 288.48828125 Z " fill="#000000" transform="matrix(1, 0, 0, 1, 379.9921875, 103.51171875)"/>
  <path d="M0 0 C0.99 0 1.98 0 3 0 C3.01458252 0.6391333 3.02916504 1.2782666 3.04418945 1.93676758 C3.11969483 4.8958845 3.21600725 7.8539959 3.3125 10.8125 C3.33505859 11.81732422 3.35761719 12.82214844 3.38085938 13.85742188 C3.56288976 19.00391735 4.03591135 23.58628331 5.5390625 28.5234375 C7.28789239 34.37405886 7.26222728 39.75018957 7.0625 45.8125 C6.92291118 53.67760787 7.19624924 60.91522453 8.5546875 68.6640625 C9.41056763 75.07565579 9.15089023 81.54525137 9 88 C7.68 88 6.36 88 5 88 C5.03480469 86.81857422 5.03480469 86.81857422 5.0703125 85.61328125 C5.16303344 80.01690999 5.06315735 74.75296232 4 69.25 C2.64866487 61.61728642 2.91798146 54.01250363 3.16210938 46.28417969 C3.29106385 39.68046272 2.47875269 34.03900741 0.71459961 27.67651367 C-1.68605049 18.68494312 -1.21286301 9.14312119 0 0 Z " fill="#000000" transform="matrix(1, 0, 0, 1, 439, 268)"/>
  <path d="M0 0 C3.59155238 0.56411817 6.08740856 1.51155706 9.1875 3.375 C16.56217084 7.24754405 24.84756092 7.90767973 33 9 C33 9.99 33 10.98 33 12 C21.45821641 12.70344956 9.01691237 10.81601433 0 3 C0 2.01 0 1.02 0 0 Z " fill="#000000" transform="matrix(1, 0, 0, 1, 96.00000000000001, 313)"/>
  <path d="M0 0 C3.5625 0.1875 3.5625 0.1875 5.5625 2.1875 C5.6875 5.625 5.6875 5.625 5.5625 9.1875 C5.5625 10.1775 5.5625 11.1675 5.5625 12.1875 C5.5625 13.1775 5.5625 14.1675 5.5625 15.1875 C3.6875 14.9375 3.6875 14.9375 1.5625 14.1875 C0.3125 12.125 0.3125 12.125 -0.4375 10.1875 C0.2225 9.1975 0.8825 8.2075 1.5625 7.1875 C1.5625 6.1975 1.5625 5.2075 1.5625 4.1875 C0.5725 3.8575 -0.4175 3.5275 -1.4375 3.1875 C-1.7675 4.5075 -2.0975 5.8275 -2.4375 7.1875 C-3.4275 6.8575 -4.4175 6.5275 -5.4375 6.1875 C-4.36970339 0.23834746 -4.36970339 0.23834746 0 0 Z " fill="#000000" transform="matrix(1, 0, 0, 1, 112.43750000000001, 172.8125)"/>
  <path d="M0 0 C0.99 0 1.98 0 3 0 C2.67 4.95 2.34 9.9 2 15 C4.97 15.495 4.97 15.495 8 16 C8 16.99 8 17.98 8 19 C4.58243849 19.31068741 2.59893023 19.3625104 -0.375 17.5625 C-2.78478442 13.76245534 -2.52990713 10.38308901 -2 6 C-1 2.4375 -1 2.4375 0 0 Z " fill="#000000" transform="matrix(1, 0, 0, 1, 358, 152)"/>
  <path d="M0 0 C2.29930415 1.79576261 2.95128633 2.65219489 3.36328125 5.59375 C3.34652344 6.5528125 3.32976562 7.511875 3.3125 8.5 C3.30863281 9.4590625 3.30476562 10.418125 3.30078125 11.40625 C3 14 3 14 1 17 C-4.33333333 18.33333333 -4.33333333 18.33333333 -7 17 C-7 16.01 -7 15.02 -7 14 C-5.02 14 -3.04 14 -1 14 C-1.01160156 13.07316406 -1.02320313 12.14632812 -1.03515625 11.19140625 C-1.04417969 9.99386719 -1.05320313 8.79632813 -1.0625 7.5625 C-1.07410156 6.36753906 -1.08570313 5.17257813 -1.09765625 3.94140625 C-1 1 -1 1 0 0 Z " fill="#000000" transform="matrix(1, 0, 0, 1, 156, 180)"/>
  <path d="M 148.111 209.602 C 149.824 209.659 151.538 209.716 153.302 209.774 C 154.082 210.151 154.082 210.151 154.34 210.634 C 152.719 211.118 152.719 211.118 150.188 211.495 C 146.814 211.549 146.814 211.549 143.96 211.495 C 143.616 211.211 143.273 210.927 142.92 210.634 C 144.292 210.691 145.662 210.748 147.073 210.807 C 147.417 210.409 147.758 210.011 148.111 209.602 Z" fill="#000000" style="transform-origin: 148.62999px 210.568735px;" transform="matrix(0.990268111229, 0.139173030853, -0.139173030853, 0.990268111229, 0.00000786968, 0.000014997885)"/>
  <path d="M0 0 C0.33 1.32 0.66 2.64 1 4 C-0.4375 5.5625 -0.4375 5.5625 -3 7 C-6.07129699 7.0644328 -9.03042686 6.80112216 -12 6 C-12.33 5.34 -12.66 4.68 -13 4 C-12.39671875 3.96261719 -11.7934375 3.92523438 -11.171875 3.88671875 C-5.00632228 3.43746659 -5.00632228 3.43746659 0 0 Z " fill="#000000" transform="matrix(1, 0, 0, 1, 370, 173)"/>
  <path d="M0 0 C2.125 0.375 2.125 0.375 4 1 C4 2.98 4 4.96 4 7 C2.35 7 0.7 7 -1 7 C-1.625 4.625 -1.625 4.625 -2 2 C-1.34 1.34 -0.68 0.68 0 0 Z " fill="#000000" transform="matrix(1, 0, 0, 1, 165, 182)"/>
  <path d="M0 0 C1.65 0 3.3 0 5 0 C5 1.98 5 3.96 5 6 C3.35 6.33 1.7 6.66 0 7 C-0.93423645 3.98968256 -1.04449911 3.13349732 0 0 Z " fill="#000000" transform="matrix(1, 0, 0, 1, 142, 180)"/>
  <path d="M0 0 C1.98 0.495 1.98 0.495 4 1 C5.125 4.75 5.125 4.75 4 7 C2.35 6.67 0.7 6.34 -1 6 C-0.67 4.02 -0.34 2.04 0 0 Z " fill="#000000" transform="matrix(1, 0, 0, 1, 370, 153)"/>
  <path d="M0 0 C2.97 0 5.94 0 9 0 C9.33 1.32 9.66 2.64 10 4 C6.7 3.67 3.4 3.34 0 3 C0 2.01 0 1.02 0 0 Z " fill="#000000" transform="matrix(1, 0, 0, 1, 139, 172)"/>
  <path d="M0 0 C2 0.25 2 0.25 4 1 C4.33 1.99 4.66 2.98 5 4 C4.01 5.485 4.01 5.485 3 7 C1.68 6.67 0.36 6.34 -1 6 C-1.042721 4.33388095 -1.04063832 2.66617115 -1 1 C-0.67 0.67 -0.34 0.34 0 0 Z " fill="#000000" transform="matrix(1, 0, 0, 1, 350, 153)"/>
  <path d="M0 0 C2.64 0 5.28 0 8 0 C8 0.99 8 1.98 8 3 C5.36 3 2.72 3 0 3 C0 2.01 0 1.02 0 0 Z " fill="#000000" transform="matrix(1, 0, 0, 1, 370, 149)"/>
  <path d="M 221.411 134.225 C 222.665 135.05 223.667 136.12 224.043 137.611 C 224.196 138.421 224.178 139.101 224.178 139.962 C 225.894 139.962 227.609 139.962 229.376 139.962 C 229.376 139.499 229.376 139.05 229.376 138.58 C 229.508 137.148 230.083 135.932 231.12 134.949 C 232.502 133.864 233.98 133.741 235.667 133.878 C 236.908 134.116 237.873 134.985 238.632 135.968 C 239.454 137.241 239.497 138.457 239.497 139.962 C 241.213 139.962 242.928 139.962 244.696 139.962 C 244.696 139.499 244.696 139.05 244.696 138.58 C 244.826 137.148 245.403 135.932 246.438 134.949 C 247.819 133.864 249.298 133.741 250.986 133.878 C 252.226 134.116 253.192 134.985 253.949 135.968 C 254.621 137.002 254.825 138.066 254.819 139.303 C 254.819 139.426 254.818 139.542 254.818 139.672 C 254.818 139.766 254.817 139.861 254.816 139.962 C 254.961 139.954 255.107 139.954 255.257 139.947 C 255.798 139.933 256.34 139.926 256.881 139.918 C 257.116 139.918 257.35 139.911 257.584 139.911 C 257.922 139.897 258.259 139.889 258.596 139.889 C 258.7 139.882 258.804 139.882 258.911 139.875 C 259.39 139.875 259.7 139.933 260.108 140.193 C 260.675 140.815 260.519 141.756 260.513 142.544 C 260.514 142.732 260.516 142.935 260.517 143.123 C 260.522 143.65 260.521 144.187 260.52 144.714 C 260.52 145.264 260.523 145.814 260.526 146.371 C 260.532 147.412 260.534 148.461 260.534 149.503 C 260.535 150.697 260.539 151.884 260.543 153.07 C 260.553 155.521 260.558 157.967 260.56 160.419 C 260.689 160.304 260.82 160.195 260.953 160.08 C 261.4 159.695 261.582 159.594 262.2 159.573 C 263.128 159.689 263.657 160.347 264.286 160.998 C 264.417 161.128 264.547 161.258 264.676 161.389 C 264.947 161.664 265.216 161.938 265.483 162.206 C 265.825 162.56 266.171 162.907 266.518 163.248 C 266.787 163.516 267.053 163.791 267.319 164.058 C 267.506 164.254 267.696 164.442 267.886 164.629 C 268.482 165.252 268.946 165.743 268.949 166.641 C 268.791 167.603 267.813 168.333 267.161 168.999 C 267.044 169.115 266.927 169.238 266.808 169.353 C 266.563 169.599 266.319 169.852 266.073 170.098 C 265.698 170.475 265.325 170.851 264.951 171.241 C 264.714 171.48 264.474 171.719 264.237 171.964 C 264.126 172.073 264.014 172.189 263.899 172.304 C 263.742 172.464 263.742 172.464 263.581 172.623 C 263.489 172.717 263.396 172.811 263.303 172.905 C 262.837 173.288 262.469 173.419 261.868 173.404 C 261.381 173.274 261.381 173.274 260.56 172.579 C 260.515 173.954 260.47 175.321 260.424 176.732 C 260.605 176.819 260.784 176.912 260.971 177.007 C 262.284 178.2 262.788 179.821 262.929 181.542 C 262.896 182.678 262.572 183.748 262.064 184.754 C 262.144 184.754 262.223 184.754 262.306 184.754 C 264.247 184.754 266.187 184.769 268.128 184.769 C 269.067 184.776 270.005 184.784 270.944 184.79 C 271.848 184.79 272.754 184.797 273.66 184.805 C 274.005 184.805 274.351 184.805 274.697 184.805 C 275.18 184.805 275.665 184.812 276.148 184.812 C 276.29 184.812 276.435 184.812 276.583 184.812 C 277.193 184.82 277.555 184.827 278.084 185.152 C 278.764 185.919 278.526 187.228 278.477 188.205 C 278.133 192.458 276.131 196.205 273.281 199.266 C 273.198 199.36 273.116 199.446 273.032 199.548 C 270.305 202.477 265.993 204.517 262.006 204.676 C 261.761 204.676 261.761 204.676 261.507 204.676 C 261.415 204.676 261.323 204.676 261.227 204.676 C 260.921 204.684 260.613 204.684 260.306 204.684 C 260.084 204.684 259.864 204.684 259.642 204.684 C 258.917 204.691 258.194 204.691 257.469 204.699 C 257.219 204.699 256.969 204.699 256.72 204.699 C 255.682 204.705 254.644 204.705 253.605 204.705 C 252.118 204.713 250.632 204.713 249.146 204.72 C 248.097 204.72 247.051 204.727 246.005 204.727 C 245.379 204.727 244.755 204.727 244.131 204.735 C 243.543 204.741 242.957 204.741 242.369 204.741 C 242.152 204.741 241.938 204.741 241.722 204.741 C 241.428 204.749 241.135 204.749 240.841 204.741 C 240.676 204.741 240.511 204.741 240.342 204.741 C 239.781 204.633 239.578 204.409 239.223 203.967 C 239.133 203.62 239.133 203.62 239.138 203.28 C 239.137 203.157 239.136 203.049 239.133 202.933 C 239.266 202.419 239.509 202.225 239.908 201.899 C 240.276 201.819 240.559 201.798 240.927 201.804 C 241.028 201.804 241.128 201.798 241.231 201.798 C 241.56 201.798 241.89 201.798 242.219 201.798 C 242.447 201.798 242.676 201.79 242.905 201.79 C 243.507 201.783 244.108 201.783 244.709 201.776 C 245.324 201.776 245.938 201.776 246.552 201.768 C 247.757 201.761 248.961 201.761 250.165 201.754 C 250.044 201.66 249.924 201.566 249.798 201.472 C 249.638 201.341 249.477 201.219 249.315 201.096 C 249.235 201.038 249.155 200.973 249.073 200.908 C 248.429 200.415 247.836 199.88 247.267 199.302 C 247.176 199.208 247.083 199.114 246.988 199.013 C 246.162 198.152 245.46 197.24 244.831 196.228 C 244.779 196.141 244.725 196.061 244.671 195.974 C 242.972 193.211 242.086 190.144 242.01 186.888 C 242.005 186.772 242.001 186.649 241.996 186.527 C 241.997 186.411 241.997 186.296 241.997 186.18 C 241.996 186.078 241.995 185.984 241.994 185.883 C 242.122 185.507 242.307 185.268 242.618 185.029 C 243.309 184.704 244.105 184.79 244.852 184.79 C 245.041 184.79 245.23 184.784 245.419 184.784 C 245.914 184.776 246.409 184.776 246.904 184.776 C 247.41 184.769 247.916 184.769 248.422 184.769 C 249.415 184.754 250.405 184.754 251.396 184.754 C 251.348 184.646 251.301 184.53 251.252 184.421 C 251.19 184.27 251.127 184.125 251.063 183.973 C 251.001 183.828 250.939 183.684 250.875 183.532 C 250.316 182.005 250.51 180.363 251.127 178.887 C 251.922 177.325 253.114 176.298 254.713 175.654 C 255.565 175.387 256.842 175.061 257.688 175.487 C 257.72 174.677 257.737 173.875 257.742 173.057 C 257.746 172.789 257.754 172.514 257.765 172.239 C 257.853 170.452 257.853 170.452 257.091 168.912 C 256.659 168.464 256.191 168.065 255.711 167.667 C 255.429 167.4 255.312 167.161 255.226 166.785 C 255.21 165.96 255.497 165.57 256.02 165.005 C 256.32 164.709 256.32 164.709 256.639 164.449 C 257.145 164.015 257.496 163.675 257.665 163.017 C 257.709 162.48 257.713 161.953 257.704 161.418 C 257.704 161.207 257.707 161.005 257.709 160.803 C 257.713 160.253 257.71 159.695 257.704 159.146 C 257.7 158.568 257.703 157.995 257.705 157.41 C 257.71 156.318 257.706 155.233 257.701 154.133 C 257.695 152.889 257.697 151.645 257.699 150.4 C 257.703 147.839 257.698 145.286 257.688 142.725 C 256.741 142.725 255.793 142.725 254.816 142.725 C 254.816 143.181 254.816 143.637 254.816 144.107 C 254.684 145.539 254.108 146.754 253.073 147.738 C 251.856 148.693 250.592 148.96 249.072 148.809 C 248.609 148.541 248.609 148.541 248.387 148.114 C 248.26 147.441 248.274 146.928 248.627 146.327 C 249.177 145.973 249.697 145.872 250.327 145.727 C 250.813 145.597 251.074 145.46 251.396 145.069 C 251.8 144.309 251.848 143.593 251.943 142.725 C 247.836 142.725 243.73 142.725 239.497 142.725 C 239.497 143.181 239.497 143.637 239.497 144.107 C 239.366 145.539 238.79 146.754 237.754 147.738 C 236.536 148.693 235.272 148.96 233.753 148.809 C 233.291 148.541 233.291 148.541 233.069 148.114 C 232.942 147.441 232.956 146.928 233.308 146.327 C 233.857 145.973 234.378 145.872 235.009 145.727 C 235.494 145.597 235.755 145.46 236.078 145.069 C 236.481 144.309 236.529 143.593 236.626 142.725 C 232.518 142.725 228.41 142.725 224.178 142.725 C 224.178 143.181 224.178 143.637 224.178 144.107 C 224.048 145.539 223.472 146.754 222.437 147.738 C 221.219 148.693 219.954 148.96 218.435 148.809 C 217.973 148.541 217.973 148.541 217.751 148.114 C 217.623 147.441 217.638 146.928 217.991 146.327 C 218.54 145.973 219.06 145.872 219.691 145.727 C 220.175 145.597 220.437 145.46 220.759 145.069 C 221.164 144.309 221.211 143.593 221.307 142.725 C 217.967 142.725 214.627 142.725 211.186 142.725 C 211.186 162.249 211.186 181.773 211.186 201.899 C 217.053 201.899 222.921 201.899 228.966 201.899 C 229.65 202.586 229.65 202.586 229.74 202.933 C 229.739 203.041 229.737 203.157 229.736 203.28 C 229.737 203.389 229.739 203.504 229.74 203.62 C 229.641 203.997 229.512 204.242 229.231 204.51 C 228.594 204.864 227.789 204.756 227.079 204.749 C 226.884 204.749 226.69 204.749 226.497 204.756 C 225.968 204.756 225.442 204.756 224.914 204.756 C 224.362 204.749 223.811 204.756 223.259 204.756 C 222.333 204.756 221.406 204.756 220.478 204.749 C 219.407 204.749 218.338 204.749 217.266 204.749 C 216.346 204.756 215.426 204.756 214.506 204.756 C 213.957 204.749 213.407 204.749 212.858 204.756 C 212.342 204.756 211.826 204.756 211.309 204.749 C 211.119 204.749 210.931 204.749 210.741 204.749 C 210.483 204.756 210.223 204.749 209.965 204.749 C 209.821 204.749 209.674 204.749 209.526 204.749 C 208.981 204.626 208.797 204.409 208.449 203.967 C 208.383 203.584 208.358 203.28 208.364 202.897 C 208.363 202.73 208.363 202.73 208.361 202.572 C 208.359 202.21 208.361 201.848 208.364 201.487 C 208.363 201.219 208.362 200.958 208.361 200.698 C 208.358 199.982 208.359 199.258 208.361 198.542 C 208.363 197.768 208.36 196.994 208.358 196.22 C 208.355 194.701 208.356 193.181 208.358 191.663 C 208.36 190.433 208.36 189.189 208.359 187.958 C 208.359 187.785 208.359 187.611 208.359 187.431 C 208.358 187.07 208.358 186.721 208.358 186.36 C 208.356 183.112 208.358 179.864 208.362 176.616 C 208.365 173.651 208.365 170.677 208.361 167.718 C 208.358 164.383 208.356 161.049 208.358 157.721 C 208.358 157.367 208.359 157.005 208.359 156.657 C 208.359 156.484 208.36 156.31 208.36 156.13 C 208.36 154.893 208.359 153.663 208.358 152.426 C 208.355 150.928 208.356 149.423 208.36 147.919 C 208.361 147.152 208.362 146.393 208.36 145.625 C 208.358 144.917 208.359 144.215 208.363 143.513 C 208.364 143.261 208.363 143.007 208.361 142.754 C 208.36 142.413 208.361 142.066 208.364 141.719 C 208.363 141.618 208.361 141.525 208.36 141.423 C 208.37 140.895 208.44 140.663 208.765 140.244 C 209.261 139.861 209.68 139.875 210.278 139.889 C 210.386 139.889 210.495 139.889 210.606 139.889 C 210.951 139.897 211.294 139.911 211.638 139.918 C 211.873 139.918 212.108 139.918 212.342 139.918 C 212.913 139.933 213.486 139.947 214.057 139.962 C 214.057 139.867 214.056 139.774 214.055 139.679 C 214.043 137.979 214.337 136.503 215.52 135.216 C 217.007 133.805 219.537 133.306 221.411 134.225 Z M 217.614 137.328 C 216.921 138.239 216.931 138.768 216.931 139.962 C 218.375 139.962 219.819 139.962 221.307 139.962 C 221.341 138.558 221.341 138.558 220.696 137.387 C 220.043 136.829 219.618 136.728 218.783 136.742 C 218.268 136.801 217.995 136.981 217.614 137.328 Z M 232.933 137.328 C 232.24 138.239 232.248 138.768 232.248 139.962 C 233.693 139.962 235.137 139.962 236.626 139.962 C 236.659 138.558 236.659 138.558 236.015 137.387 C 235.36 136.829 234.938 136.728 234.101 136.742 C 233.586 136.801 233.313 136.981 232.933 137.328 Z M 248.251 137.328 C 247.558 138.239 247.567 138.768 247.567 139.962 C 249.011 139.962 250.455 139.962 251.943 139.962 C 251.976 138.558 251.976 138.558 251.333 137.387 C 250.679 136.829 250.257 136.728 249.418 136.742 C 248.903 136.801 248.632 136.981 248.251 137.328 Z M 261.608 163.48 C 261.476 163.609 261.345 163.747 261.213 163.884 C 261.108 163.986 261.108 163.986 261.002 164.094 C 260.78 164.318 260.559 164.542 260.338 164.774 C 260.188 164.926 260.038 165.085 259.887 165.229 C 259.518 165.613 259.15 165.99 258.781 166.366 C 258.995 166.887 259.317 167.219 259.712 167.603 C 259.773 167.667 259.837 167.733 259.903 167.798 C 260.104 168.001 260.307 168.203 260.508 168.405 C 260.647 168.543 260.783 168.68 260.921 168.811 C 261.255 169.151 261.591 169.49 261.928 169.816 C 262.442 169.599 262.767 169.281 263.157 168.883 C 263.219 168.811 263.283 168.752 263.347 168.688 C 263.548 168.485 263.746 168.282 263.945 168.08 C 264.082 167.935 264.216 167.798 264.353 167.66 C 264.685 167.32 265.016 166.98 265.347 166.641 C 265.134 166.127 264.817 165.787 264.429 165.396 C 264.301 165.273 264.173 165.143 264.042 165.005 C 263.976 164.941 263.909 164.876 263.84 164.803 C 263.637 164.601 263.435 164.398 263.233 164.188 C 263.105 164.058 262.979 163.928 262.846 163.797 C 262.671 163.624 262.671 163.624 262.493 163.443 C 262.077 163.067 262.019 163.103 261.608 163.48 Z M 254.338 179.257 C 253.659 180.045 253.409 180.949 253.448 181.984 C 253.62 182.938 254.024 183.684 254.818 184.255 C 255.619 184.754 256.381 185.008 257.321 184.827 C 258.303 184.537 259.048 184.082 259.586 183.192 C 260.024 182.31 260.107 181.549 259.868 180.58 C 259.565 179.698 259.082 179.083 258.269 178.62 C 256.87 177.99 255.455 178.193 254.338 179.257 Z M 244.968 187.793 C 245.388 192.039 247.44 195.721 250.658 198.484 C 253.739 201.009 257.828 202.188 261.765 201.84 C 265.92 201.291 269.778 199.28 272.4 195.923 C 274.074 193.688 275.605 190.657 275.605 187.793 C 265.496 187.793 255.385 187.793 244.968 187.793 Z" fill="#000000" style="" transform="matrix(1, 0, 0, 1, 1.4210854715202004e-14, 0)"/>
  <path d="M 246.747 160.419 C 247.139 160.665 247.36 160.831 247.567 161.251 C 247.586 161.62 247.573 161.981 247.567 162.358 C 247.667 162.365 247.768 162.387 247.871 162.402 C 248.94 162.662 249.832 163.537 250.439 164.427 C 251.346 166.105 251.108 167.754 250.763 169.549 C 250.726 169.765 250.688 169.968 250.65 170.177 C 250.571 170.59 250.493 171.017 250.415 171.429 C 250.31 171.987 250.213 172.536 250.119 173.093 C 250.063 173.404 250.008 173.723 249.951 174.04 C 249.928 174.178 249.904 174.315 249.88 174.467 C 249.666 175.639 249.336 176.739 248.379 177.491 C 247.448 178.136 246.559 178.36 245.424 178.2 C 244.501 177.969 243.698 177.491 243.195 176.645 C 242.798 175.893 242.618 175.162 242.467 174.323 C 242.441 174.186 242.415 174.048 242.388 173.911 C 242.307 173.484 242.227 173.05 242.147 172.623 C 242.093 172.334 242.039 172.044 241.984 171.755 C 240.916 166.119 240.916 166.119 242.03 164.217 C 242.617 163.392 243.389 162.64 244.39 162.402 C 244.49 162.387 244.591 162.365 244.696 162.358 C 244.698 162.235 244.698 162.235 244.701 162.112 C 244.735 161.533 244.786 161.179 245.105 160.687 C 245.66 160.325 246.101 160.289 246.747 160.419 Z M 244.584 165.758 C 244.114 166.38 244.112 167.103 244.187 167.863 C 244.253 168.297 244.331 168.739 244.414 169.172 C 244.444 169.339 244.474 169.498 244.503 169.657 C 244.564 169.997 244.628 170.323 244.692 170.67 C 244.788 171.177 244.882 171.689 244.974 172.203 C 245.036 172.536 245.096 172.854 245.157 173.188 C 245.186 173.339 245.213 173.491 245.241 173.651 C 245.268 173.788 245.297 173.932 245.325 174.084 C 245.349 174.207 245.372 174.33 245.397 174.461 C 245.539 174.865 245.746 175.068 246.063 175.343 C 246.408 175.314 246.408 175.314 246.747 175.075 C 246.93 174.626 246.998 174.156 247.081 173.679 C 247.119 173.469 247.119 173.469 247.16 173.245 C 247.219 172.926 247.277 172.609 247.334 172.283 C 247.42 171.813 247.512 171.335 247.604 170.865 C 247.685 170.452 247.763 170.048 247.842 169.635 C 247.88 169.44 247.92 169.238 247.96 169.035 C 248.319 167.4 248.319 167.4 247.831 165.852 C 247.486 165.389 247.165 165.121 246.609 164.977 C 245.739 164.882 245.215 165.165 244.584 165.758 Z" fill="#000000" style="" transform="matrix(1, 0, 0, 1, 1.4210854715202004e-14, 0)"/>
  <path d="M 275.879 168.854 C 277.185 169.635 277.944 171.103 278.351 172.536 C 278.801 174.425 278.626 176.551 277.705 178.251 C 277.474 178.635 277.232 178.996 276.972 179.358 C 276.915 179.445 276.856 179.524 276.797 179.611 C 275.839 180.877 274.126 181.832 272.596 182.128 C 270.282 182.432 268.244 182.078 266.356 180.66 C 265.41 179.922 265.41 179.922 265.286 179.365 C 265.263 178.916 265.255 178.54 265.499 178.157 C 265.605 178.034 265.605 178.034 265.714 177.918 C 265.843 177.774 265.843 177.774 265.979 177.629 C 266.705 176.862 267.442 176.117 268.183 175.372 C 268.365 175.184 268.548 174.996 268.73 174.814 C 269.109 174.431 269.488 174.048 269.868 173.664 C 270.354 173.18 270.841 172.681 271.329 172.189 C 271.703 171.805 272.078 171.429 272.452 171.053 C 272.632 170.872 272.812 170.691 272.992 170.503 C 273.241 170.251 273.492 170.004 273.74 169.751 C 273.816 169.678 273.89 169.599 273.966 169.519 C 274.564 168.919 275.02 168.673 275.879 168.854 Z M 274.813 172.818 C 274.706 172.919 274.6 173.028 274.49 173.144 C 274.369 173.266 274.249 173.389 274.124 173.513 C 273.993 173.651 273.86 173.78 273.729 173.918 C 273.593 174.048 273.459 174.186 273.324 174.323 C 272.968 174.685 272.614 175.039 272.259 175.4 C 271.896 175.777 271.535 176.138 271.173 176.508 C 270.461 177.224 269.75 177.947 269.04 178.671 C 269.608 179.271 270.231 179.336 271.038 179.373 C 272.353 179.322 273.489 178.757 274.443 177.853 C 275.486 176.71 275.657 175.575 275.637 174.055 C 275.599 173.462 275.491 173.101 275.194 172.579 C 275.018 172.572 275.018 172.572 274.813 172.818 Z" fill="#000000" style="" transform="matrix(1, 0, 0, 1, 1.4210854715202004e-14, 0)"/>
  <path d="M 225.977 165.787 C 226.171 165.787 226.171 165.787 226.37 165.779 C 226.801 165.779 227.231 165.779 227.661 165.772 C 227.807 165.772 227.954 165.772 228.106 165.772 C 228.881 165.766 229.659 165.766 230.436 165.766 C 231.239 165.758 232.042 165.751 232.845 165.743 C 233.463 165.743 234.078 165.743 234.695 165.743 C 234.992 165.743 235.288 165.736 235.583 165.736 C 235.997 165.729 236.412 165.729 236.826 165.729 C 236.949 165.729 237.071 165.722 237.197 165.722 C 237.803 165.729 238.051 165.743 238.544 166.134 C 238.862 166.568 238.951 166.792 238.951 167.335 C 238.813 167.841 238.813 167.841 238.54 168.297 C 237.798 168.709 237.182 168.775 236.345 168.775 C 236.164 168.775 236.164 168.775 235.979 168.775 C 235.585 168.775 235.19 168.775 234.796 168.775 C 234.519 168.775 234.244 168.775 233.968 168.775 C 233.393 168.775 232.815 168.775 232.239 168.775 C 231.5 168.767 230.761 168.767 230.023 168.775 C 229.454 168.775 228.885 168.775 228.316 168.775 C 228.043 168.775 227.771 168.775 227.499 168.775 C 227.118 168.775 226.737 168.775 226.356 168.775 C 226.189 168.775 226.189 168.775 226.017 168.775 C 225.35 168.767 224.896 168.673 224.316 168.297 C 224.014 167.921 223.916 167.682 223.845 167.204 C 223.921 166.669 224.123 166.366 224.454 165.954 C 224.921 165.715 225.46 165.787 225.977 165.787 Z" fill="#000000" style="" transform="matrix(1, 0, 0, 1, 1.4210854715202004e-14, 0)"/>
  <path d="M 226.107 175.575 C 226.294 175.567 226.294 175.567 226.488 175.567 C 226.903 175.567 227.319 175.567 227.735 175.567 C 228.024 175.567 228.312 175.567 228.601 175.567 C 229.207 175.567 229.812 175.567 230.417 175.567 C 231.194 175.575 231.969 175.575 232.745 175.567 C 233.343 175.567 233.94 175.567 234.536 175.567 C 234.822 175.567 235.108 175.567 235.395 175.567 C 235.795 175.567 236.193 175.567 236.594 175.575 C 236.712 175.567 236.831 175.567 236.952 175.567 C 237.591 175.575 238.026 175.611 238.54 176.037 C 238.862 176.594 238.968 176.884 238.882 177.513 C 238.642 178.056 238.486 178.222 237.994 178.533 C 237.569 178.612 237.153 178.605 236.723 178.599 C 236.596 178.605 236.469 178.605 236.339 178.605 C 235.92 178.612 235.502 178.605 235.082 178.605 C 234.792 178.605 234.5 178.612 234.209 178.612 C 233.597 178.612 232.988 178.612 232.376 178.612 C 231.595 178.605 230.813 178.612 230.03 178.612 C 229.429 178.62 228.827 178.62 228.226 178.62 C 227.937 178.62 227.649 178.62 227.359 178.62 C 226.957 178.62 226.554 178.62 226.15 178.62 C 226.031 178.62 225.912 178.62 225.791 178.62 C 225.211 178.612 224.839 178.569 224.38 178.2 C 223.973 177.766 223.911 177.571 223.882 176.999 C 223.928 176.478 224.181 176.182 224.527 175.82 C 225.04 175.524 225.527 175.567 226.107 175.575 Z" fill="#000000" style="" transform="matrix(1, 0, 0, 1, 1.4210854715202004e-14, 0)"/>
  <path d="M 226.213 155.832 C 226.338 155.832 226.461 155.832 226.59 155.832 C 227.001 155.826 227.412 155.826 227.824 155.826 C 227.962 155.826 228.103 155.826 228.248 155.826 C 228.992 155.819 229.736 155.819 230.478 155.819 C 231.246 155.811 232.014 155.804 232.78 155.804 C 233.371 155.796 233.962 155.796 234.552 155.796 C 234.836 155.796 235.118 155.796 235.402 155.79 C 235.798 155.79 236.193 155.79 236.589 155.79 C 236.764 155.79 236.764 155.79 236.943 155.79 C 237.675 155.79 238.096 155.92 238.676 156.405 C 238.94 156.889 238.981 157.367 238.873 157.894 C 238.617 158.307 238.401 158.502 237.994 158.763 C 237.568 158.843 237.15 158.835 236.718 158.828 C 236.527 158.828 236.527 158.828 236.333 158.828 C 235.913 158.828 235.493 158.828 235.073 158.828 C 234.781 158.828 234.489 158.828 234.197 158.828 C 233.586 158.828 232.973 158.828 232.362 158.82 C 231.577 158.813 230.793 158.813 230.008 158.813 C 229.406 158.813 228.803 158.813 228.2 158.806 C 227.91 158.806 227.621 158.806 227.331 158.806 C 226.927 158.806 226.523 158.806 226.12 158.799 C 226 158.799 225.879 158.799 225.756 158.799 C 225.591 158.799 225.591 158.799 225.423 158.799 C 225.327 158.799 225.232 158.792 225.133 158.792 C 224.808 158.748 224.594 158.654 224.316 158.481 C 223.993 158.01 223.871 157.656 223.914 157.084 C 224.048 156.527 224.139 156.325 224.589 155.999 C 225.13 155.811 225.649 155.832 226.213 155.832 Z" fill="#000000" style="" transform="matrix(1, 0, 0, 1, 1.4210854715202004e-14, 0)"/>
  <path d="M 225.977 185.558 C 226.171 185.558 226.171 185.558 226.37 185.55 C 226.801 185.55 227.231 185.55 227.661 185.543 C 227.807 185.543 227.954 185.543 228.106 185.543 C 228.881 185.535 229.659 185.535 230.436 185.528 C 231.239 185.528 232.042 185.521 232.845 185.514 C 233.463 185.507 234.078 185.507 234.695 185.507 C 234.992 185.507 235.288 185.507 235.583 185.507 C 235.997 185.499 236.412 185.499 236.826 185.499 C 236.949 185.499 237.071 185.492 237.197 185.492 C 237.803 185.499 238.051 185.514 238.544 185.905 C 238.862 186.332 238.951 186.563 238.951 187.106 C 238.751 187.706 238.657 187.988 238.13 188.343 C 237.872 188.379 237.872 188.379 237.577 188.379 C 237.464 188.385 237.352 188.385 237.236 188.385 C 237.112 188.385 236.99 188.385 236.863 188.385 C 236.735 188.393 236.604 188.393 236.471 188.393 C 236.041 188.393 235.611 188.4 235.181 188.4 C 234.884 188.4 234.585 188.4 234.288 188.4 C 233.661 188.407 233.035 188.407 232.409 188.407 C 231.608 188.407 230.805 188.407 230.004 188.415 C 229.389 188.422 228.771 188.422 228.156 188.422 C 227.859 188.422 227.564 188.422 227.268 188.429 C 226.854 188.429 226.441 188.429 226.027 188.429 C 225.844 188.429 225.844 188.429 225.656 188.436 C 225.047 188.429 224.804 188.407 224.312 188.017 C 223.917 187.489 223.842 187.207 223.906 186.548 C 224.473 185.528 224.887 185.558 225.977 185.558 Z" fill="#000000" style="" transform="matrix(1, 0, 0, 1, 1.4210854715202004e-14, 0)"/>
  <path d="M 219.392 175.77 C 219.775 176.066 219.907 176.269 219.99 176.753 C 220.018 177.288 219.972 177.636 219.742 178.113 C 219.243 178.504 218.787 178.569 218.162 178.533 C 217.66 178.316 217.507 178.157 217.203 177.701 C 217.104 177.072 217.123 176.594 217.452 176.037 C 218.035 175.502 218.667 175.575 219.392 175.77 Z" fill="#000000" style="" transform="matrix(1, 0, 0, 1, 1.4210854715202004e-14, 0)"/>
  <path d="M 218.982 155.855 C 219.745 156.295 219.745 156.295 219.94 156.686 C 220.016 157.323 220.025 157.786 219.683 158.343 C 219.234 158.777 218.918 158.806 218.303 158.799 C 217.869 158.741 217.639 158.517 217.341 158.213 C 217.104 157.728 217.121 157.215 217.203 156.686 C 217.739 156.007 218.124 155.775 218.982 155.855 Z" fill="#000000" style="" transform="matrix(1, 0, 0, 1, 1.4210854715202004e-14, 0)"/>
  <path d="M 235.121 201.899 C 235.548 202.152 235.548 202.152 235.804 202.586 C 235.94 203.28 235.911 203.787 235.548 204.401 C 234.944 204.764 234.44 204.8 233.753 204.662 C 233.326 204.401 233.326 204.401 233.069 203.967 C 232.933 203.273 232.963 202.766 233.326 202.152 C 233.93 201.783 234.434 201.761 235.121 201.899 Z" fill="#000000" style="" transform="matrix(1, 0, 0, 1, 1.4210854715202004e-14, 0)"/>
  <path d="M 219.255 185.579 C 219.683 185.839 219.683 185.839 219.94 186.273 C 220.074 186.968 220.046 187.474 219.683 188.089 C 219.078 188.451 218.574 188.48 217.888 188.343 C 217.459 188.089 217.459 188.089 217.203 187.655 C 217.068 186.96 217.098 186.454 217.459 185.839 C 218.064 185.471 218.568 185.442 219.255 185.579 Z" fill="#000000" style="" transform="matrix(1, 0, 0, 1, 1.4210854715202004e-14, 0)"/>
  <path d="M 219.118 165.808 C 219.718 166.134 219.718 166.134 219.94 166.503 C 220.049 166.988 220.044 167.4 219.94 167.885 C 219.615 168.355 219.396 168.521 218.863 168.716 C 218.311 168.716 217.96 168.557 217.478 168.297 C 217.09 167.711 217.083 167.191 217.203 166.503 C 217.626 165.787 218.364 165.628 219.118 165.808 Z" fill="#000000" style="" transform="matrix(1, 0, 0, 1, 1.4210854715202004e-14, 0)"/>
  <path d="M 158.883 142.208 C 159.213 142.732 159.543 143.255 159.883 143.794 C 158.445 144.414 158.445 144.414 155.883 144.985 C 152.811 145.01 149.852 144.905 146.883 144.588 C 146.553 144.326 146.223 144.064 145.883 143.794 C 146.486 143.78 147.089 143.765 147.711 143.75 C 153.876 143.571 153.876 143.571 158.883 142.208 Z" fill="#000000" style="transform-origin: 18.296892px 155.375012px;" transform="matrix(0.882947802544, 0.46947106719, -0.46947106719, 0.882947802544, -0.000001917681, -0.000070819674)"/>
  <path d="M 153.35 208.156 C 153.685 208.943 154.02 209.731 154.365 210.543 C 152.906 211.475 152.906 211.475 150.307 212.332 C 147.19 212.371 144.188 212.214 141.176 211.735 C 140.841 211.342 140.507 210.948 140.162 210.543 C 140.773 210.52 141.385 210.498 142.016 210.475 C 148.271 210.207 148.271 210.207 153.35 208.156 Z" fill="#000000" style="transform-origin: 147.263493px 210.246825px;" transform="matrix(0.927184104919, 0.374607056379, -0.374607056379, 0.927184104919, 0.000010544967, 0.000016054431)"/>
</svg>